%TF.GenerationSoftware,KiCad,Pcbnew,10.0.5*%
%TF.CreationDate,2026-10-07T21:15:59+05:30*%
%TF.ProjectId,LineFollower,4c696e65-466f-46c6-9c6f-7765722e6b69,rev?*%
%TF.SameCoordinates,Original*%
%TF.FileFunction,Soldermask,Bot*%
%TF.FilePolarity,Negative*%
%FSLAX46Y46*%
G04 Gerber Fmt 4.6, Leading zero omitted, Abs format (unit mm)*
G04 Created by KiCad (PCBNEW 10.0.5) date 2026-10-07 21:15:59*
%MOMM*%
%LPD*%
G01*
G04 APERTURE LIST*
%ADD10R,1.700000X1.700000*%
%ADD11C,1.700000*%
%ADD12R,1.800000X1.800000*%
%ADD13C,1.800000*%
G04 APERTURE END LIST*
D10*
%TO.C,J1*%
X103750000Y-71240000D03*
D11*
X106290000Y-71240000D03*
X108830000Y-71240000D03*
X111370000Y-71240000D03*
X113910000Y-71240000D03*
X116450000Y-71240000D03*
X118990000Y-71240000D03*
%TD*%
D12*
%TO.C,D13*%
X160480000Y-55080000D03*
D13*
X163020000Y-55080000D03*
%TD*%
D12*
%TO.C,D14*%
X170480000Y-70080000D03*
D13*
X173020000Y-70080000D03*
%TD*%
D12*
%TO.C,D10*%
X132860000Y-35080000D03*
D13*
X135400000Y-35080000D03*
%TD*%
D12*
%TO.C,L7*%
X105240000Y-30000000D03*
D13*
X107780000Y-30000000D03*
%TD*%
D12*
%TO.C,L1*%
X50000000Y-65000000D03*
D13*
X52540000Y-65000000D03*
%TD*%
D12*
%TO.C,L2*%
X60000000Y-50000000D03*
D13*
X62540000Y-50000000D03*
%TD*%
D12*
%TO.C,L10*%
X132860000Y-30000000D03*
D13*
X135400000Y-30000000D03*
%TD*%
D12*
%TO.C,L11*%
X140480000Y-30000000D03*
D13*
X143020000Y-30000000D03*
%TD*%
D12*
%TO.C,D11*%
X140480000Y-35080000D03*
D13*
X143020000Y-35080000D03*
%TD*%
D12*
%TO.C,L12*%
X150480000Y-40000000D03*
D13*
X153020000Y-40000000D03*
%TD*%
D12*
%TO.C,L4*%
X80000000Y-30000000D03*
D13*
X82540000Y-30000000D03*
%TD*%
D12*
%TO.C,D9*%
X122860000Y-35080000D03*
D13*
X125400000Y-35080000D03*
%TD*%
D12*
%TO.C,L14*%
X170480000Y-65000000D03*
D13*
X173020000Y-65000000D03*
%TD*%
D12*
%TO.C,D12*%
X150480000Y-45080000D03*
D13*
X153020000Y-45080000D03*
%TD*%
D12*
%TO.C,L13*%
X160480000Y-50000000D03*
D13*
X163020000Y-50000000D03*
%TD*%
D12*
%TO.C,D6*%
X97620000Y-35080000D03*
D13*
X100160000Y-35080000D03*
%TD*%
D12*
%TO.C,L5*%
X87620000Y-30000000D03*
D13*
X90160000Y-30000000D03*
%TD*%
D12*
%TO.C,L6*%
X97620000Y-30000000D03*
D13*
X100160000Y-30000000D03*
%TD*%
D12*
%TO.C,D4*%
X80000000Y-35080000D03*
D13*
X82540000Y-35080000D03*
%TD*%
D12*
%TO.C,D1*%
X50000000Y-70080000D03*
D13*
X52540000Y-70080000D03*
%TD*%
D12*
%TO.C,D3*%
X70000000Y-45080000D03*
D13*
X72540000Y-45080000D03*
%TD*%
D12*
%TO.C,D5*%
X87620000Y-35080000D03*
D13*
X90160000Y-35080000D03*
%TD*%
D12*
%TO.C,L3*%
X70000000Y-40000000D03*
D13*
X72540000Y-40000000D03*
%TD*%
D12*
%TO.C,D7*%
X105240000Y-35080000D03*
D13*
X107780000Y-35080000D03*
%TD*%
D12*
%TO.C,L8*%
X115240000Y-30000000D03*
D13*
X117780000Y-30000000D03*
%TD*%
D12*
%TO.C,D8*%
X115240000Y-35080000D03*
D13*
X117780000Y-35080000D03*
%TD*%
D12*
%TO.C,L9*%
X122860000Y-30000000D03*
D13*
X125400000Y-30000000D03*
%TD*%
D12*
%TO.C,D2*%
X60000000Y-55080000D03*
D13*
X62540000Y-55080000D03*
%TD*%
M02*
