%TF.GenerationSoftware,KiCad,Pcbnew,10.0.5*%
%TF.CreationDate,2026-10-07T21:15:59+05:30*%
%TF.ProjectId,LineFollower,4c696e65-466f-46c6-9c6f-7765722e6b69,rev?*%
%TF.SameCoordinates,Original*%
%TF.FileFunction,Profile,NP*%
%FSLAX46Y46*%
G04 Gerber Fmt 4.6, Leading zero omitted, Abs format (unit mm)*
G04 Created by KiCad (PCBNEW 10.0.5) date 2026-10-07 21:15:59*
%MOMM*%
%LPD*%
G01*
G04 APERTURE LIST*
%TA.AperFunction,Profile*%
%ADD10C,0.050000*%
%TD*%
G04 APERTURE END LIST*
D10*
X46953707Y-75906701D02*
X47980742Y-57347998D01*
X47980742Y-57347998D02*
G75*
G02*
X48231410Y-56739382I998458J-55302D01*
G01*
X48231386Y-56739360D02*
X75741067Y-25751669D01*
X48387098Y-76862426D02*
G75*
G02*
X46953778Y-75906705I-434898J900426D01*
G01*
X60787946Y-70872929D02*
X48387098Y-76862426D01*
X61353027Y-67959631D02*
X61353027Y-69972459D01*
X61353027Y-67959631D02*
G75*
G02*
X61582062Y-67322732I999973J31D01*
G01*
X61353027Y-69972459D02*
G75*
G02*
X60787959Y-70872955I-999827J-141D01*
G01*
X75741067Y-25751669D02*
G75*
G02*
X76388036Y-25420704I747833J-664031D01*
G01*
X76388032Y-25420661D02*
X111409094Y-21870230D01*
X79690033Y-45403109D02*
X61582073Y-67322741D01*
X79690033Y-45403109D02*
G75*
G02*
X80460987Y-45039990I770967J-636891D01*
G01*
X89555293Y-45040000D02*
X80460987Y-45040000D01*
X89555293Y-45040000D02*
G75*
G02*
X90286529Y-45357868I7J-1000000D01*
G01*
X89990000Y-77726914D02*
G75*
G02*
X90123003Y-77228586I1000000J14D01*
G01*
X89990000Y-79960000D02*
X89990000Y-77726914D01*
X90123009Y-77228589D02*
X101151935Y-58040362D01*
X90990000Y-80960000D02*
G75*
G02*
X89990000Y-79960000I0J1000000D01*
G01*
X101030000Y-77460000D02*
G75*
G02*
X97990000Y-77460000I-1520000J0D01*
G01*
X97990000Y-77460000D02*
G75*
G02*
X101030000Y-77460000I1520000J0D01*
G01*
X101016177Y-56859909D02*
X90286526Y-45357871D01*
X101016177Y-56859909D02*
G75*
G02*
X101151892Y-58040337I-731277J-682091D01*
G01*
X111409094Y-21870230D02*
G75*
G02*
X111610905Y-21870230I100906J-994870D01*
G01*
X113110000Y-25460000D02*
G75*
G02*
X109910000Y-25460000I-1600000J0D01*
G01*
X109910000Y-25460000D02*
G75*
G02*
X113110000Y-25460000I1600000J0D01*
G01*
X111610904Y-21870238D02*
X146602121Y-25420644D01*
X121833495Y-57988090D02*
G75*
G02*
X121957617Y-56875722I885605J464290D01*
G01*
X121833495Y-57988090D02*
X131925702Y-77241943D01*
X125030000Y-77460000D02*
G75*
G02*
X121990000Y-77460000I-1520000J0D01*
G01*
X121990000Y-77460000D02*
G75*
G02*
X125030000Y-77460000I1520000J0D01*
G01*
X131040000Y-80960000D02*
X90990000Y-80960000D01*
X131730525Y-45391904D02*
X121957638Y-56875740D01*
X131730525Y-45391904D02*
G75*
G02*
X132492084Y-45039988I761575J-648096D01*
G01*
X131925702Y-77241943D02*
G75*
G02*
X132040001Y-77706197I-885702J-464257D01*
G01*
X132040000Y-77706197D02*
X132040000Y-79960000D01*
X132040000Y-79960000D02*
G75*
G02*
X131040000Y-80960000I-1000000J0D01*
G01*
X141580431Y-45040000D02*
X132492084Y-45040000D01*
X141580431Y-45040000D02*
G75*
G02*
X142328404Y-45376256I-31J-1000100D01*
G01*
X146602121Y-25420644D02*
G75*
G02*
X147248888Y-25751507I-100921J-994856D01*
G01*
X147248884Y-25751510D02*
X174787651Y-56760890D01*
X161877367Y-67405982D02*
X142328396Y-45376263D01*
X161877367Y-67405982D02*
G75*
G02*
X162129388Y-68069720I-747967J-663718D01*
G01*
X162129402Y-70071560D02*
X162129402Y-68069720D01*
X162682714Y-70966250D02*
G75*
G02*
X162129436Y-70071560I446686J894650D01*
G01*
X174703312Y-76967719D02*
X162682714Y-70966250D01*
X174787651Y-56760890D02*
G75*
G02*
X175034186Y-57317957I-747751J-664010D01*
G01*
X175034205Y-57317955D02*
X176144263Y-67636674D01*
X176144263Y-67636674D02*
G75*
G02*
X176150004Y-67743634I-994663J-107026D01*
G01*
X176150000Y-67743634D02*
X176150000Y-76073029D01*
X176150000Y-76073029D02*
G75*
G02*
X174703324Y-76967696I-1000000J29D01*
G01*
M02*
