%TF.GenerationSoftware,KiCad,Pcbnew,10.0.5*%
%TF.CreationDate,2026-10-07T21:15:59+05:30*%
%TF.ProjectId,LineFollower,4c696e65-466f-46c6-9c6f-7765722e6b69,rev?*%
%TF.SameCoordinates,Original*%
%TF.FileFunction,Legend,Bot*%
%TF.FilePolarity,Positive*%
%FSLAX46Y46*%
G04 Gerber Fmt 4.6, Leading zero omitted, Abs format (unit mm)*
G04 Created by KiCad (PCBNEW 10.0.5) date 2026-10-07 21:15:59*
%MOMM*%
%LPD*%
G01*
G04 APERTURE LIST*
%ADD10C,0.150000*%
G04 APERTURE END LIST*
D10*
X104241792Y-73242390D02*
X104317982Y-73204295D01*
X104317982Y-73204295D02*
X104432268Y-73204295D01*
X104432268Y-73204295D02*
X104546554Y-73242390D01*
X104546554Y-73242390D02*
X104622744Y-73318580D01*
X104622744Y-73318580D02*
X104660839Y-73394771D01*
X104660839Y-73394771D02*
X104698935Y-73547152D01*
X104698935Y-73547152D02*
X104698935Y-73661438D01*
X104698935Y-73661438D02*
X104660839Y-73813819D01*
X104660839Y-73813819D02*
X104622744Y-73890009D01*
X104622744Y-73890009D02*
X104546554Y-73966200D01*
X104546554Y-73966200D02*
X104432268Y-74004295D01*
X104432268Y-74004295D02*
X104356077Y-74004295D01*
X104356077Y-74004295D02*
X104241792Y-73966200D01*
X104241792Y-73966200D02*
X104203696Y-73928104D01*
X104203696Y-73928104D02*
X104203696Y-73661438D01*
X104203696Y-73661438D02*
X104356077Y-73661438D01*
X103860839Y-74004295D02*
X103860839Y-73204295D01*
X103860839Y-73204295D02*
X103403696Y-74004295D01*
X103403696Y-74004295D02*
X103403696Y-73204295D01*
X103022744Y-74004295D02*
X103022744Y-73204295D01*
X103022744Y-73204295D02*
X102832268Y-73204295D01*
X102832268Y-73204295D02*
X102717982Y-73242390D01*
X102717982Y-73242390D02*
X102641792Y-73318580D01*
X102641792Y-73318580D02*
X102603697Y-73394771D01*
X102603697Y-73394771D02*
X102565601Y-73547152D01*
X102565601Y-73547152D02*
X102565601Y-73661438D01*
X102565601Y-73661438D02*
X102603697Y-73813819D01*
X102603697Y-73813819D02*
X102641792Y-73890009D01*
X102641792Y-73890009D02*
X102717982Y-73966200D01*
X102717982Y-73966200D02*
X102832268Y-74004295D01*
X102832268Y-74004295D02*
X103022744Y-74004295D01*
X106888935Y-73896200D02*
X106774649Y-73934295D01*
X106774649Y-73934295D02*
X106584173Y-73934295D01*
X106584173Y-73934295D02*
X106507982Y-73896200D01*
X106507982Y-73896200D02*
X106469887Y-73858104D01*
X106469887Y-73858104D02*
X106431792Y-73781914D01*
X106431792Y-73781914D02*
X106431792Y-73705723D01*
X106431792Y-73705723D02*
X106469887Y-73629533D01*
X106469887Y-73629533D02*
X106507982Y-73591438D01*
X106507982Y-73591438D02*
X106584173Y-73553342D01*
X106584173Y-73553342D02*
X106736554Y-73515247D01*
X106736554Y-73515247D02*
X106812744Y-73477152D01*
X106812744Y-73477152D02*
X106850839Y-73439057D01*
X106850839Y-73439057D02*
X106888935Y-73362866D01*
X106888935Y-73362866D02*
X106888935Y-73286676D01*
X106888935Y-73286676D02*
X106850839Y-73210485D01*
X106850839Y-73210485D02*
X106812744Y-73172390D01*
X106812744Y-73172390D02*
X106736554Y-73134295D01*
X106736554Y-73134295D02*
X106546077Y-73134295D01*
X106546077Y-73134295D02*
X106431792Y-73172390D01*
X105936553Y-73134295D02*
X105860363Y-73134295D01*
X105860363Y-73134295D02*
X105784172Y-73172390D01*
X105784172Y-73172390D02*
X105746077Y-73210485D01*
X105746077Y-73210485D02*
X105707982Y-73286676D01*
X105707982Y-73286676D02*
X105669887Y-73439057D01*
X105669887Y-73439057D02*
X105669887Y-73629533D01*
X105669887Y-73629533D02*
X105707982Y-73781914D01*
X105707982Y-73781914D02*
X105746077Y-73858104D01*
X105746077Y-73858104D02*
X105784172Y-73896200D01*
X105784172Y-73896200D02*
X105860363Y-73934295D01*
X105860363Y-73934295D02*
X105936553Y-73934295D01*
X105936553Y-73934295D02*
X106012744Y-73896200D01*
X106012744Y-73896200D02*
X106050839Y-73858104D01*
X106050839Y-73858104D02*
X106088934Y-73781914D01*
X106088934Y-73781914D02*
X106127030Y-73629533D01*
X106127030Y-73629533D02*
X106127030Y-73439057D01*
X106127030Y-73439057D02*
X106088934Y-73286676D01*
X106088934Y-73286676D02*
X106050839Y-73210485D01*
X106050839Y-73210485D02*
X106012744Y-73172390D01*
X106012744Y-73172390D02*
X105936553Y-73134295D01*
X109438935Y-73896200D02*
X109324649Y-73934295D01*
X109324649Y-73934295D02*
X109134173Y-73934295D01*
X109134173Y-73934295D02*
X109057982Y-73896200D01*
X109057982Y-73896200D02*
X109019887Y-73858104D01*
X109019887Y-73858104D02*
X108981792Y-73781914D01*
X108981792Y-73781914D02*
X108981792Y-73705723D01*
X108981792Y-73705723D02*
X109019887Y-73629533D01*
X109019887Y-73629533D02*
X109057982Y-73591438D01*
X109057982Y-73591438D02*
X109134173Y-73553342D01*
X109134173Y-73553342D02*
X109286554Y-73515247D01*
X109286554Y-73515247D02*
X109362744Y-73477152D01*
X109362744Y-73477152D02*
X109400839Y-73439057D01*
X109400839Y-73439057D02*
X109438935Y-73362866D01*
X109438935Y-73362866D02*
X109438935Y-73286676D01*
X109438935Y-73286676D02*
X109400839Y-73210485D01*
X109400839Y-73210485D02*
X109362744Y-73172390D01*
X109362744Y-73172390D02*
X109286554Y-73134295D01*
X109286554Y-73134295D02*
X109096077Y-73134295D01*
X109096077Y-73134295D02*
X108981792Y-73172390D01*
X108219887Y-73934295D02*
X108677030Y-73934295D01*
X108448458Y-73934295D02*
X108448458Y-73134295D01*
X108448458Y-73134295D02*
X108524649Y-73248580D01*
X108524649Y-73248580D02*
X108600839Y-73324771D01*
X108600839Y-73324771D02*
X108677030Y-73362866D01*
X111993696Y-73888104D02*
X112031792Y-73926200D01*
X112031792Y-73926200D02*
X112146077Y-73964295D01*
X112146077Y-73964295D02*
X112222268Y-73964295D01*
X112222268Y-73964295D02*
X112336554Y-73926200D01*
X112336554Y-73926200D02*
X112412744Y-73850009D01*
X112412744Y-73850009D02*
X112450839Y-73773819D01*
X112450839Y-73773819D02*
X112488935Y-73621438D01*
X112488935Y-73621438D02*
X112488935Y-73507152D01*
X112488935Y-73507152D02*
X112450839Y-73354771D01*
X112450839Y-73354771D02*
X112412744Y-73278580D01*
X112412744Y-73278580D02*
X112336554Y-73202390D01*
X112336554Y-73202390D02*
X112222268Y-73164295D01*
X112222268Y-73164295D02*
X112146077Y-73164295D01*
X112146077Y-73164295D02*
X112031792Y-73202390D01*
X112031792Y-73202390D02*
X111993696Y-73240485D01*
X111498458Y-73164295D02*
X111346077Y-73164295D01*
X111346077Y-73164295D02*
X111269887Y-73202390D01*
X111269887Y-73202390D02*
X111193696Y-73278580D01*
X111193696Y-73278580D02*
X111155601Y-73430961D01*
X111155601Y-73430961D02*
X111155601Y-73697628D01*
X111155601Y-73697628D02*
X111193696Y-73850009D01*
X111193696Y-73850009D02*
X111269887Y-73926200D01*
X111269887Y-73926200D02*
X111346077Y-73964295D01*
X111346077Y-73964295D02*
X111498458Y-73964295D01*
X111498458Y-73964295D02*
X111574649Y-73926200D01*
X111574649Y-73926200D02*
X111650839Y-73850009D01*
X111650839Y-73850009D02*
X111688935Y-73697628D01*
X111688935Y-73697628D02*
X111688935Y-73430961D01*
X111688935Y-73430961D02*
X111650839Y-73278580D01*
X111650839Y-73278580D02*
X111574649Y-73202390D01*
X111574649Y-73202390D02*
X111498458Y-73164295D01*
X110812744Y-73964295D02*
X110812744Y-73164295D01*
X110812744Y-73164295D02*
X110546078Y-73735723D01*
X110546078Y-73735723D02*
X110279411Y-73164295D01*
X110279411Y-73164295D02*
X110279411Y-73964295D01*
X114745125Y-73154295D02*
X114478458Y-73954295D01*
X114478458Y-73954295D02*
X114211792Y-73154295D01*
X113945125Y-73954295D02*
X113945125Y-73420961D01*
X113945125Y-73154295D02*
X113983221Y-73192390D01*
X113983221Y-73192390D02*
X113945125Y-73230485D01*
X113945125Y-73230485D02*
X113907030Y-73192390D01*
X113907030Y-73192390D02*
X113945125Y-73154295D01*
X113945125Y-73154295D02*
X113945125Y-73230485D01*
X113564173Y-73420961D02*
X113564173Y-73954295D01*
X113564173Y-73497152D02*
X113526078Y-73459057D01*
X113526078Y-73459057D02*
X113449888Y-73420961D01*
X113449888Y-73420961D02*
X113335602Y-73420961D01*
X113335602Y-73420961D02*
X113259411Y-73459057D01*
X113259411Y-73459057D02*
X113221316Y-73535247D01*
X113221316Y-73535247D02*
X113221316Y-73954295D01*
X117158935Y-73906200D02*
X117044649Y-73944295D01*
X117044649Y-73944295D02*
X116854173Y-73944295D01*
X116854173Y-73944295D02*
X116777982Y-73906200D01*
X116777982Y-73906200D02*
X116739887Y-73868104D01*
X116739887Y-73868104D02*
X116701792Y-73791914D01*
X116701792Y-73791914D02*
X116701792Y-73715723D01*
X116701792Y-73715723D02*
X116739887Y-73639533D01*
X116739887Y-73639533D02*
X116777982Y-73601438D01*
X116777982Y-73601438D02*
X116854173Y-73563342D01*
X116854173Y-73563342D02*
X117006554Y-73525247D01*
X117006554Y-73525247D02*
X117082744Y-73487152D01*
X117082744Y-73487152D02*
X117120839Y-73449057D01*
X117120839Y-73449057D02*
X117158935Y-73372866D01*
X117158935Y-73372866D02*
X117158935Y-73296676D01*
X117158935Y-73296676D02*
X117120839Y-73220485D01*
X117120839Y-73220485D02*
X117082744Y-73182390D01*
X117082744Y-73182390D02*
X117006554Y-73144295D01*
X117006554Y-73144295D02*
X116816077Y-73144295D01*
X116816077Y-73144295D02*
X116701792Y-73182390D01*
X116435125Y-73144295D02*
X115939887Y-73144295D01*
X115939887Y-73144295D02*
X116206553Y-73449057D01*
X116206553Y-73449057D02*
X116092268Y-73449057D01*
X116092268Y-73449057D02*
X116016077Y-73487152D01*
X116016077Y-73487152D02*
X115977982Y-73525247D01*
X115977982Y-73525247D02*
X115939887Y-73601438D01*
X115939887Y-73601438D02*
X115939887Y-73791914D01*
X115939887Y-73791914D02*
X115977982Y-73868104D01*
X115977982Y-73868104D02*
X116016077Y-73906200D01*
X116016077Y-73906200D02*
X116092268Y-73944295D01*
X116092268Y-73944295D02*
X116320839Y-73944295D01*
X116320839Y-73944295D02*
X116397030Y-73906200D01*
X116397030Y-73906200D02*
X116435125Y-73868104D01*
X119658935Y-73936200D02*
X119544649Y-73974295D01*
X119544649Y-73974295D02*
X119354173Y-73974295D01*
X119354173Y-73974295D02*
X119277982Y-73936200D01*
X119277982Y-73936200D02*
X119239887Y-73898104D01*
X119239887Y-73898104D02*
X119201792Y-73821914D01*
X119201792Y-73821914D02*
X119201792Y-73745723D01*
X119201792Y-73745723D02*
X119239887Y-73669533D01*
X119239887Y-73669533D02*
X119277982Y-73631438D01*
X119277982Y-73631438D02*
X119354173Y-73593342D01*
X119354173Y-73593342D02*
X119506554Y-73555247D01*
X119506554Y-73555247D02*
X119582744Y-73517152D01*
X119582744Y-73517152D02*
X119620839Y-73479057D01*
X119620839Y-73479057D02*
X119658935Y-73402866D01*
X119658935Y-73402866D02*
X119658935Y-73326676D01*
X119658935Y-73326676D02*
X119620839Y-73250485D01*
X119620839Y-73250485D02*
X119582744Y-73212390D01*
X119582744Y-73212390D02*
X119506554Y-73174295D01*
X119506554Y-73174295D02*
X119316077Y-73174295D01*
X119316077Y-73174295D02*
X119201792Y-73212390D01*
X118935125Y-73174295D02*
X118439887Y-73174295D01*
X118439887Y-73174295D02*
X118706553Y-73479057D01*
X118706553Y-73479057D02*
X118592268Y-73479057D01*
X118592268Y-73479057D02*
X118516077Y-73517152D01*
X118516077Y-73517152D02*
X118477982Y-73555247D01*
X118477982Y-73555247D02*
X118439887Y-73631438D01*
X118439887Y-73631438D02*
X118439887Y-73821914D01*
X118439887Y-73821914D02*
X118477982Y-73898104D01*
X118477982Y-73898104D02*
X118516077Y-73936200D01*
X118516077Y-73936200D02*
X118592268Y-73974295D01*
X118592268Y-73974295D02*
X118820839Y-73974295D01*
X118820839Y-73974295D02*
X118897030Y-73936200D01*
X118897030Y-73936200D02*
X118935125Y-73898104D01*
M02*
