%TF.GenerationSoftware,KiCad,Pcbnew,10.0.5*%
%TF.CreationDate,2026-10-07T21:15:59+05:30*%
%TF.ProjectId,LineFollower,4c696e65-466f-46c6-9c6f-7765722e6b69,rev?*%
%TF.SameCoordinates,Original*%
%TF.FileFunction,Copper,L1,Top*%
%TF.FilePolarity,Positive*%
%FSLAX46Y46*%
G04 Gerber Fmt 4.6, Leading zero omitted, Abs format (unit mm)*
G04 Created by KiCad (PCBNEW 10.0.5) date 2026-10-07 21:15:59*
%MOMM*%
%LPD*%
G01*
G04 APERTURE LIST*
G04 Aperture macros list*
%AMRoundRect*
0 Rectangle with rounded corners*
0 $1 Rounding radius*
0 $2 $3 $4 $5 $6 $7 $8 $9 X,Y pos of 4 corners*
0 Add a 4 corners polygon primitive as box body*
4,1,4,$2,$3,$4,$5,$6,$7,$8,$9,$2,$3,0*
0 Add four circle primitives for the rounded corners*
1,1,$1+$1,$2,$3*
1,1,$1+$1,$4,$5*
1,1,$1+$1,$6,$7*
1,1,$1+$1,$8,$9*
0 Add four rect primitives between the rounded corners*
20,1,$1+$1,$2,$3,$4,$5,0*
20,1,$1+$1,$4,$5,$6,$7,0*
20,1,$1+$1,$6,$7,$8,$9,0*
20,1,$1+$1,$8,$9,$2,$3,0*%
G04 Aperture macros list end*
%TA.AperFunction,ComponentPad*%
%ADD10R,1.700000X1.700000*%
%TD*%
%TA.AperFunction,ComponentPad*%
%ADD11C,1.700000*%
%TD*%
%TA.AperFunction,ComponentPad*%
%ADD12R,1.800000X1.800000*%
%TD*%
%TA.AperFunction,ComponentPad*%
%ADD13C,1.800000*%
%TD*%
%TA.AperFunction,SMDPad,CuDef*%
%ADD14RoundRect,0.250000X-0.450000X0.350000X-0.450000X-0.350000X0.450000X-0.350000X0.450000X0.350000X0*%
%TD*%
%TA.AperFunction,SMDPad,CuDef*%
%ADD15RoundRect,0.250000X-0.350000X-0.450000X0.350000X-0.450000X0.350000X0.450000X-0.350000X0.450000X0*%
%TD*%
%TA.AperFunction,SMDPad,CuDef*%
%ADD16RoundRect,0.250000X-0.337500X-0.475000X0.337500X-0.475000X0.337500X0.475000X-0.337500X0.475000X0*%
%TD*%
%TA.AperFunction,SMDPad,CuDef*%
%ADD17RoundRect,0.250000X0.450000X-0.350000X0.450000X0.350000X-0.450000X0.350000X-0.450000X-0.350000X0*%
%TD*%
%TA.AperFunction,SMDPad,CuDef*%
%ADD18RoundRect,0.250000X0.350000X0.450000X-0.350000X0.450000X-0.350000X-0.450000X0.350000X-0.450000X0*%
%TD*%
%TA.AperFunction,SMDPad,CuDef*%
%ADD19C,2.000000*%
%TD*%
%TA.AperFunction,SMDPad,CuDef*%
%ADD20RoundRect,0.150000X-0.875000X-0.150000X0.875000X-0.150000X0.875000X0.150000X-0.875000X0.150000X0*%
%TD*%
%TA.AperFunction,ViaPad*%
%ADD21C,0.800000*%
%TD*%
%TA.AperFunction,Conductor*%
%ADD22C,0.500000*%
%TD*%
%TA.AperFunction,Conductor*%
%ADD23C,0.300000*%
%TD*%
G04 APERTURE END LIST*
D10*
%TO.P,J1,1,Pin_1_1*%
%TO.N,GND*%
X103750000Y-71240000D03*
D11*
%TO.P,J1,2,Pin_2_2*%
%TO.N,/s0*%
X106290000Y-71240000D03*
%TO.P,J1,3,Pin_3_3*%
%TO.N,/s1*%
X108830000Y-71240000D03*
%TO.P,J1,4,Pin_4_4*%
%TO.N,/com*%
X111370000Y-71240000D03*
%TO.P,J1,5,Pin_5_5*%
%TO.N,+3.3V*%
X113910000Y-71240000D03*
%TO.P,J1,6,Pin_6_6*%
%TO.N,/s3*%
X116450000Y-71240000D03*
%TO.P,J1,7,Pin_7_7*%
%TO.N,/s2*%
X118990000Y-71240000D03*
%TD*%
D12*
%TO.P,D13,1,K_1*%
%TO.N,/19*%
X160480000Y-55080000D03*
D13*
%TO.P,D13,2,A_2*%
%TO.N,GND*%
X163020000Y-55080000D03*
%TD*%
D14*
%TO.P,RL10,1*%
%TO.N,+3.3V*%
X137940000Y-28000000D03*
%TO.P,RL10,2*%
%TO.N,Net-(L10-A)*%
X137940000Y-30000000D03*
%TD*%
%TO.P,RL4,1*%
%TO.N,+3.3V*%
X77000000Y-28000000D03*
%TO.P,RL4,2*%
%TO.N,Net-(L4-A)*%
X77000000Y-30000000D03*
%TD*%
%TO.P,RL9,1*%
%TO.N,+3.3V*%
X128960000Y-28000000D03*
%TO.P,RL9,2*%
%TO.N,Net-(L9-A)*%
X128960000Y-30000000D03*
%TD*%
D15*
%TO.P,RL3,1*%
%TO.N,+3.3V*%
X68750000Y-36590000D03*
%TO.P,RL3,2*%
%TO.N,Net-(L3-A)*%
X70750000Y-36590000D03*
%TD*%
D12*
%TO.P,D14,1,K_1*%
%TO.N,/18*%
X170480000Y-70080000D03*
D13*
%TO.P,D14,2,A_2*%
%TO.N,GND*%
X173020000Y-70080000D03*
%TD*%
D14*
%TO.P,RL11,1*%
%TO.N,+3.3V*%
X145350000Y-28000000D03*
%TO.P,RL11,2*%
%TO.N,Net-(L11-A)*%
X145350000Y-30000000D03*
%TD*%
D15*
%TO.P,RL14,1*%
%TO.N,+3.3V*%
X169900000Y-61300000D03*
%TO.P,RL14,2*%
%TO.N,Net-(L14-A)*%
X171900000Y-61300000D03*
%TD*%
D16*
%TO.P,C2,1*%
%TO.N,+3.3V*%
X114852500Y-42830000D03*
%TO.P,C2,2*%
%TO.N,GND*%
X116927500Y-42830000D03*
%TD*%
D17*
%TO.P,RD10,1*%
%TO.N,/22*%
X129130000Y-35850000D03*
%TO.P,RD10,2*%
%TO.N,+3.3V*%
X129130000Y-33850000D03*
%TD*%
D12*
%TO.P,D10,1,K_1*%
%TO.N,/22*%
X132860000Y-35080000D03*
D13*
%TO.P,D10,2,A_2*%
%TO.N,GND*%
X135400000Y-35080000D03*
%TD*%
D15*
%TO.P,RD13,1*%
%TO.N,/19*%
X165440000Y-53490000D03*
%TO.P,RD13,2*%
%TO.N,+3.3V*%
X167440000Y-53490000D03*
%TD*%
D12*
%TO.P,L7,1,K_1*%
%TO.N,GND*%
X105240000Y-30000000D03*
D13*
%TO.P,L7,2,A_2*%
%TO.N,Net-(L7-A)*%
X107780000Y-30000000D03*
%TD*%
D17*
%TO.P,RD11,1*%
%TO.N,/21*%
X138120000Y-36090000D03*
%TO.P,RD11,2*%
%TO.N,+3.3V*%
X138120000Y-34090000D03*
%TD*%
%TO.P,RD9,1*%
%TO.N,/23*%
X120280000Y-36020000D03*
%TO.P,RD9,2*%
%TO.N,+3.3V*%
X120280000Y-34020000D03*
%TD*%
D16*
%TO.P,C1,1*%
%TO.N,+3.3V*%
X111682500Y-63560000D03*
%TO.P,C1,2*%
%TO.N,GND*%
X113757500Y-63560000D03*
%TD*%
D18*
%TO.P,RL7,1*%
%TO.N,+3.3V*%
X112520000Y-29160000D03*
%TO.P,RL7,2*%
%TO.N,Net-(L7-A)*%
X110520000Y-29160000D03*
%TD*%
D15*
%TO.P,RD12,1*%
%TO.N,/20*%
X155460000Y-42170000D03*
%TO.P,RD12,2*%
%TO.N,+3.3V*%
X157460000Y-42170000D03*
%TD*%
D12*
%TO.P,L1,1,K_1*%
%TO.N,GND*%
X50000000Y-65000000D03*
D13*
%TO.P,L1,2,A_2*%
%TO.N,Net-(L1-A)*%
X52540000Y-65000000D03*
%TD*%
D12*
%TO.P,L2,1,K_1*%
%TO.N,GND*%
X60000000Y-50000000D03*
D13*
%TO.P,L2,2,A_2*%
%TO.N,Net-(L2-A)*%
X62540000Y-50000000D03*
%TD*%
D12*
%TO.P,L10,1,K_1*%
%TO.N,GND*%
X132860000Y-30000000D03*
D13*
%TO.P,L10,2,A_2*%
%TO.N,Net-(L10-A)*%
X135400000Y-30000000D03*
%TD*%
D18*
%TO.P,RL13,1*%
%TO.N,+3.3V*%
X162260000Y-46470000D03*
%TO.P,RL13,2*%
%TO.N,Net-(L13-A)*%
X160260000Y-46470000D03*
%TD*%
D12*
%TO.P,L11,1,K_1*%
%TO.N,GND*%
X140480000Y-30000000D03*
D13*
%TO.P,L11,2,A_2*%
%TO.N,Net-(L11-A)*%
X143020000Y-30000000D03*
%TD*%
D17*
%TO.P,RD8,1*%
%TO.N,/2*%
X111280000Y-35470000D03*
%TO.P,RD8,2*%
%TO.N,+3.3V*%
X111280000Y-33470000D03*
%TD*%
D14*
%TO.P,RL8,1*%
%TO.N,+3.3V*%
X120230000Y-28000000D03*
%TO.P,RL8,2*%
%TO.N,Net-(L8-A)*%
X120230000Y-30000000D03*
%TD*%
D18*
%TO.P,RL12,1*%
%TO.N,+3.3V*%
X153340000Y-36450000D03*
%TO.P,RL12,2*%
%TO.N,Net-(L12-A)*%
X151340000Y-36450000D03*
%TD*%
D12*
%TO.P,D11,1,K_1*%
%TO.N,/21*%
X140480000Y-35080000D03*
D13*
%TO.P,D11,2,A_2*%
%TO.N,GND*%
X143020000Y-35080000D03*
%TD*%
D14*
%TO.P,RL5,1*%
%TO.N,+3.3V*%
X85050000Y-28000000D03*
%TO.P,RL5,2*%
%TO.N,Net-(L5-A)*%
X85050000Y-30000000D03*
%TD*%
D15*
%TO.P,RD14,1*%
%TO.N,/18*%
X166280000Y-67730000D03*
%TO.P,RD14,2*%
%TO.N,+3.3V*%
X168280000Y-67730000D03*
%TD*%
D12*
%TO.P,L12,1,K_1*%
%TO.N,GND*%
X150480000Y-40000000D03*
D13*
%TO.P,L12,2,A_2*%
%TO.N,Net-(L12-A)*%
X153020000Y-40000000D03*
%TD*%
D12*
%TO.P,L4,1,K_1*%
%TO.N,GND*%
X80000000Y-30000000D03*
D13*
%TO.P,L4,2,A_2*%
%TO.N,Net-(L4-A)*%
X82540000Y-30000000D03*
%TD*%
D12*
%TO.P,D9,1,K_1*%
%TO.N,/23*%
X122860000Y-35080000D03*
D13*
%TO.P,D9,2,A_2*%
%TO.N,GND*%
X125400000Y-35080000D03*
%TD*%
D17*
%TO.P,RD1,1*%
%TO.N,/9*%
X55090000Y-67610000D03*
%TO.P,RD1,2*%
%TO.N,+3.3V*%
X55090000Y-65610000D03*
%TD*%
D12*
%TO.P,L14,1,K_1*%
%TO.N,GND*%
X170480000Y-65000000D03*
D13*
%TO.P,L14,2,A_2*%
%TO.N,Net-(L14-A)*%
X173020000Y-65000000D03*
%TD*%
D15*
%TO.P,RL2,1*%
%TO.N,+3.3V*%
X60200000Y-46600000D03*
%TO.P,RL2,2*%
%TO.N,Net-(L2-A)*%
X62200000Y-46600000D03*
%TD*%
D12*
%TO.P,D12,1,K_1*%
%TO.N,/20*%
X150480000Y-45080000D03*
D13*
%TO.P,D12,2,A_2*%
%TO.N,GND*%
X153020000Y-45080000D03*
%TD*%
D12*
%TO.P,L13,1,K_1*%
%TO.N,GND*%
X160480000Y-50000000D03*
D13*
%TO.P,L13,2,A_2*%
%TO.N,Net-(L13-A)*%
X163020000Y-50000000D03*
%TD*%
D19*
%TO.P,REF\u002A\u002A,1*%
%TO.N,+3.3V*%
X112967500Y-39220000D03*
%TO.P,REF\u002A\u002A,2*%
%TO.N,GND*%
X115892500Y-39220000D03*
%TD*%
D17*
%TO.P,RD3,1*%
%TO.N,/7*%
X67320000Y-42960000D03*
%TO.P,RD3,2*%
%TO.N,+3.3V*%
X67320000Y-40960000D03*
%TD*%
D12*
%TO.P,D6,1,K_1*%
%TO.N,/4*%
X97620000Y-35080000D03*
D13*
%TO.P,D6,2,A_2*%
%TO.N,GND*%
X100160000Y-35080000D03*
%TD*%
D12*
%TO.P,L5,1,K_1*%
%TO.N,GND*%
X87620000Y-30000000D03*
D13*
%TO.P,L5,2,A_2*%
%TO.N,Net-(L5-A)*%
X90160000Y-30000000D03*
%TD*%
D17*
%TO.P,RD5,1*%
%TO.N,/5*%
X85100000Y-35380000D03*
%TO.P,RD5,2*%
%TO.N,+3.3V*%
X85100000Y-33380000D03*
%TD*%
D12*
%TO.P,L6,1,K_1*%
%TO.N,GND*%
X97620000Y-30000000D03*
D13*
%TO.P,L6,2,A_2*%
%TO.N,Net-(L6-A)*%
X100160000Y-30000000D03*
%TD*%
D12*
%TO.P,D4,1,K_1*%
%TO.N,/6*%
X80000000Y-35080000D03*
D13*
%TO.P,D4,2,A_2*%
%TO.N,GND*%
X82540000Y-35080000D03*
%TD*%
D12*
%TO.P,D1,1,K_1*%
%TO.N,/9*%
X50000000Y-70080000D03*
D13*
%TO.P,D1,2,A_2*%
%TO.N,GND*%
X52540000Y-70080000D03*
%TD*%
D17*
%TO.P,RD7,1*%
%TO.N,/3*%
X102760000Y-35480000D03*
%TO.P,RD7,2*%
%TO.N,+3.3V*%
X102760000Y-33480000D03*
%TD*%
D12*
%TO.P,D3,1,K_1*%
%TO.N,/7*%
X70000000Y-45080000D03*
D13*
%TO.P,D3,2,A_2*%
%TO.N,GND*%
X72540000Y-45080000D03*
%TD*%
D12*
%TO.P,D5,1,K_1*%
%TO.N,/5*%
X87620000Y-35080000D03*
D13*
%TO.P,D5,2,A_2*%
%TO.N,GND*%
X90160000Y-35080000D03*
%TD*%
D20*
%TO.P,U1,1,COM_1*%
%TO.N,/com*%
X106860000Y-45647500D03*
%TO.P,U1,2,I7_2*%
%TO.N,unconnected-(U1-I7-Pad2)*%
X106860000Y-46917500D03*
%TO.P,U1,3,I6_3*%
%TO.N,/3*%
X106860000Y-48187500D03*
%TO.P,U1,4,I5_4*%
%TO.N,/4*%
X106860000Y-49457500D03*
%TO.P,U1,5,I4_5*%
%TO.N,/5*%
X106860000Y-50727500D03*
%TO.P,U1,6,I3_6*%
%TO.N,/6*%
X106860000Y-51997500D03*
%TO.P,U1,7,I2_7*%
%TO.N,/7*%
X106860000Y-53267500D03*
%TO.P,U1,8,I1_8*%
%TO.N,/8*%
X106860000Y-54537500D03*
%TO.P,U1,9,I0_9*%
%TO.N,/9*%
X106860000Y-55807500D03*
%TO.P,U1,10,S0_10*%
%TO.N,/s0*%
X106860000Y-57077500D03*
%TO.P,U1,11,S1_11*%
%TO.N,/s1*%
X106860000Y-58347500D03*
%TO.P,U1,12,GND_12*%
%TO.N,GND*%
X106860000Y-59617500D03*
%TO.P,U1,13,S3_13*%
%TO.N,/s3*%
X116160000Y-59617500D03*
%TO.P,U1,14,S2_14*%
%TO.N,/s2*%
X116160000Y-58347500D03*
%TO.P,U1,15,~{E}_15*%
%TO.N,GND*%
X116160000Y-57077500D03*
%TO.P,U1,16,I15_16*%
%TO.N,unconnected-(U1-I15-Pad16)*%
X116160000Y-55807500D03*
%TO.P,U1,17,I14_17*%
%TO.N,/18*%
X116160000Y-54537500D03*
%TO.P,U1,18,I13_18*%
%TO.N,/19*%
X116160000Y-53267500D03*
%TO.P,U1,19,I12_19*%
%TO.N,/20*%
X116160000Y-51997500D03*
%TO.P,U1,20,I11_20*%
%TO.N,/21*%
X116160000Y-50727500D03*
%TO.P,U1,21,I10_21*%
%TO.N,/22*%
X116160000Y-49457500D03*
%TO.P,U1,22,I9_22*%
%TO.N,/23*%
X116160000Y-48187500D03*
%TO.P,U1,23,I8_23*%
%TO.N,/2*%
X116160000Y-46917500D03*
%TO.P,U1,24,VCC_24*%
%TO.N,+3.3V*%
X116160000Y-45647500D03*
%TD*%
D12*
%TO.P,L3,1,K_1*%
%TO.N,GND*%
X70000000Y-40000000D03*
D13*
%TO.P,L3,2,A_2*%
%TO.N,Net-(L3-A)*%
X72540000Y-40000000D03*
%TD*%
D18*
%TO.P,RL1,1*%
%TO.N,+3.3V*%
X54650000Y-61490000D03*
%TO.P,RL1,2*%
%TO.N,Net-(L1-A)*%
X52650000Y-61490000D03*
%TD*%
D12*
%TO.P,D7,1,K_1*%
%TO.N,/3*%
X105240000Y-35080000D03*
D13*
%TO.P,D7,2,A_2*%
%TO.N,GND*%
X107780000Y-35080000D03*
%TD*%
D17*
%TO.P,RD6,1*%
%TO.N,/4*%
X93550000Y-35440000D03*
%TO.P,RD6,2*%
%TO.N,+3.3V*%
X93550000Y-33440000D03*
%TD*%
%TO.P,RD4,1*%
%TO.N,/6*%
X76900000Y-35550000D03*
%TO.P,RD4,2*%
%TO.N,+3.3V*%
X76900000Y-33550000D03*
%TD*%
D19*
%TO.P,REF\u002A\u002A,1*%
%TO.N,+3.3V*%
X111677500Y-66400000D03*
%TO.P,REF\u002A\u002A,2*%
%TO.N,GND*%
X114602500Y-66400000D03*
%TD*%
D12*
%TO.P,L8,1,K_1*%
%TO.N,GND*%
X115240000Y-30000000D03*
D13*
%TO.P,L8,2,A_2*%
%TO.N,Net-(L8-A)*%
X117780000Y-30000000D03*
%TD*%
D17*
%TO.P,RD2,1*%
%TO.N,/8*%
X57280000Y-54170000D03*
%TO.P,RD2,2*%
%TO.N,+3.3V*%
X57280000Y-52170000D03*
%TD*%
D14*
%TO.P,RL6,1*%
%TO.N,+3.3V*%
X102660000Y-28000000D03*
%TO.P,RL6,2*%
%TO.N,Net-(L6-A)*%
X102660000Y-30000000D03*
%TD*%
D12*
%TO.P,D8,1,K_1*%
%TO.N,/2*%
X115240000Y-35080000D03*
D13*
%TO.P,D8,2,A_2*%
%TO.N,GND*%
X117780000Y-35080000D03*
%TD*%
D12*
%TO.P,L9,1,K_1*%
%TO.N,GND*%
X122860000Y-30000000D03*
D13*
%TO.P,L9,2,A_2*%
%TO.N,Net-(L9-A)*%
X125400000Y-30000000D03*
%TD*%
D12*
%TO.P,D2,1,K_1*%
%TO.N,/8*%
X60000000Y-55080000D03*
D13*
%TO.P,D2,2,A_2*%
%TO.N,GND*%
X62540000Y-55080000D03*
%TD*%
D21*
%TO.N,GND*%
X156140000Y-49820000D03*
X164740000Y-60380000D03*
X67250000Y-50260000D03*
X139910000Y-39470000D03*
X114510000Y-64850000D03*
X105770000Y-40560000D03*
X123110000Y-67550000D03*
X57590000Y-60340000D03*
X93950000Y-29980000D03*
X100130000Y-67440000D03*
X118410000Y-57070000D03*
X117580000Y-40930000D03*
X80680000Y-39570000D03*
X106890000Y-60790000D03*
X123750000Y-26280000D03*
X123800000Y-40460000D03*
X128980000Y-31850000D03*
%TD*%
%TO.N,GND*%
D22*
X106890000Y-59647500D02*
X106860000Y-59617500D01*
X116927500Y-41582500D02*
X117580000Y-40930000D01*
X115892500Y-39242500D02*
X117580000Y-40930000D01*
X115892500Y-39220000D02*
X115892500Y-39242500D01*
X116160000Y-57077500D02*
X118402500Y-57077500D01*
X113757500Y-64097500D02*
X114510000Y-64850000D01*
X116927500Y-42830000D02*
X116927500Y-41582500D01*
X118402500Y-57077500D02*
X118410000Y-57070000D01*
X106890000Y-60790000D02*
X106890000Y-59647500D01*
X113757500Y-63560000D02*
X113757500Y-64097500D01*
X114510000Y-64850000D02*
X114602500Y-64942500D01*
X114602500Y-64942500D02*
X114602500Y-66400000D01*
%TO.N,/s0*%
D23*
X105440000Y-70390000D02*
X105440000Y-58031238D01*
X106290000Y-71240000D02*
X105440000Y-70390000D01*
X106393738Y-57077500D02*
X106860000Y-57077500D01*
X105440000Y-58031238D02*
X106393738Y-57077500D01*
%TO.N,/s1*%
X108830000Y-59851238D02*
X107326262Y-58347500D01*
X107326262Y-58347500D02*
X106860000Y-58347500D01*
X108830000Y-71240000D02*
X108830000Y-59851238D01*
%TO.N,/com*%
X111370000Y-71240000D02*
X109330000Y-69200000D01*
X109330000Y-47651238D02*
X107326262Y-45647500D01*
X109330000Y-69200000D02*
X109330000Y-47651238D01*
X107326262Y-45647500D02*
X106860000Y-45647500D01*
%TO.N,+3.3V*%
D22*
X120570000Y-33730000D02*
X120280000Y-34020000D01*
X112520000Y-29160000D02*
X111360000Y-28000000D01*
X129010000Y-33730000D02*
X120570000Y-33730000D01*
X57280000Y-49520000D02*
X60200000Y-46600000D01*
X114497500Y-42465000D02*
X114872500Y-42840000D01*
X112967500Y-39220000D02*
X112967500Y-40945000D01*
X111677500Y-69007500D02*
X111677500Y-66400000D01*
X157960000Y-42170000D02*
X157460000Y-42170000D01*
X54650000Y-54800000D02*
X57280000Y-52170000D01*
X111682500Y-63560000D02*
X110130000Y-62007500D01*
X110130000Y-34620000D02*
X111280000Y-33470000D01*
X68750000Y-36250000D02*
X68750000Y-36590000D01*
X55090000Y-61930000D02*
X54650000Y-61490000D01*
X111280000Y-30400000D02*
X112520000Y-29160000D01*
X137760000Y-33730000D02*
X129250000Y-33730000D01*
X167440000Y-53490000D02*
X167440000Y-51650000D01*
X67320000Y-38020000D02*
X68750000Y-36590000D01*
X85160000Y-33440000D02*
X85100000Y-33380000D01*
X111280000Y-33470000D02*
X119730000Y-33470000D01*
X85050000Y-28000000D02*
X102660000Y-28000000D01*
X57280000Y-52170000D02*
X57280000Y-49520000D01*
X129250000Y-33730000D02*
X129130000Y-33850000D01*
X114872500Y-44360000D02*
X116160000Y-45647500D01*
X111280000Y-33470000D02*
X111280000Y-30400000D01*
X120230000Y-28000000D02*
X128960000Y-28000000D01*
X119730000Y-33470000D02*
X120280000Y-34020000D01*
X110130000Y-40120000D02*
X110130000Y-39160000D01*
X153340000Y-36450000D02*
X153340000Y-35990000D01*
X67320000Y-40960000D02*
X67320000Y-38020000D01*
X93550000Y-33440000D02*
X85160000Y-33440000D01*
X102760000Y-33480000D02*
X103775000Y-32465000D01*
X153340000Y-38050000D02*
X157460000Y-42170000D01*
X169900000Y-61300000D02*
X168280000Y-62920000D01*
X168280000Y-62920000D02*
X168280000Y-67730000D01*
X153340000Y-35990000D02*
X145350000Y-28000000D01*
X65840000Y-40960000D02*
X67320000Y-40960000D01*
X110130000Y-39160000D02*
X110130000Y-34620000D01*
X77000000Y-28000000D02*
X68750000Y-36250000D01*
X112967500Y-39220000D02*
X110190000Y-39220000D01*
X112967500Y-40945000D02*
X114852500Y-42830000D01*
X167440000Y-58370000D02*
X167440000Y-53490000D01*
X145350000Y-28000000D02*
X137940000Y-28000000D01*
X103775000Y-32465000D02*
X103840000Y-32400000D01*
X169900000Y-60830000D02*
X167440000Y-58370000D01*
X111677500Y-66400000D02*
X111677500Y-64205000D01*
X169900000Y-61300000D02*
X169900000Y-60830000D01*
X110210000Y-32400000D02*
X111280000Y-33470000D01*
X138120000Y-34090000D02*
X137760000Y-33730000D01*
X137940000Y-28000000D02*
X128960000Y-28000000D01*
X102760000Y-33480000D02*
X93590000Y-33480000D01*
X112520000Y-29160000D02*
X113680000Y-28000000D01*
X111360000Y-28000000D02*
X102660000Y-28000000D01*
X114872500Y-42840000D02*
X114872500Y-44360000D01*
X54650000Y-61490000D02*
X54650000Y-54800000D01*
X93590000Y-33480000D02*
X93550000Y-33440000D01*
X77000000Y-28000000D02*
X85050000Y-28000000D01*
X113680000Y-28000000D02*
X120230000Y-28000000D01*
X153340000Y-36450000D02*
X153340000Y-38050000D01*
X103840000Y-32400000D02*
X110210000Y-32400000D01*
X60200000Y-46600000D02*
X65840000Y-40960000D01*
X77070000Y-33380000D02*
X76900000Y-33550000D01*
X113910000Y-71240000D02*
X111677500Y-69007500D01*
X129130000Y-33850000D02*
X129010000Y-33730000D01*
X167440000Y-51650000D02*
X162260000Y-46470000D01*
X110190000Y-39220000D02*
X110130000Y-39160000D01*
X110130000Y-62007500D02*
X110130000Y-40120000D01*
X55090000Y-65610000D02*
X55090000Y-61930000D01*
X85100000Y-33380000D02*
X77070000Y-33380000D01*
X162260000Y-46470000D02*
X157960000Y-42170000D01*
%TO.N,/s3*%
D23*
X116450000Y-71240000D02*
X116450000Y-59907500D01*
X116450000Y-59907500D02*
X116160000Y-59617500D01*
%TO.N,/s2*%
X116626262Y-58347500D02*
X116160000Y-58347500D01*
X118990000Y-60711238D02*
X116626262Y-58347500D01*
X118990000Y-71240000D02*
X118990000Y-60711238D01*
%TO.N,/19*%
X162070000Y-53490000D02*
X160480000Y-55080000D01*
X156700000Y-55080000D02*
X143900000Y-42280000D01*
X130210000Y-42280000D02*
X119222500Y-53267500D01*
X160480000Y-55080000D02*
X156700000Y-55080000D01*
X143900000Y-42280000D02*
X130210000Y-42280000D01*
X160060000Y-55500000D02*
X160480000Y-55080000D01*
X165440000Y-53490000D02*
X162070000Y-53490000D01*
X119222500Y-53267500D02*
X116160000Y-53267500D01*
%TO.N,Net-(L10-A)*%
X137940000Y-30000000D02*
X135400000Y-30000000D01*
%TO.N,Net-(L4-A)*%
X78250000Y-28750000D02*
X81290000Y-28750000D01*
X77000000Y-30000000D02*
X78250000Y-28750000D01*
X81290000Y-28750000D02*
X82540000Y-30000000D01*
%TO.N,Net-(L9-A)*%
X125400000Y-30000000D02*
X128960000Y-30000000D01*
%TO.N,Net-(L3-A)*%
D22*
X70750000Y-38210000D02*
X72540000Y-40000000D01*
X70750000Y-36590000D02*
X70750000Y-38210000D01*
%TO.N,/18*%
D23*
X166280000Y-67730000D02*
X166280000Y-66370000D01*
X168630000Y-70080000D02*
X166280000Y-67730000D01*
X131540000Y-43260000D02*
X120262500Y-54537500D01*
X166280000Y-66370000D02*
X143170000Y-43260000D01*
X120262500Y-54537500D02*
X116160000Y-54537500D01*
X170480000Y-70080000D02*
X168630000Y-70080000D01*
X143170000Y-43260000D02*
X131540000Y-43260000D01*
%TO.N,Net-(L11-A)*%
X145350000Y-30000000D02*
X143020000Y-30000000D01*
%TO.N,Net-(L14-A)*%
D22*
X171900000Y-63880000D02*
X173020000Y-65000000D01*
X171900000Y-61300000D02*
X171900000Y-63880000D01*
%TO.N,/22*%
D23*
X129130000Y-38540000D02*
X129130000Y-35850000D01*
X118212500Y-49457500D02*
X129130000Y-38540000D01*
X116160000Y-49457500D02*
X118212500Y-49457500D01*
X129130000Y-35850000D02*
X132090000Y-35850000D01*
X132090000Y-35850000D02*
X132860000Y-35080000D01*
%TO.N,Net-(L7-A)*%
X109680000Y-30000000D02*
X110520000Y-29160000D01*
X107780000Y-30000000D02*
X109680000Y-30000000D01*
X108300000Y-29480000D02*
X107780000Y-30000000D01*
%TO.N,/21*%
X139470000Y-36090000D02*
X140480000Y-35080000D01*
X138120000Y-36090000D02*
X137860000Y-36350000D01*
X119092500Y-50727500D02*
X116160000Y-50727500D01*
X137860000Y-36350000D02*
X133470000Y-36350000D01*
X133470000Y-36350000D02*
X119092500Y-50727500D01*
X138120000Y-36090000D02*
X139470000Y-36090000D01*
%TO.N,/23*%
X120280000Y-36020000D02*
X120280000Y-45092499D01*
X120280000Y-45092499D02*
X117184999Y-48187500D01*
X120280000Y-36020000D02*
X121920000Y-36020000D01*
X121920000Y-36020000D02*
X122860000Y-35080000D01*
X117184999Y-48187500D02*
X116160000Y-48187500D01*
%TO.N,/20*%
X129700000Y-41540000D02*
X119242500Y-51997500D01*
X153390000Y-42170000D02*
X150480000Y-45080000D01*
X155460000Y-42170000D02*
X153390000Y-42170000D01*
X119242500Y-51997500D02*
X116160000Y-51997500D01*
X150480000Y-45080000D02*
X146940000Y-41540000D01*
X146940000Y-41540000D02*
X129700000Y-41540000D01*
%TO.N,Net-(L1-A)*%
D22*
X52540000Y-61600000D02*
X52650000Y-61490000D01*
X52540000Y-65000000D02*
X52540000Y-61600000D01*
%TO.N,Net-(L2-A)*%
X62200000Y-49660000D02*
X62540000Y-50000000D01*
X62200000Y-46600000D02*
X62200000Y-49660000D01*
%TO.N,Net-(L13-A)*%
D23*
X160260000Y-46470000D02*
X160260000Y-47240000D01*
X160260000Y-47240000D02*
X163020000Y-50000000D01*
%TO.N,/2*%
X119430000Y-45170000D02*
X117682500Y-46917500D01*
X111280000Y-35470000D02*
X114850000Y-35470000D01*
X114850000Y-35470000D02*
X115240000Y-35080000D01*
X117682500Y-46917500D02*
X116160000Y-46917500D01*
X115240000Y-35080000D02*
X119430000Y-39270000D01*
X119430000Y-39270000D02*
X119430000Y-45170000D01*
%TO.N,Net-(L8-A)*%
X117780000Y-30000000D02*
X120230000Y-30000000D01*
%TO.N,Net-(L12-A)*%
D22*
X151340000Y-36450000D02*
X151340000Y-38320000D01*
X151340000Y-38320000D02*
X153020000Y-40000000D01*
%TO.N,Net-(L5-A)*%
D23*
X88910000Y-28750000D02*
X90160000Y-30000000D01*
X86300000Y-28750000D02*
X88910000Y-28750000D01*
X85050000Y-30000000D02*
X86300000Y-28750000D01*
%TO.N,/9*%
X50000000Y-70080000D02*
X52470000Y-67610000D01*
X102537500Y-55807500D02*
X106860000Y-55807500D01*
X78970000Y-43730000D02*
X90460000Y-43730000D01*
X55090000Y-67610000D02*
X78970000Y-43730000D01*
X90460000Y-43730000D02*
X102537500Y-55807500D01*
X52470000Y-67610000D02*
X55090000Y-67610000D01*
%TO.N,/7*%
X91320000Y-42100000D02*
X102487500Y-53267500D01*
X67320000Y-42960000D02*
X69440000Y-45080000D01*
X102487500Y-53267500D02*
X106860000Y-53267500D01*
X72980000Y-42100000D02*
X91320000Y-42100000D01*
X70000000Y-45080000D02*
X72980000Y-42100000D01*
X69440000Y-45080000D02*
X70000000Y-45080000D01*
%TO.N,/4*%
X97620000Y-41242499D02*
X97620000Y-35080000D01*
X105835001Y-49457500D02*
X97620000Y-41242499D01*
X93550000Y-35440000D02*
X97260000Y-35440000D01*
X97260000Y-35440000D02*
X97620000Y-35080000D01*
X106860000Y-49457500D02*
X105835001Y-49457500D01*
%TO.N,/5*%
X85100000Y-35380000D02*
X87320000Y-35380000D01*
X87620000Y-35080000D02*
X103267500Y-50727500D01*
X103267500Y-50727500D02*
X106860000Y-50727500D01*
X87320000Y-35380000D02*
X87620000Y-35080000D01*
%TO.N,Net-(L6-A)*%
X102660000Y-30000000D02*
X100160000Y-30000000D01*
%TO.N,/6*%
X76900000Y-35550000D02*
X79530000Y-35550000D01*
X79530000Y-35550000D02*
X80000000Y-35080000D01*
X103157500Y-51997500D02*
X106860000Y-51997500D01*
X81250000Y-36330000D02*
X87490000Y-36330000D01*
X80000000Y-35080000D02*
X81250000Y-36330000D01*
X87490000Y-36330000D02*
X103157500Y-51997500D01*
%TO.N,/3*%
X102760000Y-45112499D02*
X102760000Y-35480000D01*
X106860000Y-48187500D02*
X105835001Y-48187500D01*
X105835001Y-48187500D02*
X102760000Y-45112499D01*
X102760000Y-35480000D02*
X104840000Y-35480000D01*
X104840000Y-35480000D02*
X105240000Y-35080000D01*
%TO.N,/8*%
X57280000Y-54170000D02*
X59090000Y-54170000D01*
X60000000Y-55080000D02*
X61250000Y-53830000D01*
X61250000Y-53830000D02*
X67120000Y-53830000D01*
X59090000Y-54170000D02*
X60000000Y-55080000D01*
X90870000Y-42960000D02*
X102447500Y-54537500D01*
X102447500Y-54537500D02*
X106860000Y-54537500D01*
X77990000Y-42960000D02*
X90870000Y-42960000D01*
X67120000Y-53830000D02*
X77990000Y-42960000D01*
%TD*%
%TA.AperFunction,Conductor*%
%TO.N,GND*%
G36*
X106953039Y-59637185D02*
G01*
X106998794Y-59689989D01*
X107010000Y-59741500D01*
X107010000Y-60217499D01*
X107789196Y-60217499D01*
X107819606Y-60214648D01*
X107947645Y-60169846D01*
X108056793Y-60089291D01*
X108130110Y-59989950D01*
X108185757Y-59947699D01*
X108255413Y-59942240D01*
X108316963Y-59975307D01*
X108317561Y-59975902D01*
X108343181Y-60001522D01*
X108376666Y-60062845D01*
X108379500Y-60089203D01*
X108379500Y-70102316D01*
X108359815Y-70169355D01*
X108311796Y-70212800D01*
X108227004Y-70256004D01*
X108080505Y-70362441D01*
X108080500Y-70362445D01*
X107952445Y-70490500D01*
X107952441Y-70490505D01*
X107846006Y-70637002D01*
X107763788Y-70798360D01*
X107763787Y-70798363D01*
X107707829Y-70970589D01*
X107682473Y-71130678D01*
X107652544Y-71193813D01*
X107593232Y-71230744D01*
X107523369Y-71229746D01*
X107465137Y-71191136D01*
X107437527Y-71130678D01*
X107420770Y-71024882D01*
X107412171Y-70970591D01*
X107361751Y-70815411D01*
X107356212Y-70798363D01*
X107356211Y-70798360D01*
X107310643Y-70708930D01*
X107273996Y-70637006D01*
X107212502Y-70552366D01*
X107167558Y-70490505D01*
X107167554Y-70490500D01*
X107039499Y-70362445D01*
X107039494Y-70362441D01*
X106892997Y-70256006D01*
X106892996Y-70256005D01*
X106892994Y-70256004D01*
X106841300Y-70229664D01*
X106731639Y-70173788D01*
X106731636Y-70173787D01*
X106559410Y-70117829D01*
X106380551Y-70089500D01*
X106380546Y-70089500D01*
X106199454Y-70089500D01*
X106199449Y-70089500D01*
X106033898Y-70115721D01*
X105964605Y-70106767D01*
X105911153Y-70061770D01*
X105890513Y-69995019D01*
X105890500Y-69993248D01*
X105890500Y-60341499D01*
X105910185Y-60274460D01*
X105962989Y-60228705D01*
X106014500Y-60217499D01*
X106709999Y-60217499D01*
X106710000Y-60217498D01*
X106710000Y-59741500D01*
X106729685Y-59674461D01*
X106782489Y-59628706D01*
X106834000Y-59617500D01*
X106886000Y-59617500D01*
X106953039Y-59637185D01*
G37*
%TD.AperFunction*%
%TA.AperFunction,Conductor*%
G36*
X143729074Y-42750185D02*
G01*
X143749715Y-42766818D01*
X156423386Y-55440490D01*
X156423388Y-55440491D01*
X156423392Y-55440494D01*
X156526079Y-55499780D01*
X156526109Y-55499796D01*
X156526112Y-55499798D01*
X156526114Y-55499799D01*
X156640691Y-55530500D01*
X159155501Y-55530500D01*
X159222540Y-55550185D01*
X159268295Y-55602989D01*
X159279501Y-55654500D01*
X159279501Y-56024856D01*
X159279502Y-56024882D01*
X159282413Y-56049987D01*
X159282415Y-56049991D01*
X159327793Y-56152764D01*
X159327794Y-56152765D01*
X159407235Y-56232206D01*
X159510009Y-56277585D01*
X159535135Y-56280500D01*
X161424864Y-56280499D01*
X161424879Y-56280497D01*
X161424882Y-56280497D01*
X161449987Y-56277586D01*
X161449988Y-56277585D01*
X161449991Y-56277585D01*
X161552765Y-56232206D01*
X161632206Y-56152765D01*
X161677585Y-56049991D01*
X161680500Y-56024865D01*
X161680499Y-55610805D01*
X161700183Y-55543769D01*
X161752987Y-55498014D01*
X161822146Y-55488070D01*
X161885701Y-55517095D01*
X161914983Y-55554513D01*
X161993661Y-55708925D01*
X161993664Y-55708930D01*
X162071627Y-55816239D01*
X162612931Y-55274936D01*
X162659910Y-55356306D01*
X162743694Y-55440090D01*
X162825062Y-55487068D01*
X162283759Y-56028370D01*
X162283759Y-56028371D01*
X162391066Y-56106333D01*
X162559362Y-56192085D01*
X162738997Y-56250451D01*
X162925553Y-56280000D01*
X163114447Y-56280000D01*
X163301002Y-56250451D01*
X163480637Y-56192085D01*
X163648940Y-56106329D01*
X163756239Y-56028373D01*
X163756240Y-56028371D01*
X163214936Y-55487068D01*
X163296306Y-55440090D01*
X163380090Y-55356306D01*
X163427068Y-55274937D01*
X163968371Y-55816240D01*
X163968373Y-55816239D01*
X164046329Y-55708940D01*
X164132085Y-55540637D01*
X164190451Y-55361002D01*
X164220000Y-55174447D01*
X164220000Y-54985552D01*
X164190451Y-54798997D01*
X164132085Y-54619362D01*
X164046333Y-54451066D01*
X163968371Y-54343759D01*
X163968370Y-54343759D01*
X163427068Y-54885062D01*
X163380090Y-54803694D01*
X163296306Y-54719910D01*
X163214936Y-54672931D01*
X163756239Y-54131627D01*
X163751754Y-54074639D01*
X163756234Y-54074286D01*
X163753278Y-54039881D01*
X163785880Y-53978084D01*
X163846717Y-53943724D01*
X163874809Y-53940500D01*
X164424384Y-53940500D01*
X164491423Y-53960185D01*
X164537178Y-54012989D01*
X164547499Y-54049715D01*
X164548488Y-54057950D01*
X164550122Y-54071561D01*
X164550122Y-54071563D01*
X164550123Y-54071564D01*
X164551336Y-54074639D01*
X164605639Y-54212343D01*
X164697077Y-54332922D01*
X164817656Y-54424360D01*
X164817657Y-54424360D01*
X164817658Y-54424361D01*
X164958436Y-54479877D01*
X165046898Y-54490500D01*
X165046903Y-54490500D01*
X165833097Y-54490500D01*
X165833102Y-54490500D01*
X165921564Y-54479877D01*
X166062342Y-54424361D01*
X166182922Y-54332922D01*
X166274361Y-54212342D01*
X166324646Y-54084826D01*
X166367551Y-54029685D01*
X166433459Y-54006492D01*
X166501443Y-54022612D01*
X166549920Y-54072929D01*
X166555348Y-54084814D01*
X166585276Y-54160705D01*
X166605639Y-54212343D01*
X166697077Y-54332922D01*
X166817655Y-54424359D01*
X166817658Y-54424361D01*
X166817659Y-54424361D01*
X166825050Y-54428517D01*
X166823419Y-54431417D01*
X166866088Y-54464573D01*
X166889323Y-54530466D01*
X166889500Y-54537085D01*
X166889500Y-58442475D01*
X166909810Y-58518272D01*
X166910645Y-58521387D01*
X166927016Y-58582485D01*
X166999489Y-58708013D01*
X166999491Y-58708016D01*
X168967479Y-60676004D01*
X169000964Y-60737327D01*
X169002914Y-60778466D01*
X168999500Y-60806901D01*
X168999500Y-61370613D01*
X168979815Y-61437652D01*
X168963181Y-61458294D01*
X167839491Y-62581983D01*
X167839489Y-62581986D01*
X167767016Y-62707514D01*
X167767016Y-62707515D01*
X167729500Y-62847525D01*
X167729500Y-62847527D01*
X167729500Y-66682913D01*
X167709815Y-66749952D01*
X167664015Y-66789637D01*
X167665052Y-66791481D01*
X167657658Y-66795638D01*
X167537077Y-66887077D01*
X167445639Y-67007656D01*
X167433584Y-67038227D01*
X167395353Y-67135171D01*
X167352449Y-67190314D01*
X167286541Y-67213507D01*
X167218556Y-67197386D01*
X167170080Y-67147070D01*
X167164648Y-67135178D01*
X167114361Y-67007658D01*
X167114360Y-67007657D01*
X167114360Y-67007656D01*
X167022922Y-66887077D01*
X166902341Y-66795638D01*
X166809009Y-66758832D01*
X166753866Y-66715926D01*
X166730673Y-66650018D01*
X166730500Y-66643478D01*
X166730500Y-66310693D01*
X166730500Y-66310691D01*
X166699799Y-66196114D01*
X166657577Y-66122984D01*
X166657576Y-66122982D01*
X166640491Y-66093389D01*
X166640487Y-66093384D01*
X143489284Y-42942181D01*
X143455799Y-42880858D01*
X143460783Y-42811166D01*
X143502655Y-42755233D01*
X143568119Y-42730816D01*
X143576965Y-42730500D01*
X143662035Y-42730500D01*
X143729074Y-42750185D01*
G37*
%TD.AperFunction*%
%TA.AperFunction,Conductor*%
G36*
X78420074Y-43430185D02*
G01*
X78465829Y-43482989D01*
X78475773Y-43552147D01*
X78446748Y-43615703D01*
X78440716Y-43622181D01*
X56302181Y-65760716D01*
X56240858Y-65794201D01*
X56171166Y-65789217D01*
X56115233Y-65747345D01*
X56090816Y-65681881D01*
X56090500Y-65673035D01*
X56090500Y-65216903D01*
X56090500Y-65216898D01*
X56079877Y-65128436D01*
X56024361Y-64987658D01*
X56024360Y-64987657D01*
X56024360Y-64987656D01*
X55932922Y-64867077D01*
X55812341Y-64775638D01*
X55719009Y-64738832D01*
X55663866Y-64695926D01*
X55640673Y-64630018D01*
X55640500Y-64623478D01*
X55640500Y-61857527D01*
X55640500Y-61857525D01*
X55602984Y-61717515D01*
X55567112Y-61655383D01*
X55550500Y-61593384D01*
X55550500Y-60996903D01*
X55550500Y-60996898D01*
X55539877Y-60908436D01*
X55484361Y-60767658D01*
X55484360Y-60767657D01*
X55484360Y-60767656D01*
X55392922Y-60647077D01*
X55272341Y-60555638D01*
X55264948Y-60551481D01*
X55266568Y-60548599D01*
X55223830Y-60515311D01*
X55200669Y-60449392D01*
X55200500Y-60442913D01*
X55200500Y-55079386D01*
X55220185Y-55012347D01*
X55236819Y-54991705D01*
X56067819Y-54160705D01*
X56129142Y-54127220D01*
X56198834Y-54132204D01*
X56254767Y-54174076D01*
X56279184Y-54239540D01*
X56279500Y-54248386D01*
X56279500Y-54563102D01*
X56282432Y-54587515D01*
X56290122Y-54651561D01*
X56345639Y-54792343D01*
X56437077Y-54912922D01*
X56557656Y-55004360D01*
X56557657Y-55004360D01*
X56557658Y-55004361D01*
X56698436Y-55059877D01*
X56786898Y-55070500D01*
X56786903Y-55070500D01*
X57773097Y-55070500D01*
X57773102Y-55070500D01*
X57861564Y-55059877D01*
X58002342Y-55004361D01*
X58122922Y-54912922D01*
X58214361Y-54792342D01*
X58251167Y-54699008D01*
X58294072Y-54643866D01*
X58359980Y-54620673D01*
X58366521Y-54620500D01*
X58675500Y-54620500D01*
X58742539Y-54640185D01*
X58788294Y-54692989D01*
X58799500Y-54744500D01*
X58799500Y-56024856D01*
X58799502Y-56024882D01*
X58802413Y-56049987D01*
X58802415Y-56049991D01*
X58847793Y-56152764D01*
X58847794Y-56152765D01*
X58927235Y-56232206D01*
X59030009Y-56277585D01*
X59055135Y-56280500D01*
X60944864Y-56280499D01*
X60944879Y-56280497D01*
X60944882Y-56280497D01*
X60969987Y-56277586D01*
X60969988Y-56277585D01*
X60969991Y-56277585D01*
X61072765Y-56232206D01*
X61152206Y-56152765D01*
X61197585Y-56049991D01*
X61200500Y-56024865D01*
X61200499Y-55610805D01*
X61220183Y-55543769D01*
X61272987Y-55498014D01*
X61342146Y-55488070D01*
X61405702Y-55517095D01*
X61434983Y-55554513D01*
X61513661Y-55708925D01*
X61513664Y-55708930D01*
X61591627Y-55816239D01*
X62132930Y-55274935D01*
X62179910Y-55356306D01*
X62263694Y-55440090D01*
X62345061Y-55487067D01*
X61803759Y-56028370D01*
X61803759Y-56028371D01*
X61911066Y-56106333D01*
X62079362Y-56192085D01*
X62258997Y-56250451D01*
X62445553Y-56280000D01*
X62634447Y-56280000D01*
X62821002Y-56250451D01*
X63000637Y-56192085D01*
X63168940Y-56106329D01*
X63276239Y-56028373D01*
X63276240Y-56028371D01*
X62734937Y-55487068D01*
X62816306Y-55440090D01*
X62900090Y-55356306D01*
X62947068Y-55274937D01*
X63488371Y-55816240D01*
X63488373Y-55816239D01*
X63566329Y-55708940D01*
X63652085Y-55540637D01*
X63710451Y-55361002D01*
X63740000Y-55174447D01*
X63740000Y-54985552D01*
X63710451Y-54798997D01*
X63652085Y-54619362D01*
X63571291Y-54460795D01*
X63558395Y-54392126D01*
X63584671Y-54327385D01*
X63641778Y-54287128D01*
X63681776Y-54280500D01*
X67179308Y-54280500D01*
X67179309Y-54280500D01*
X67269673Y-54256286D01*
X67293887Y-54249799D01*
X67396614Y-54190489D01*
X78140284Y-43446819D01*
X78201607Y-43413334D01*
X78227965Y-43410500D01*
X78353035Y-43410500D01*
X78420074Y-43430185D01*
G37*
%TD.AperFunction*%
%TA.AperFunction,Conductor*%
G36*
X146769074Y-42010185D02*
G01*
X146789716Y-42026819D01*
X149243181Y-44480284D01*
X149276666Y-44541607D01*
X149279500Y-44567965D01*
X149279500Y-46024856D01*
X149279502Y-46024882D01*
X149282413Y-46049987D01*
X149282415Y-46049991D01*
X149327793Y-46152764D01*
X149327794Y-46152765D01*
X149407235Y-46232206D01*
X149510009Y-46277585D01*
X149535135Y-46280500D01*
X151424864Y-46280499D01*
X151424879Y-46280497D01*
X151424882Y-46280497D01*
X151449987Y-46277586D01*
X151449988Y-46277585D01*
X151449991Y-46277585D01*
X151552765Y-46232206D01*
X151632206Y-46152765D01*
X151677585Y-46049991D01*
X151680500Y-46024865D01*
X151680499Y-45610805D01*
X151700183Y-45543769D01*
X151752987Y-45498014D01*
X151822146Y-45488070D01*
X151885701Y-45517095D01*
X151914983Y-45554513D01*
X151993661Y-45708925D01*
X151993664Y-45708930D01*
X152071627Y-45816239D01*
X152612931Y-45274936D01*
X152659910Y-45356306D01*
X152743694Y-45440090D01*
X152825062Y-45487068D01*
X152283759Y-46028370D01*
X152283759Y-46028371D01*
X152391066Y-46106333D01*
X152559362Y-46192085D01*
X152738997Y-46250451D01*
X152925553Y-46280000D01*
X153114447Y-46280000D01*
X153301002Y-46250451D01*
X153480637Y-46192085D01*
X153648940Y-46106329D01*
X153756239Y-46028373D01*
X153756240Y-46028371D01*
X153214936Y-45487068D01*
X153296306Y-45440090D01*
X153380090Y-45356306D01*
X153427068Y-45274937D01*
X153968371Y-45816240D01*
X153968373Y-45816239D01*
X154046329Y-45708940D01*
X154132085Y-45540637D01*
X154190451Y-45361002D01*
X154220000Y-45174447D01*
X154220000Y-44985552D01*
X154190451Y-44798997D01*
X154132085Y-44619362D01*
X154046333Y-44451066D01*
X153968371Y-44343759D01*
X153968370Y-44343759D01*
X153427068Y-44885062D01*
X153380090Y-44803694D01*
X153296306Y-44719910D01*
X153214936Y-44672931D01*
X153756239Y-44131627D01*
X153648933Y-44053666D01*
X153480637Y-43967914D01*
X153301002Y-43909548D01*
X153114447Y-43880000D01*
X152925553Y-43880000D01*
X152738997Y-43909548D01*
X152561490Y-43967223D01*
X152491648Y-43969218D01*
X152431816Y-43933137D01*
X152400988Y-43870436D01*
X152408953Y-43801022D01*
X152435491Y-43761611D01*
X152644956Y-43552147D01*
X153540284Y-42656819D01*
X153601607Y-42623334D01*
X153627965Y-42620500D01*
X154444384Y-42620500D01*
X154511423Y-42640185D01*
X154557178Y-42692989D01*
X154567499Y-42729715D01*
X154567934Y-42733334D01*
X154570122Y-42751561D01*
X154625639Y-42892343D01*
X154717077Y-43012922D01*
X154837656Y-43104360D01*
X154837657Y-43104360D01*
X154837658Y-43104361D01*
X154978436Y-43159877D01*
X155066898Y-43170500D01*
X155066903Y-43170500D01*
X155853097Y-43170500D01*
X155853102Y-43170500D01*
X155941564Y-43159877D01*
X156082342Y-43104361D01*
X156202922Y-43012922D01*
X156294361Y-42892342D01*
X156344646Y-42764826D01*
X156387551Y-42709685D01*
X156453459Y-42686492D01*
X156521443Y-42702612D01*
X156569920Y-42752929D01*
X156575348Y-42764814D01*
X156602519Y-42833713D01*
X156625639Y-42892343D01*
X156717077Y-43012922D01*
X156837656Y-43104360D01*
X156837657Y-43104360D01*
X156837658Y-43104361D01*
X156978436Y-43159877D01*
X157066898Y-43170500D01*
X157066903Y-43170500D01*
X157853097Y-43170500D01*
X157853102Y-43170500D01*
X157941564Y-43159877D01*
X158030703Y-43124724D01*
X158100288Y-43118443D01*
X158162224Y-43150779D01*
X158163873Y-43152398D01*
X160269294Y-45257819D01*
X160302779Y-45319142D01*
X160297795Y-45388834D01*
X160255923Y-45444767D01*
X160190459Y-45469184D01*
X160181613Y-45469500D01*
X159866898Y-45469500D01*
X159827853Y-45474188D01*
X159778438Y-45480122D01*
X159637656Y-45535639D01*
X159517077Y-45627077D01*
X159425639Y-45747656D01*
X159370122Y-45888438D01*
X159368019Y-45905954D01*
X159359500Y-45976898D01*
X159359500Y-46963102D01*
X159359641Y-46964273D01*
X159370122Y-47051561D01*
X159425639Y-47192343D01*
X159517077Y-47312922D01*
X159637656Y-47404360D01*
X159637657Y-47404360D01*
X159637658Y-47404361D01*
X159778436Y-47459877D01*
X159812025Y-47463910D01*
X159876239Y-47491447D01*
X159895613Y-47511535D01*
X159899509Y-47516612D01*
X160971216Y-48588319D01*
X161004701Y-48649642D01*
X160999717Y-48719334D01*
X160957845Y-48775267D01*
X160892381Y-48799684D01*
X160883535Y-48800000D01*
X160630000Y-48800000D01*
X160630000Y-49574318D01*
X160539244Y-49550000D01*
X160420756Y-49550000D01*
X160330000Y-49574318D01*
X160330000Y-48800000D01*
X159535214Y-48800000D01*
X159535191Y-48800002D01*
X159510130Y-48802908D01*
X159510126Y-48802909D01*
X159407525Y-48848211D01*
X159407520Y-48848214D01*
X159328214Y-48927520D01*
X159328211Y-48927525D01*
X159282910Y-49030122D01*
X159282910Y-49030124D01*
X159280000Y-49055205D01*
X159280000Y-49850000D01*
X160054318Y-49850000D01*
X160030000Y-49940756D01*
X160030000Y-50059244D01*
X160054318Y-50150000D01*
X159280001Y-50150000D01*
X159280001Y-50944785D01*
X159280002Y-50944808D01*
X159282908Y-50969869D01*
X159282909Y-50969873D01*
X159328211Y-51072474D01*
X159328214Y-51072479D01*
X159407520Y-51151785D01*
X159407525Y-51151788D01*
X159510123Y-51197089D01*
X159535206Y-51199999D01*
X160329999Y-51199999D01*
X160330000Y-51199998D01*
X160330000Y-50425681D01*
X160420756Y-50450000D01*
X160539244Y-50450000D01*
X160630000Y-50425681D01*
X160630000Y-51199999D01*
X161424786Y-51199999D01*
X161424808Y-51199997D01*
X161449869Y-51197091D01*
X161449873Y-51197090D01*
X161552474Y-51151788D01*
X161552479Y-51151785D01*
X161631785Y-51072479D01*
X161631788Y-51072474D01*
X161677089Y-50969877D01*
X161677089Y-50969875D01*
X161679999Y-50944794D01*
X161679999Y-50530927D01*
X161699683Y-50463888D01*
X161752487Y-50418133D01*
X161821646Y-50408189D01*
X161885202Y-50437214D01*
X161914484Y-50474632D01*
X161993240Y-50629199D01*
X162104310Y-50782073D01*
X162237927Y-50915690D01*
X162390801Y-51026760D01*
X162470347Y-51067290D01*
X162559163Y-51112545D01*
X162559165Y-51112545D01*
X162559168Y-51112547D01*
X162655497Y-51143846D01*
X162738881Y-51170940D01*
X162925514Y-51200500D01*
X162925519Y-51200500D01*
X163114486Y-51200500D01*
X163301118Y-51170940D01*
X163360061Y-51151788D01*
X163480832Y-51112547D01*
X163649199Y-51026760D01*
X163802073Y-50915690D01*
X163935690Y-50782073D01*
X164046760Y-50629199D01*
X164132547Y-50460832D01*
X164190940Y-50281118D01*
X164205012Y-50192269D01*
X164220500Y-50094486D01*
X164220500Y-49905513D01*
X164190940Y-49718881D01*
X164142702Y-49570422D01*
X164132547Y-49539168D01*
X164132545Y-49539165D01*
X164132545Y-49539163D01*
X164053643Y-49384310D01*
X164040747Y-49315641D01*
X164067023Y-49250900D01*
X164124130Y-49210643D01*
X164193935Y-49207651D01*
X164251809Y-49240334D01*
X166853181Y-51841706D01*
X166886666Y-51903029D01*
X166889500Y-51929387D01*
X166889500Y-52442913D01*
X166869815Y-52509952D01*
X166824015Y-52549637D01*
X166825052Y-52551481D01*
X166817658Y-52555638D01*
X166697077Y-52647077D01*
X166605639Y-52767656D01*
X166586283Y-52816741D01*
X166555353Y-52895171D01*
X166512449Y-52950314D01*
X166446541Y-52973507D01*
X166378556Y-52957386D01*
X166330080Y-52907070D01*
X166324648Y-52895178D01*
X166274361Y-52767658D01*
X166274360Y-52767657D01*
X166274360Y-52767656D01*
X166182922Y-52647077D01*
X166062343Y-52555639D01*
X165921561Y-52500122D01*
X165875926Y-52494642D01*
X165833102Y-52489500D01*
X165046898Y-52489500D01*
X165007853Y-52494188D01*
X164958438Y-52500122D01*
X164817656Y-52555639D01*
X164697077Y-52647077D01*
X164605639Y-52767656D01*
X164550122Y-52908438D01*
X164547500Y-52930282D01*
X164519964Y-52994497D01*
X164462082Y-53033631D01*
X164424384Y-53039500D01*
X162010691Y-53039500D01*
X161933886Y-53060080D01*
X161896113Y-53070201D01*
X161793386Y-53129509D01*
X161079714Y-53843181D01*
X161018391Y-53876666D01*
X160992033Y-53879500D01*
X159535143Y-53879500D01*
X159535117Y-53879502D01*
X159510012Y-53882413D01*
X159510008Y-53882415D01*
X159407235Y-53927793D01*
X159327794Y-54007234D01*
X159282415Y-54110006D01*
X159282415Y-54110008D01*
X159279500Y-54135131D01*
X159279500Y-54505500D01*
X159259815Y-54572539D01*
X159207011Y-54618294D01*
X159155500Y-54629500D01*
X156937966Y-54629500D01*
X156870927Y-54609815D01*
X156850285Y-54593181D01*
X151396410Y-49139306D01*
X144459284Y-42202181D01*
X144425799Y-42140858D01*
X144430783Y-42071166D01*
X144472655Y-42015233D01*
X144538119Y-41990816D01*
X144546965Y-41990500D01*
X146702035Y-41990500D01*
X146769074Y-42010185D01*
G37*
%TD.AperFunction*%
%TA.AperFunction,Conductor*%
G36*
X66339953Y-41530185D02*
G01*
X66379638Y-41575984D01*
X66381481Y-41574948D01*
X66385638Y-41582341D01*
X66477077Y-41702922D01*
X66597656Y-41794360D01*
X66597657Y-41794360D01*
X66597658Y-41794361D01*
X66725171Y-41844646D01*
X66780314Y-41887551D01*
X66803507Y-41953459D01*
X66787386Y-42021444D01*
X66737070Y-42069920D01*
X66725178Y-42075351D01*
X66673663Y-42095665D01*
X66597656Y-42125639D01*
X66477077Y-42217077D01*
X66385639Y-42337656D01*
X66330122Y-42478438D01*
X66324188Y-42527853D01*
X66319500Y-42566898D01*
X66319500Y-43353102D01*
X66325126Y-43399954D01*
X66330122Y-43441561D01*
X66385639Y-43582343D01*
X66477077Y-43702922D01*
X66597656Y-43794360D01*
X66597657Y-43794360D01*
X66597658Y-43794361D01*
X66738436Y-43849877D01*
X66826898Y-43860500D01*
X67532035Y-43860500D01*
X67599074Y-43880185D01*
X67619716Y-43896819D01*
X68763181Y-45040285D01*
X68796666Y-45101608D01*
X68799500Y-45127966D01*
X68799500Y-46024856D01*
X68799502Y-46024882D01*
X68802413Y-46049987D01*
X68802415Y-46049991D01*
X68847793Y-46152764D01*
X68847794Y-46152765D01*
X68927235Y-46232206D01*
X69030009Y-46277585D01*
X69055135Y-46280500D01*
X70944864Y-46280499D01*
X70944879Y-46280497D01*
X70944882Y-46280497D01*
X70969987Y-46277586D01*
X70969988Y-46277585D01*
X70969991Y-46277585D01*
X71072765Y-46232206D01*
X71152206Y-46152765D01*
X71197585Y-46049991D01*
X71200500Y-46024865D01*
X71200499Y-45610805D01*
X71220183Y-45543769D01*
X71272987Y-45498014D01*
X71342146Y-45488070D01*
X71405701Y-45517095D01*
X71434983Y-45554513D01*
X71513661Y-45708925D01*
X71513664Y-45708930D01*
X71591627Y-45816239D01*
X72132931Y-45274936D01*
X72179910Y-45356306D01*
X72263694Y-45440090D01*
X72345062Y-45487068D01*
X71803759Y-46028370D01*
X71803759Y-46028371D01*
X71911066Y-46106333D01*
X72079362Y-46192085D01*
X72258997Y-46250451D01*
X72445553Y-46280000D01*
X72634447Y-46280000D01*
X72821002Y-46250451D01*
X73000637Y-46192085D01*
X73168940Y-46106329D01*
X73276239Y-46028373D01*
X73276240Y-46028371D01*
X72734936Y-45487068D01*
X72816306Y-45440090D01*
X72900090Y-45356306D01*
X72947068Y-45274936D01*
X73488371Y-45816240D01*
X73488373Y-45816239D01*
X73566329Y-45708940D01*
X73652085Y-45540637D01*
X73710451Y-45361002D01*
X73740000Y-45174447D01*
X73740000Y-44985552D01*
X73710451Y-44798997D01*
X73652085Y-44619362D01*
X73566333Y-44451066D01*
X73488371Y-44343759D01*
X73488370Y-44343759D01*
X72947068Y-44885062D01*
X72900090Y-44803694D01*
X72816306Y-44719910D01*
X72734936Y-44672931D01*
X73276239Y-44131627D01*
X73168933Y-44053666D01*
X73000637Y-43967914D01*
X72821002Y-43909548D01*
X72634447Y-43880000D01*
X72445553Y-43880000D01*
X72258997Y-43909548D01*
X72081490Y-43967223D01*
X72011648Y-43969218D01*
X71951816Y-43933137D01*
X71920988Y-43870436D01*
X71928953Y-43801022D01*
X71955491Y-43761611D01*
X72234114Y-43482989D01*
X73130284Y-42586819D01*
X73191607Y-42553334D01*
X73217965Y-42550500D01*
X77463035Y-42550500D01*
X77530074Y-42570185D01*
X77575829Y-42622989D01*
X77585773Y-42692147D01*
X77556748Y-42755703D01*
X77550716Y-42762181D01*
X66969716Y-53343181D01*
X66908393Y-53376666D01*
X66882035Y-53379500D01*
X61190691Y-53379500D01*
X61100325Y-53403713D01*
X61100324Y-53403712D01*
X61076116Y-53410199D01*
X61076113Y-53410200D01*
X60973386Y-53469511D01*
X60973383Y-53469513D01*
X60599715Y-53843181D01*
X60538392Y-53876666D01*
X60512034Y-53879500D01*
X59487965Y-53879500D01*
X59420926Y-53859815D01*
X59400284Y-53843181D01*
X59366616Y-53809513D01*
X59366614Y-53809511D01*
X59263887Y-53750201D01*
X59224509Y-53739650D01*
X59224506Y-53739649D01*
X59192724Y-53731133D01*
X59149309Y-53719500D01*
X59149308Y-53719500D01*
X58366521Y-53719500D01*
X58299482Y-53699815D01*
X58253727Y-53647011D01*
X58251174Y-53641009D01*
X58214361Y-53547658D01*
X58214360Y-53547657D01*
X58214360Y-53547656D01*
X58122922Y-53427077D01*
X58002343Y-53335639D01*
X57964339Y-53320652D01*
X57874826Y-53285353D01*
X57819685Y-53242449D01*
X57796492Y-53176541D01*
X57812612Y-53108557D01*
X57862929Y-53060080D01*
X57874814Y-53054651D01*
X58002342Y-53004361D01*
X58122922Y-52912922D01*
X58214361Y-52792342D01*
X58269877Y-52651564D01*
X58280500Y-52563102D01*
X58280500Y-51776898D01*
X58269877Y-51688436D01*
X58214361Y-51547658D01*
X58214360Y-51547657D01*
X58214360Y-51547656D01*
X58122922Y-51427077D01*
X58002341Y-51335638D01*
X57909009Y-51298832D01*
X57853866Y-51255926D01*
X57830673Y-51190018D01*
X57830500Y-51183478D01*
X57830500Y-49799386D01*
X57850185Y-49732347D01*
X57866819Y-49711705D01*
X58588319Y-48990205D01*
X58649642Y-48956720D01*
X58719334Y-48961704D01*
X58775267Y-49003576D01*
X58799684Y-49069040D01*
X58800000Y-49077886D01*
X58800000Y-49850000D01*
X59574318Y-49850000D01*
X59550000Y-49940756D01*
X59550000Y-50059244D01*
X59574318Y-50150000D01*
X58800001Y-50150000D01*
X58800001Y-50944785D01*
X58800002Y-50944808D01*
X58802908Y-50969869D01*
X58802909Y-50969873D01*
X58848211Y-51072474D01*
X58848214Y-51072479D01*
X58927520Y-51151785D01*
X58927525Y-51151788D01*
X59030123Y-51197089D01*
X59055206Y-51199999D01*
X59849999Y-51199999D01*
X59850000Y-51199998D01*
X59850000Y-50425681D01*
X59940756Y-50450000D01*
X60059244Y-50450000D01*
X60150000Y-50425681D01*
X60150000Y-51199999D01*
X60944786Y-51199999D01*
X60944808Y-51199997D01*
X60969869Y-51197091D01*
X60969873Y-51197090D01*
X61072474Y-51151788D01*
X61072479Y-51151785D01*
X61151785Y-51072479D01*
X61151788Y-51072474D01*
X61197089Y-50969877D01*
X61197089Y-50969875D01*
X61199999Y-50944794D01*
X61199999Y-50530927D01*
X61219683Y-50463888D01*
X61272487Y-50418133D01*
X61341646Y-50408189D01*
X61405202Y-50437214D01*
X61434484Y-50474632D01*
X61513240Y-50629199D01*
X61624310Y-50782073D01*
X61757927Y-50915690D01*
X61910801Y-51026760D01*
X61990347Y-51067290D01*
X62079163Y-51112545D01*
X62079165Y-51112545D01*
X62079168Y-51112547D01*
X62175497Y-51143846D01*
X62258881Y-51170940D01*
X62445514Y-51200500D01*
X62445519Y-51200500D01*
X62634486Y-51200500D01*
X62821118Y-51170940D01*
X62880061Y-51151788D01*
X63000832Y-51112547D01*
X63169199Y-51026760D01*
X63322073Y-50915690D01*
X63455690Y-50782073D01*
X63566760Y-50629199D01*
X63652547Y-50460832D01*
X63710940Y-50281118D01*
X63725012Y-50192269D01*
X63740500Y-50094486D01*
X63740500Y-49905513D01*
X63710940Y-49718881D01*
X63662702Y-49570422D01*
X63652547Y-49539168D01*
X63652545Y-49539165D01*
X63652545Y-49539163D01*
X63566759Y-49370800D01*
X63455690Y-49217927D01*
X63322073Y-49084310D01*
X63169199Y-48973240D01*
X63164177Y-48970681D01*
X63000836Y-48887454D01*
X62836181Y-48833954D01*
X62778506Y-48794516D01*
X62751308Y-48730157D01*
X62750500Y-48716023D01*
X62750500Y-47647085D01*
X62770185Y-47580046D01*
X62815985Y-47540359D01*
X62814950Y-47538517D01*
X62822336Y-47534363D01*
X62822342Y-47534361D01*
X62942922Y-47442922D01*
X63034361Y-47322342D01*
X63089877Y-47181564D01*
X63100500Y-47093102D01*
X63100500Y-46106898D01*
X63089877Y-46018436D01*
X63034361Y-45877658D01*
X63034360Y-45877657D01*
X63034360Y-45877656D01*
X62942922Y-45757077D01*
X62822343Y-45665639D01*
X62681561Y-45610122D01*
X62635926Y-45604642D01*
X62593102Y-45599500D01*
X62593097Y-45599500D01*
X62278387Y-45599500D01*
X62211348Y-45579815D01*
X62165593Y-45527011D01*
X62155649Y-45457853D01*
X62184674Y-45394297D01*
X62190706Y-45387819D01*
X66031705Y-41546819D01*
X66093028Y-41513334D01*
X66119386Y-41510500D01*
X66272914Y-41510500D01*
X66339953Y-41530185D01*
G37*
%TD.AperFunction*%
%TA.AperFunction,Conductor*%
G36*
X84069953Y-28570185D02*
G01*
X84109638Y-28615984D01*
X84111481Y-28614948D01*
X84115638Y-28622341D01*
X84207077Y-28742922D01*
X84327656Y-28834360D01*
X84327657Y-28834360D01*
X84327658Y-28834361D01*
X84455171Y-28884646D01*
X84510314Y-28927551D01*
X84533507Y-28993459D01*
X84517386Y-29061444D01*
X84467070Y-29109920D01*
X84455178Y-29115351D01*
X84403663Y-29135665D01*
X84327656Y-29165639D01*
X84207077Y-29257077D01*
X84115639Y-29377656D01*
X84060122Y-29518438D01*
X84055418Y-29557618D01*
X84049500Y-29606898D01*
X84049500Y-30393102D01*
X84051312Y-30408189D01*
X84060122Y-30481561D01*
X84115639Y-30622343D01*
X84207077Y-30742922D01*
X84327656Y-30834360D01*
X84327657Y-30834360D01*
X84327658Y-30834361D01*
X84468436Y-30889877D01*
X84556898Y-30900500D01*
X84556903Y-30900500D01*
X85543097Y-30900500D01*
X85543102Y-30900500D01*
X85631564Y-30889877D01*
X85772342Y-30834361D01*
X85892922Y-30742922D01*
X85984361Y-30622342D01*
X86039877Y-30481564D01*
X86050500Y-30393102D01*
X86050500Y-29687964D01*
X86070185Y-29620925D01*
X86086814Y-29600288D01*
X86208321Y-29478781D01*
X86269642Y-29445298D01*
X86339334Y-29450282D01*
X86395267Y-29492154D01*
X86419684Y-29557618D01*
X86420000Y-29566464D01*
X86420000Y-29850000D01*
X87194318Y-29850000D01*
X87170000Y-29940756D01*
X87170000Y-30059244D01*
X87194318Y-30150000D01*
X86420001Y-30150000D01*
X86420001Y-30944785D01*
X86420002Y-30944808D01*
X86422908Y-30969869D01*
X86422909Y-30969873D01*
X86468211Y-31072474D01*
X86468214Y-31072479D01*
X86547520Y-31151785D01*
X86547525Y-31151788D01*
X86650123Y-31197089D01*
X86675206Y-31199999D01*
X87469999Y-31199999D01*
X87470000Y-31199998D01*
X87470000Y-30425681D01*
X87560756Y-30450000D01*
X87679244Y-30450000D01*
X87770000Y-30425681D01*
X87770000Y-31199999D01*
X88564786Y-31199999D01*
X88564808Y-31199997D01*
X88589869Y-31197091D01*
X88589873Y-31197090D01*
X88692474Y-31151788D01*
X88692479Y-31151785D01*
X88771785Y-31072479D01*
X88771788Y-31072474D01*
X88817089Y-30969877D01*
X88817089Y-30969875D01*
X88819999Y-30944794D01*
X88819999Y-30530927D01*
X88839683Y-30463888D01*
X88892487Y-30418133D01*
X88961646Y-30408189D01*
X89025202Y-30437214D01*
X89054484Y-30474632D01*
X89133240Y-30629199D01*
X89244310Y-30782073D01*
X89377927Y-30915690D01*
X89530801Y-31026760D01*
X89610347Y-31067290D01*
X89699163Y-31112545D01*
X89699165Y-31112545D01*
X89699168Y-31112547D01*
X89795497Y-31143846D01*
X89878881Y-31170940D01*
X90065514Y-31200500D01*
X90065519Y-31200500D01*
X90254486Y-31200500D01*
X90441118Y-31170940D01*
X90500061Y-31151788D01*
X90620832Y-31112547D01*
X90789199Y-31026760D01*
X90942073Y-30915690D01*
X91075690Y-30782073D01*
X91186760Y-30629199D01*
X91272547Y-30460832D01*
X91330940Y-30281118D01*
X91338563Y-30232989D01*
X91360500Y-30094486D01*
X91360500Y-29905513D01*
X91330940Y-29718881D01*
X91299112Y-29620925D01*
X91272547Y-29539168D01*
X91272545Y-29539165D01*
X91272545Y-29539163D01*
X91213559Y-29423397D01*
X91186760Y-29370801D01*
X91075690Y-29217927D01*
X90942073Y-29084310D01*
X90789199Y-28973240D01*
X90721130Y-28938557D01*
X90620836Y-28887454D01*
X90441118Y-28829059D01*
X90254486Y-28799500D01*
X90254481Y-28799500D01*
X90065519Y-28799500D01*
X90065514Y-28799500D01*
X89878880Y-28829060D01*
X89878877Y-28829060D01*
X89760406Y-28867554D01*
X89690564Y-28869549D01*
X89634407Y-28837304D01*
X89559284Y-28762181D01*
X89525799Y-28700858D01*
X89530783Y-28631166D01*
X89572655Y-28575233D01*
X89638119Y-28550816D01*
X89646965Y-28550500D01*
X101612914Y-28550500D01*
X101679953Y-28570185D01*
X101719638Y-28615984D01*
X101721481Y-28614948D01*
X101725638Y-28622341D01*
X101817077Y-28742922D01*
X101937656Y-28834360D01*
X101937657Y-28834360D01*
X101937658Y-28834361D01*
X102065171Y-28884646D01*
X102120314Y-28927551D01*
X102143507Y-28993459D01*
X102127386Y-29061444D01*
X102077070Y-29109920D01*
X102065178Y-29115351D01*
X102013663Y-29135665D01*
X101937656Y-29165639D01*
X101817077Y-29257077D01*
X101725639Y-29377656D01*
X101707602Y-29423397D01*
X101688832Y-29470991D01*
X101645928Y-29526134D01*
X101580020Y-29549327D01*
X101573479Y-29549500D01*
X101353799Y-29549500D01*
X101286760Y-29529815D01*
X101243314Y-29481795D01*
X101224718Y-29445298D01*
X101186760Y-29370801D01*
X101075690Y-29217927D01*
X100942073Y-29084310D01*
X100789199Y-28973240D01*
X100721130Y-28938557D01*
X100620836Y-28887454D01*
X100441118Y-28829059D01*
X100254486Y-28799500D01*
X100254481Y-28799500D01*
X100065519Y-28799500D01*
X100065514Y-28799500D01*
X99878881Y-28829059D01*
X99699163Y-28887454D01*
X99530800Y-28973240D01*
X99452499Y-29030130D01*
X99377927Y-29084310D01*
X99377925Y-29084312D01*
X99377924Y-29084312D01*
X99244312Y-29217924D01*
X99244312Y-29217925D01*
X99244310Y-29217927D01*
X99230584Y-29236819D01*
X99133240Y-29370800D01*
X99054484Y-29525368D01*
X99006509Y-29576164D01*
X98938688Y-29592959D01*
X98872553Y-29570422D01*
X98829102Y-29515706D01*
X98819999Y-29469073D01*
X98819999Y-29055214D01*
X98819997Y-29055191D01*
X98817091Y-29030130D01*
X98817090Y-29030126D01*
X98771788Y-28927525D01*
X98771785Y-28927520D01*
X98692479Y-28848214D01*
X98692474Y-28848211D01*
X98589876Y-28802910D01*
X98564794Y-28800000D01*
X97770000Y-28800000D01*
X97770000Y-29574318D01*
X97679244Y-29550000D01*
X97560756Y-29550000D01*
X97470000Y-29574318D01*
X97470000Y-28800000D01*
X96675214Y-28800000D01*
X96675191Y-28800002D01*
X96650130Y-28802908D01*
X96650126Y-28802909D01*
X96547525Y-28848211D01*
X96547520Y-28848214D01*
X96468214Y-28927520D01*
X96468211Y-28927525D01*
X96422910Y-29030122D01*
X96422910Y-29030124D01*
X96420000Y-29055205D01*
X96420000Y-29850000D01*
X97194318Y-29850000D01*
X97170000Y-29940756D01*
X97170000Y-30059244D01*
X97194318Y-30150000D01*
X96420001Y-30150000D01*
X96420001Y-30944785D01*
X96420002Y-30944808D01*
X96422908Y-30969869D01*
X96422909Y-30969873D01*
X96468211Y-31072474D01*
X96468214Y-31072479D01*
X96547520Y-31151785D01*
X96547525Y-31151788D01*
X96650123Y-31197089D01*
X96675206Y-31199999D01*
X97469999Y-31199999D01*
X97470000Y-31199998D01*
X97470000Y-30425681D01*
X97560756Y-30450000D01*
X97679244Y-30450000D01*
X97770000Y-30425681D01*
X97770000Y-31199999D01*
X98564786Y-31199999D01*
X98564808Y-31199997D01*
X98589869Y-31197091D01*
X98589873Y-31197090D01*
X98692474Y-31151788D01*
X98692479Y-31151785D01*
X98771785Y-31072479D01*
X98771788Y-31072474D01*
X98817089Y-30969877D01*
X98817089Y-30969875D01*
X98819999Y-30944794D01*
X98819999Y-30530927D01*
X98839683Y-30463888D01*
X98892487Y-30418133D01*
X98961646Y-30408189D01*
X99025202Y-30437214D01*
X99054484Y-30474632D01*
X99133240Y-30629199D01*
X99244310Y-30782073D01*
X99377927Y-30915690D01*
X99530801Y-31026760D01*
X99610347Y-31067290D01*
X99699163Y-31112545D01*
X99699165Y-31112545D01*
X99699168Y-31112547D01*
X99795497Y-31143846D01*
X99878881Y-31170940D01*
X100065514Y-31200500D01*
X100065519Y-31200500D01*
X100254486Y-31200500D01*
X100441118Y-31170940D01*
X100500061Y-31151788D01*
X100620832Y-31112547D01*
X100789199Y-31026760D01*
X100942073Y-30915690D01*
X101075690Y-30782073D01*
X101186760Y-30629199D01*
X101243314Y-30518204D01*
X101291288Y-30467409D01*
X101353799Y-30450500D01*
X101573479Y-30450500D01*
X101640518Y-30470185D01*
X101686273Y-30522989D01*
X101688825Y-30528990D01*
X101711100Y-30585474D01*
X101725639Y-30622343D01*
X101817077Y-30742922D01*
X101937656Y-30834360D01*
X101937657Y-30834360D01*
X101937658Y-30834361D01*
X102078436Y-30889877D01*
X102166898Y-30900500D01*
X102166903Y-30900500D01*
X103153097Y-30900500D01*
X103153102Y-30900500D01*
X103241564Y-30889877D01*
X103382342Y-30834361D01*
X103502922Y-30742922D01*
X103594361Y-30622342D01*
X103649877Y-30481564D01*
X103660500Y-30393102D01*
X103660500Y-29606898D01*
X103649877Y-29518436D01*
X103594361Y-29377658D01*
X103594360Y-29377657D01*
X103594360Y-29377656D01*
X103502922Y-29257077D01*
X103382343Y-29165639D01*
X103344339Y-29150652D01*
X103254826Y-29115353D01*
X103199685Y-29072449D01*
X103176492Y-29006541D01*
X103192612Y-28938557D01*
X103242929Y-28890080D01*
X103254814Y-28884651D01*
X103382342Y-28834361D01*
X103502922Y-28742922D01*
X103594361Y-28622342D01*
X103594362Y-28622338D01*
X103598519Y-28614948D01*
X103601412Y-28616574D01*
X103634617Y-28573881D01*
X103700520Y-28550674D01*
X103707086Y-28550500D01*
X109495500Y-28550500D01*
X109562539Y-28570185D01*
X109608294Y-28622989D01*
X109619500Y-28674500D01*
X109619500Y-29372035D01*
X109599815Y-29439074D01*
X109583181Y-29459716D01*
X109529716Y-29513181D01*
X109468393Y-29546666D01*
X109442035Y-29549500D01*
X108973799Y-29549500D01*
X108906760Y-29529815D01*
X108863314Y-29481795D01*
X108844718Y-29445298D01*
X108806760Y-29370801D01*
X108695690Y-29217927D01*
X108562073Y-29084310D01*
X108409199Y-28973240D01*
X108341130Y-28938557D01*
X108240836Y-28887454D01*
X108061118Y-28829059D01*
X107874486Y-28799500D01*
X107874481Y-28799500D01*
X107685519Y-28799500D01*
X107685514Y-28799500D01*
X107498881Y-28829059D01*
X107319163Y-28887454D01*
X107150800Y-28973240D01*
X107072499Y-29030130D01*
X106997927Y-29084310D01*
X106997925Y-29084312D01*
X106997924Y-29084312D01*
X106864312Y-29217924D01*
X106864312Y-29217925D01*
X106864310Y-29217927D01*
X106850584Y-29236819D01*
X106753240Y-29370800D01*
X106674484Y-29525368D01*
X106626509Y-29576164D01*
X106558688Y-29592959D01*
X106492553Y-29570422D01*
X106449102Y-29515706D01*
X106439999Y-29469073D01*
X106439999Y-29055214D01*
X106439997Y-29055191D01*
X106437091Y-29030130D01*
X106437090Y-29030126D01*
X106391788Y-28927525D01*
X106391785Y-28927520D01*
X106312479Y-28848214D01*
X106312474Y-28848211D01*
X106209876Y-28802910D01*
X106184794Y-28800000D01*
X105390000Y-28800000D01*
X105390000Y-29574318D01*
X105299244Y-29550000D01*
X105180756Y-29550000D01*
X105090000Y-29574318D01*
X105090000Y-28800000D01*
X104295214Y-28800000D01*
X104295191Y-28800002D01*
X104270130Y-28802908D01*
X104270126Y-28802909D01*
X104167525Y-28848211D01*
X104167520Y-28848214D01*
X104088214Y-28927520D01*
X104088211Y-28927525D01*
X104042910Y-29030122D01*
X104042910Y-29030124D01*
X104040000Y-29055205D01*
X104040000Y-29850000D01*
X104814318Y-29850000D01*
X104790000Y-29940756D01*
X104790000Y-30059244D01*
X104814318Y-30150000D01*
X104040001Y-30150000D01*
X104040001Y-30944785D01*
X104040002Y-30944808D01*
X104042908Y-30969869D01*
X104042909Y-30969873D01*
X104088211Y-31072474D01*
X104088214Y-31072479D01*
X104167520Y-31151785D01*
X104167525Y-31151788D01*
X104270123Y-31197089D01*
X104295206Y-31199999D01*
X105089999Y-31199999D01*
X105090000Y-31199998D01*
X105090000Y-30425681D01*
X105180756Y-30450000D01*
X105299244Y-30450000D01*
X105390000Y-30425681D01*
X105390000Y-31199999D01*
X106184786Y-31199999D01*
X106184808Y-31199997D01*
X106209869Y-31197091D01*
X106209873Y-31197090D01*
X106312474Y-31151788D01*
X106312479Y-31151785D01*
X106391785Y-31072479D01*
X106391788Y-31072474D01*
X106437089Y-30969877D01*
X106437089Y-30969875D01*
X106439999Y-30944794D01*
X106439999Y-30530927D01*
X106459683Y-30463888D01*
X106512487Y-30418133D01*
X106581646Y-30408189D01*
X106645202Y-30437214D01*
X106674484Y-30474632D01*
X106753240Y-30629199D01*
X106864310Y-30782073D01*
X106997927Y-30915690D01*
X107150801Y-31026760D01*
X107230347Y-31067290D01*
X107319163Y-31112545D01*
X107319165Y-31112545D01*
X107319168Y-31112547D01*
X107415497Y-31143846D01*
X107498881Y-31170940D01*
X107685514Y-31200500D01*
X107685519Y-31200500D01*
X107874486Y-31200500D01*
X108061118Y-31170940D01*
X108120061Y-31151788D01*
X108240832Y-31112547D01*
X108409199Y-31026760D01*
X108562073Y-30915690D01*
X108695690Y-30782073D01*
X108806760Y-30629199D01*
X108863314Y-30518204D01*
X108911288Y-30467409D01*
X108973799Y-30450500D01*
X109739308Y-30450500D01*
X109739309Y-30450500D01*
X109829673Y-30426286D01*
X109853887Y-30419799D01*
X109956614Y-30360489D01*
X110120284Y-30196819D01*
X110181607Y-30163334D01*
X110207965Y-30160500D01*
X110612655Y-30160500D01*
X110679694Y-30180185D01*
X110725449Y-30232989D01*
X110735393Y-30302147D01*
X110732430Y-30316587D01*
X110729500Y-30327525D01*
X110729500Y-31849495D01*
X110709815Y-31916534D01*
X110657011Y-31962289D01*
X110587853Y-31972233D01*
X110543501Y-31956883D01*
X110422485Y-31887016D01*
X110422486Y-31887016D01*
X110387482Y-31877637D01*
X110282475Y-31849500D01*
X103767525Y-31849500D01*
X103662517Y-31877637D01*
X103627514Y-31887016D01*
X103501986Y-31959489D01*
X103501983Y-31959491D01*
X102918294Y-32543181D01*
X102856971Y-32576666D01*
X102830613Y-32579500D01*
X102266898Y-32579500D01*
X102227853Y-32584188D01*
X102178438Y-32590122D01*
X102037656Y-32645639D01*
X101917077Y-32737077D01*
X101825638Y-32857658D01*
X101821481Y-32865052D01*
X101818587Y-32863425D01*
X101785383Y-32906119D01*
X101719480Y-32929326D01*
X101712914Y-32929500D01*
X94612860Y-32929500D01*
X94545821Y-32909815D01*
X94500066Y-32857011D01*
X94497505Y-32850989D01*
X94496191Y-32847658D01*
X94489031Y-32829500D01*
X94484361Y-32817657D01*
X94392922Y-32697077D01*
X94272343Y-32605639D01*
X94131561Y-32550122D01*
X94085926Y-32544642D01*
X94043102Y-32539500D01*
X93056898Y-32539500D01*
X93017853Y-32544188D01*
X92968438Y-32550122D01*
X92827656Y-32605639D01*
X92707077Y-32697077D01*
X92615638Y-32817658D01*
X92611481Y-32825052D01*
X92608587Y-32823425D01*
X92575383Y-32866119D01*
X92509480Y-32889326D01*
X92502914Y-32889500D01*
X86170747Y-32889500D01*
X86103708Y-32869815D01*
X86057953Y-32817011D01*
X86055399Y-32811006D01*
X86034361Y-32757658D01*
X86034360Y-32757657D01*
X86034360Y-32757656D01*
X85942922Y-32637077D01*
X85822343Y-32545639D01*
X85681561Y-32490122D01*
X85635926Y-32484642D01*
X85593102Y-32479500D01*
X84606898Y-32479500D01*
X84573772Y-32483478D01*
X84518438Y-32490122D01*
X84377656Y-32545639D01*
X84257077Y-32637077D01*
X84165638Y-32757658D01*
X84161481Y-32765052D01*
X84158587Y-32763425D01*
X84125383Y-32806119D01*
X84059480Y-32829326D01*
X84052914Y-32829500D01*
X77814190Y-32829500D01*
X77747151Y-32809815D01*
X77739265Y-32804304D01*
X77622343Y-32715639D01*
X77481561Y-32660122D01*
X77435926Y-32654642D01*
X77393102Y-32649500D01*
X76406898Y-32649500D01*
X76367853Y-32654188D01*
X76318438Y-32660122D01*
X76177656Y-32715639D01*
X76057077Y-32807077D01*
X75965639Y-32927656D01*
X75910122Y-33068438D01*
X75904188Y-33117853D01*
X75899500Y-33156898D01*
X75899500Y-33943102D01*
X75902985Y-33972122D01*
X75910122Y-34031561D01*
X75910122Y-34031563D01*
X75910123Y-34031564D01*
X75926127Y-34072147D01*
X75965639Y-34172343D01*
X76057077Y-34292922D01*
X76177656Y-34384360D01*
X76177657Y-34384360D01*
X76177658Y-34384361D01*
X76305171Y-34434646D01*
X76360314Y-34477551D01*
X76383507Y-34543459D01*
X76367386Y-34611444D01*
X76317070Y-34659920D01*
X76305178Y-34665351D01*
X76256976Y-34684360D01*
X76177656Y-34715639D01*
X76057077Y-34807077D01*
X75965639Y-34927656D01*
X75910122Y-35068438D01*
X75904188Y-35117853D01*
X75899500Y-35156898D01*
X75899500Y-35943102D01*
X75905126Y-35989954D01*
X75910122Y-36031561D01*
X75965639Y-36172343D01*
X76057077Y-36292922D01*
X76177656Y-36384360D01*
X76177657Y-36384360D01*
X76177658Y-36384361D01*
X76318436Y-36439877D01*
X76406898Y-36450500D01*
X76406903Y-36450500D01*
X77393097Y-36450500D01*
X77393102Y-36450500D01*
X77481564Y-36439877D01*
X77622342Y-36384361D01*
X77742922Y-36292922D01*
X77834361Y-36172342D01*
X77871167Y-36079008D01*
X77914072Y-36023866D01*
X77979980Y-36000673D01*
X77986521Y-36000500D01*
X78699765Y-36000500D01*
X78766804Y-36020185D01*
X78812559Y-36072989D01*
X78813133Y-36074265D01*
X78847794Y-36152765D01*
X78927235Y-36232206D01*
X79030009Y-36277585D01*
X79055135Y-36280500D01*
X80512034Y-36280499D01*
X80579073Y-36300184D01*
X80599715Y-36316818D01*
X80973386Y-36690489D01*
X81076113Y-36749799D01*
X81100321Y-36756284D01*
X81100324Y-36756286D01*
X81100325Y-36756286D01*
X81125091Y-36762922D01*
X81190691Y-36780500D01*
X87252035Y-36780500D01*
X87319074Y-36800185D01*
X87339716Y-36816819D01*
X102880886Y-52357989D01*
X102983613Y-52417299D01*
X103007821Y-52423784D01*
X103007824Y-52423786D01*
X103007825Y-52423786D01*
X103037947Y-52431857D01*
X103098191Y-52448000D01*
X105592712Y-52448000D01*
X105659751Y-52467685D01*
X105666345Y-52472230D01*
X105748320Y-52532730D01*
X105790571Y-52588377D01*
X105796030Y-52658033D01*
X105762963Y-52719583D01*
X105748320Y-52732270D01*
X105666345Y-52792770D01*
X105600717Y-52816741D01*
X105592712Y-52817000D01*
X102725465Y-52817000D01*
X102658426Y-52797315D01*
X102637784Y-52780681D01*
X91596616Y-41739513D01*
X91596614Y-41739511D01*
X91533241Y-41702922D01*
X91493888Y-41680201D01*
X91481560Y-41676898D01*
X91469673Y-41673713D01*
X91469670Y-41673712D01*
X91431478Y-41663478D01*
X91379309Y-41649500D01*
X72920691Y-41649500D01*
X72851944Y-41667920D01*
X72806112Y-41680201D01*
X72806111Y-41680202D01*
X72766760Y-41702922D01*
X72703389Y-41739509D01*
X72703383Y-41739513D01*
X70599714Y-43843181D01*
X70538391Y-43876666D01*
X70512033Y-43879500D01*
X69055143Y-43879500D01*
X69055117Y-43879502D01*
X69030012Y-43882413D01*
X69030010Y-43882414D01*
X69003314Y-43894201D01*
X68934035Y-43903270D01*
X68870851Y-43873445D01*
X68865550Y-43868446D01*
X68356819Y-43359715D01*
X68323334Y-43298392D01*
X68320500Y-43272034D01*
X68320500Y-42566903D01*
X68320500Y-42566898D01*
X68309877Y-42478436D01*
X68254361Y-42337658D01*
X68254360Y-42337657D01*
X68254360Y-42337656D01*
X68162922Y-42217077D01*
X68042343Y-42125639D01*
X68004339Y-42110652D01*
X67914826Y-42075353D01*
X67859685Y-42032449D01*
X67836492Y-41966541D01*
X67852612Y-41898557D01*
X67902929Y-41850080D01*
X67914814Y-41844651D01*
X68042342Y-41794361D01*
X68162922Y-41702922D01*
X68254361Y-41582342D01*
X68309877Y-41441564D01*
X68320500Y-41353102D01*
X68320500Y-40566898D01*
X68309877Y-40478436D01*
X68254361Y-40337658D01*
X68254360Y-40337657D01*
X68254360Y-40337656D01*
X68162923Y-40217079D01*
X68162920Y-40217077D01*
X68042342Y-40125639D01*
X68042341Y-40125638D01*
X67949009Y-40088832D01*
X67893866Y-40045926D01*
X67870673Y-39980018D01*
X67870500Y-39973478D01*
X67870500Y-38299387D01*
X67890185Y-38232348D01*
X67906819Y-38211706D01*
X68491706Y-37626819D01*
X68553029Y-37593334D01*
X68579387Y-37590500D01*
X69143097Y-37590500D01*
X69143102Y-37590500D01*
X69231564Y-37579877D01*
X69372342Y-37524361D01*
X69492922Y-37432922D01*
X69584361Y-37312342D01*
X69634646Y-37184826D01*
X69677551Y-37129685D01*
X69743459Y-37106492D01*
X69811443Y-37122612D01*
X69859920Y-37172929D01*
X69865348Y-37184814D01*
X69900652Y-37274339D01*
X69915639Y-37312343D01*
X70007077Y-37432922D01*
X70091689Y-37497085D01*
X70127658Y-37524361D01*
X70127659Y-37524361D01*
X70135050Y-37528517D01*
X70133419Y-37531417D01*
X70176088Y-37564573D01*
X70199323Y-37630466D01*
X70199500Y-37637085D01*
X70199500Y-38282475D01*
X70204032Y-38299387D01*
X70227779Y-38388015D01*
X70228975Y-38392475D01*
X70237016Y-38422485D01*
X70304081Y-38538647D01*
X70309489Y-38548013D01*
X70309491Y-38548016D01*
X70349794Y-38588319D01*
X70383279Y-38649642D01*
X70378295Y-38719334D01*
X70336423Y-38775267D01*
X70270959Y-38799684D01*
X70262113Y-38800000D01*
X70150000Y-38800000D01*
X70150000Y-39574318D01*
X70059244Y-39550000D01*
X69940756Y-39550000D01*
X69850000Y-39574318D01*
X69850000Y-38800000D01*
X69055214Y-38800000D01*
X69055191Y-38800002D01*
X69030130Y-38802908D01*
X69030126Y-38802909D01*
X68927525Y-38848211D01*
X68927520Y-38848214D01*
X68848214Y-38927520D01*
X68848211Y-38927525D01*
X68802910Y-39030122D01*
X68802910Y-39030124D01*
X68800000Y-39055205D01*
X68800000Y-39850000D01*
X69574318Y-39850000D01*
X69550000Y-39940756D01*
X69550000Y-40059244D01*
X69574318Y-40150000D01*
X68800001Y-40150000D01*
X68800001Y-40944785D01*
X68800002Y-40944808D01*
X68802908Y-40969869D01*
X68802909Y-40969873D01*
X68848211Y-41072474D01*
X68848214Y-41072479D01*
X68927520Y-41151785D01*
X68927525Y-41151788D01*
X69030123Y-41197089D01*
X69055206Y-41199999D01*
X69849999Y-41199999D01*
X69850000Y-41199998D01*
X69850000Y-40425681D01*
X69940756Y-40450000D01*
X70059244Y-40450000D01*
X70150000Y-40425681D01*
X70150000Y-41199999D01*
X70944786Y-41199999D01*
X70944808Y-41199997D01*
X70969869Y-41197091D01*
X70969873Y-41197090D01*
X71072474Y-41151788D01*
X71072479Y-41151785D01*
X71151785Y-41072479D01*
X71151788Y-41072474D01*
X71197089Y-40969877D01*
X71197089Y-40969875D01*
X71199999Y-40944794D01*
X71199999Y-40530927D01*
X71219683Y-40463888D01*
X71272487Y-40418133D01*
X71341646Y-40408189D01*
X71405202Y-40437214D01*
X71434484Y-40474632D01*
X71463168Y-40530927D01*
X71513240Y-40629199D01*
X71624310Y-40782073D01*
X71757927Y-40915690D01*
X71910801Y-41026760D01*
X71918909Y-41030891D01*
X72079163Y-41112545D01*
X72079165Y-41112545D01*
X72079168Y-41112547D01*
X72102728Y-41120202D01*
X72258881Y-41170940D01*
X72445514Y-41200500D01*
X72445519Y-41200500D01*
X72634486Y-41200500D01*
X72821118Y-41170940D01*
X72826522Y-41169184D01*
X73000832Y-41112547D01*
X73169199Y-41026760D01*
X73322073Y-40915690D01*
X73455690Y-40782073D01*
X73566760Y-40629199D01*
X73652547Y-40460832D01*
X73710940Y-40281118D01*
X73721083Y-40217077D01*
X73740500Y-40094486D01*
X73740500Y-39905513D01*
X73710940Y-39718881D01*
X73666031Y-39580667D01*
X73652547Y-39539168D01*
X73652545Y-39539165D01*
X73652545Y-39539163D01*
X73607290Y-39450347D01*
X73566760Y-39370801D01*
X73455690Y-39217927D01*
X73322073Y-39084310D01*
X73169199Y-38973240D01*
X73000836Y-38887454D01*
X72821118Y-38829059D01*
X72634486Y-38799500D01*
X72634481Y-38799500D01*
X72445519Y-38799500D01*
X72445514Y-38799500D01*
X72258879Y-38829060D01*
X72247140Y-38832874D01*
X72177299Y-38834866D01*
X72121147Y-38802622D01*
X71336819Y-38018294D01*
X71303334Y-37956971D01*
X71300500Y-37930613D01*
X71300500Y-37637085D01*
X71320185Y-37570046D01*
X71365985Y-37530359D01*
X71364950Y-37528517D01*
X71372336Y-37524363D01*
X71372342Y-37524361D01*
X71492922Y-37432922D01*
X71584361Y-37312342D01*
X71639877Y-37171564D01*
X71650500Y-37083102D01*
X71650500Y-36096898D01*
X71639877Y-36008436D01*
X71584361Y-35867658D01*
X71584360Y-35867657D01*
X71584360Y-35867656D01*
X71492922Y-35747077D01*
X71372343Y-35655639D01*
X71252644Y-35608436D01*
X71231564Y-35600123D01*
X71231563Y-35600122D01*
X71231561Y-35600122D01*
X71185926Y-35594642D01*
X71143102Y-35589500D01*
X70488386Y-35589500D01*
X70421347Y-35569815D01*
X70375592Y-35517011D01*
X70365648Y-35447853D01*
X70394673Y-35384297D01*
X70400705Y-35377819D01*
X73051447Y-32727077D01*
X75787821Y-29990703D01*
X75849142Y-29957220D01*
X75918834Y-29962204D01*
X75974767Y-30004076D01*
X75999184Y-30069540D01*
X75999500Y-30078386D01*
X75999500Y-30393102D01*
X76001312Y-30408189D01*
X76010122Y-30481561D01*
X76065639Y-30622343D01*
X76157077Y-30742922D01*
X76277656Y-30834360D01*
X76277657Y-30834360D01*
X76277658Y-30834361D01*
X76418436Y-30889877D01*
X76506898Y-30900500D01*
X76506903Y-30900500D01*
X77493097Y-30900500D01*
X77493102Y-30900500D01*
X77581564Y-30889877D01*
X77722342Y-30834361D01*
X77842922Y-30742922D01*
X77934361Y-30622342D01*
X77989877Y-30481564D01*
X78000500Y-30393102D01*
X78000500Y-29687964D01*
X78020185Y-29620926D01*
X78036819Y-29600284D01*
X78400284Y-29236819D01*
X78461607Y-29203334D01*
X78487965Y-29200500D01*
X78676000Y-29200500D01*
X78743039Y-29220185D01*
X78788794Y-29272989D01*
X78800000Y-29324500D01*
X78800000Y-29850000D01*
X79574318Y-29850000D01*
X79550000Y-29940756D01*
X79550000Y-30059244D01*
X79574318Y-30150000D01*
X78800001Y-30150000D01*
X78800001Y-30944785D01*
X78800002Y-30944808D01*
X78802908Y-30969869D01*
X78802909Y-30969873D01*
X78848211Y-31072474D01*
X78848214Y-31072479D01*
X78927520Y-31151785D01*
X78927525Y-31151788D01*
X79030123Y-31197089D01*
X79055206Y-31199999D01*
X79849999Y-31199999D01*
X79850000Y-31199998D01*
X79850000Y-30425681D01*
X79940756Y-30450000D01*
X80059244Y-30450000D01*
X80150000Y-30425681D01*
X80150000Y-31199999D01*
X80944786Y-31199999D01*
X80944808Y-31199997D01*
X80969869Y-31197091D01*
X80969873Y-31197090D01*
X81072474Y-31151788D01*
X81072479Y-31151785D01*
X81151785Y-31072479D01*
X81151788Y-31072474D01*
X81197089Y-30969877D01*
X81197089Y-30969875D01*
X81199999Y-30944794D01*
X81199999Y-30530927D01*
X81219683Y-30463888D01*
X81272487Y-30418133D01*
X81341646Y-30408189D01*
X81405202Y-30437214D01*
X81434484Y-30474632D01*
X81513240Y-30629199D01*
X81624310Y-30782073D01*
X81757927Y-30915690D01*
X81910801Y-31026760D01*
X81990347Y-31067290D01*
X82079163Y-31112545D01*
X82079165Y-31112545D01*
X82079168Y-31112547D01*
X82175497Y-31143846D01*
X82258881Y-31170940D01*
X82445514Y-31200500D01*
X82445519Y-31200500D01*
X82634486Y-31200500D01*
X82821118Y-31170940D01*
X82880061Y-31151788D01*
X83000832Y-31112547D01*
X83169199Y-31026760D01*
X83322073Y-30915690D01*
X83455690Y-30782073D01*
X83566760Y-30629199D01*
X83652547Y-30460832D01*
X83710940Y-30281118D01*
X83718563Y-30232989D01*
X83740500Y-30094486D01*
X83740500Y-29905513D01*
X83710940Y-29718881D01*
X83679112Y-29620925D01*
X83652547Y-29539168D01*
X83652545Y-29539165D01*
X83652545Y-29539163D01*
X83593559Y-29423397D01*
X83566760Y-29370801D01*
X83455690Y-29217927D01*
X83322073Y-29084310D01*
X83169199Y-28973240D01*
X83101130Y-28938557D01*
X83000836Y-28887454D01*
X82821118Y-28829059D01*
X82634486Y-28799500D01*
X82634481Y-28799500D01*
X82445519Y-28799500D01*
X82445514Y-28799500D01*
X82258880Y-28829060D01*
X82258877Y-28829060D01*
X82140406Y-28867554D01*
X82070564Y-28869549D01*
X82014407Y-28837304D01*
X81939284Y-28762181D01*
X81905799Y-28700858D01*
X81910783Y-28631166D01*
X81952655Y-28575233D01*
X82018119Y-28550816D01*
X82026965Y-28550500D01*
X84002914Y-28550500D01*
X84069953Y-28570185D01*
G37*
%TD.AperFunction*%
%TA.AperFunction,Conductor*%
G36*
X92569953Y-34010185D02*
G01*
X92609638Y-34055984D01*
X92611481Y-34054948D01*
X92615638Y-34062341D01*
X92707077Y-34182922D01*
X92827656Y-34274360D01*
X92827657Y-34274360D01*
X92827658Y-34274361D01*
X92955171Y-34324646D01*
X93010314Y-34367551D01*
X93033507Y-34433459D01*
X93017386Y-34501444D01*
X92967070Y-34549920D01*
X92955178Y-34555351D01*
X92914066Y-34571564D01*
X92827656Y-34605639D01*
X92707077Y-34697077D01*
X92615639Y-34817656D01*
X92560122Y-34958438D01*
X92555319Y-34998438D01*
X92549500Y-35046898D01*
X92549500Y-35833102D01*
X92554838Y-35877553D01*
X92560122Y-35921561D01*
X92615639Y-36062343D01*
X92707077Y-36182922D01*
X92827656Y-36274360D01*
X92827657Y-36274360D01*
X92827658Y-36274361D01*
X92968436Y-36329877D01*
X93056898Y-36340500D01*
X93056903Y-36340500D01*
X94043097Y-36340500D01*
X94043102Y-36340500D01*
X94131564Y-36329877D01*
X94272342Y-36274361D01*
X94392922Y-36182922D01*
X94484361Y-36062342D01*
X94521167Y-35969008D01*
X94564072Y-35913866D01*
X94629980Y-35890673D01*
X94636521Y-35890500D01*
X96295501Y-35890500D01*
X96362540Y-35910185D01*
X96408295Y-35962989D01*
X96419501Y-36014500D01*
X96419501Y-36024856D01*
X96419502Y-36024882D01*
X96422413Y-36049987D01*
X96422415Y-36049991D01*
X96467793Y-36152764D01*
X96467794Y-36152765D01*
X96547235Y-36232206D01*
X96650009Y-36277585D01*
X96675135Y-36280500D01*
X97045500Y-36280499D01*
X97112539Y-36300183D01*
X97158294Y-36352987D01*
X97169500Y-36404499D01*
X97169500Y-41301808D01*
X97183243Y-41353096D01*
X97186731Y-41366113D01*
X97186731Y-41366114D01*
X97200199Y-41416384D01*
X97218256Y-41447658D01*
X97259511Y-41519113D01*
X97259513Y-41519115D01*
X105558382Y-49817986D01*
X105558386Y-49817989D01*
X105558387Y-49817990D01*
X105574406Y-49827238D01*
X105591852Y-49845533D01*
X105612018Y-49860775D01*
X105612179Y-49860993D01*
X105645036Y-49905513D01*
X105662850Y-49929650D01*
X105748322Y-49992731D01*
X105790571Y-50048376D01*
X105796030Y-50118032D01*
X105762963Y-50179581D01*
X105748321Y-50192269D01*
X105666346Y-50252770D01*
X105641650Y-50261790D01*
X105618511Y-50274287D01*
X105609346Y-50273588D01*
X105600717Y-50276741D01*
X105592712Y-50277000D01*
X103505466Y-50277000D01*
X103438427Y-50257315D01*
X103417785Y-50240681D01*
X96500500Y-43323396D01*
X89575491Y-36398388D01*
X89542007Y-36337066D01*
X89546991Y-36267374D01*
X89588863Y-36211441D01*
X89654327Y-36187024D01*
X89701491Y-36192777D01*
X89878997Y-36250451D01*
X90065553Y-36280000D01*
X90254447Y-36280000D01*
X90441002Y-36250451D01*
X90620637Y-36192085D01*
X90788940Y-36106329D01*
X90896239Y-36028373D01*
X90896240Y-36028371D01*
X90354936Y-35487068D01*
X90436306Y-35440090D01*
X90520090Y-35356306D01*
X90567068Y-35274936D01*
X91108371Y-35816240D01*
X91108373Y-35816239D01*
X91186329Y-35708940D01*
X91272085Y-35540637D01*
X91330451Y-35361002D01*
X91360000Y-35174447D01*
X91360000Y-34985552D01*
X91330451Y-34798997D01*
X91272085Y-34619362D01*
X91186333Y-34451066D01*
X91108371Y-34343759D01*
X91108370Y-34343759D01*
X90567068Y-34885062D01*
X90520090Y-34803694D01*
X90436306Y-34719910D01*
X90354936Y-34672931D01*
X90896239Y-34131627D01*
X90895657Y-34124230D01*
X90910021Y-34055853D01*
X90959071Y-34006096D01*
X91019275Y-33990500D01*
X92502914Y-33990500D01*
X92569953Y-34010185D01*
G37*
%TD.AperFunction*%
%TA.AperFunction,Conductor*%
G36*
X61261443Y-47132612D02*
G01*
X61309920Y-47182929D01*
X61315348Y-47194814D01*
X61347466Y-47276259D01*
X61365639Y-47322343D01*
X61457077Y-47442922D01*
X61577655Y-47534359D01*
X61577658Y-47534361D01*
X61577659Y-47534361D01*
X61585050Y-47538517D01*
X61583419Y-47541417D01*
X61626088Y-47574573D01*
X61649323Y-47640466D01*
X61649500Y-47647085D01*
X61649500Y-49142966D01*
X61629815Y-49210005D01*
X61625818Y-49215852D01*
X61624313Y-49217924D01*
X61624310Y-49217927D01*
X61601371Y-49249500D01*
X61513240Y-49370800D01*
X61434484Y-49525368D01*
X61386509Y-49576164D01*
X61318688Y-49592959D01*
X61252553Y-49570422D01*
X61209102Y-49515706D01*
X61199999Y-49469073D01*
X61199999Y-49055214D01*
X61199997Y-49055191D01*
X61197091Y-49030130D01*
X61197090Y-49030126D01*
X61151788Y-48927525D01*
X61151785Y-48927520D01*
X61072479Y-48848214D01*
X61072474Y-48848211D01*
X60969876Y-48802910D01*
X60944794Y-48800000D01*
X60150000Y-48800000D01*
X60150000Y-49574318D01*
X60059244Y-49550000D01*
X59940756Y-49550000D01*
X59850000Y-49574318D01*
X59850000Y-48800000D01*
X59077885Y-48800000D01*
X59010846Y-48780315D01*
X58965091Y-48727511D01*
X58955147Y-48658353D01*
X58984172Y-48594797D01*
X58990190Y-48588333D01*
X59941705Y-47636819D01*
X60003028Y-47603334D01*
X60029386Y-47600500D01*
X60593097Y-47600500D01*
X60593102Y-47600500D01*
X60681564Y-47589877D01*
X60822342Y-47534361D01*
X60942922Y-47442922D01*
X61034361Y-47322342D01*
X61084646Y-47194826D01*
X61127551Y-47139685D01*
X61193459Y-47116492D01*
X61261443Y-47132612D01*
G37*
%TD.AperFunction*%
%TA.AperFunction,Conductor*%
G36*
X128102631Y-34300185D02*
G01*
X128148386Y-34352989D01*
X128150938Y-34358989D01*
X128170089Y-34407551D01*
X128195639Y-34472343D01*
X128287077Y-34592922D01*
X128407656Y-34684360D01*
X128407657Y-34684360D01*
X128407658Y-34684361D01*
X128535171Y-34734646D01*
X128590314Y-34777551D01*
X128613507Y-34843459D01*
X128597386Y-34911444D01*
X128547070Y-34959920D01*
X128535178Y-34965351D01*
X128502358Y-34978294D01*
X128407656Y-35015639D01*
X128287077Y-35107077D01*
X128195639Y-35227656D01*
X128140122Y-35368438D01*
X128134750Y-35413181D01*
X128129500Y-35456898D01*
X128129500Y-36243102D01*
X128130383Y-36250451D01*
X128140122Y-36331561D01*
X128195639Y-36472343D01*
X128287077Y-36592922D01*
X128407656Y-36684360D01*
X128407657Y-36684360D01*
X128407658Y-36684361D01*
X128548436Y-36739877D01*
X128570283Y-36742500D01*
X128634497Y-36770036D01*
X128673631Y-36827918D01*
X128679500Y-36865616D01*
X128679500Y-38302034D01*
X128659815Y-38369073D01*
X128643181Y-38389715D01*
X118062216Y-48970681D01*
X118000893Y-49004166D01*
X117974535Y-49007000D01*
X117427288Y-49007000D01*
X117398110Y-48998432D01*
X117368364Y-48992105D01*
X117361303Y-48987624D01*
X117360249Y-48987315D01*
X117359556Y-48986516D01*
X117353658Y-48982773D01*
X117271677Y-48922268D01*
X117229428Y-48866624D01*
X117223969Y-48796967D01*
X117257036Y-48735418D01*
X117271670Y-48722736D01*
X117357150Y-48659650D01*
X117407820Y-48590993D01*
X117426346Y-48574436D01*
X117432823Y-48565702D01*
X117438542Y-48563538D01*
X117445593Y-48557237D01*
X117461613Y-48547989D01*
X120640489Y-45369113D01*
X120699798Y-45266386D01*
X120699799Y-45266385D01*
X120730500Y-45151808D01*
X120730500Y-37035616D01*
X120750185Y-36968577D01*
X120802989Y-36922822D01*
X120839715Y-36912500D01*
X120861564Y-36909877D01*
X121002342Y-36854361D01*
X121122922Y-36762922D01*
X121214361Y-36642342D01*
X121251167Y-36549008D01*
X121294072Y-36493866D01*
X121359980Y-36470673D01*
X121366521Y-36470500D01*
X121979308Y-36470500D01*
X121979309Y-36470500D01*
X122069673Y-36446286D01*
X122093887Y-36439799D01*
X122196614Y-36380489D01*
X122260284Y-36316817D01*
X122321607Y-36283333D01*
X122347966Y-36280499D01*
X123804856Y-36280499D01*
X123804864Y-36280499D01*
X123804879Y-36280497D01*
X123804882Y-36280497D01*
X123829987Y-36277586D01*
X123829988Y-36277585D01*
X123829991Y-36277585D01*
X123932765Y-36232206D01*
X124012206Y-36152765D01*
X124057585Y-36049991D01*
X124060500Y-36024865D01*
X124060499Y-35610805D01*
X124080183Y-35543769D01*
X124132987Y-35498014D01*
X124202146Y-35488070D01*
X124265702Y-35517095D01*
X124294983Y-35554513D01*
X124373661Y-35708925D01*
X124373664Y-35708930D01*
X124451627Y-35816239D01*
X124992930Y-35274935D01*
X125039910Y-35356306D01*
X125123694Y-35440090D01*
X125205061Y-35487067D01*
X124663759Y-36028370D01*
X124663759Y-36028371D01*
X124771066Y-36106333D01*
X124939362Y-36192085D01*
X125118997Y-36250451D01*
X125305553Y-36280000D01*
X125494447Y-36280000D01*
X125681002Y-36250451D01*
X125860637Y-36192085D01*
X126028940Y-36106329D01*
X126136239Y-36028373D01*
X126136240Y-36028371D01*
X125594937Y-35487068D01*
X125676306Y-35440090D01*
X125760090Y-35356306D01*
X125807068Y-35274937D01*
X126348371Y-35816240D01*
X126348373Y-35816239D01*
X126426329Y-35708940D01*
X126512085Y-35540637D01*
X126570451Y-35361002D01*
X126600000Y-35174447D01*
X126600000Y-34985552D01*
X126570451Y-34798997D01*
X126512085Y-34619362D01*
X126431291Y-34460795D01*
X126418395Y-34392126D01*
X126444671Y-34327385D01*
X126501778Y-34287128D01*
X126541776Y-34280500D01*
X128035592Y-34280500D01*
X128102631Y-34300185D01*
G37*
%TD.AperFunction*%
%TA.AperFunction,Conductor*%
G36*
X109997652Y-32970185D02*
G01*
X110018294Y-32986819D01*
X110243181Y-33211705D01*
X110276666Y-33273028D01*
X110279500Y-33299386D01*
X110279500Y-33640613D01*
X110259815Y-33707652D01*
X110243181Y-33728294D01*
X109689491Y-34281983D01*
X109689489Y-34281986D01*
X109663279Y-34327385D01*
X109638387Y-34370500D01*
X109632614Y-34380499D01*
X109632613Y-34380500D01*
X109617017Y-34407512D01*
X109617016Y-34407513D01*
X109599645Y-34472342D01*
X109579500Y-34547525D01*
X109579500Y-34547527D01*
X109579500Y-46964273D01*
X109559815Y-47031312D01*
X109507011Y-47077067D01*
X109437853Y-47087011D01*
X109374297Y-47057986D01*
X109367819Y-47051954D01*
X108221819Y-45905954D01*
X108188334Y-45844631D01*
X108185500Y-45818273D01*
X108185500Y-45443230D01*
X108182646Y-45412800D01*
X108182646Y-45412798D01*
X108140422Y-45292132D01*
X108137793Y-45284618D01*
X108057150Y-45175350D01*
X107947882Y-45094707D01*
X107947880Y-45094706D01*
X107819700Y-45049853D01*
X107789270Y-45047000D01*
X107789266Y-45047000D01*
X105930734Y-45047000D01*
X105930730Y-45047000D01*
X105900300Y-45049853D01*
X105900298Y-45049853D01*
X105772119Y-45094706D01*
X105772117Y-45094707D01*
X105662850Y-45175350D01*
X105582207Y-45284617D01*
X105582206Y-45284619D01*
X105537353Y-45412798D01*
X105537353Y-45412800D01*
X105534500Y-45443230D01*
X105534500Y-45851769D01*
X105537353Y-45882199D01*
X105537353Y-45882201D01*
X105582206Y-46010380D01*
X105582207Y-46010382D01*
X105662850Y-46119650D01*
X105748318Y-46182728D01*
X105748321Y-46182730D01*
X105790571Y-46238377D01*
X105796030Y-46308034D01*
X105762962Y-46369583D01*
X105748321Y-46382270D01*
X105662850Y-46445350D01*
X105582207Y-46554617D01*
X105582206Y-46554619D01*
X105537353Y-46682798D01*
X105537353Y-46682800D01*
X105534500Y-46713230D01*
X105534500Y-46950534D01*
X105514815Y-47017573D01*
X105462011Y-47063328D01*
X105392853Y-47073272D01*
X105329297Y-47044247D01*
X105322819Y-47038215D01*
X103246819Y-44962215D01*
X103213334Y-44900892D01*
X103210500Y-44874534D01*
X103210500Y-36495616D01*
X103230185Y-36428577D01*
X103282989Y-36382822D01*
X103319715Y-36372500D01*
X103341564Y-36369877D01*
X103482342Y-36314361D01*
X103602922Y-36222922D01*
X103694361Y-36102342D01*
X103731167Y-36009008D01*
X103774072Y-35953866D01*
X103839980Y-35930673D01*
X103846521Y-35930500D01*
X103918107Y-35930500D01*
X103985146Y-35950185D01*
X104030901Y-36002989D01*
X104041282Y-36040217D01*
X104042415Y-36049992D01*
X104087793Y-36152764D01*
X104087794Y-36152765D01*
X104167235Y-36232206D01*
X104270009Y-36277585D01*
X104295135Y-36280500D01*
X106184864Y-36280499D01*
X106184879Y-36280497D01*
X106184882Y-36280497D01*
X106209987Y-36277586D01*
X106209988Y-36277585D01*
X106209991Y-36277585D01*
X106312765Y-36232206D01*
X106392206Y-36152765D01*
X106437585Y-36049991D01*
X106440500Y-36024865D01*
X106440499Y-35610805D01*
X106460183Y-35543769D01*
X106512987Y-35498014D01*
X106582146Y-35488070D01*
X106645701Y-35517095D01*
X106674983Y-35554513D01*
X106753661Y-35708925D01*
X106753664Y-35708930D01*
X106831627Y-35816239D01*
X107372931Y-35274936D01*
X107419910Y-35356306D01*
X107503694Y-35440090D01*
X107585062Y-35487068D01*
X107043759Y-36028370D01*
X107043759Y-36028371D01*
X107151066Y-36106333D01*
X107319362Y-36192085D01*
X107498997Y-36250451D01*
X107685553Y-36280000D01*
X107874447Y-36280000D01*
X108061002Y-36250451D01*
X108240637Y-36192085D01*
X108408940Y-36106329D01*
X108516239Y-36028373D01*
X108516240Y-36028371D01*
X107974936Y-35487068D01*
X108056306Y-35440090D01*
X108140090Y-35356306D01*
X108187068Y-35274937D01*
X108728371Y-35816240D01*
X108728373Y-35816239D01*
X108806329Y-35708940D01*
X108892085Y-35540637D01*
X108950451Y-35361002D01*
X108980000Y-35174447D01*
X108980000Y-34985552D01*
X108950451Y-34798997D01*
X108892085Y-34619362D01*
X108806333Y-34451066D01*
X108728371Y-34343759D01*
X108728370Y-34343759D01*
X108187068Y-34885062D01*
X108140090Y-34803694D01*
X108056306Y-34719910D01*
X107974936Y-34672931D01*
X108516239Y-34131627D01*
X108408933Y-34053666D01*
X108240637Y-33967914D01*
X108061002Y-33909548D01*
X107874447Y-33880000D01*
X107685553Y-33880000D01*
X107498997Y-33909548D01*
X107319362Y-33967914D01*
X107151064Y-34053667D01*
X107151062Y-34053668D01*
X107043759Y-34131626D01*
X107043759Y-34131627D01*
X107585063Y-34672931D01*
X107503694Y-34719910D01*
X107419910Y-34803694D01*
X107372931Y-34885063D01*
X106831627Y-34343759D01*
X106831626Y-34343759D01*
X106753668Y-34451062D01*
X106753661Y-34451074D01*
X106674983Y-34605487D01*
X106627009Y-34656283D01*
X106559188Y-34673078D01*
X106493053Y-34650540D01*
X106449602Y-34595825D01*
X106440499Y-34549192D01*
X106440499Y-34135143D01*
X106440499Y-34135137D01*
X106440499Y-34135136D01*
X106439763Y-34128791D01*
X106437586Y-34110012D01*
X106437585Y-34110010D01*
X106437585Y-34110009D01*
X106392206Y-34007235D01*
X106312765Y-33927794D01*
X106304202Y-33924013D01*
X106209992Y-33882415D01*
X106184865Y-33879500D01*
X104295143Y-33879500D01*
X104295117Y-33879502D01*
X104270012Y-33882413D01*
X104270008Y-33882415D01*
X104167235Y-33927793D01*
X104087794Y-34007234D01*
X104042415Y-34110006D01*
X104042415Y-34110008D01*
X104039500Y-34135131D01*
X104039500Y-34905500D01*
X104019815Y-34972539D01*
X103967011Y-35018294D01*
X103915500Y-35029500D01*
X103846521Y-35029500D01*
X103779482Y-35009815D01*
X103733727Y-34957011D01*
X103731174Y-34951009D01*
X103694361Y-34857658D01*
X103694360Y-34857657D01*
X103694360Y-34857656D01*
X103602922Y-34737077D01*
X103482343Y-34645639D01*
X103442684Y-34630000D01*
X103354826Y-34595353D01*
X103299685Y-34552449D01*
X103276492Y-34486541D01*
X103292612Y-34418557D01*
X103342929Y-34370080D01*
X103354814Y-34364651D01*
X103482342Y-34314361D01*
X103602922Y-34222922D01*
X103694361Y-34102342D01*
X103749877Y-33961564D01*
X103760500Y-33873102D01*
X103760500Y-33309387D01*
X103780185Y-33242348D01*
X103796819Y-33221706D01*
X104031706Y-32986819D01*
X104093029Y-32953334D01*
X104119387Y-32950500D01*
X109930613Y-32950500D01*
X109997652Y-32970185D01*
G37*
%TD.AperFunction*%
%TA.AperFunction,Conductor*%
G36*
X113983986Y-35940185D02*
G01*
X114029741Y-35992989D01*
X114040121Y-36030215D01*
X114042414Y-36049988D01*
X114042415Y-36049991D01*
X114087793Y-36152764D01*
X114087794Y-36152765D01*
X114167235Y-36232206D01*
X114270009Y-36277585D01*
X114295135Y-36280500D01*
X115752033Y-36280499D01*
X115819072Y-36300184D01*
X115839714Y-36316818D01*
X118943181Y-39420284D01*
X118976666Y-39481607D01*
X118979500Y-39507965D01*
X118979500Y-44932035D01*
X118959815Y-44999074D01*
X118943181Y-45019716D01*
X117532216Y-46430681D01*
X117470893Y-46464166D01*
X117444535Y-46467000D01*
X117427288Y-46467000D01*
X117360249Y-46447315D01*
X117353654Y-46442770D01*
X117271678Y-46382269D01*
X117229428Y-46326622D01*
X117223969Y-46256965D01*
X117257037Y-46195416D01*
X117271669Y-46182737D01*
X117357150Y-46119650D01*
X117437793Y-46010382D01*
X117474334Y-45905954D01*
X117482646Y-45882201D01*
X117482646Y-45882199D01*
X117485500Y-45851769D01*
X117485500Y-45443230D01*
X117482646Y-45412800D01*
X117482646Y-45412798D01*
X117440422Y-45292132D01*
X117437793Y-45284618D01*
X117357150Y-45175350D01*
X117247882Y-45094707D01*
X117247880Y-45094706D01*
X117119700Y-45049853D01*
X117089270Y-45047000D01*
X117089266Y-45047000D01*
X116389387Y-45047000D01*
X116322348Y-45027315D01*
X116301706Y-45010681D01*
X115459319Y-44168294D01*
X115425834Y-44106971D01*
X115423000Y-44080613D01*
X115423000Y-43880784D01*
X115442685Y-43813745D01*
X115472075Y-43781980D01*
X115582922Y-43697922D01*
X115645271Y-43615703D01*
X115674361Y-43577342D01*
X115729877Y-43436564D01*
X115740500Y-43348102D01*
X115740500Y-43348053D01*
X116040000Y-43348053D01*
X116050613Y-43436443D01*
X116106079Y-43577095D01*
X116197435Y-43697564D01*
X116317904Y-43788920D01*
X116458556Y-43844386D01*
X116546946Y-43855000D01*
X116777500Y-43855000D01*
X117077500Y-43855000D01*
X117308054Y-43855000D01*
X117396443Y-43844386D01*
X117537095Y-43788920D01*
X117657564Y-43697564D01*
X117748920Y-43577095D01*
X117804386Y-43436443D01*
X117815000Y-43348053D01*
X117815000Y-42980000D01*
X117077500Y-42980000D01*
X117077500Y-43855000D01*
X116777500Y-43855000D01*
X116777500Y-42980000D01*
X116040000Y-42980000D01*
X116040000Y-43348053D01*
X115740500Y-43348053D01*
X115740500Y-42311946D01*
X116040000Y-42311946D01*
X116040000Y-42680000D01*
X116777500Y-42680000D01*
X117077500Y-42680000D01*
X117815000Y-42680000D01*
X117815000Y-42311946D01*
X117804386Y-42223556D01*
X117748920Y-42082904D01*
X117657564Y-41962435D01*
X117537095Y-41871079D01*
X117396443Y-41815613D01*
X117308054Y-41805000D01*
X117077500Y-41805000D01*
X117077500Y-42680000D01*
X116777500Y-42680000D01*
X116777500Y-41805000D01*
X116546946Y-41805000D01*
X116458556Y-41815613D01*
X116317904Y-41871079D01*
X116197435Y-41962435D01*
X116106079Y-42082904D01*
X116050613Y-42223556D01*
X116040000Y-42311946D01*
X115740500Y-42311946D01*
X115740500Y-42311898D01*
X115729877Y-42223436D01*
X115674361Y-42082658D01*
X115674360Y-42082657D01*
X115674360Y-42082656D01*
X115582922Y-41962077D01*
X115462343Y-41870639D01*
X115354963Y-41828294D01*
X115321564Y-41815123D01*
X115321563Y-41815122D01*
X115321561Y-41815122D01*
X115274847Y-41809513D01*
X115233102Y-41804500D01*
X115233097Y-41804500D01*
X114656886Y-41804500D01*
X114589847Y-41784815D01*
X114569205Y-41768181D01*
X113554319Y-40753294D01*
X113520834Y-40691971D01*
X113518000Y-40665613D01*
X113518000Y-40475077D01*
X113537685Y-40408038D01*
X113585704Y-40364593D01*
X113649110Y-40332287D01*
X113776184Y-40239963D01*
X115084666Y-40239963D01*
X115211150Y-40331859D01*
X115393468Y-40424755D01*
X115588082Y-40487990D01*
X115790183Y-40520000D01*
X115994817Y-40520000D01*
X116196917Y-40487990D01*
X116391531Y-40424755D01*
X116573849Y-40331859D01*
X116700331Y-40239963D01*
X116700332Y-40239963D01*
X115892500Y-39432132D01*
X115084666Y-40239963D01*
X113776184Y-40239963D01*
X113814719Y-40211966D01*
X113959466Y-40067219D01*
X113959468Y-40067215D01*
X113959471Y-40067213D01*
X114027572Y-39973478D01*
X114079787Y-39901610D01*
X114172720Y-39719219D01*
X114235977Y-39524534D01*
X114268000Y-39322352D01*
X114268000Y-39117682D01*
X114592500Y-39117682D01*
X114592500Y-39322317D01*
X114624509Y-39524417D01*
X114687744Y-39719031D01*
X114780641Y-39901350D01*
X114780647Y-39901359D01*
X114872533Y-40027831D01*
X114872535Y-40027832D01*
X115680368Y-39220000D01*
X115680367Y-39219999D01*
X116104632Y-39219999D01*
X116104632Y-39220001D01*
X116912463Y-40027832D01*
X116912463Y-40027831D01*
X117004359Y-39901349D01*
X117097255Y-39719031D01*
X117160490Y-39524417D01*
X117192500Y-39322317D01*
X117192500Y-39117682D01*
X117160490Y-38915582D01*
X117097255Y-38720968D01*
X117004359Y-38538650D01*
X116912463Y-38412167D01*
X116912463Y-38412166D01*
X116104632Y-39219999D01*
X115680367Y-39219999D01*
X114872535Y-38412167D01*
X114872534Y-38412167D01*
X114780642Y-38538647D01*
X114687744Y-38720968D01*
X114624509Y-38915582D01*
X114592500Y-39117682D01*
X114268000Y-39117682D01*
X114268000Y-39117648D01*
X114237886Y-38927520D01*
X114235977Y-38915465D01*
X114199312Y-38802622D01*
X114172720Y-38720781D01*
X114172718Y-38720778D01*
X114172718Y-38720776D01*
X114136218Y-38649142D01*
X114079787Y-38538390D01*
X114072056Y-38527749D01*
X113959471Y-38372786D01*
X113814713Y-38228028D01*
X113776182Y-38200034D01*
X115084667Y-38200034D01*
X115084667Y-38200035D01*
X115892500Y-39007868D01*
X115892501Y-39007868D01*
X116700332Y-38200035D01*
X116700331Y-38200033D01*
X116573859Y-38108147D01*
X116573850Y-38108141D01*
X116391531Y-38015244D01*
X116196917Y-37952009D01*
X115994817Y-37920000D01*
X115790183Y-37920000D01*
X115588082Y-37952009D01*
X115393468Y-38015244D01*
X115211147Y-38108142D01*
X115084667Y-38200034D01*
X113776182Y-38200034D01*
X113649113Y-38107715D01*
X113649112Y-38107714D01*
X113649110Y-38107713D01*
X113592153Y-38078691D01*
X113466723Y-38014781D01*
X113272034Y-37951522D01*
X113097495Y-37923878D01*
X113069852Y-37919500D01*
X112865148Y-37919500D01*
X112840829Y-37923351D01*
X112662965Y-37951522D01*
X112468276Y-38014781D01*
X112285886Y-38107715D01*
X112120286Y-38228028D01*
X111975528Y-38372786D01*
X111855213Y-38538388D01*
X111822907Y-38601794D01*
X111774933Y-38652591D01*
X111712422Y-38669500D01*
X110804500Y-38669500D01*
X110737461Y-38649815D01*
X110691706Y-38597011D01*
X110680500Y-38545500D01*
X110680500Y-36494500D01*
X110700185Y-36427461D01*
X110752989Y-36381706D01*
X110804500Y-36370500D01*
X111773097Y-36370500D01*
X111773102Y-36370500D01*
X111861564Y-36359877D01*
X112002342Y-36304361D01*
X112122922Y-36212922D01*
X112214361Y-36092342D01*
X112251167Y-35999008D01*
X112294072Y-35943866D01*
X112359980Y-35920673D01*
X112366521Y-35920500D01*
X113916947Y-35920500D01*
X113983986Y-35940185D01*
G37*
%TD.AperFunction*%
%TA.AperFunction,Conductor*%
G36*
X101779953Y-34050185D02*
G01*
X101819638Y-34095984D01*
X101821481Y-34094948D01*
X101825638Y-34102341D01*
X101917077Y-34222922D01*
X102037656Y-34314360D01*
X102037657Y-34314360D01*
X102037658Y-34314361D01*
X102165171Y-34364646D01*
X102220314Y-34407551D01*
X102243507Y-34473459D01*
X102227386Y-34541444D01*
X102177070Y-34589920D01*
X102165178Y-34595351D01*
X102124370Y-34611444D01*
X102037656Y-34645639D01*
X101917077Y-34737077D01*
X101825639Y-34857656D01*
X101770122Y-34998438D01*
X101764827Y-35042539D01*
X101759500Y-35086898D01*
X101759500Y-35873102D01*
X101761610Y-35890673D01*
X101770122Y-35961561D01*
X101770122Y-35961563D01*
X101770123Y-35961564D01*
X101784890Y-35999010D01*
X101825639Y-36102343D01*
X101917077Y-36222922D01*
X102037656Y-36314360D01*
X102037657Y-36314360D01*
X102037658Y-36314361D01*
X102178436Y-36369877D01*
X102200283Y-36372500D01*
X102264497Y-36400036D01*
X102303631Y-36457918D01*
X102309500Y-36495616D01*
X102309500Y-44995533D01*
X102289815Y-45062572D01*
X102237011Y-45108327D01*
X102167853Y-45118271D01*
X102104297Y-45089246D01*
X102097819Y-45083214D01*
X98106819Y-41092214D01*
X98073334Y-41030891D01*
X98070500Y-41004533D01*
X98070500Y-36404499D01*
X98090185Y-36337460D01*
X98142989Y-36291705D01*
X98194500Y-36280499D01*
X98564856Y-36280499D01*
X98564864Y-36280499D01*
X98564879Y-36280497D01*
X98564882Y-36280497D01*
X98589987Y-36277586D01*
X98589988Y-36277585D01*
X98589991Y-36277585D01*
X98692765Y-36232206D01*
X98772206Y-36152765D01*
X98817585Y-36049991D01*
X98820500Y-36024865D01*
X98820499Y-35610805D01*
X98840183Y-35543769D01*
X98892987Y-35498014D01*
X98962146Y-35488070D01*
X99025701Y-35517095D01*
X99054983Y-35554513D01*
X99133661Y-35708925D01*
X99133664Y-35708930D01*
X99211627Y-35816239D01*
X99752931Y-35274936D01*
X99799910Y-35356306D01*
X99883694Y-35440090D01*
X99965062Y-35487068D01*
X99423759Y-36028370D01*
X99423759Y-36028371D01*
X99531066Y-36106333D01*
X99699362Y-36192085D01*
X99878997Y-36250451D01*
X100065553Y-36280000D01*
X100254447Y-36280000D01*
X100441002Y-36250451D01*
X100620637Y-36192085D01*
X100788940Y-36106329D01*
X100896239Y-36028373D01*
X100896240Y-36028371D01*
X100354936Y-35487068D01*
X100436306Y-35440090D01*
X100520090Y-35356306D01*
X100567068Y-35274936D01*
X101108371Y-35816240D01*
X101108373Y-35816239D01*
X101186329Y-35708940D01*
X101272085Y-35540637D01*
X101330451Y-35361002D01*
X101360000Y-35174447D01*
X101360000Y-34985552D01*
X101330451Y-34798997D01*
X101272085Y-34619362D01*
X101186333Y-34451066D01*
X101108371Y-34343759D01*
X101108370Y-34343759D01*
X100567068Y-34885062D01*
X100520090Y-34803694D01*
X100436306Y-34719910D01*
X100354936Y-34672931D01*
X100908158Y-34119708D01*
X100913171Y-34095851D01*
X100962223Y-34046094D01*
X101022424Y-34030500D01*
X101712914Y-34030500D01*
X101779953Y-34050185D01*
G37*
%TD.AperFunction*%
%TA.AperFunction,Conductor*%
G36*
X119249953Y-28570185D02*
G01*
X119289638Y-28615984D01*
X119291481Y-28614948D01*
X119295638Y-28622341D01*
X119387077Y-28742922D01*
X119507656Y-28834360D01*
X119507657Y-28834360D01*
X119507658Y-28834361D01*
X119635171Y-28884646D01*
X119690314Y-28927551D01*
X119713507Y-28993459D01*
X119697386Y-29061444D01*
X119647070Y-29109920D01*
X119635178Y-29115351D01*
X119583663Y-29135665D01*
X119507656Y-29165639D01*
X119387077Y-29257077D01*
X119295639Y-29377656D01*
X119277602Y-29423397D01*
X119258832Y-29470991D01*
X119215928Y-29526134D01*
X119150020Y-29549327D01*
X119143479Y-29549500D01*
X118973799Y-29549500D01*
X118906760Y-29529815D01*
X118863314Y-29481795D01*
X118844718Y-29445298D01*
X118806760Y-29370801D01*
X118695690Y-29217927D01*
X118562073Y-29084310D01*
X118409199Y-28973240D01*
X118341130Y-28938557D01*
X118240836Y-28887454D01*
X118061118Y-28829059D01*
X117874486Y-28799500D01*
X117874481Y-28799500D01*
X117685519Y-28799500D01*
X117685514Y-28799500D01*
X117498881Y-28829059D01*
X117319163Y-28887454D01*
X117150800Y-28973240D01*
X117072499Y-29030130D01*
X116997927Y-29084310D01*
X116997925Y-29084312D01*
X116997924Y-29084312D01*
X116864312Y-29217924D01*
X116864312Y-29217925D01*
X116864310Y-29217927D01*
X116850584Y-29236819D01*
X116753240Y-29370800D01*
X116674484Y-29525368D01*
X116626509Y-29576164D01*
X116558688Y-29592959D01*
X116492553Y-29570422D01*
X116449102Y-29515706D01*
X116439999Y-29469073D01*
X116439999Y-29055214D01*
X116439997Y-29055191D01*
X116437091Y-29030130D01*
X116437090Y-29030126D01*
X116391788Y-28927525D01*
X116391785Y-28927520D01*
X116312479Y-28848214D01*
X116312474Y-28848211D01*
X116209876Y-28802910D01*
X116184794Y-28800000D01*
X115390000Y-28800000D01*
X115390000Y-29574318D01*
X115299244Y-29550000D01*
X115180756Y-29550000D01*
X115090000Y-29574318D01*
X115090000Y-28800000D01*
X114295214Y-28800000D01*
X114295191Y-28800002D01*
X114270130Y-28802908D01*
X114270126Y-28802909D01*
X114167525Y-28848211D01*
X114167520Y-28848214D01*
X114088214Y-28927520D01*
X114088211Y-28927525D01*
X114042910Y-29030122D01*
X114042910Y-29030124D01*
X114040000Y-29055205D01*
X114040000Y-29850000D01*
X114814318Y-29850000D01*
X114790000Y-29940756D01*
X114790000Y-30059244D01*
X114814318Y-30150000D01*
X114040001Y-30150000D01*
X114040001Y-30944785D01*
X114040002Y-30944808D01*
X114042908Y-30969869D01*
X114042909Y-30969873D01*
X114088211Y-31072474D01*
X114088214Y-31072479D01*
X114167520Y-31151785D01*
X114167525Y-31151788D01*
X114270123Y-31197089D01*
X114295206Y-31199999D01*
X115089999Y-31199999D01*
X115090000Y-31199998D01*
X115090000Y-30425681D01*
X115180756Y-30450000D01*
X115299244Y-30450000D01*
X115390000Y-30425681D01*
X115390000Y-31199999D01*
X116184786Y-31199999D01*
X116184808Y-31199997D01*
X116209869Y-31197091D01*
X116209873Y-31197090D01*
X116312474Y-31151788D01*
X116312479Y-31151785D01*
X116391785Y-31072479D01*
X116391788Y-31072474D01*
X116437089Y-30969877D01*
X116437089Y-30969875D01*
X116439999Y-30944794D01*
X116439999Y-30530927D01*
X116459683Y-30463888D01*
X116512487Y-30418133D01*
X116581646Y-30408189D01*
X116645202Y-30437214D01*
X116674484Y-30474632D01*
X116753240Y-30629199D01*
X116864310Y-30782073D01*
X116997927Y-30915690D01*
X117150801Y-31026760D01*
X117230347Y-31067290D01*
X117319163Y-31112545D01*
X117319165Y-31112545D01*
X117319168Y-31112547D01*
X117415497Y-31143846D01*
X117498881Y-31170940D01*
X117685514Y-31200500D01*
X117685519Y-31200500D01*
X117874486Y-31200500D01*
X118061118Y-31170940D01*
X118120061Y-31151788D01*
X118240832Y-31112547D01*
X118409199Y-31026760D01*
X118562073Y-30915690D01*
X118695690Y-30782073D01*
X118806760Y-30629199D01*
X118863314Y-30518204D01*
X118911288Y-30467409D01*
X118973799Y-30450500D01*
X119143479Y-30450500D01*
X119210518Y-30470185D01*
X119256273Y-30522989D01*
X119258825Y-30528990D01*
X119281100Y-30585474D01*
X119295639Y-30622343D01*
X119387077Y-30742922D01*
X119507656Y-30834360D01*
X119507657Y-30834360D01*
X119507658Y-30834361D01*
X119648436Y-30889877D01*
X119736898Y-30900500D01*
X119736903Y-30900500D01*
X120723097Y-30900500D01*
X120723102Y-30900500D01*
X120811564Y-30889877D01*
X120952342Y-30834361D01*
X121072922Y-30742922D01*
X121164361Y-30622342D01*
X121219877Y-30481564D01*
X121230500Y-30393102D01*
X121230500Y-29606898D01*
X121219877Y-29518436D01*
X121164361Y-29377658D01*
X121164360Y-29377657D01*
X121164360Y-29377656D01*
X121072922Y-29257077D01*
X120952343Y-29165639D01*
X120914339Y-29150652D01*
X120824826Y-29115353D01*
X120769685Y-29072449D01*
X120746492Y-29006541D01*
X120762612Y-28938557D01*
X120812929Y-28890080D01*
X120824814Y-28884651D01*
X120952342Y-28834361D01*
X121072922Y-28742922D01*
X121164361Y-28622342D01*
X121164362Y-28622338D01*
X121168519Y-28614948D01*
X121171412Y-28616574D01*
X121204617Y-28573881D01*
X121270520Y-28550674D01*
X121277086Y-28550500D01*
X127912914Y-28550500D01*
X127979953Y-28570185D01*
X128019638Y-28615984D01*
X128021481Y-28614948D01*
X128025638Y-28622341D01*
X128117077Y-28742922D01*
X128237656Y-28834360D01*
X128237657Y-28834360D01*
X128237658Y-28834361D01*
X128365171Y-28884646D01*
X128420314Y-28927551D01*
X128443507Y-28993459D01*
X128427386Y-29061444D01*
X128377070Y-29109920D01*
X128365178Y-29115351D01*
X128313663Y-29135665D01*
X128237656Y-29165639D01*
X128117077Y-29257077D01*
X128025639Y-29377656D01*
X128007602Y-29423397D01*
X127988832Y-29470991D01*
X127945928Y-29526134D01*
X127880020Y-29549327D01*
X127873479Y-29549500D01*
X126593799Y-29549500D01*
X126526760Y-29529815D01*
X126483314Y-29481795D01*
X126464718Y-29445298D01*
X126426760Y-29370801D01*
X126315690Y-29217927D01*
X126182073Y-29084310D01*
X126029199Y-28973240D01*
X125961130Y-28938557D01*
X125860836Y-28887454D01*
X125681118Y-28829059D01*
X125494486Y-28799500D01*
X125494481Y-28799500D01*
X125305519Y-28799500D01*
X125305514Y-28799500D01*
X125118881Y-28829059D01*
X124939163Y-28887454D01*
X124770800Y-28973240D01*
X124692499Y-29030130D01*
X124617927Y-29084310D01*
X124617925Y-29084312D01*
X124617924Y-29084312D01*
X124484312Y-29217924D01*
X124484312Y-29217925D01*
X124484310Y-29217927D01*
X124470584Y-29236819D01*
X124373240Y-29370800D01*
X124294484Y-29525368D01*
X124246509Y-29576164D01*
X124178688Y-29592959D01*
X124112553Y-29570422D01*
X124069102Y-29515706D01*
X124059999Y-29469073D01*
X124059999Y-29055214D01*
X124059997Y-29055191D01*
X124057091Y-29030130D01*
X124057090Y-29030126D01*
X124011788Y-28927525D01*
X124011785Y-28927520D01*
X123932479Y-28848214D01*
X123932474Y-28848211D01*
X123829876Y-28802910D01*
X123804794Y-28800000D01*
X123010000Y-28800000D01*
X123010000Y-29574318D01*
X122919244Y-29550000D01*
X122800756Y-29550000D01*
X122710000Y-29574318D01*
X122710000Y-28800000D01*
X121915214Y-28800000D01*
X121915191Y-28800002D01*
X121890130Y-28802908D01*
X121890126Y-28802909D01*
X121787525Y-28848211D01*
X121787520Y-28848214D01*
X121708214Y-28927520D01*
X121708211Y-28927525D01*
X121662910Y-29030122D01*
X121662910Y-29030124D01*
X121660000Y-29055205D01*
X121660000Y-29850000D01*
X122434318Y-29850000D01*
X122410000Y-29940756D01*
X122410000Y-30059244D01*
X122434318Y-30150000D01*
X121660001Y-30150000D01*
X121660001Y-30944785D01*
X121660002Y-30944808D01*
X121662908Y-30969869D01*
X121662909Y-30969873D01*
X121708211Y-31072474D01*
X121708214Y-31072479D01*
X121787520Y-31151785D01*
X121787525Y-31151788D01*
X121890123Y-31197089D01*
X121915206Y-31199999D01*
X122709999Y-31199999D01*
X122710000Y-31199998D01*
X122710000Y-30425681D01*
X122800756Y-30450000D01*
X122919244Y-30450000D01*
X123010000Y-30425681D01*
X123010000Y-31199999D01*
X123804786Y-31199999D01*
X123804808Y-31199997D01*
X123829869Y-31197091D01*
X123829873Y-31197090D01*
X123932474Y-31151788D01*
X123932479Y-31151785D01*
X124011785Y-31072479D01*
X124011788Y-31072474D01*
X124057089Y-30969877D01*
X124057089Y-30969875D01*
X124059999Y-30944794D01*
X124059999Y-30530927D01*
X124079683Y-30463888D01*
X124132487Y-30418133D01*
X124201646Y-30408189D01*
X124265202Y-30437214D01*
X124294484Y-30474632D01*
X124373240Y-30629199D01*
X124484310Y-30782073D01*
X124617927Y-30915690D01*
X124770801Y-31026760D01*
X124850347Y-31067290D01*
X124939163Y-31112545D01*
X124939165Y-31112545D01*
X124939168Y-31112547D01*
X125035497Y-31143846D01*
X125118881Y-31170940D01*
X125305514Y-31200500D01*
X125305519Y-31200500D01*
X125494486Y-31200500D01*
X125681118Y-31170940D01*
X125740061Y-31151788D01*
X125860832Y-31112547D01*
X126029199Y-31026760D01*
X126182073Y-30915690D01*
X126315690Y-30782073D01*
X126426760Y-30629199D01*
X126483314Y-30518204D01*
X126531288Y-30467409D01*
X126593799Y-30450500D01*
X127873479Y-30450500D01*
X127940518Y-30470185D01*
X127986273Y-30522989D01*
X127988825Y-30528990D01*
X128011100Y-30585474D01*
X128025639Y-30622343D01*
X128117077Y-30742922D01*
X128237656Y-30834360D01*
X128237657Y-30834360D01*
X128237658Y-30834361D01*
X128378436Y-30889877D01*
X128466898Y-30900500D01*
X128466903Y-30900500D01*
X129453097Y-30900500D01*
X129453102Y-30900500D01*
X129541564Y-30889877D01*
X129682342Y-30834361D01*
X129802922Y-30742922D01*
X129894361Y-30622342D01*
X129949877Y-30481564D01*
X129960500Y-30393102D01*
X129960500Y-29606898D01*
X129949877Y-29518436D01*
X129894361Y-29377658D01*
X129894360Y-29377657D01*
X129894360Y-29377656D01*
X129802922Y-29257077D01*
X129682343Y-29165639D01*
X129644339Y-29150652D01*
X129554826Y-29115353D01*
X129499685Y-29072449D01*
X129476492Y-29006541D01*
X129492612Y-28938557D01*
X129542929Y-28890080D01*
X129554814Y-28884651D01*
X129682342Y-28834361D01*
X129802922Y-28742922D01*
X129894361Y-28622342D01*
X129894362Y-28622338D01*
X129898519Y-28614948D01*
X129901412Y-28616574D01*
X129934617Y-28573881D01*
X130000520Y-28550674D01*
X130007086Y-28550500D01*
X136892914Y-28550500D01*
X136959953Y-28570185D01*
X136999638Y-28615984D01*
X137001481Y-28614948D01*
X137005638Y-28622341D01*
X137097077Y-28742922D01*
X137217656Y-28834360D01*
X137217657Y-28834360D01*
X137217658Y-28834361D01*
X137345171Y-28884646D01*
X137400314Y-28927551D01*
X137423507Y-28993459D01*
X137407386Y-29061444D01*
X137357070Y-29109920D01*
X137345178Y-29115351D01*
X137293663Y-29135665D01*
X137217656Y-29165639D01*
X137097077Y-29257077D01*
X137005639Y-29377656D01*
X136987602Y-29423397D01*
X136968832Y-29470991D01*
X136925928Y-29526134D01*
X136860020Y-29549327D01*
X136853479Y-29549500D01*
X136593799Y-29549500D01*
X136526760Y-29529815D01*
X136483314Y-29481795D01*
X136464718Y-29445298D01*
X136426760Y-29370801D01*
X136315690Y-29217927D01*
X136182073Y-29084310D01*
X136029199Y-28973240D01*
X135961130Y-28938557D01*
X135860836Y-28887454D01*
X135681118Y-28829059D01*
X135494486Y-28799500D01*
X135494481Y-28799500D01*
X135305519Y-28799500D01*
X135305514Y-28799500D01*
X135118881Y-28829059D01*
X134939163Y-28887454D01*
X134770800Y-28973240D01*
X134692499Y-29030130D01*
X134617927Y-29084310D01*
X134617925Y-29084312D01*
X134617924Y-29084312D01*
X134484312Y-29217924D01*
X134484312Y-29217925D01*
X134484310Y-29217927D01*
X134470584Y-29236819D01*
X134373240Y-29370800D01*
X134294484Y-29525368D01*
X134246509Y-29576164D01*
X134178688Y-29592959D01*
X134112553Y-29570422D01*
X134069102Y-29515706D01*
X134059999Y-29469073D01*
X134059999Y-29055214D01*
X134059997Y-29055191D01*
X134057091Y-29030130D01*
X134057090Y-29030126D01*
X134011788Y-28927525D01*
X134011785Y-28927520D01*
X133932479Y-28848214D01*
X133932474Y-28848211D01*
X133829876Y-28802910D01*
X133804794Y-28800000D01*
X133010000Y-28800000D01*
X133010000Y-29574318D01*
X132919244Y-29550000D01*
X132800756Y-29550000D01*
X132710000Y-29574318D01*
X132710000Y-28800000D01*
X131915214Y-28800000D01*
X131915191Y-28800002D01*
X131890130Y-28802908D01*
X131890126Y-28802909D01*
X131787525Y-28848211D01*
X131787520Y-28848214D01*
X131708214Y-28927520D01*
X131708211Y-28927525D01*
X131662910Y-29030122D01*
X131662910Y-29030124D01*
X131660000Y-29055205D01*
X131660000Y-29850000D01*
X132434318Y-29850000D01*
X132410000Y-29940756D01*
X132410000Y-30059244D01*
X132434318Y-30150000D01*
X131660001Y-30150000D01*
X131660001Y-30944785D01*
X131660002Y-30944808D01*
X131662908Y-30969869D01*
X131662909Y-30969873D01*
X131708211Y-31072474D01*
X131708214Y-31072479D01*
X131787520Y-31151785D01*
X131787525Y-31151788D01*
X131890123Y-31197089D01*
X131915206Y-31199999D01*
X132709999Y-31199999D01*
X132710000Y-31199998D01*
X132710000Y-30425681D01*
X132800756Y-30450000D01*
X132919244Y-30450000D01*
X133010000Y-30425681D01*
X133010000Y-31199999D01*
X133804786Y-31199999D01*
X133804808Y-31199997D01*
X133829869Y-31197091D01*
X133829873Y-31197090D01*
X133932474Y-31151788D01*
X133932479Y-31151785D01*
X134011785Y-31072479D01*
X134011788Y-31072474D01*
X134057089Y-30969877D01*
X134057089Y-30969875D01*
X134059999Y-30944794D01*
X134059999Y-30530927D01*
X134079683Y-30463888D01*
X134132487Y-30418133D01*
X134201646Y-30408189D01*
X134265202Y-30437214D01*
X134294484Y-30474632D01*
X134373240Y-30629199D01*
X134484310Y-30782073D01*
X134617927Y-30915690D01*
X134770801Y-31026760D01*
X134850347Y-31067290D01*
X134939163Y-31112545D01*
X134939165Y-31112545D01*
X134939168Y-31112547D01*
X135035497Y-31143846D01*
X135118881Y-31170940D01*
X135305514Y-31200500D01*
X135305519Y-31200500D01*
X135494486Y-31200500D01*
X135681118Y-31170940D01*
X135740061Y-31151788D01*
X135860832Y-31112547D01*
X136029199Y-31026760D01*
X136182073Y-30915690D01*
X136315690Y-30782073D01*
X136426760Y-30629199D01*
X136483314Y-30518204D01*
X136531288Y-30467409D01*
X136593799Y-30450500D01*
X136853479Y-30450500D01*
X136920518Y-30470185D01*
X136966273Y-30522989D01*
X136968825Y-30528990D01*
X136991100Y-30585474D01*
X137005639Y-30622343D01*
X137097077Y-30742922D01*
X137217656Y-30834360D01*
X137217657Y-30834360D01*
X137217658Y-30834361D01*
X137358436Y-30889877D01*
X137446898Y-30900500D01*
X137446903Y-30900500D01*
X138433097Y-30900500D01*
X138433102Y-30900500D01*
X138521564Y-30889877D01*
X138662342Y-30834361D01*
X138782922Y-30742922D01*
X138874361Y-30622342D01*
X138929877Y-30481564D01*
X138940500Y-30393102D01*
X138940500Y-29606898D01*
X138929877Y-29518436D01*
X138874361Y-29377658D01*
X138874360Y-29377657D01*
X138874360Y-29377656D01*
X138782922Y-29257077D01*
X138662343Y-29165639D01*
X138624339Y-29150652D01*
X138534826Y-29115353D01*
X138479685Y-29072449D01*
X138456492Y-29006541D01*
X138472612Y-28938557D01*
X138522929Y-28890080D01*
X138534814Y-28884651D01*
X138662342Y-28834361D01*
X138782922Y-28742922D01*
X138874361Y-28622342D01*
X138874362Y-28622338D01*
X138878519Y-28614948D01*
X138881412Y-28616574D01*
X138914617Y-28573881D01*
X138980520Y-28550674D01*
X138987086Y-28550500D01*
X144302914Y-28550500D01*
X144369953Y-28570185D01*
X144409638Y-28615984D01*
X144411481Y-28614948D01*
X144415638Y-28622341D01*
X144507077Y-28742922D01*
X144627656Y-28834360D01*
X144627657Y-28834360D01*
X144627658Y-28834361D01*
X144755171Y-28884646D01*
X144810314Y-28927551D01*
X144833507Y-28993459D01*
X144817386Y-29061444D01*
X144767070Y-29109920D01*
X144755178Y-29115351D01*
X144703663Y-29135665D01*
X144627656Y-29165639D01*
X144507077Y-29257077D01*
X144415639Y-29377656D01*
X144397602Y-29423397D01*
X144378832Y-29470991D01*
X144335928Y-29526134D01*
X144270020Y-29549327D01*
X144263479Y-29549500D01*
X144213799Y-29549500D01*
X144146760Y-29529815D01*
X144103314Y-29481795D01*
X144084718Y-29445298D01*
X144046760Y-29370801D01*
X143935690Y-29217927D01*
X143802073Y-29084310D01*
X143649199Y-28973240D01*
X143581130Y-28938557D01*
X143480836Y-28887454D01*
X143301118Y-28829059D01*
X143114486Y-28799500D01*
X143114481Y-28799500D01*
X142925519Y-28799500D01*
X142925514Y-28799500D01*
X142738881Y-28829059D01*
X142559163Y-28887454D01*
X142390800Y-28973240D01*
X142312499Y-29030130D01*
X142237927Y-29084310D01*
X142237925Y-29084312D01*
X142237924Y-29084312D01*
X142104312Y-29217924D01*
X142104312Y-29217925D01*
X142104310Y-29217927D01*
X142090584Y-29236819D01*
X141993240Y-29370800D01*
X141914484Y-29525368D01*
X141866509Y-29576164D01*
X141798688Y-29592959D01*
X141732553Y-29570422D01*
X141689102Y-29515706D01*
X141679999Y-29469073D01*
X141679999Y-29055214D01*
X141679997Y-29055191D01*
X141677091Y-29030130D01*
X141677090Y-29030126D01*
X141631788Y-28927525D01*
X141631785Y-28927520D01*
X141552479Y-28848214D01*
X141552474Y-28848211D01*
X141449876Y-28802910D01*
X141424794Y-28800000D01*
X140630000Y-28800000D01*
X140630000Y-29574318D01*
X140539244Y-29550000D01*
X140420756Y-29550000D01*
X140330000Y-29574318D01*
X140330000Y-28800000D01*
X139535214Y-28800000D01*
X139535191Y-28800002D01*
X139510130Y-28802908D01*
X139510126Y-28802909D01*
X139407525Y-28848211D01*
X139407520Y-28848214D01*
X139328214Y-28927520D01*
X139328211Y-28927525D01*
X139282910Y-29030122D01*
X139282910Y-29030124D01*
X139280000Y-29055205D01*
X139280000Y-29850000D01*
X140054318Y-29850000D01*
X140030000Y-29940756D01*
X140030000Y-30059244D01*
X140054318Y-30150000D01*
X139280001Y-30150000D01*
X139280001Y-30944785D01*
X139280002Y-30944808D01*
X139282908Y-30969869D01*
X139282909Y-30969873D01*
X139328211Y-31072474D01*
X139328214Y-31072479D01*
X139407520Y-31151785D01*
X139407525Y-31151788D01*
X139510123Y-31197089D01*
X139535206Y-31199999D01*
X140329999Y-31199999D01*
X140330000Y-31199998D01*
X140330000Y-30425681D01*
X140420756Y-30450000D01*
X140539244Y-30450000D01*
X140630000Y-30425681D01*
X140630000Y-31199999D01*
X141424786Y-31199999D01*
X141424808Y-31199997D01*
X141449869Y-31197091D01*
X141449873Y-31197090D01*
X141552474Y-31151788D01*
X141552479Y-31151785D01*
X141631785Y-31072479D01*
X141631788Y-31072474D01*
X141677089Y-30969877D01*
X141677089Y-30969875D01*
X141679999Y-30944794D01*
X141679999Y-30530927D01*
X141699683Y-30463888D01*
X141752487Y-30418133D01*
X141821646Y-30408189D01*
X141885202Y-30437214D01*
X141914484Y-30474632D01*
X141993240Y-30629199D01*
X142104310Y-30782073D01*
X142237927Y-30915690D01*
X142390801Y-31026760D01*
X142470347Y-31067290D01*
X142559163Y-31112545D01*
X142559165Y-31112545D01*
X142559168Y-31112547D01*
X142655497Y-31143846D01*
X142738881Y-31170940D01*
X142925514Y-31200500D01*
X142925519Y-31200500D01*
X143114486Y-31200500D01*
X143301118Y-31170940D01*
X143360061Y-31151788D01*
X143480832Y-31112547D01*
X143649199Y-31026760D01*
X143802073Y-30915690D01*
X143935690Y-30782073D01*
X144046760Y-30629199D01*
X144103314Y-30518204D01*
X144151288Y-30467409D01*
X144213799Y-30450500D01*
X144263479Y-30450500D01*
X144330518Y-30470185D01*
X144376273Y-30522989D01*
X144378825Y-30528990D01*
X144401100Y-30585474D01*
X144415639Y-30622343D01*
X144507077Y-30742922D01*
X144627656Y-30834360D01*
X144627657Y-30834360D01*
X144627658Y-30834361D01*
X144768436Y-30889877D01*
X144856898Y-30900500D01*
X144856903Y-30900500D01*
X145843097Y-30900500D01*
X145843102Y-30900500D01*
X145931564Y-30889877D01*
X146072342Y-30834361D01*
X146192922Y-30742922D01*
X146284361Y-30622342D01*
X146339877Y-30481564D01*
X146350500Y-30393102D01*
X146350500Y-30078386D01*
X146370185Y-30011348D01*
X146422989Y-29965593D01*
X146492147Y-29955649D01*
X146555703Y-29984674D01*
X146562181Y-29990706D01*
X151809294Y-35237819D01*
X151842779Y-35299142D01*
X151837795Y-35368834D01*
X151795923Y-35424767D01*
X151730459Y-35449184D01*
X151721613Y-35449500D01*
X150946898Y-35449500D01*
X150907853Y-35454188D01*
X150858438Y-35460122D01*
X150717656Y-35515639D01*
X150597077Y-35607077D01*
X150505639Y-35727656D01*
X150450122Y-35868438D01*
X150444188Y-35917853D01*
X150439500Y-35956898D01*
X150439500Y-36943102D01*
X150443916Y-36979877D01*
X150450122Y-37031561D01*
X150505639Y-37172343D01*
X150597077Y-37292922D01*
X150717655Y-37384359D01*
X150717658Y-37384361D01*
X150717659Y-37384361D01*
X150725050Y-37388517D01*
X150723419Y-37391417D01*
X150766088Y-37424573D01*
X150789323Y-37490466D01*
X150789500Y-37497085D01*
X150789500Y-38392475D01*
X150827016Y-38532485D01*
X150865596Y-38599309D01*
X150874079Y-38614001D01*
X150890551Y-38681901D01*
X150867698Y-38747928D01*
X150812776Y-38791118D01*
X150766691Y-38800000D01*
X150630000Y-38800000D01*
X150630000Y-39574318D01*
X150539244Y-39550000D01*
X150420756Y-39550000D01*
X150330000Y-39574318D01*
X150330000Y-38800000D01*
X149535214Y-38800000D01*
X149535191Y-38800002D01*
X149510130Y-38802908D01*
X149510126Y-38802909D01*
X149407525Y-38848211D01*
X149407520Y-38848214D01*
X149328214Y-38927520D01*
X149328211Y-38927525D01*
X149282910Y-39030122D01*
X149282910Y-39030124D01*
X149280000Y-39055205D01*
X149280000Y-39850000D01*
X150054318Y-39850000D01*
X150030000Y-39940756D01*
X150030000Y-40059244D01*
X150054318Y-40150000D01*
X149280001Y-40150000D01*
X149280001Y-40944785D01*
X149280002Y-40944808D01*
X149282908Y-40969869D01*
X149282909Y-40969873D01*
X149328211Y-41072474D01*
X149328214Y-41072479D01*
X149407520Y-41151785D01*
X149407525Y-41151788D01*
X149510123Y-41197089D01*
X149535206Y-41199999D01*
X150329999Y-41199999D01*
X150330000Y-41199998D01*
X150330000Y-40425681D01*
X150420756Y-40450000D01*
X150539244Y-40450000D01*
X150630000Y-40425681D01*
X150630000Y-41199999D01*
X151424786Y-41199999D01*
X151424808Y-41199997D01*
X151449869Y-41197091D01*
X151449873Y-41197090D01*
X151552474Y-41151788D01*
X151552479Y-41151785D01*
X151631785Y-41072479D01*
X151631788Y-41072474D01*
X151677089Y-40969877D01*
X151677089Y-40969875D01*
X151679999Y-40944794D01*
X151679999Y-40530927D01*
X151699683Y-40463888D01*
X151752487Y-40418133D01*
X151821646Y-40408189D01*
X151885202Y-40437214D01*
X151914484Y-40474632D01*
X151943168Y-40530927D01*
X151993240Y-40629199D01*
X152104310Y-40782073D01*
X152237927Y-40915690D01*
X152390801Y-41026760D01*
X152398909Y-41030891D01*
X152559163Y-41112545D01*
X152559165Y-41112545D01*
X152559168Y-41112547D01*
X152582728Y-41120202D01*
X152738881Y-41170940D01*
X152925514Y-41200500D01*
X152925519Y-41200500D01*
X153114486Y-41200500D01*
X153301118Y-41170940D01*
X153306522Y-41169184D01*
X153480832Y-41112547D01*
X153649199Y-41026760D01*
X153802073Y-40915690D01*
X153935690Y-40782073D01*
X154046760Y-40629199D01*
X154132547Y-40460832D01*
X154190940Y-40281118D01*
X154201083Y-40217077D01*
X154220500Y-40094486D01*
X154220500Y-40008387D01*
X154240185Y-39941348D01*
X154292989Y-39895593D01*
X154362147Y-39885649D01*
X154425703Y-39914674D01*
X154432181Y-39920706D01*
X155469294Y-40957819D01*
X155502779Y-41019142D01*
X155497795Y-41088834D01*
X155455923Y-41144767D01*
X155390459Y-41169184D01*
X155381613Y-41169500D01*
X155066898Y-41169500D01*
X155027853Y-41174188D01*
X154978438Y-41180122D01*
X154837656Y-41235639D01*
X154717077Y-41327077D01*
X154625639Y-41447656D01*
X154570122Y-41588438D01*
X154567500Y-41610282D01*
X154539964Y-41674497D01*
X154482082Y-41713631D01*
X154444384Y-41719500D01*
X153330691Y-41719500D01*
X153261944Y-41737920D01*
X153216112Y-41750201D01*
X153216107Y-41750204D01*
X153172695Y-41775267D01*
X153172696Y-41775268D01*
X153113389Y-41809508D01*
X153113383Y-41809513D01*
X151079715Y-43843181D01*
X151018392Y-43876666D01*
X150992034Y-43879500D01*
X149967965Y-43879500D01*
X149900926Y-43859815D01*
X149880284Y-43843181D01*
X147216616Y-41179513D01*
X147216614Y-41179511D01*
X147168592Y-41151785D01*
X147113890Y-41120202D01*
X147113887Y-41120201D01*
X147085321Y-41112547D01*
X147085317Y-41112546D01*
X147085316Y-41112545D01*
X147024136Y-41096152D01*
X146999309Y-41089500D01*
X129666965Y-41089500D01*
X129599926Y-41069815D01*
X129554171Y-41017011D01*
X129544227Y-40947853D01*
X129573252Y-40884297D01*
X129579284Y-40877819D01*
X133620284Y-36836819D01*
X133681607Y-36803334D01*
X133707965Y-36800500D01*
X137193293Y-36800500D01*
X137260332Y-36820185D01*
X137270113Y-36828067D01*
X137270319Y-36827797D01*
X137397656Y-36924360D01*
X137397657Y-36924360D01*
X137397658Y-36924361D01*
X137538436Y-36979877D01*
X137626898Y-36990500D01*
X137626903Y-36990500D01*
X138613097Y-36990500D01*
X138613102Y-36990500D01*
X138701564Y-36979877D01*
X138842342Y-36924361D01*
X138962922Y-36832922D01*
X139054361Y-36712342D01*
X139091167Y-36619008D01*
X139134072Y-36563866D01*
X139199980Y-36540673D01*
X139206521Y-36540500D01*
X139529308Y-36540500D01*
X139529309Y-36540500D01*
X139619673Y-36516286D01*
X139643887Y-36509799D01*
X139746614Y-36450489D01*
X139880285Y-36316816D01*
X139941606Y-36283333D01*
X139967965Y-36280499D01*
X141424856Y-36280499D01*
X141424864Y-36280499D01*
X141424879Y-36280497D01*
X141424882Y-36280497D01*
X141449987Y-36277586D01*
X141449988Y-36277585D01*
X141449991Y-36277585D01*
X141552765Y-36232206D01*
X141632206Y-36152765D01*
X141677585Y-36049991D01*
X141680500Y-36024865D01*
X141680499Y-35610805D01*
X141700183Y-35543769D01*
X141752987Y-35498014D01*
X141822146Y-35488070D01*
X141885701Y-35517095D01*
X141914983Y-35554513D01*
X141993661Y-35708925D01*
X141993664Y-35708930D01*
X142071627Y-35816239D01*
X142612931Y-35274936D01*
X142659910Y-35356306D01*
X142743694Y-35440090D01*
X142825062Y-35487068D01*
X142283759Y-36028370D01*
X142283759Y-36028371D01*
X142391066Y-36106333D01*
X142559362Y-36192085D01*
X142738997Y-36250451D01*
X142925553Y-36280000D01*
X143114447Y-36280000D01*
X143301002Y-36250451D01*
X143480637Y-36192085D01*
X143648940Y-36106329D01*
X143756239Y-36028373D01*
X143756240Y-36028371D01*
X143214936Y-35487068D01*
X143296306Y-35440090D01*
X143380090Y-35356306D01*
X143427068Y-35274937D01*
X143968371Y-35816240D01*
X143968373Y-35816239D01*
X144046329Y-35708940D01*
X144132085Y-35540637D01*
X144190451Y-35361002D01*
X144220000Y-35174447D01*
X144220000Y-34985552D01*
X144190451Y-34798997D01*
X144132085Y-34619362D01*
X144046333Y-34451066D01*
X143968371Y-34343759D01*
X143968370Y-34343759D01*
X143427068Y-34885062D01*
X143380090Y-34803694D01*
X143296306Y-34719910D01*
X143214936Y-34672931D01*
X143756239Y-34131627D01*
X143648933Y-34053666D01*
X143480637Y-33967914D01*
X143301002Y-33909548D01*
X143114447Y-33880000D01*
X142925553Y-33880000D01*
X142738997Y-33909548D01*
X142559362Y-33967914D01*
X142391064Y-34053667D01*
X142391062Y-34053668D01*
X142283759Y-34131626D01*
X142283759Y-34131627D01*
X142825063Y-34672931D01*
X142743694Y-34719910D01*
X142659910Y-34803694D01*
X142612931Y-34885063D01*
X142071627Y-34343759D01*
X142071626Y-34343759D01*
X141993668Y-34451062D01*
X141993661Y-34451074D01*
X141914983Y-34605487D01*
X141867009Y-34656283D01*
X141799188Y-34673078D01*
X141733053Y-34650540D01*
X141689602Y-34595825D01*
X141680499Y-34549192D01*
X141680499Y-34135143D01*
X141680499Y-34135137D01*
X141680499Y-34135136D01*
X141679763Y-34128791D01*
X141677586Y-34110012D01*
X141677585Y-34110010D01*
X141677585Y-34110009D01*
X141632206Y-34007235D01*
X141552765Y-33927794D01*
X141544202Y-33924013D01*
X141449992Y-33882415D01*
X141424865Y-33879500D01*
X139535143Y-33879500D01*
X139535117Y-33879502D01*
X139510012Y-33882413D01*
X139510008Y-33882415D01*
X139407235Y-33927793D01*
X139407234Y-33927794D01*
X139332181Y-34002848D01*
X139270858Y-34036333D01*
X139201166Y-34031349D01*
X139145233Y-33989477D01*
X139120816Y-33924013D01*
X139120500Y-33915167D01*
X139120500Y-33696903D01*
X139120500Y-33696898D01*
X139109877Y-33608436D01*
X139054361Y-33467658D01*
X139054360Y-33467657D01*
X139054360Y-33467656D01*
X138962922Y-33347077D01*
X138842343Y-33255639D01*
X138701561Y-33200122D01*
X138655926Y-33194642D01*
X138613102Y-33189500D01*
X138613097Y-33189500D01*
X137886120Y-33189500D01*
X137854027Y-33185275D01*
X137832475Y-33179500D01*
X137832474Y-33179500D01*
X130089430Y-33179500D01*
X130022391Y-33159815D01*
X129990628Y-33130427D01*
X129972922Y-33107078D01*
X129972917Y-33107074D01*
X129852343Y-33015639D01*
X129711561Y-32960122D01*
X129665926Y-32954642D01*
X129623102Y-32949500D01*
X128636898Y-32949500D01*
X128597853Y-32954188D01*
X128548438Y-32960122D01*
X128407656Y-33015639D01*
X128287082Y-33107074D01*
X128287078Y-33107077D01*
X128278479Y-33118417D01*
X128269372Y-33130426D01*
X128213182Y-33171948D01*
X128170570Y-33179500D01*
X121010340Y-33179500D01*
X120964851Y-33170854D01*
X120916866Y-33151931D01*
X120861563Y-33130122D01*
X120808978Y-33123808D01*
X120773102Y-33119500D01*
X120773097Y-33119500D01*
X120209387Y-33119500D01*
X120142348Y-33099815D01*
X120121706Y-33083181D01*
X120068016Y-33029491D01*
X120068015Y-33029490D01*
X119942485Y-32957016D01*
X119942482Y-32957015D01*
X119914436Y-32949499D01*
X119914436Y-32949500D01*
X119839795Y-32929500D01*
X119802475Y-32919500D01*
X119802474Y-32919500D01*
X112327086Y-32919500D01*
X112260047Y-32899815D01*
X112220361Y-32854015D01*
X112218519Y-32855052D01*
X112214361Y-32847658D01*
X112122922Y-32727077D01*
X112002341Y-32635638D01*
X111909009Y-32598832D01*
X111853866Y-32555926D01*
X111830673Y-32490018D01*
X111830500Y-32483478D01*
X111830500Y-30679387D01*
X111850185Y-30612348D01*
X111866819Y-30591706D01*
X112261706Y-30196819D01*
X112323029Y-30163334D01*
X112349387Y-30160500D01*
X112913097Y-30160500D01*
X112913102Y-30160500D01*
X113001564Y-30149877D01*
X113142342Y-30094361D01*
X113262922Y-30002922D01*
X113354361Y-29882342D01*
X113409877Y-29741564D01*
X113420500Y-29653102D01*
X113420500Y-29089387D01*
X113440185Y-29022348D01*
X113456819Y-29001706D01*
X113871706Y-28586819D01*
X113933029Y-28553334D01*
X113959387Y-28550500D01*
X119182914Y-28550500D01*
X119249953Y-28570185D01*
G37*
%TD.AperFunction*%
%TA.AperFunction,Conductor*%
G36*
X119222539Y-34040185D02*
G01*
X119268294Y-34092989D01*
X119279500Y-34144500D01*
X119279500Y-34413102D01*
X119284059Y-34451064D01*
X119290122Y-34501561D01*
X119345639Y-34642343D01*
X119437077Y-34762922D01*
X119557656Y-34854360D01*
X119557657Y-34854360D01*
X119557658Y-34854361D01*
X119685171Y-34904646D01*
X119740314Y-34947551D01*
X119763507Y-35013459D01*
X119747386Y-35081444D01*
X119697070Y-35129920D01*
X119685178Y-35135351D01*
X119644370Y-35151444D01*
X119557656Y-35185639D01*
X119437077Y-35277077D01*
X119345639Y-35397656D01*
X119290122Y-35538438D01*
X119286355Y-35569815D01*
X119279500Y-35626898D01*
X119279500Y-36413102D01*
X119283485Y-36446285D01*
X119290122Y-36501561D01*
X119290122Y-36501563D01*
X119290123Y-36501564D01*
X119305477Y-36540499D01*
X119345639Y-36642343D01*
X119437077Y-36762922D01*
X119557656Y-36854360D01*
X119557657Y-36854360D01*
X119557658Y-36854361D01*
X119698436Y-36909877D01*
X119720283Y-36912500D01*
X119784497Y-36940036D01*
X119823631Y-36997918D01*
X119829500Y-37035616D01*
X119829500Y-38733034D01*
X119809815Y-38800073D01*
X119757011Y-38845828D01*
X119687853Y-38855772D01*
X119624297Y-38826747D01*
X119617819Y-38820715D01*
X118423923Y-37626819D01*
X117195491Y-36398388D01*
X117162007Y-36337066D01*
X117166991Y-36267374D01*
X117208863Y-36211441D01*
X117274327Y-36187024D01*
X117321491Y-36192777D01*
X117498997Y-36250451D01*
X117685553Y-36280000D01*
X117874447Y-36280000D01*
X118061002Y-36250451D01*
X118240637Y-36192085D01*
X118408940Y-36106329D01*
X118516239Y-36028373D01*
X118516240Y-36028371D01*
X117974936Y-35487068D01*
X118056306Y-35440090D01*
X118140090Y-35356306D01*
X118187068Y-35274936D01*
X118728371Y-35816240D01*
X118728373Y-35816239D01*
X118806329Y-35708940D01*
X118892085Y-35540637D01*
X118950451Y-35361002D01*
X118980000Y-35174447D01*
X118980000Y-34985552D01*
X118950451Y-34798997D01*
X118892085Y-34619362D01*
X118806333Y-34451066D01*
X118728371Y-34343759D01*
X118728370Y-34343759D01*
X118187068Y-34885062D01*
X118140090Y-34803694D01*
X118056306Y-34719910D01*
X117974936Y-34672931D01*
X118524503Y-34123364D01*
X118532384Y-34085851D01*
X118581435Y-34036094D01*
X118641637Y-34020500D01*
X119155500Y-34020500D01*
X119222539Y-34040185D01*
G37*
%TD.AperFunction*%
%TA.AperFunction,Conductor*%
G36*
X84119953Y-33950185D02*
G01*
X84159638Y-33995984D01*
X84161481Y-33994948D01*
X84165638Y-34002341D01*
X84257077Y-34122922D01*
X84377656Y-34214360D01*
X84377657Y-34214360D01*
X84377658Y-34214361D01*
X84505171Y-34264646D01*
X84560314Y-34307551D01*
X84583507Y-34373459D01*
X84567386Y-34441444D01*
X84517070Y-34489920D01*
X84505178Y-34495351D01*
X84461822Y-34512449D01*
X84377656Y-34545639D01*
X84257077Y-34637077D01*
X84165639Y-34757656D01*
X84110122Y-34898438D01*
X84105013Y-34940990D01*
X84099500Y-34986898D01*
X84099500Y-34986903D01*
X84099500Y-35755500D01*
X84079815Y-35822539D01*
X84027011Y-35868294D01*
X83975500Y-35879500D01*
X83681776Y-35879500D01*
X83614737Y-35859815D01*
X83568982Y-35807011D01*
X83559038Y-35737853D01*
X83571291Y-35699205D01*
X83652085Y-35540637D01*
X83710451Y-35361002D01*
X83740000Y-35174447D01*
X83740000Y-34985552D01*
X83710451Y-34798997D01*
X83652085Y-34619362D01*
X83566333Y-34451066D01*
X83488371Y-34343759D01*
X83488370Y-34343759D01*
X82947067Y-34885061D01*
X82900090Y-34803694D01*
X82816306Y-34719910D01*
X82734935Y-34672930D01*
X83276239Y-34131627D01*
X83274643Y-34111354D01*
X83265494Y-34099489D01*
X83259515Y-34029876D01*
X83292120Y-33968080D01*
X83352958Y-33933723D01*
X83381045Y-33930500D01*
X84052914Y-33930500D01*
X84119953Y-33950185D01*
G37*
%TD.AperFunction*%
%TA.AperFunction,Conductor*%
G36*
X81765992Y-33950185D02*
G01*
X81811747Y-34002989D01*
X81821691Y-34072147D01*
X81805681Y-34107201D01*
X81803759Y-34131627D01*
X82345063Y-34672931D01*
X82263694Y-34719910D01*
X82179910Y-34803694D01*
X82132931Y-34885063D01*
X81591627Y-34343759D01*
X81591626Y-34343759D01*
X81513668Y-34451062D01*
X81513667Y-34451064D01*
X81434984Y-34605488D01*
X81387009Y-34656284D01*
X81319188Y-34673079D01*
X81253053Y-34650541D01*
X81209602Y-34595826D01*
X81200499Y-34549193D01*
X81200499Y-34135143D01*
X81200499Y-34135137D01*
X81200499Y-34135136D01*
X81199763Y-34128791D01*
X81197586Y-34110012D01*
X81197585Y-34110010D01*
X81197584Y-34110008D01*
X81195189Y-34104584D01*
X81186119Y-34035307D01*
X81215943Y-33972122D01*
X81275193Y-33935092D01*
X81308625Y-33930500D01*
X81698953Y-33930500D01*
X81765992Y-33950185D01*
G37*
%TD.AperFunction*%
%TA.AperFunction,Conductor*%
G36*
X89367763Y-34010185D02*
G01*
X89413518Y-34062989D01*
X89424342Y-34124230D01*
X89423759Y-34131627D01*
X89965063Y-34672931D01*
X89883694Y-34719910D01*
X89799910Y-34803694D01*
X89752931Y-34885063D01*
X89211627Y-34343759D01*
X89211626Y-34343759D01*
X89133668Y-34451062D01*
X89133667Y-34451064D01*
X89054984Y-34605488D01*
X89007009Y-34656284D01*
X88939188Y-34673079D01*
X88873053Y-34650541D01*
X88829602Y-34595826D01*
X88820499Y-34549193D01*
X88820499Y-34135143D01*
X88820499Y-34135136D01*
X88819762Y-34128782D01*
X88831593Y-34059923D01*
X88878775Y-34008390D01*
X88942937Y-33990500D01*
X89300724Y-33990500D01*
X89367763Y-34010185D01*
G37*
%TD.AperFunction*%
%TA.AperFunction,Conductor*%
G36*
X99364614Y-34050185D02*
G01*
X99410369Y-34102989D01*
X99413642Y-34121510D01*
X99965063Y-34672931D01*
X99883694Y-34719910D01*
X99799910Y-34803694D01*
X99752931Y-34885063D01*
X99211627Y-34343759D01*
X99211626Y-34343759D01*
X99133668Y-34451062D01*
X99133661Y-34451074D01*
X99054983Y-34605487D01*
X99007009Y-34656283D01*
X98939188Y-34673078D01*
X98873053Y-34650540D01*
X98829602Y-34595825D01*
X98820499Y-34549192D01*
X98820499Y-34154500D01*
X98840184Y-34087461D01*
X98892988Y-34041706D01*
X98944499Y-34030500D01*
X99297575Y-34030500D01*
X99364614Y-34050185D01*
G37*
%TD.AperFunction*%
%TA.AperFunction,Conductor*%
G36*
X116985401Y-34040185D02*
G01*
X117031156Y-34092989D01*
X117036745Y-34124613D01*
X117585063Y-34672931D01*
X117503694Y-34719910D01*
X117419910Y-34803694D01*
X117372931Y-34885063D01*
X116831627Y-34343759D01*
X116831626Y-34343759D01*
X116753668Y-34451062D01*
X116753667Y-34451064D01*
X116674984Y-34605488D01*
X116627009Y-34656284D01*
X116559188Y-34673079D01*
X116493053Y-34650541D01*
X116449602Y-34595826D01*
X116440499Y-34549193D01*
X116440499Y-34144500D01*
X116460184Y-34077461D01*
X116512988Y-34031706D01*
X116564499Y-34020500D01*
X116918362Y-34020500D01*
X116985401Y-34040185D01*
G37*
%TD.AperFunction*%
%TA.AperFunction,Conductor*%
G36*
X111530954Y-22366194D02*
G01*
X111558290Y-22368039D01*
X111562377Y-22368383D01*
X146476662Y-25910983D01*
X146476691Y-25910989D01*
X146545875Y-25918007D01*
X146557270Y-25919701D01*
X146557367Y-25919720D01*
X146631235Y-25934235D01*
X146653306Y-25940749D01*
X146717934Y-25966556D01*
X146738416Y-25977033D01*
X146797173Y-26014348D01*
X146815362Y-26028429D01*
X146821844Y-26034487D01*
X146870426Y-26079899D01*
X146878469Y-26088150D01*
X146885622Y-26096205D01*
X146923676Y-26139057D01*
X146923696Y-26139077D01*
X174175944Y-56825829D01*
X174369668Y-57043967D01*
X174409168Y-57088445D01*
X174417154Y-57098430D01*
X174465964Y-57166364D01*
X174478648Y-57188523D01*
X174509901Y-57259137D01*
X174517775Y-57283427D01*
X174535237Y-57365220D01*
X174537258Y-57377845D01*
X175441363Y-65782075D01*
X175644386Y-67669309D01*
X175644386Y-67669314D01*
X175646515Y-67689112D01*
X175646732Y-67691311D01*
X175648027Y-67705774D01*
X175648343Y-67710190D01*
X175649062Y-67723591D01*
X175649220Y-67728009D01*
X175649480Y-67742497D01*
X175649500Y-67744722D01*
X175649500Y-76065111D01*
X175648499Y-76080837D01*
X175635448Y-76182916D01*
X175627540Y-76213341D01*
X175592200Y-76301471D01*
X175576894Y-76328934D01*
X175520523Y-76405346D01*
X175498802Y-76428075D01*
X175425026Y-76487854D01*
X175398289Y-76504390D01*
X175311849Y-76543695D01*
X175281810Y-76552975D01*
X175188270Y-76569276D01*
X175156863Y-76570703D01*
X175062220Y-76562954D01*
X175031467Y-76556438D01*
X174934316Y-76522520D01*
X174919803Y-76516393D01*
X162974195Y-70552365D01*
X162974193Y-70552364D01*
X162965235Y-70547891D01*
X162929400Y-70530000D01*
X162912432Y-70521528D01*
X162900509Y-70514726D01*
X162825116Y-70465993D01*
X162803878Y-70448655D01*
X162745880Y-70389487D01*
X162728973Y-70367911D01*
X162685394Y-70297445D01*
X162673640Y-70272677D01*
X162646610Y-70194355D01*
X162640586Y-70167610D01*
X162638541Y-70149229D01*
X162632277Y-70092908D01*
X162630662Y-70078391D01*
X162629902Y-70064683D01*
X162629902Y-68069719D01*
X162629934Y-68003096D01*
X162629955Y-67960617D01*
X162598391Y-67744707D01*
X162535927Y-67535634D01*
X162524865Y-67511859D01*
X162443880Y-67337798D01*
X162409255Y-67285023D01*
X162324179Y-67155352D01*
X162316822Y-67147070D01*
X162252576Y-67074741D01*
X162252536Y-67074696D01*
X162175299Y-66987658D01*
X142752648Y-45100289D01*
X142752618Y-45100250D01*
X142746472Y-45093325D01*
X142746472Y-45093324D01*
X142710853Y-45053190D01*
X142659018Y-44994777D01*
X142659016Y-44994776D01*
X142653915Y-44989027D01*
X142653390Y-44988509D01*
X142650763Y-44985552D01*
X142632443Y-44964934D01*
X142632441Y-44964932D01*
X142632439Y-44964930D01*
X142471133Y-44827923D01*
X142471129Y-44827920D01*
X142425334Y-44798997D01*
X142292182Y-44714902D01*
X142099144Y-44628118D01*
X142027482Y-44607380D01*
X141895837Y-44569285D01*
X141895832Y-44569284D01*
X141790159Y-44554299D01*
X141686284Y-44539569D01*
X141686129Y-44539568D01*
X141654757Y-44539548D01*
X141654026Y-44539500D01*
X141646323Y-44539500D01*
X141580460Y-44539500D01*
X141580450Y-44539499D01*
X141514567Y-44539496D01*
X141514565Y-44539496D01*
X141506514Y-44539496D01*
X141506452Y-44539500D01*
X132418697Y-44539500D01*
X132417862Y-44539554D01*
X132383649Y-44539579D01*
X132383648Y-44539579D01*
X132169044Y-44570760D01*
X131961136Y-44632479D01*
X131764273Y-44723447D01*
X131582541Y-44841771D01*
X131419698Y-44985007D01*
X131397492Y-45011061D01*
X131396908Y-45011663D01*
X121588447Y-56537304D01*
X121588444Y-56537308D01*
X121576545Y-56551289D01*
X121576499Y-56551343D01*
X121504110Y-56636298D01*
X121504102Y-56636310D01*
X121386168Y-56825829D01*
X121365639Y-56873303D01*
X121297566Y-57030724D01*
X121265896Y-57149944D01*
X121240253Y-57246474D01*
X121215495Y-57468319D01*
X121215495Y-57468326D01*
X121223831Y-57691397D01*
X121223833Y-57691411D01*
X121265081Y-57910782D01*
X121338335Y-58121644D01*
X121338340Y-58121656D01*
X121390216Y-58220478D01*
X121390254Y-58220551D01*
X121393165Y-58226106D01*
X121393166Y-58226106D01*
X131451818Y-77415943D01*
X131451818Y-77415944D01*
X131480091Y-77469884D01*
X131484362Y-77478896D01*
X131509934Y-77538987D01*
X131516241Y-77557900D01*
X131530655Y-77616449D01*
X131533849Y-77636124D01*
X131539098Y-77701219D01*
X131539499Y-77711186D01*
X131539499Y-77782072D01*
X131539500Y-77782085D01*
X131539500Y-79953040D01*
X131538720Y-79966923D01*
X131528541Y-80057265D01*
X131524561Y-80068637D01*
X131524648Y-80077102D01*
X131522362Y-80084337D01*
X131494649Y-80163535D01*
X131482602Y-80188552D01*
X131437957Y-80259604D01*
X131420644Y-80281313D01*
X131361313Y-80340644D01*
X131339604Y-80357957D01*
X131268552Y-80402602D01*
X131243535Y-80414649D01*
X131164337Y-80442362D01*
X131137265Y-80448541D01*
X131046923Y-80458720D01*
X131033040Y-80459500D01*
X90996960Y-80459500D01*
X90983077Y-80458720D01*
X90892734Y-80448541D01*
X90881361Y-80444561D01*
X90872897Y-80444648D01*
X90865662Y-80442362D01*
X90786464Y-80414649D01*
X90761447Y-80402602D01*
X90690395Y-80357957D01*
X90668686Y-80340644D01*
X90609355Y-80281313D01*
X90592042Y-80259604D01*
X90547397Y-80188552D01*
X90535351Y-80163539D01*
X90507636Y-80084333D01*
X90501458Y-80057268D01*
X90491280Y-79966922D01*
X90490500Y-79953040D01*
X90490500Y-77732312D01*
X90490968Y-77721546D01*
X90492840Y-77700066D01*
X90497095Y-77651248D01*
X90500817Y-77630060D01*
X90517617Y-77567114D01*
X90524953Y-77546880D01*
X90554674Y-77482875D01*
X90559613Y-77473345D01*
X90589774Y-77420873D01*
X90589774Y-77420869D01*
X90643405Y-77327561D01*
X97489500Y-77327561D01*
X97489500Y-77592438D01*
X97507205Y-77726913D01*
X97524072Y-77855026D01*
X97546999Y-77940589D01*
X97592623Y-78110864D01*
X97693978Y-78355555D01*
X97693982Y-78355565D01*
X97826410Y-78584937D01*
X97987646Y-78795064D01*
X97987652Y-78795071D01*
X98174928Y-78982347D01*
X98174935Y-78982353D01*
X98385062Y-79143589D01*
X98614434Y-79276017D01*
X98614435Y-79276017D01*
X98614438Y-79276019D01*
X98777571Y-79343591D01*
X98859135Y-79377376D01*
X98859136Y-79377376D01*
X98859138Y-79377377D01*
X99114974Y-79445928D01*
X99377569Y-79480500D01*
X99377576Y-79480500D01*
X99642424Y-79480500D01*
X99642431Y-79480500D01*
X99905026Y-79445928D01*
X100160862Y-79377377D01*
X100405562Y-79276019D01*
X100634938Y-79143589D01*
X100845066Y-78982352D01*
X101032352Y-78795066D01*
X101193589Y-78584938D01*
X101326019Y-78355562D01*
X101427377Y-78110862D01*
X101495928Y-77855026D01*
X101530500Y-77592431D01*
X101530500Y-77327569D01*
X101530499Y-77327561D01*
X121489500Y-77327561D01*
X121489500Y-77592438D01*
X121507205Y-77726913D01*
X121524072Y-77855026D01*
X121546999Y-77940589D01*
X121592623Y-78110864D01*
X121693978Y-78355555D01*
X121693982Y-78355565D01*
X121826410Y-78584937D01*
X121987646Y-78795064D01*
X121987652Y-78795071D01*
X122174928Y-78982347D01*
X122174935Y-78982353D01*
X122385062Y-79143589D01*
X122614434Y-79276017D01*
X122614435Y-79276017D01*
X122614438Y-79276019D01*
X122777571Y-79343591D01*
X122859135Y-79377376D01*
X122859136Y-79377376D01*
X122859138Y-79377377D01*
X123114974Y-79445928D01*
X123377569Y-79480500D01*
X123377576Y-79480500D01*
X123642424Y-79480500D01*
X123642431Y-79480500D01*
X123905026Y-79445928D01*
X124160862Y-79377377D01*
X124405562Y-79276019D01*
X124634938Y-79143589D01*
X124845066Y-78982352D01*
X125032352Y-78795066D01*
X125193589Y-78584938D01*
X125326019Y-78355562D01*
X125427377Y-78110862D01*
X125495928Y-77855026D01*
X125530500Y-77592431D01*
X125530500Y-77327569D01*
X125495928Y-77064974D01*
X125427377Y-76809138D01*
X125326019Y-76564438D01*
X125325162Y-76562954D01*
X125193589Y-76335062D01*
X125032353Y-76124935D01*
X125032347Y-76124928D01*
X124845071Y-75937652D01*
X124845064Y-75937646D01*
X124634937Y-75776410D01*
X124405565Y-75643982D01*
X124405555Y-75643978D01*
X124160864Y-75542623D01*
X124032944Y-75508347D01*
X123905026Y-75474072D01*
X123846671Y-75466389D01*
X123642438Y-75439500D01*
X123642431Y-75439500D01*
X123377569Y-75439500D01*
X123377561Y-75439500D01*
X123144151Y-75470230D01*
X123114974Y-75474072D01*
X123051015Y-75491209D01*
X122859135Y-75542623D01*
X122614444Y-75643978D01*
X122614434Y-75643982D01*
X122385062Y-75776410D01*
X122174935Y-75937646D01*
X122174928Y-75937652D01*
X121987652Y-76124928D01*
X121987646Y-76124935D01*
X121826410Y-76335062D01*
X121693982Y-76564434D01*
X121693978Y-76564444D01*
X121592623Y-76809135D01*
X121541774Y-76998908D01*
X121524302Y-77064118D01*
X121524072Y-77064975D01*
X121489500Y-77327561D01*
X101530499Y-77327561D01*
X101495928Y-77064974D01*
X101427377Y-76809138D01*
X101326019Y-76564438D01*
X101325162Y-76562954D01*
X101193589Y-76335062D01*
X101032353Y-76124935D01*
X101032347Y-76124928D01*
X100845071Y-75937652D01*
X100845064Y-75937646D01*
X100634937Y-75776410D01*
X100405565Y-75643982D01*
X100405555Y-75643978D01*
X100160864Y-75542623D01*
X100032944Y-75508347D01*
X99905026Y-75474072D01*
X99846671Y-75466389D01*
X99642438Y-75439500D01*
X99642431Y-75439500D01*
X99377569Y-75439500D01*
X99377561Y-75439500D01*
X99144151Y-75470230D01*
X99114974Y-75474072D01*
X99051015Y-75491209D01*
X98859135Y-75542623D01*
X98614444Y-75643978D01*
X98614434Y-75643982D01*
X98385062Y-75776410D01*
X98174935Y-75937646D01*
X98174928Y-75937652D01*
X97987652Y-76124928D01*
X97987646Y-76124935D01*
X97826410Y-76335062D01*
X97693982Y-76564434D01*
X97693978Y-76564444D01*
X97592623Y-76809135D01*
X97541774Y-76998908D01*
X97524302Y-77064118D01*
X97524072Y-77064975D01*
X97489500Y-77327561D01*
X90643405Y-77327561D01*
X101553026Y-58346903D01*
X101553029Y-58346901D01*
X101585863Y-58289773D01*
X101585868Y-58289776D01*
X101585895Y-58289718D01*
X101638875Y-58197697D01*
X101717750Y-58000387D01*
X101768038Y-57793932D01*
X101788734Y-57582452D01*
X101779427Y-57370164D01*
X101740300Y-57161306D01*
X101672137Y-56960045D01*
X101672135Y-56960042D01*
X101672134Y-56960038D01*
X101576300Y-56770406D01*
X101576295Y-56770396D01*
X101454688Y-56596142D01*
X101382523Y-56518894D01*
X93043938Y-47580046D01*
X90602216Y-44962553D01*
X90602177Y-44962516D01*
X90582451Y-44941372D01*
X90582448Y-44941370D01*
X90582446Y-44941367D01*
X90563449Y-44925896D01*
X90423163Y-44811650D01*
X90247690Y-44704849D01*
X90247689Y-44704848D01*
X90146054Y-44660667D01*
X90059297Y-44622953D01*
X90059293Y-44622952D01*
X90059291Y-44622951D01*
X89861508Y-44567494D01*
X89861505Y-44567493D01*
X89861503Y-44567493D01*
X89657997Y-44539504D01*
X89657995Y-44539503D01*
X89657998Y-44539503D01*
X89627984Y-44539502D01*
X89627942Y-44539500D01*
X89621185Y-44539500D01*
X80395095Y-44539500D01*
X80387504Y-44539500D01*
X80387163Y-44539521D01*
X80350716Y-44539532D01*
X80220263Y-44558811D01*
X80132534Y-44571776D01*
X80132531Y-44571776D01*
X80132523Y-44571778D01*
X79921423Y-44635566D01*
X79921406Y-44635572D01*
X79721884Y-44729546D01*
X79538243Y-44851678D01*
X79538241Y-44851680D01*
X79374435Y-44999342D01*
X79374421Y-44999357D01*
X79351127Y-45027536D01*
X79350902Y-45027776D01*
X79305428Y-45082822D01*
X79304597Y-45083827D01*
X79304170Y-45084345D01*
X79295611Y-45094706D01*
X79264081Y-45132872D01*
X79263948Y-45133031D01*
X61195784Y-67004490D01*
X61195724Y-67004563D01*
X61130061Y-67083923D01*
X61130051Y-67083937D01*
X61021158Y-67260607D01*
X61021153Y-67260616D01*
X60937613Y-67450597D01*
X60937612Y-67450600D01*
X60881018Y-67650280D01*
X60881017Y-67650284D01*
X60881017Y-67650286D01*
X60867893Y-67744722D01*
X60852447Y-67855859D01*
X60852447Y-67855860D01*
X60852527Y-67959632D01*
X60852527Y-69898645D01*
X60852520Y-69898755D01*
X60852526Y-69965547D01*
X60851749Y-69979418D01*
X60841599Y-70069657D01*
X60837632Y-70081008D01*
X60837723Y-70089448D01*
X60835433Y-70096708D01*
X60807785Y-70175817D01*
X60795760Y-70200818D01*
X60751210Y-70271809D01*
X60733927Y-70293511D01*
X60674716Y-70352813D01*
X60653040Y-70370129D01*
X60576202Y-70418513D01*
X60564049Y-70425246D01*
X60504751Y-70453879D01*
X60504647Y-70453937D01*
X48232409Y-76381316D01*
X48232332Y-76381355D01*
X48176669Y-76408239D01*
X48161770Y-76414277D01*
X48062092Y-76447332D01*
X48030582Y-76453407D01*
X47933857Y-76459284D01*
X47901847Y-76457069D01*
X47806861Y-76437932D01*
X47776489Y-76427578D01*
X47689590Y-76384706D01*
X47662893Y-76366906D01*
X47619407Y-76328934D01*
X47589903Y-76303170D01*
X47568671Y-76279121D01*
X47514476Y-76198784D01*
X47500127Y-76170090D01*
X47468362Y-76078540D01*
X47461855Y-76047119D01*
X47461355Y-76040418D01*
X47454040Y-75942384D01*
X47453887Y-75926310D01*
X47457084Y-75868565D01*
X47457083Y-75868563D01*
X47457516Y-75860752D01*
X47457516Y-75860727D01*
X47460144Y-75813254D01*
X47764133Y-70320122D01*
X47829710Y-69135131D01*
X48799500Y-69135131D01*
X48799500Y-71024856D01*
X48799502Y-71024882D01*
X48802413Y-71049987D01*
X48802415Y-71049991D01*
X48847793Y-71152764D01*
X48847794Y-71152765D01*
X48927235Y-71232206D01*
X49030009Y-71277585D01*
X49055135Y-71280500D01*
X50944864Y-71280499D01*
X50944879Y-71280497D01*
X50944882Y-71280497D01*
X50969987Y-71277586D01*
X50969988Y-71277585D01*
X50969991Y-71277585D01*
X51072765Y-71232206D01*
X51152206Y-71152765D01*
X51197585Y-71049991D01*
X51200500Y-71024865D01*
X51200499Y-70610805D01*
X51220183Y-70543769D01*
X51272987Y-70498014D01*
X51342146Y-70488070D01*
X51405701Y-70517095D01*
X51434983Y-70554513D01*
X51513661Y-70708925D01*
X51513664Y-70708930D01*
X51591627Y-70816239D01*
X52132931Y-70274936D01*
X52179910Y-70356306D01*
X52263694Y-70440090D01*
X52345062Y-70487068D01*
X51803759Y-71028370D01*
X51803759Y-71028371D01*
X51911066Y-71106333D01*
X52079362Y-71192085D01*
X52258997Y-71250451D01*
X52445553Y-71280000D01*
X52634447Y-71280000D01*
X52821002Y-71250451D01*
X53000637Y-71192085D01*
X53168940Y-71106329D01*
X53276239Y-71028373D01*
X53276240Y-71028371D01*
X52734936Y-70487068D01*
X52816306Y-70440090D01*
X52900090Y-70356306D01*
X52947068Y-70274936D01*
X53488371Y-70816240D01*
X53488373Y-70816239D01*
X53566329Y-70708940D01*
X53652085Y-70540637D01*
X53710451Y-70361002D01*
X53740000Y-70174447D01*
X53740000Y-69985552D01*
X53710451Y-69798997D01*
X53652085Y-69619362D01*
X53566333Y-69451066D01*
X53488371Y-69343759D01*
X53488370Y-69343759D01*
X52947068Y-69885062D01*
X52900090Y-69803694D01*
X52816306Y-69719910D01*
X52734936Y-69672931D01*
X53276239Y-69131627D01*
X53168933Y-69053666D01*
X53000637Y-68967914D01*
X52821002Y-68909548D01*
X52634447Y-68880000D01*
X52445553Y-68880000D01*
X52258997Y-68909548D01*
X52081490Y-68967223D01*
X52011648Y-68969218D01*
X51951816Y-68933137D01*
X51920988Y-68870436D01*
X51928953Y-68801022D01*
X51955489Y-68761612D01*
X52620284Y-68096819D01*
X52681607Y-68063334D01*
X52707965Y-68060500D01*
X54003479Y-68060500D01*
X54070518Y-68080185D01*
X54116273Y-68132989D01*
X54118825Y-68138990D01*
X54139887Y-68192397D01*
X54155639Y-68232343D01*
X54247077Y-68352922D01*
X54367656Y-68444360D01*
X54367657Y-68444360D01*
X54367658Y-68444361D01*
X54508436Y-68499877D01*
X54596898Y-68510500D01*
X54596903Y-68510500D01*
X55583097Y-68510500D01*
X55583102Y-68510500D01*
X55671564Y-68499877D01*
X55812342Y-68444361D01*
X55932922Y-68352922D01*
X56024361Y-68232342D01*
X56079877Y-68091564D01*
X56090500Y-68003102D01*
X56090500Y-67297965D01*
X56110185Y-67230926D01*
X56126819Y-67210284D01*
X79120284Y-44216819D01*
X79181607Y-44183334D01*
X79207965Y-44180500D01*
X90222035Y-44180500D01*
X90289074Y-44200185D01*
X90309716Y-44216819D01*
X102260886Y-56167989D01*
X102260887Y-56167990D01*
X102260889Y-56167991D01*
X102320193Y-56202229D01*
X102320196Y-56202232D01*
X102354437Y-56222000D01*
X102363614Y-56227299D01*
X102478191Y-56258000D01*
X105592712Y-56258000D01*
X105659751Y-56277685D01*
X105666345Y-56282230D01*
X105748320Y-56342730D01*
X105790571Y-56398377D01*
X105796030Y-56468033D01*
X105762963Y-56529583D01*
X105748321Y-56542269D01*
X105736027Y-56551343D01*
X105662850Y-56605350D01*
X105582207Y-56714617D01*
X105582206Y-56714619D01*
X105537353Y-56842798D01*
X105537353Y-56842800D01*
X105534500Y-56873230D01*
X105534500Y-57248272D01*
X105514815Y-57315311D01*
X105498181Y-57335953D01*
X105079513Y-57754621D01*
X105079509Y-57754627D01*
X105020201Y-57857350D01*
X105020200Y-57857355D01*
X104989500Y-57971929D01*
X104989500Y-70055873D01*
X104969815Y-70122912D01*
X104917011Y-70168667D01*
X104847853Y-70178611D01*
X104784297Y-70149586D01*
X104777819Y-70143554D01*
X104772479Y-70138214D01*
X104772474Y-70138211D01*
X104669876Y-70092910D01*
X104644794Y-70090000D01*
X103900000Y-70090000D01*
X103900000Y-70762554D01*
X103815826Y-70740000D01*
X103684174Y-70740000D01*
X103600000Y-70762554D01*
X103600000Y-70090000D01*
X102855214Y-70090000D01*
X102855191Y-70090002D01*
X102830130Y-70092908D01*
X102830126Y-70092909D01*
X102727525Y-70138211D01*
X102727520Y-70138214D01*
X102648214Y-70217520D01*
X102648211Y-70217525D01*
X102602910Y-70320122D01*
X102602910Y-70320124D01*
X102600000Y-70345205D01*
X102600000Y-71090000D01*
X103272555Y-71090000D01*
X103250000Y-71174174D01*
X103250000Y-71305826D01*
X103272555Y-71390000D01*
X102600001Y-71390000D01*
X102600001Y-72134785D01*
X102600002Y-72134808D01*
X102602908Y-72159869D01*
X102602909Y-72159873D01*
X102648211Y-72262474D01*
X102648214Y-72262479D01*
X102727520Y-72341785D01*
X102727525Y-72341788D01*
X102830123Y-72387089D01*
X102855206Y-72389999D01*
X103599999Y-72389999D01*
X103600000Y-72389998D01*
X103600000Y-71717445D01*
X103684174Y-71740000D01*
X103815826Y-71740000D01*
X103900000Y-71717445D01*
X103900000Y-72389999D01*
X104644786Y-72389999D01*
X104644808Y-72389997D01*
X104669869Y-72387091D01*
X104669873Y-72387090D01*
X104772474Y-72341788D01*
X104772479Y-72341785D01*
X104851785Y-72262479D01*
X104851788Y-72262474D01*
X104897089Y-72159877D01*
X104897089Y-72159875D01*
X104899999Y-72134794D01*
X104899999Y-71393971D01*
X104919683Y-71326932D01*
X104972487Y-71281177D01*
X105041646Y-71271233D01*
X105105202Y-71300258D01*
X105142976Y-71359036D01*
X105146472Y-71374572D01*
X105167829Y-71509410D01*
X105223787Y-71681636D01*
X105223788Y-71681639D01*
X105306006Y-71842997D01*
X105412441Y-71989494D01*
X105412445Y-71989499D01*
X105540500Y-72117554D01*
X105540505Y-72117558D01*
X105598753Y-72159877D01*
X105687006Y-72223996D01*
X105762523Y-72262474D01*
X105848360Y-72306211D01*
X105848363Y-72306212D01*
X105934476Y-72334191D01*
X106020591Y-72362171D01*
X106103429Y-72375291D01*
X106199449Y-72390500D01*
X106199454Y-72390500D01*
X106380551Y-72390500D01*
X106467259Y-72376765D01*
X106559409Y-72362171D01*
X106731639Y-72306211D01*
X106892994Y-72223996D01*
X107039501Y-72117553D01*
X107167553Y-71989501D01*
X107273996Y-71842994D01*
X107356211Y-71681639D01*
X107412171Y-71509409D01*
X107430455Y-71393971D01*
X107437527Y-71349321D01*
X107467456Y-71286186D01*
X107526768Y-71249255D01*
X107596630Y-71250253D01*
X107654863Y-71288863D01*
X107682473Y-71349321D01*
X107707829Y-71509410D01*
X107763787Y-71681636D01*
X107763788Y-71681639D01*
X107846006Y-71842997D01*
X107952441Y-71989494D01*
X107952445Y-71989499D01*
X108080500Y-72117554D01*
X108080505Y-72117558D01*
X108138753Y-72159877D01*
X108227006Y-72223996D01*
X108302523Y-72262474D01*
X108388360Y-72306211D01*
X108388363Y-72306212D01*
X108474476Y-72334191D01*
X108560591Y-72362171D01*
X108643429Y-72375291D01*
X108739449Y-72390500D01*
X108739454Y-72390500D01*
X108920551Y-72390500D01*
X109007259Y-72376765D01*
X109099409Y-72362171D01*
X109271639Y-72306211D01*
X109432994Y-72223996D01*
X109579501Y-72117553D01*
X109707553Y-71989501D01*
X109813996Y-71842994D01*
X109896211Y-71681639D01*
X109952171Y-71509409D01*
X109970455Y-71393971D01*
X109977527Y-71349321D01*
X110007456Y-71286186D01*
X110066768Y-71249255D01*
X110136630Y-71250253D01*
X110194863Y-71288863D01*
X110222473Y-71349321D01*
X110247829Y-71509410D01*
X110303787Y-71681636D01*
X110303788Y-71681639D01*
X110386006Y-71842997D01*
X110492441Y-71989494D01*
X110492445Y-71989499D01*
X110620500Y-72117554D01*
X110620505Y-72117558D01*
X110678753Y-72159877D01*
X110767006Y-72223996D01*
X110842523Y-72262474D01*
X110928360Y-72306211D01*
X110928363Y-72306212D01*
X111014476Y-72334191D01*
X111100591Y-72362171D01*
X111183429Y-72375291D01*
X111279449Y-72390500D01*
X111279454Y-72390500D01*
X111460551Y-72390500D01*
X111547259Y-72376765D01*
X111639409Y-72362171D01*
X111811639Y-72306211D01*
X111972994Y-72223996D01*
X112119501Y-72117553D01*
X112247553Y-71989501D01*
X112353996Y-71842994D01*
X112436211Y-71681639D01*
X112492171Y-71509409D01*
X112510455Y-71393971D01*
X112517527Y-71349321D01*
X112547456Y-71286186D01*
X112606768Y-71249255D01*
X112676630Y-71250253D01*
X112734863Y-71288863D01*
X112762473Y-71349321D01*
X112787829Y-71509410D01*
X112843787Y-71681636D01*
X112843788Y-71681639D01*
X112926006Y-71842997D01*
X113032441Y-71989494D01*
X113032445Y-71989499D01*
X113160500Y-72117554D01*
X113160505Y-72117558D01*
X113218753Y-72159877D01*
X113307006Y-72223996D01*
X113382523Y-72262474D01*
X113468360Y-72306211D01*
X113468363Y-72306212D01*
X113554476Y-72334191D01*
X113640591Y-72362171D01*
X113723429Y-72375291D01*
X113819449Y-72390500D01*
X113819454Y-72390500D01*
X114000551Y-72390500D01*
X114087259Y-72376765D01*
X114179409Y-72362171D01*
X114351639Y-72306211D01*
X114512994Y-72223996D01*
X114659501Y-72117553D01*
X114787553Y-71989501D01*
X114893996Y-71842994D01*
X114976211Y-71681639D01*
X115032171Y-71509409D01*
X115050455Y-71393971D01*
X115057527Y-71349321D01*
X115087456Y-71286186D01*
X115146768Y-71249255D01*
X115216630Y-71250253D01*
X115274863Y-71288863D01*
X115302473Y-71349321D01*
X115327829Y-71509410D01*
X115383787Y-71681636D01*
X115383788Y-71681639D01*
X115466006Y-71842997D01*
X115572441Y-71989494D01*
X115572445Y-71989499D01*
X115700500Y-72117554D01*
X115700505Y-72117558D01*
X115758753Y-72159877D01*
X115847006Y-72223996D01*
X115922523Y-72262474D01*
X116008360Y-72306211D01*
X116008363Y-72306212D01*
X116094476Y-72334191D01*
X116180591Y-72362171D01*
X116263429Y-72375291D01*
X116359449Y-72390500D01*
X116359454Y-72390500D01*
X116540551Y-72390500D01*
X116627259Y-72376765D01*
X116719409Y-72362171D01*
X116891639Y-72306211D01*
X117052994Y-72223996D01*
X117199501Y-72117553D01*
X117327553Y-71989501D01*
X117433996Y-71842994D01*
X117516211Y-71681639D01*
X117572171Y-71509409D01*
X117590455Y-71393971D01*
X117597527Y-71349321D01*
X117627456Y-71286186D01*
X117686768Y-71249255D01*
X117756630Y-71250253D01*
X117814863Y-71288863D01*
X117842473Y-71349321D01*
X117867829Y-71509410D01*
X117923787Y-71681636D01*
X117923788Y-71681639D01*
X118006006Y-71842997D01*
X118112441Y-71989494D01*
X118112445Y-71989499D01*
X118240500Y-72117554D01*
X118240505Y-72117558D01*
X118298753Y-72159877D01*
X118387006Y-72223996D01*
X118462523Y-72262474D01*
X118548360Y-72306211D01*
X118548363Y-72306212D01*
X118634476Y-72334191D01*
X118720591Y-72362171D01*
X118803429Y-72375291D01*
X118899449Y-72390500D01*
X118899454Y-72390500D01*
X119080551Y-72390500D01*
X119167259Y-72376765D01*
X119259409Y-72362171D01*
X119431639Y-72306211D01*
X119592994Y-72223996D01*
X119739501Y-72117553D01*
X119867553Y-71989501D01*
X119973996Y-71842994D01*
X120056211Y-71681639D01*
X120112171Y-71509409D01*
X120130455Y-71393971D01*
X120140500Y-71330551D01*
X120140500Y-71149448D01*
X120120770Y-71024882D01*
X120112171Y-70970591D01*
X120061751Y-70815411D01*
X120056212Y-70798363D01*
X120056211Y-70798360D01*
X120010643Y-70708930D01*
X119973996Y-70637006D01*
X119912502Y-70552366D01*
X119867558Y-70490505D01*
X119867554Y-70490500D01*
X119739499Y-70362445D01*
X119739494Y-70362441D01*
X119592995Y-70256004D01*
X119508204Y-70212800D01*
X119457409Y-70164826D01*
X119440500Y-70102316D01*
X119440500Y-60651931D01*
X119440500Y-60651929D01*
X119409799Y-60537352D01*
X119393979Y-60509952D01*
X119382171Y-60489499D01*
X119382170Y-60489498D01*
X119375475Y-60477903D01*
X119350489Y-60434624D01*
X117521818Y-58605953D01*
X117488334Y-58544631D01*
X117485500Y-58518273D01*
X117485500Y-58143230D01*
X117482646Y-58112800D01*
X117482646Y-58112798D01*
X117437793Y-57984619D01*
X117437792Y-57984617D01*
X117383301Y-57910784D01*
X117357150Y-57875350D01*
X117357148Y-57875349D01*
X117357148Y-57875348D01*
X117271258Y-57811959D01*
X117229007Y-57756312D01*
X117223548Y-57686656D01*
X117256615Y-57625106D01*
X117271258Y-57612418D01*
X117356792Y-57549291D01*
X117437346Y-57440145D01*
X117482149Y-57312104D01*
X117482149Y-57312100D01*
X117485000Y-57281706D01*
X117485000Y-57227500D01*
X114835001Y-57227500D01*
X114835001Y-57281696D01*
X114837851Y-57312106D01*
X114882653Y-57440145D01*
X114963207Y-57549292D01*
X115048742Y-57612419D01*
X115090992Y-57668066D01*
X115096451Y-57737722D01*
X115063384Y-57799272D01*
X115048742Y-57811959D01*
X114962850Y-57875350D01*
X114882207Y-57984617D01*
X114882206Y-57984619D01*
X114837353Y-58112798D01*
X114837353Y-58112800D01*
X114834500Y-58143230D01*
X114834500Y-58551769D01*
X114837353Y-58582199D01*
X114837353Y-58582201D01*
X114881379Y-58708016D01*
X114882207Y-58710382D01*
X114962850Y-58819650D01*
X115048321Y-58882730D01*
X115090571Y-58938377D01*
X115096030Y-59008034D01*
X115062962Y-59069583D01*
X115048321Y-59082270D01*
X114962850Y-59145350D01*
X114882207Y-59254617D01*
X114882206Y-59254619D01*
X114837353Y-59382798D01*
X114837353Y-59382800D01*
X114834500Y-59413230D01*
X114834500Y-59821769D01*
X114837353Y-59852199D01*
X114837353Y-59852201D01*
X114880431Y-59975307D01*
X114882207Y-59980382D01*
X114962850Y-60089650D01*
X115072118Y-60170293D01*
X115114845Y-60185244D01*
X115200299Y-60215146D01*
X115230730Y-60218000D01*
X115230734Y-60218000D01*
X115875500Y-60218000D01*
X115942539Y-60237685D01*
X115988294Y-60290489D01*
X115999500Y-60342000D01*
X115999500Y-65761772D01*
X115979815Y-65828811D01*
X115927011Y-65874566D01*
X115857853Y-65884510D01*
X115794297Y-65855485D01*
X115765015Y-65818067D01*
X115714359Y-65718650D01*
X115622463Y-65592167D01*
X115622463Y-65592166D01*
X114814632Y-66399999D01*
X114814632Y-66400000D01*
X115622463Y-67207832D01*
X115622463Y-67207831D01*
X115714359Y-67081349D01*
X115765015Y-66981932D01*
X115812989Y-66931136D01*
X115880810Y-66914341D01*
X115946945Y-66936878D01*
X115990397Y-66991593D01*
X115999500Y-67038227D01*
X115999500Y-70102316D01*
X115979815Y-70169355D01*
X115931796Y-70212800D01*
X115847004Y-70256004D01*
X115700505Y-70362441D01*
X115700500Y-70362445D01*
X115572445Y-70490500D01*
X115572441Y-70490505D01*
X115466006Y-70637002D01*
X115383788Y-70798360D01*
X115383787Y-70798363D01*
X115327829Y-70970589D01*
X115302473Y-71130678D01*
X115272544Y-71193813D01*
X115213232Y-71230744D01*
X115143369Y-71229746D01*
X115085137Y-71191136D01*
X115057527Y-71130678D01*
X115040770Y-71024882D01*
X115032171Y-70970591D01*
X114981751Y-70815411D01*
X114976212Y-70798363D01*
X114976211Y-70798360D01*
X114930643Y-70708930D01*
X114893996Y-70637006D01*
X114832502Y-70552366D01*
X114787558Y-70490505D01*
X114787554Y-70490500D01*
X114659499Y-70362445D01*
X114659494Y-70362441D01*
X114512997Y-70256006D01*
X114512996Y-70256005D01*
X114512994Y-70256004D01*
X114461300Y-70229664D01*
X114351639Y-70173788D01*
X114351636Y-70173787D01*
X114179410Y-70117829D01*
X114000551Y-70089500D01*
X114000546Y-70089500D01*
X113819454Y-70089500D01*
X113819449Y-70089500D01*
X113638907Y-70118095D01*
X113569613Y-70109140D01*
X113531828Y-70083303D01*
X112264319Y-68815794D01*
X112230834Y-68754471D01*
X112228000Y-68728113D01*
X112228000Y-67655077D01*
X112247685Y-67588038D01*
X112295704Y-67544593D01*
X112359110Y-67512287D01*
X112486184Y-67419963D01*
X113794666Y-67419963D01*
X113921150Y-67511859D01*
X114103468Y-67604755D01*
X114298082Y-67667990D01*
X114500183Y-67700000D01*
X114704817Y-67700000D01*
X114906917Y-67667990D01*
X115101531Y-67604755D01*
X115283849Y-67511859D01*
X115410331Y-67419963D01*
X115410332Y-67419963D01*
X114602500Y-66612132D01*
X113794666Y-67419963D01*
X112486184Y-67419963D01*
X112524719Y-67391966D01*
X112669466Y-67247219D01*
X112669468Y-67247215D01*
X112669471Y-67247213D01*
X112750173Y-67136134D01*
X112789787Y-67081610D01*
X112882720Y-66899219D01*
X112945977Y-66704534D01*
X112978000Y-66502352D01*
X112978000Y-66297682D01*
X113302500Y-66297682D01*
X113302500Y-66502317D01*
X113334509Y-66704417D01*
X113397744Y-66899031D01*
X113490641Y-67081350D01*
X113490647Y-67081359D01*
X113582533Y-67207831D01*
X113582535Y-67207832D01*
X114390368Y-66400000D01*
X113582535Y-65592167D01*
X113582534Y-65592167D01*
X113490642Y-65718647D01*
X113397744Y-65900968D01*
X113334509Y-66095582D01*
X113302500Y-66297682D01*
X112978000Y-66297682D01*
X112978000Y-66297648D01*
X112950336Y-66122985D01*
X112945977Y-66095465D01*
X112897025Y-65944808D01*
X112882720Y-65900781D01*
X112882718Y-65900778D01*
X112882718Y-65900776D01*
X112840575Y-65818067D01*
X112789787Y-65718390D01*
X112756835Y-65673035D01*
X112669471Y-65552786D01*
X112524713Y-65408028D01*
X112486182Y-65380034D01*
X113794667Y-65380034D01*
X113794667Y-65380035D01*
X114602500Y-66187868D01*
X114602501Y-66187868D01*
X115410332Y-65380035D01*
X115410331Y-65380033D01*
X115283859Y-65288147D01*
X115283850Y-65288141D01*
X115101531Y-65195244D01*
X114906917Y-65132009D01*
X114704817Y-65100000D01*
X114500183Y-65100000D01*
X114298082Y-65132009D01*
X114103468Y-65195244D01*
X113921147Y-65288142D01*
X113794667Y-65380034D01*
X112486182Y-65380034D01*
X112359111Y-65287713D01*
X112295704Y-65255405D01*
X112244909Y-65207431D01*
X112228000Y-65144921D01*
X112228000Y-64628074D01*
X112247685Y-64561035D01*
X112285947Y-64524965D01*
X112285584Y-64524486D01*
X112290044Y-64521103D01*
X112291230Y-64519986D01*
X112292336Y-64519363D01*
X112292342Y-64519361D01*
X112412922Y-64427922D01*
X112504361Y-64307342D01*
X112559877Y-64166564D01*
X112570500Y-64078102D01*
X112570500Y-64078053D01*
X112870000Y-64078053D01*
X112880613Y-64166443D01*
X112936079Y-64307095D01*
X113027435Y-64427564D01*
X113147904Y-64518920D01*
X113288556Y-64574386D01*
X113376946Y-64585000D01*
X113607500Y-64585000D01*
X113907500Y-64585000D01*
X114138054Y-64585000D01*
X114226443Y-64574386D01*
X114367095Y-64518920D01*
X114487564Y-64427564D01*
X114578920Y-64307095D01*
X114634386Y-64166443D01*
X114645000Y-64078053D01*
X114645000Y-63710000D01*
X113907500Y-63710000D01*
X113907500Y-64585000D01*
X113607500Y-64585000D01*
X113607500Y-63710000D01*
X112870000Y-63710000D01*
X112870000Y-64078053D01*
X112570500Y-64078053D01*
X112570500Y-63041946D01*
X112870000Y-63041946D01*
X112870000Y-63410000D01*
X113607500Y-63410000D01*
X113907500Y-63410000D01*
X114645000Y-63410000D01*
X114645000Y-63041946D01*
X114634386Y-62953556D01*
X114578920Y-62812904D01*
X114487564Y-62692435D01*
X114367095Y-62601079D01*
X114226443Y-62545613D01*
X114138054Y-62535000D01*
X113907500Y-62535000D01*
X113907500Y-63410000D01*
X113607500Y-63410000D01*
X113607500Y-62535000D01*
X113376946Y-62535000D01*
X113288556Y-62545613D01*
X113147904Y-62601079D01*
X113027435Y-62692435D01*
X112936079Y-62812904D01*
X112880613Y-62953556D01*
X112870000Y-63041946D01*
X112570500Y-63041946D01*
X112570500Y-63041898D01*
X112559877Y-62953436D01*
X112504361Y-62812658D01*
X112504360Y-62812657D01*
X112504360Y-62812656D01*
X112412922Y-62692077D01*
X112292343Y-62600639D01*
X112196192Y-62562722D01*
X112151564Y-62545123D01*
X112151563Y-62545122D01*
X112151561Y-62545122D01*
X112105926Y-62539642D01*
X112063102Y-62534500D01*
X112063097Y-62534500D01*
X111486886Y-62534500D01*
X111419847Y-62514815D01*
X111399205Y-62498181D01*
X110716819Y-61815794D01*
X110683334Y-61754471D01*
X110680500Y-61728113D01*
X110680500Y-39894500D01*
X110700185Y-39827461D01*
X110752989Y-39781706D01*
X110804500Y-39770500D01*
X111712422Y-39770500D01*
X111779461Y-39790185D01*
X111822907Y-39838206D01*
X111855213Y-39901611D01*
X111975528Y-40067213D01*
X111975534Y-40067219D01*
X112120281Y-40211966D01*
X112285890Y-40332287D01*
X112349295Y-40364593D01*
X112400090Y-40412566D01*
X112417000Y-40475077D01*
X112417000Y-41017476D01*
X112430701Y-41068611D01*
X112454514Y-41157480D01*
X112454516Y-41157485D01*
X112526990Y-41283015D01*
X113234791Y-41990816D01*
X113928181Y-42684205D01*
X113961666Y-42745528D01*
X113964500Y-42771886D01*
X113964500Y-43348102D01*
X113965895Y-43359715D01*
X113975122Y-43436561D01*
X114030639Y-43577343D01*
X114122077Y-43697922D01*
X114242655Y-43789359D01*
X114242654Y-43789359D01*
X114242656Y-43789360D01*
X114242658Y-43789361D01*
X114243485Y-43789687D01*
X114244129Y-43790188D01*
X114250050Y-43793517D01*
X114249550Y-43794405D01*
X114298630Y-43832589D01*
X114321827Y-43898496D01*
X114322000Y-43905043D01*
X114322000Y-44287526D01*
X114322000Y-44432474D01*
X114359516Y-44572485D01*
X114395935Y-44635566D01*
X114431989Y-44698013D01*
X114431991Y-44698016D01*
X114864665Y-45130690D01*
X114898150Y-45192013D01*
X114893166Y-45261705D01*
X114885562Y-45275882D01*
X114886548Y-45276403D01*
X114882209Y-45284612D01*
X114837353Y-45412803D01*
X114834500Y-45443230D01*
X114834500Y-45851769D01*
X114837353Y-45882199D01*
X114837353Y-45882201D01*
X114882206Y-46010380D01*
X114882207Y-46010382D01*
X114962850Y-46119650D01*
X115048318Y-46182728D01*
X115048321Y-46182730D01*
X115090571Y-46238377D01*
X115096030Y-46308034D01*
X115062962Y-46369583D01*
X115048321Y-46382270D01*
X114962850Y-46445350D01*
X114882207Y-46554617D01*
X114882206Y-46554619D01*
X114837353Y-46682798D01*
X114837353Y-46682800D01*
X114834500Y-46713230D01*
X114834500Y-47121769D01*
X114837353Y-47152199D01*
X114837353Y-47152201D01*
X114876347Y-47263635D01*
X114882207Y-47280382D01*
X114962850Y-47389650D01*
X115048321Y-47452730D01*
X115090571Y-47508377D01*
X115096030Y-47578034D01*
X115062962Y-47639583D01*
X115048321Y-47652269D01*
X114962850Y-47715350D01*
X114882207Y-47824617D01*
X114882206Y-47824619D01*
X114837353Y-47952798D01*
X114837353Y-47952800D01*
X114834500Y-47983230D01*
X114834500Y-48391769D01*
X114837353Y-48422199D01*
X114837353Y-48422201D01*
X114882206Y-48550380D01*
X114882207Y-48550382D01*
X114962850Y-48659650D01*
X115048321Y-48722730D01*
X115090571Y-48778377D01*
X115096030Y-48848034D01*
X115062962Y-48909583D01*
X115048321Y-48922269D01*
X114994889Y-48961704D01*
X114962850Y-48985350D01*
X114882207Y-49094617D01*
X114882206Y-49094619D01*
X114837353Y-49222798D01*
X114837353Y-49222800D01*
X114834500Y-49253230D01*
X114834500Y-49661769D01*
X114837353Y-49692199D01*
X114837353Y-49692201D01*
X114881370Y-49817990D01*
X114882207Y-49820382D01*
X114962850Y-49929650D01*
X115048321Y-49992730D01*
X115090571Y-50048377D01*
X115096030Y-50118034D01*
X115062962Y-50179583D01*
X115048321Y-50192269D01*
X114982726Y-50240681D01*
X114962850Y-50255350D01*
X114882207Y-50364617D01*
X114882206Y-50364619D01*
X114837353Y-50492798D01*
X114837353Y-50492800D01*
X114834500Y-50523230D01*
X114834500Y-50931769D01*
X114837353Y-50962199D01*
X114837353Y-50962201D01*
X114881370Y-51087990D01*
X114882207Y-51090382D01*
X114962850Y-51199650D01*
X115048321Y-51262730D01*
X115090571Y-51318377D01*
X115096030Y-51388034D01*
X115062962Y-51449583D01*
X115048321Y-51462269D01*
X114982726Y-51510681D01*
X114962850Y-51525350D01*
X114882207Y-51634617D01*
X114882206Y-51634619D01*
X114837353Y-51762798D01*
X114837353Y-51762800D01*
X114834500Y-51793230D01*
X114834500Y-52201769D01*
X114837353Y-52232199D01*
X114837353Y-52232201D01*
X114881370Y-52357990D01*
X114882207Y-52360382D01*
X114962850Y-52469650D01*
X115048321Y-52532730D01*
X115090571Y-52588377D01*
X115096030Y-52658034D01*
X115062962Y-52719583D01*
X115048321Y-52732269D01*
X115000374Y-52767656D01*
X114962850Y-52795350D01*
X114882207Y-52904617D01*
X114882206Y-52904619D01*
X114837353Y-53032798D01*
X114837353Y-53032800D01*
X114834500Y-53063230D01*
X114834500Y-53471769D01*
X114837353Y-53502199D01*
X114837353Y-53502201D01*
X114881370Y-53627990D01*
X114882207Y-53630382D01*
X114962850Y-53739650D01*
X115048321Y-53802730D01*
X115090571Y-53858377D01*
X115096030Y-53928034D01*
X115062962Y-53989583D01*
X115048321Y-54002269D01*
X114984031Y-54049718D01*
X114962850Y-54065350D01*
X114882207Y-54174617D01*
X114882206Y-54174619D01*
X114837353Y-54302798D01*
X114837353Y-54302800D01*
X114834500Y-54333230D01*
X114834500Y-54741769D01*
X114837353Y-54772199D01*
X114837353Y-54772201D01*
X114881370Y-54897990D01*
X114882207Y-54900382D01*
X114962850Y-55009650D01*
X115048321Y-55072730D01*
X115090571Y-55128377D01*
X115096030Y-55198034D01*
X115062962Y-55259583D01*
X115048321Y-55272269D01*
X115021409Y-55292132D01*
X114962850Y-55335350D01*
X114882207Y-55444617D01*
X114882206Y-55444619D01*
X114837353Y-55572798D01*
X114837353Y-55572800D01*
X114834500Y-55603230D01*
X114834500Y-56011769D01*
X114837353Y-56042199D01*
X114837353Y-56042201D01*
X114881370Y-56167991D01*
X114882207Y-56170382D01*
X114962849Y-56279649D01*
X114962851Y-56279651D01*
X115027520Y-56327378D01*
X115048319Y-56342729D01*
X115048741Y-56343040D01*
X115090992Y-56398687D01*
X115096451Y-56468343D01*
X115063384Y-56529893D01*
X115048742Y-56542580D01*
X114963207Y-56605707D01*
X114882653Y-56714854D01*
X114837850Y-56842895D01*
X114837850Y-56842899D01*
X114835000Y-56873293D01*
X114835000Y-56927500D01*
X117484999Y-56927500D01*
X117484999Y-56873303D01*
X117482148Y-56842893D01*
X117437346Y-56714854D01*
X117356792Y-56605707D01*
X117271257Y-56542580D01*
X117229007Y-56486933D01*
X117223548Y-56417276D01*
X117256616Y-56355727D01*
X117271243Y-56343051D01*
X117357150Y-56279650D01*
X117437793Y-56170382D01*
X117479919Y-56049993D01*
X117482646Y-56042201D01*
X117482646Y-56042199D01*
X117485500Y-56011769D01*
X117485500Y-55603230D01*
X117482646Y-55572800D01*
X117482646Y-55572798D01*
X117437793Y-55444619D01*
X117437792Y-55444617D01*
X117357150Y-55335350D01*
X117337274Y-55320681D01*
X117271677Y-55272268D01*
X117229428Y-55216623D01*
X117223969Y-55146967D01*
X117257036Y-55085417D01*
X117271670Y-55072736D01*
X117353656Y-55012228D01*
X117419284Y-54988259D01*
X117427288Y-54988000D01*
X120321808Y-54988000D01*
X120321809Y-54988000D01*
X120412173Y-54963786D01*
X120436387Y-54957299D01*
X120539114Y-54897989D01*
X131690284Y-43746819D01*
X131751607Y-43713334D01*
X131777965Y-43710500D01*
X142932035Y-43710500D01*
X142999074Y-43730185D01*
X143019716Y-43746819D01*
X165793181Y-66520284D01*
X165826666Y-66581607D01*
X165829500Y-66607965D01*
X165829500Y-66643478D01*
X165809815Y-66710517D01*
X165757011Y-66756272D01*
X165750991Y-66758832D01*
X165657658Y-66795638D01*
X165537077Y-66887077D01*
X165445639Y-67007656D01*
X165390122Y-67148438D01*
X165385107Y-67190203D01*
X165379500Y-67236898D01*
X165379500Y-68223102D01*
X165380610Y-68232342D01*
X165390122Y-68311561D01*
X165445639Y-68452343D01*
X165537077Y-68572922D01*
X165657656Y-68664360D01*
X165657657Y-68664360D01*
X165657658Y-68664361D01*
X165798436Y-68719877D01*
X165886898Y-68730500D01*
X166592035Y-68730500D01*
X166659074Y-68750185D01*
X166679716Y-68766819D01*
X168353386Y-70440489D01*
X168456113Y-70499799D01*
X168480321Y-70506284D01*
X168480324Y-70506286D01*
X168480325Y-70506286D01*
X168508506Y-70513837D01*
X168570691Y-70530500D01*
X169155501Y-70530500D01*
X169222540Y-70550185D01*
X169268295Y-70602989D01*
X169279501Y-70654500D01*
X169279501Y-71024856D01*
X169279502Y-71024882D01*
X169282413Y-71049987D01*
X169282415Y-71049991D01*
X169327793Y-71152764D01*
X169327794Y-71152765D01*
X169407235Y-71232206D01*
X169510009Y-71277585D01*
X169535135Y-71280500D01*
X171424864Y-71280499D01*
X171424879Y-71280497D01*
X171424882Y-71280497D01*
X171449987Y-71277586D01*
X171449988Y-71277585D01*
X171449991Y-71277585D01*
X171552765Y-71232206D01*
X171632206Y-71152765D01*
X171677585Y-71049991D01*
X171680500Y-71024865D01*
X171680499Y-70610805D01*
X171700183Y-70543769D01*
X171752987Y-70498014D01*
X171822146Y-70488070D01*
X171885701Y-70517095D01*
X171914983Y-70554513D01*
X171993661Y-70708925D01*
X171993664Y-70708930D01*
X172071627Y-70816239D01*
X172612931Y-70274936D01*
X172659910Y-70356306D01*
X172743694Y-70440090D01*
X172825062Y-70487068D01*
X172283759Y-71028370D01*
X172283759Y-71028371D01*
X172391066Y-71106333D01*
X172559362Y-71192085D01*
X172738997Y-71250451D01*
X172925553Y-71280000D01*
X173114447Y-71280000D01*
X173301002Y-71250451D01*
X173480637Y-71192085D01*
X173648940Y-71106329D01*
X173756239Y-71028373D01*
X173756240Y-71028371D01*
X173214936Y-70487068D01*
X173296306Y-70440090D01*
X173380090Y-70356306D01*
X173427068Y-70274937D01*
X173968371Y-70816240D01*
X173968373Y-70816239D01*
X174046329Y-70708940D01*
X174132085Y-70540637D01*
X174190451Y-70361002D01*
X174220000Y-70174447D01*
X174220000Y-69985552D01*
X174190451Y-69798997D01*
X174132085Y-69619362D01*
X174046333Y-69451066D01*
X173968371Y-69343759D01*
X173968370Y-69343759D01*
X173427068Y-69885062D01*
X173380090Y-69803694D01*
X173296306Y-69719910D01*
X173214936Y-69672931D01*
X173756239Y-69131627D01*
X173648933Y-69053666D01*
X173480637Y-68967914D01*
X173301002Y-68909548D01*
X173114447Y-68880000D01*
X172925553Y-68880000D01*
X172738997Y-68909548D01*
X172559362Y-68967914D01*
X172391064Y-69053667D01*
X172391062Y-69053668D01*
X172283759Y-69131626D01*
X172283759Y-69131627D01*
X172825063Y-69672931D01*
X172743694Y-69719910D01*
X172659910Y-69803694D01*
X172612931Y-69885063D01*
X172071627Y-69343759D01*
X172071626Y-69343759D01*
X171993668Y-69451062D01*
X171993661Y-69451074D01*
X171914983Y-69605487D01*
X171867009Y-69656283D01*
X171799188Y-69673078D01*
X171733053Y-69650540D01*
X171689602Y-69595825D01*
X171680499Y-69549192D01*
X171680499Y-69135143D01*
X171680499Y-69135136D01*
X171679289Y-69124702D01*
X171677586Y-69110012D01*
X171677585Y-69110010D01*
X171677585Y-69110009D01*
X171632206Y-69007235D01*
X171552765Y-68927794D01*
X171511442Y-68909548D01*
X171449992Y-68882415D01*
X171424865Y-68879500D01*
X169535143Y-68879500D01*
X169535117Y-68879502D01*
X169510012Y-68882413D01*
X169510008Y-68882415D01*
X169407235Y-68927793D01*
X169327794Y-69007234D01*
X169282415Y-69110006D01*
X169282415Y-69110008D01*
X169279500Y-69135131D01*
X169279500Y-69505500D01*
X169259815Y-69572539D01*
X169207011Y-69618294D01*
X169155500Y-69629500D01*
X168867965Y-69629500D01*
X168800926Y-69609815D01*
X168780284Y-69593181D01*
X168129284Y-68942181D01*
X168095799Y-68880858D01*
X168100783Y-68811166D01*
X168142655Y-68755233D01*
X168208119Y-68730816D01*
X168216965Y-68730500D01*
X168673097Y-68730500D01*
X168673102Y-68730500D01*
X168761564Y-68719877D01*
X168902342Y-68664361D01*
X169022922Y-68572922D01*
X169114361Y-68452342D01*
X169169877Y-68311564D01*
X169180500Y-68223102D01*
X169180500Y-67236898D01*
X169169877Y-67148436D01*
X169114361Y-67007658D01*
X169114360Y-67007657D01*
X169114360Y-67007656D01*
X169022922Y-66887077D01*
X168902341Y-66795638D01*
X168894948Y-66791481D01*
X168896568Y-66788599D01*
X168853830Y-66755311D01*
X168830669Y-66689392D01*
X168830500Y-66682913D01*
X168830500Y-63199387D01*
X168850185Y-63132348D01*
X168866819Y-63111706D01*
X169641706Y-62336819D01*
X169703029Y-62303334D01*
X169729387Y-62300500D01*
X170293097Y-62300500D01*
X170293102Y-62300500D01*
X170381564Y-62289877D01*
X170522342Y-62234361D01*
X170642922Y-62142922D01*
X170734361Y-62022342D01*
X170784646Y-61894826D01*
X170827551Y-61839685D01*
X170893459Y-61816492D01*
X170961443Y-61832612D01*
X171009920Y-61882929D01*
X171015348Y-61894814D01*
X171050162Y-61983096D01*
X171065639Y-62022343D01*
X171157077Y-62142922D01*
X171277655Y-62234359D01*
X171277658Y-62234361D01*
X171277659Y-62234361D01*
X171285050Y-62238517D01*
X171283419Y-62241417D01*
X171326088Y-62274573D01*
X171349323Y-62340466D01*
X171349500Y-62347085D01*
X171349500Y-63676000D01*
X171329815Y-63743039D01*
X171277011Y-63788794D01*
X171225500Y-63800000D01*
X170630000Y-63800000D01*
X170630000Y-64574318D01*
X170539244Y-64550000D01*
X170420756Y-64550000D01*
X170330000Y-64574318D01*
X170330000Y-63800000D01*
X169535214Y-63800000D01*
X169535191Y-63800002D01*
X169510130Y-63802908D01*
X169510126Y-63802909D01*
X169407525Y-63848211D01*
X169407520Y-63848214D01*
X169328214Y-63927520D01*
X169328211Y-63927525D01*
X169282910Y-64030122D01*
X169282910Y-64030124D01*
X169280000Y-64055205D01*
X169280000Y-64850000D01*
X170054318Y-64850000D01*
X170030000Y-64940756D01*
X170030000Y-65059244D01*
X170054318Y-65150000D01*
X169280001Y-65150000D01*
X169280001Y-65944785D01*
X169280002Y-65944808D01*
X169282908Y-65969869D01*
X169282909Y-65969873D01*
X169328211Y-66072474D01*
X169328214Y-66072479D01*
X169407520Y-66151785D01*
X169407525Y-66151788D01*
X169510123Y-66197089D01*
X169535206Y-66199999D01*
X170329999Y-66199999D01*
X170330000Y-66199998D01*
X170330000Y-65425681D01*
X170420756Y-65450000D01*
X170539244Y-65450000D01*
X170630000Y-65425681D01*
X170630000Y-66199999D01*
X171424786Y-66199999D01*
X171424808Y-66199997D01*
X171449869Y-66197091D01*
X171449873Y-66197090D01*
X171552474Y-66151788D01*
X171552479Y-66151785D01*
X171631785Y-66072479D01*
X171631788Y-66072474D01*
X171677089Y-65969877D01*
X171677089Y-65969875D01*
X171679999Y-65944794D01*
X171679999Y-65530927D01*
X171699683Y-65463888D01*
X171752487Y-65418133D01*
X171821646Y-65408189D01*
X171885202Y-65437214D01*
X171914484Y-65474632D01*
X171993240Y-65629199D01*
X172104310Y-65782073D01*
X172237927Y-65915690D01*
X172390801Y-66026760D01*
X172470347Y-66067290D01*
X172559163Y-66112545D01*
X172559165Y-66112545D01*
X172559168Y-66112547D01*
X172591290Y-66122984D01*
X172738881Y-66170940D01*
X172925514Y-66200500D01*
X172925519Y-66200500D01*
X173114486Y-66200500D01*
X173301118Y-66170940D01*
X173360061Y-66151788D01*
X173480832Y-66112547D01*
X173649199Y-66026760D01*
X173802073Y-65915690D01*
X173935690Y-65782073D01*
X174046760Y-65629199D01*
X174132547Y-65460832D01*
X174190940Y-65281118D01*
X174191702Y-65276306D01*
X174220500Y-65094486D01*
X174220500Y-64905513D01*
X174190940Y-64718881D01*
X174139652Y-64561035D01*
X174132547Y-64539168D01*
X174132545Y-64539165D01*
X174132545Y-64539163D01*
X174087290Y-64450347D01*
X174046760Y-64370801D01*
X173935690Y-64217927D01*
X173802073Y-64084310D01*
X173649199Y-63973240D01*
X173638197Y-63967634D01*
X173480836Y-63887454D01*
X173301118Y-63829059D01*
X173114486Y-63799500D01*
X173114481Y-63799500D01*
X172925519Y-63799500D01*
X172925514Y-63799500D01*
X172738879Y-63829060D01*
X172727140Y-63832874D01*
X172657299Y-63834866D01*
X172601147Y-63802622D01*
X172486819Y-63688294D01*
X172453334Y-63626971D01*
X172450500Y-63600613D01*
X172450500Y-62347085D01*
X172470185Y-62280046D01*
X172515985Y-62240359D01*
X172514950Y-62238517D01*
X172522336Y-62234363D01*
X172522342Y-62234361D01*
X172642922Y-62142922D01*
X172734361Y-62022342D01*
X172789877Y-61881564D01*
X172800500Y-61793102D01*
X172800500Y-60806898D01*
X172789877Y-60718436D01*
X172734361Y-60577658D01*
X172734360Y-60577657D01*
X172734360Y-60577656D01*
X172642922Y-60457077D01*
X172522343Y-60365639D01*
X172381561Y-60310122D01*
X172335926Y-60304642D01*
X172293102Y-60299500D01*
X171506898Y-60299500D01*
X171467853Y-60304188D01*
X171418438Y-60310122D01*
X171277656Y-60365639D01*
X171157077Y-60457077D01*
X171065639Y-60577656D01*
X171038263Y-60647078D01*
X171015353Y-60705171D01*
X170972449Y-60760314D01*
X170906541Y-60783507D01*
X170838556Y-60767386D01*
X170790080Y-60717070D01*
X170784648Y-60705178D01*
X170734361Y-60577658D01*
X170734360Y-60577657D01*
X170734360Y-60577656D01*
X170642922Y-60457077D01*
X170522343Y-60365639D01*
X170381561Y-60310122D01*
X170335926Y-60304642D01*
X170293102Y-60299500D01*
X170293097Y-60299500D01*
X170199387Y-60299500D01*
X170132348Y-60279815D01*
X170111706Y-60263181D01*
X168026819Y-58178294D01*
X167993334Y-58116971D01*
X167990500Y-58090613D01*
X167990500Y-54537085D01*
X168010185Y-54470046D01*
X168055985Y-54430359D01*
X168054950Y-54428517D01*
X168062336Y-54424363D01*
X168062342Y-54424361D01*
X168182922Y-54332922D01*
X168274361Y-54212342D01*
X168329877Y-54071564D01*
X168340500Y-53983102D01*
X168340500Y-52996898D01*
X168329877Y-52908436D01*
X168274361Y-52767658D01*
X168274360Y-52767657D01*
X168274360Y-52767656D01*
X168182922Y-52647077D01*
X168062341Y-52555638D01*
X168054948Y-52551481D01*
X168056568Y-52548599D01*
X168013830Y-52515311D01*
X167990669Y-52449392D01*
X167990500Y-52442913D01*
X167990500Y-51577527D01*
X167990500Y-51577525D01*
X167952984Y-51437515D01*
X167946958Y-51427078D01*
X167880510Y-51311985D01*
X163196819Y-46628294D01*
X163163334Y-46566971D01*
X163160500Y-46540613D01*
X163160500Y-45976903D01*
X163160500Y-45976898D01*
X163149877Y-45888436D01*
X163094361Y-45747658D01*
X163094360Y-45747657D01*
X163094360Y-45747656D01*
X163002922Y-45627077D01*
X162882343Y-45535639D01*
X162741561Y-45480122D01*
X162695926Y-45474642D01*
X162653102Y-45469500D01*
X162653097Y-45469500D01*
X162089387Y-45469500D01*
X162022348Y-45449815D01*
X162001706Y-45433181D01*
X158396819Y-41828294D01*
X158363334Y-41766971D01*
X158360500Y-41740613D01*
X158360500Y-41676903D01*
X158360500Y-41676898D01*
X158349877Y-41588436D01*
X158294361Y-41447658D01*
X158294360Y-41447657D01*
X158294360Y-41447656D01*
X158202922Y-41327077D01*
X158082343Y-41235639D01*
X157941561Y-41180122D01*
X157895926Y-41174642D01*
X157853102Y-41169500D01*
X157853097Y-41169500D01*
X157289387Y-41169500D01*
X157222348Y-41149815D01*
X157201706Y-41133181D01*
X153926819Y-37858294D01*
X153893334Y-37796971D01*
X153890500Y-37770613D01*
X153890500Y-37497085D01*
X153910185Y-37430046D01*
X153955985Y-37390359D01*
X153954950Y-37388517D01*
X153962336Y-37384363D01*
X153962342Y-37384361D01*
X154082922Y-37292922D01*
X154174361Y-37172342D01*
X154229877Y-37031564D01*
X154240500Y-36943102D01*
X154240500Y-35956898D01*
X154229877Y-35868436D01*
X154174361Y-35727658D01*
X154174360Y-35727657D01*
X154174360Y-35727656D01*
X154082922Y-35607077D01*
X153962343Y-35515639D01*
X153840666Y-35467656D01*
X153821564Y-35460123D01*
X153821563Y-35460122D01*
X153821561Y-35460122D01*
X153775926Y-35454642D01*
X153733102Y-35449500D01*
X153733097Y-35449500D01*
X153629387Y-35449500D01*
X153562348Y-35429815D01*
X153541706Y-35413181D01*
X146386819Y-28258294D01*
X146353334Y-28196971D01*
X146350500Y-28170613D01*
X146350500Y-27606903D01*
X146350500Y-27606898D01*
X146339877Y-27518436D01*
X146284361Y-27377658D01*
X146284360Y-27377657D01*
X146284360Y-27377656D01*
X146192922Y-27257077D01*
X146072343Y-27165639D01*
X145931561Y-27110122D01*
X145885926Y-27104642D01*
X145843102Y-27099500D01*
X144856898Y-27099500D01*
X144817853Y-27104188D01*
X144768438Y-27110122D01*
X144627656Y-27165639D01*
X144507077Y-27257077D01*
X144415638Y-27377658D01*
X144411481Y-27385052D01*
X144408587Y-27383425D01*
X144375383Y-27426119D01*
X144309480Y-27449326D01*
X144302914Y-27449500D01*
X138987086Y-27449500D01*
X138920047Y-27429815D01*
X138880361Y-27384015D01*
X138878519Y-27385052D01*
X138874361Y-27377658D01*
X138782922Y-27257077D01*
X138662343Y-27165639D01*
X138521561Y-27110122D01*
X138475926Y-27104642D01*
X138433102Y-27099500D01*
X137446898Y-27099500D01*
X137407853Y-27104188D01*
X137358438Y-27110122D01*
X137217656Y-27165639D01*
X137097077Y-27257077D01*
X137005638Y-27377658D01*
X137001481Y-27385052D01*
X136998587Y-27383425D01*
X136965383Y-27426119D01*
X136899480Y-27449326D01*
X136892914Y-27449500D01*
X130007086Y-27449500D01*
X129940047Y-27429815D01*
X129900361Y-27384015D01*
X129898519Y-27385052D01*
X129894361Y-27377658D01*
X129802922Y-27257077D01*
X129682343Y-27165639D01*
X129541561Y-27110122D01*
X129495926Y-27104642D01*
X129453102Y-27099500D01*
X128466898Y-27099500D01*
X128427853Y-27104188D01*
X128378438Y-27110122D01*
X128237656Y-27165639D01*
X128117077Y-27257077D01*
X128025638Y-27377658D01*
X128021481Y-27385052D01*
X128018587Y-27383425D01*
X127985383Y-27426119D01*
X127919480Y-27449326D01*
X127912914Y-27449500D01*
X121277086Y-27449500D01*
X121210047Y-27429815D01*
X121170361Y-27384015D01*
X121168519Y-27385052D01*
X121164361Y-27377658D01*
X121072922Y-27257077D01*
X120952343Y-27165639D01*
X120811561Y-27110122D01*
X120765926Y-27104642D01*
X120723102Y-27099500D01*
X119736898Y-27099500D01*
X119697853Y-27104188D01*
X119648438Y-27110122D01*
X119507656Y-27165639D01*
X119387077Y-27257077D01*
X119295638Y-27377658D01*
X119291481Y-27385052D01*
X119288587Y-27383425D01*
X119255383Y-27426119D01*
X119189480Y-27449326D01*
X119182914Y-27449500D01*
X113607525Y-27449500D01*
X113502517Y-27477637D01*
X113467514Y-27487016D01*
X113341986Y-27559489D01*
X113341983Y-27559491D01*
X112778294Y-28123181D01*
X112716971Y-28156666D01*
X112690613Y-28159500D01*
X112349387Y-28159500D01*
X112282348Y-28139815D01*
X112261706Y-28123181D01*
X111869386Y-27730861D01*
X111835901Y-27669538D01*
X111840885Y-27599846D01*
X111882757Y-27543913D01*
X111924970Y-27523406D01*
X112186632Y-27453295D01*
X112441021Y-27347923D01*
X112679479Y-27210249D01*
X112897928Y-27042628D01*
X113092628Y-26847928D01*
X113260249Y-26629479D01*
X113397923Y-26391021D01*
X113503295Y-26136632D01*
X113574560Y-25870666D01*
X113610500Y-25597674D01*
X113610500Y-25322326D01*
X113574560Y-25049334D01*
X113503295Y-24783368D01*
X113397923Y-24528979D01*
X113397921Y-24528976D01*
X113397919Y-24528971D01*
X113348732Y-24443778D01*
X113260249Y-24290521D01*
X113092628Y-24072072D01*
X113092623Y-24072066D01*
X112897933Y-23877376D01*
X112897926Y-23877370D01*
X112679483Y-23709754D01*
X112679482Y-23709753D01*
X112679479Y-23709751D01*
X112584407Y-23654861D01*
X112441028Y-23572080D01*
X112441017Y-23572075D01*
X112186630Y-23466704D01*
X112053649Y-23431072D01*
X111920666Y-23395440D01*
X111920660Y-23395439D01*
X111920655Y-23395438D01*
X111647684Y-23359501D01*
X111647679Y-23359500D01*
X111647674Y-23359500D01*
X111372326Y-23359500D01*
X111372320Y-23359500D01*
X111372315Y-23359501D01*
X111099344Y-23395438D01*
X111099337Y-23395439D01*
X111099334Y-23395440D01*
X111043125Y-23410500D01*
X110833369Y-23466704D01*
X110578982Y-23572075D01*
X110578971Y-23572080D01*
X110340516Y-23709754D01*
X110122073Y-23877370D01*
X110122066Y-23877376D01*
X109927376Y-24072066D01*
X109927370Y-24072073D01*
X109759754Y-24290516D01*
X109622080Y-24528971D01*
X109622075Y-24528982D01*
X109516704Y-24783369D01*
X109465715Y-24973666D01*
X109448660Y-25037319D01*
X109445441Y-25049331D01*
X109445438Y-25049344D01*
X109409501Y-25322315D01*
X109409500Y-25322332D01*
X109409500Y-25597667D01*
X109409501Y-25597684D01*
X109445438Y-25870655D01*
X109445439Y-25870660D01*
X109445440Y-25870666D01*
X109463078Y-25936491D01*
X109516704Y-26136630D01*
X109622075Y-26391017D01*
X109622080Y-26391028D01*
X109701809Y-26529121D01*
X109759751Y-26629479D01*
X109759753Y-26629482D01*
X109759754Y-26629483D01*
X109927370Y-26847926D01*
X109927376Y-26847933D01*
X110122066Y-27042623D01*
X110122072Y-27042628D01*
X110340521Y-27210249D01*
X110354144Y-27218114D01*
X110402358Y-27268680D01*
X110415582Y-27337287D01*
X110389614Y-27402151D01*
X110332700Y-27442680D01*
X110292143Y-27449500D01*
X103707086Y-27449500D01*
X103640047Y-27429815D01*
X103600361Y-27384015D01*
X103598519Y-27385052D01*
X103594361Y-27377658D01*
X103502922Y-27257077D01*
X103382343Y-27165639D01*
X103241561Y-27110122D01*
X103195926Y-27104642D01*
X103153102Y-27099500D01*
X102166898Y-27099500D01*
X102127853Y-27104188D01*
X102078438Y-27110122D01*
X101937656Y-27165639D01*
X101817077Y-27257077D01*
X101725638Y-27377658D01*
X101721481Y-27385052D01*
X101718587Y-27383425D01*
X101685383Y-27426119D01*
X101619480Y-27449326D01*
X101612914Y-27449500D01*
X86097086Y-27449500D01*
X86030047Y-27429815D01*
X85990361Y-27384015D01*
X85988519Y-27385052D01*
X85984361Y-27377658D01*
X85892922Y-27257077D01*
X85772343Y-27165639D01*
X85631561Y-27110122D01*
X85585926Y-27104642D01*
X85543102Y-27099500D01*
X84556898Y-27099500D01*
X84517853Y-27104188D01*
X84468438Y-27110122D01*
X84327656Y-27165639D01*
X84207077Y-27257077D01*
X84115638Y-27377658D01*
X84111481Y-27385052D01*
X84108587Y-27383425D01*
X84075383Y-27426119D01*
X84009480Y-27449326D01*
X84002914Y-27449500D01*
X78047086Y-27449500D01*
X77980047Y-27429815D01*
X77940361Y-27384015D01*
X77938519Y-27385052D01*
X77934361Y-27377658D01*
X77842922Y-27257077D01*
X77722343Y-27165639D01*
X77581561Y-27110122D01*
X77535926Y-27104642D01*
X77493102Y-27099500D01*
X76506898Y-27099500D01*
X76467853Y-27104188D01*
X76418438Y-27110122D01*
X76277656Y-27165639D01*
X76157077Y-27257077D01*
X76065639Y-27377656D01*
X76010122Y-27518438D01*
X76005742Y-27554915D01*
X75999500Y-27606898D01*
X75999500Y-27606903D01*
X75999500Y-28170613D01*
X75979815Y-28237652D01*
X75963181Y-28258294D01*
X68668294Y-35553181D01*
X68606971Y-35586666D01*
X68580613Y-35589500D01*
X68356898Y-35589500D01*
X68317853Y-35594188D01*
X68268438Y-35600122D01*
X68127656Y-35655639D01*
X68007077Y-35747077D01*
X67915639Y-35867656D01*
X67860122Y-36008438D01*
X67854188Y-36057853D01*
X67849500Y-36096898D01*
X67849500Y-36096903D01*
X67849500Y-36660613D01*
X67829815Y-36727652D01*
X67813181Y-36748294D01*
X66879491Y-37681983D01*
X66879487Y-37681988D01*
X66862171Y-37711983D01*
X66862170Y-37711985D01*
X66807017Y-37807512D01*
X66807016Y-37807513D01*
X66803141Y-37821975D01*
X66769500Y-37947525D01*
X66769500Y-37947527D01*
X66769500Y-39973478D01*
X66749815Y-40040517D01*
X66697011Y-40086272D01*
X66690991Y-40088832D01*
X66597658Y-40125638D01*
X66477077Y-40217077D01*
X66385638Y-40337658D01*
X66381481Y-40345052D01*
X66378587Y-40343425D01*
X66345383Y-40386119D01*
X66279480Y-40409326D01*
X66272914Y-40409500D01*
X65767525Y-40409500D01*
X65638993Y-40443940D01*
X65627511Y-40447017D01*
X65501988Y-40519488D01*
X65501982Y-40519493D01*
X60458294Y-45563181D01*
X60396971Y-45596666D01*
X60370613Y-45599500D01*
X59806898Y-45599500D01*
X59767853Y-45604188D01*
X59718438Y-45610122D01*
X59577656Y-45665639D01*
X59457077Y-45757077D01*
X59365639Y-45877656D01*
X59310122Y-46018438D01*
X59306333Y-46049993D01*
X59299500Y-46106898D01*
X59299500Y-46106903D01*
X59299500Y-46670613D01*
X59279815Y-46737652D01*
X59263181Y-46758294D01*
X56839491Y-49181983D01*
X56839489Y-49181985D01*
X56819937Y-49215852D01*
X56800511Y-49249500D01*
X56767016Y-49307515D01*
X56729500Y-49447525D01*
X56729500Y-49447527D01*
X56729500Y-51183478D01*
X56709815Y-51250517D01*
X56657011Y-51296272D01*
X56650991Y-51298832D01*
X56557658Y-51335638D01*
X56437077Y-51427077D01*
X56345639Y-51547656D01*
X56290122Y-51688438D01*
X56284188Y-51737853D01*
X56279500Y-51776898D01*
X56279500Y-51776903D01*
X56279500Y-52340613D01*
X56259815Y-52407652D01*
X56243181Y-52428294D01*
X54209491Y-54461983D01*
X54209489Y-54461985D01*
X54199160Y-54479877D01*
X54169940Y-54530489D01*
X54137016Y-54587515D01*
X54099500Y-54727525D01*
X54099500Y-54727527D01*
X54099500Y-60442913D01*
X54079815Y-60509952D01*
X54034015Y-60549637D01*
X54035052Y-60551481D01*
X54027658Y-60555638D01*
X53907077Y-60647077D01*
X53815639Y-60767656D01*
X53785665Y-60843663D01*
X53765353Y-60895171D01*
X53722449Y-60950314D01*
X53656541Y-60973507D01*
X53588556Y-60957386D01*
X53540080Y-60907070D01*
X53534648Y-60895178D01*
X53484361Y-60767658D01*
X53484360Y-60767657D01*
X53484360Y-60767656D01*
X53392922Y-60647077D01*
X53272343Y-60555639D01*
X53131561Y-60500122D01*
X53085926Y-60494642D01*
X53043102Y-60489500D01*
X52256898Y-60489500D01*
X52217853Y-60494188D01*
X52168438Y-60500122D01*
X52027656Y-60555639D01*
X51907077Y-60647077D01*
X51815639Y-60767656D01*
X51760122Y-60908438D01*
X51755227Y-60949203D01*
X51749500Y-60996898D01*
X51749500Y-61983102D01*
X51752309Y-62006492D01*
X51760122Y-62071561D01*
X51815639Y-62212343D01*
X51907074Y-62332917D01*
X51907078Y-62332922D01*
X51940425Y-62358209D01*
X51981948Y-62414401D01*
X51989500Y-62457013D01*
X51989500Y-63857152D01*
X51969815Y-63924191D01*
X51921800Y-63967634D01*
X51910807Y-63973235D01*
X51910804Y-63973237D01*
X51832499Y-64030130D01*
X51757927Y-64084310D01*
X51757925Y-64084312D01*
X51757924Y-64084312D01*
X51624312Y-64217924D01*
X51624312Y-64217925D01*
X51624310Y-64217927D01*
X51576610Y-64283579D01*
X51513240Y-64370800D01*
X51434484Y-64525368D01*
X51386509Y-64576164D01*
X51318688Y-64592959D01*
X51252553Y-64570422D01*
X51209102Y-64515706D01*
X51199999Y-64469073D01*
X51199999Y-64055214D01*
X51199997Y-64055191D01*
X51197091Y-64030130D01*
X51197090Y-64030126D01*
X51151788Y-63927525D01*
X51151785Y-63927520D01*
X51072479Y-63848214D01*
X51072474Y-63848211D01*
X50969876Y-63802910D01*
X50944794Y-63800000D01*
X50150000Y-63800000D01*
X50150000Y-64574318D01*
X50059244Y-64550000D01*
X49940756Y-64550000D01*
X49850000Y-64574318D01*
X49850000Y-63800000D01*
X49055214Y-63800000D01*
X49055191Y-63800002D01*
X49030130Y-63802908D01*
X49030126Y-63802909D01*
X48927525Y-63848211D01*
X48927520Y-63848214D01*
X48848214Y-63927520D01*
X48848211Y-63927525D01*
X48802910Y-64030122D01*
X48802910Y-64030124D01*
X48800000Y-64055205D01*
X48800000Y-64850000D01*
X49574318Y-64850000D01*
X49550000Y-64940756D01*
X49550000Y-65059244D01*
X49574318Y-65150000D01*
X48800001Y-65150000D01*
X48800001Y-65944785D01*
X48800002Y-65944808D01*
X48802908Y-65969869D01*
X48802909Y-65969873D01*
X48848211Y-66072474D01*
X48848214Y-66072479D01*
X48927520Y-66151785D01*
X48927525Y-66151788D01*
X49030123Y-66197089D01*
X49055206Y-66199999D01*
X49849999Y-66199999D01*
X49850000Y-66199998D01*
X49850000Y-65425681D01*
X49940756Y-65450000D01*
X50059244Y-65450000D01*
X50150000Y-65425681D01*
X50150000Y-66199999D01*
X50944786Y-66199999D01*
X50944808Y-66199997D01*
X50969869Y-66197091D01*
X50969873Y-66197090D01*
X51072474Y-66151788D01*
X51072479Y-66151785D01*
X51151785Y-66072479D01*
X51151788Y-66072474D01*
X51197089Y-65969877D01*
X51197089Y-65969875D01*
X51199999Y-65944794D01*
X51199999Y-65530927D01*
X51219683Y-65463888D01*
X51272487Y-65418133D01*
X51341646Y-65408189D01*
X51405202Y-65437214D01*
X51434484Y-65474632D01*
X51513240Y-65629199D01*
X51624310Y-65782073D01*
X51757927Y-65915690D01*
X51910801Y-66026760D01*
X51990347Y-66067290D01*
X52079163Y-66112545D01*
X52079165Y-66112545D01*
X52079168Y-66112547D01*
X52111290Y-66122984D01*
X52258881Y-66170940D01*
X52445514Y-66200500D01*
X52445519Y-66200500D01*
X52634486Y-66200500D01*
X52821118Y-66170940D01*
X52880061Y-66151788D01*
X53000832Y-66112547D01*
X53169199Y-66026760D01*
X53322073Y-65915690D01*
X53455690Y-65782073D01*
X53566760Y-65629199D01*
X53652547Y-65460832D01*
X53710940Y-65281118D01*
X53711702Y-65276306D01*
X53740500Y-65094486D01*
X53740500Y-64905513D01*
X53710940Y-64718881D01*
X53659652Y-64561035D01*
X53652547Y-64539168D01*
X53652545Y-64539165D01*
X53652545Y-64539163D01*
X53607290Y-64450347D01*
X53566760Y-64370801D01*
X53455690Y-64217927D01*
X53322073Y-64084310D01*
X53169199Y-63973240D01*
X53169195Y-63973237D01*
X53169192Y-63973235D01*
X53158200Y-63967634D01*
X53107406Y-63919657D01*
X53090500Y-63857152D01*
X53090500Y-62580464D01*
X53110185Y-62513425D01*
X53162989Y-62467670D01*
X53168987Y-62465118D01*
X53272342Y-62424361D01*
X53392922Y-62332922D01*
X53484361Y-62212342D01*
X53534646Y-62084826D01*
X53577551Y-62029685D01*
X53643459Y-62006492D01*
X53711443Y-62022612D01*
X53759920Y-62072929D01*
X53765348Y-62084814D01*
X53788263Y-62142922D01*
X53815639Y-62212343D01*
X53907077Y-62332922D01*
X54027656Y-62424360D01*
X54027657Y-62424360D01*
X54027658Y-62424361D01*
X54168436Y-62479877D01*
X54256898Y-62490500D01*
X54415500Y-62490500D01*
X54482539Y-62510185D01*
X54528294Y-62562989D01*
X54539500Y-62614500D01*
X54539500Y-64623478D01*
X54519815Y-64690517D01*
X54467011Y-64736272D01*
X54460991Y-64738832D01*
X54367658Y-64775638D01*
X54247077Y-64867077D01*
X54155639Y-64987656D01*
X54100122Y-65128438D01*
X54098143Y-65144921D01*
X54089500Y-65216898D01*
X54089500Y-66003102D01*
X54092341Y-66026759D01*
X54100122Y-66091561D01*
X54100122Y-66091563D01*
X54100123Y-66091564D01*
X54101662Y-66095466D01*
X54155639Y-66232343D01*
X54247077Y-66352922D01*
X54367656Y-66444360D01*
X54367657Y-66444360D01*
X54367658Y-66444361D01*
X54495171Y-66494646D01*
X54550314Y-66537551D01*
X54573507Y-66603459D01*
X54557386Y-66671444D01*
X54507070Y-66719920D01*
X54495178Y-66725351D01*
X54457720Y-66740123D01*
X54367656Y-66775639D01*
X54247077Y-66867077D01*
X54155639Y-66987656D01*
X54135697Y-67038227D01*
X54118832Y-67080991D01*
X54075928Y-67136134D01*
X54010020Y-67159327D01*
X54003479Y-67159500D01*
X52410691Y-67159500D01*
X52330151Y-67181080D01*
X52296109Y-67190202D01*
X52296108Y-67190203D01*
X52262342Y-67209699D01*
X52262341Y-67209700D01*
X52227863Y-67229605D01*
X52193387Y-67249510D01*
X52193384Y-67249512D01*
X50599714Y-68843181D01*
X50538391Y-68876666D01*
X50512033Y-68879500D01*
X49055143Y-68879500D01*
X49055117Y-68879502D01*
X49030012Y-68882413D01*
X49030008Y-68882415D01*
X48927235Y-68927793D01*
X48847794Y-69007234D01*
X48802415Y-69110006D01*
X48802415Y-69110008D01*
X48799500Y-69135131D01*
X47829710Y-69135131D01*
X47830287Y-69124702D01*
X48053468Y-65091786D01*
X48110832Y-64055205D01*
X48480094Y-57382573D01*
X48481629Y-57368821D01*
X48496697Y-57279473D01*
X48504306Y-57252899D01*
X48536150Y-57175574D01*
X48549466Y-57151340D01*
X48601682Y-57077298D01*
X48610265Y-57066466D01*
X76111524Y-26088261D01*
X76119556Y-26080020D01*
X76174654Y-26028508D01*
X76192843Y-26014425D01*
X76251640Y-25977080D01*
X76272113Y-25966606D01*
X76336793Y-25940776D01*
X76358862Y-25934262D01*
X76432873Y-25919719D01*
X76444267Y-25918025D01*
X111366229Y-22377640D01*
X111366243Y-22377642D01*
X111394021Y-22374823D01*
X111394022Y-22374824D01*
X111399905Y-22374227D01*
X111399916Y-22374229D01*
X111399916Y-22374226D01*
X111399917Y-22374226D01*
X111457563Y-22368381D01*
X111461688Y-22368034D01*
X111488986Y-22366193D01*
X111497320Y-22365913D01*
X111522653Y-22365913D01*
X111530954Y-22366194D01*
G37*
%TD.AperFunction*%
%TD*%
M02*
