%TF.GenerationSoftware,KiCad,Pcbnew,10.0.5*%
%TF.CreationDate,2026-10-07T21:15:59+05:30*%
%TF.ProjectId,LineFollower,4c696e65-466f-46c6-9c6f-7765722e6b69,rev?*%
%TF.SameCoordinates,Original*%
%TF.FileFunction,Copper,L2,Bot*%
%TF.FilePolarity,Positive*%
%FSLAX46Y46*%
G04 Gerber Fmt 4.6, Leading zero omitted, Abs format (unit mm)*
G04 Created by KiCad (PCBNEW 10.0.5) date 2026-10-07 21:15:59*
%MOMM*%
%LPD*%
G01*
G04 APERTURE LIST*
%TA.AperFunction,ComponentPad*%
%ADD10R,1.700000X1.700000*%
%TD*%
%TA.AperFunction,ComponentPad*%
%ADD11C,1.700000*%
%TD*%
%TA.AperFunction,ComponentPad*%
%ADD12R,1.800000X1.800000*%
%TD*%
%TA.AperFunction,ComponentPad*%
%ADD13C,1.800000*%
%TD*%
%TA.AperFunction,ViaPad*%
%ADD14C,0.800000*%
%TD*%
G04 APERTURE END LIST*
D10*
%TO.P,J1,1,Pin_1_1*%
%TO.N,GND*%
X103750000Y-71240000D03*
D11*
%TO.P,J1,2,Pin_2_2*%
%TO.N,/s0*%
X106290000Y-71240000D03*
%TO.P,J1,3,Pin_3_3*%
%TO.N,/s1*%
X108830000Y-71240000D03*
%TO.P,J1,4,Pin_4_4*%
%TO.N,/com*%
X111370000Y-71240000D03*
%TO.P,J1,5,Pin_5_5*%
%TO.N,+3.3V*%
X113910000Y-71240000D03*
%TO.P,J1,6,Pin_6_6*%
%TO.N,/s3*%
X116450000Y-71240000D03*
%TO.P,J1,7,Pin_7_7*%
%TO.N,/s2*%
X118990000Y-71240000D03*
%TD*%
D12*
%TO.P,D13,1,K_1*%
%TO.N,/19*%
X160480000Y-55080000D03*
D13*
%TO.P,D13,2,A_2*%
%TO.N,GND*%
X163020000Y-55080000D03*
%TD*%
D12*
%TO.P,D14,1,K_1*%
%TO.N,/18*%
X170480000Y-70080000D03*
D13*
%TO.P,D14,2,A_2*%
%TO.N,GND*%
X173020000Y-70080000D03*
%TD*%
D12*
%TO.P,D10,1,K_1*%
%TO.N,/22*%
X132860000Y-35080000D03*
D13*
%TO.P,D10,2,A_2*%
%TO.N,GND*%
X135400000Y-35080000D03*
%TD*%
D12*
%TO.P,L7,1,K_1*%
%TO.N,GND*%
X105240000Y-30000000D03*
D13*
%TO.P,L7,2,A_2*%
%TO.N,Net-(L7-A)*%
X107780000Y-30000000D03*
%TD*%
D12*
%TO.P,L1,1,K_1*%
%TO.N,GND*%
X50000000Y-65000000D03*
D13*
%TO.P,L1,2,A_2*%
%TO.N,Net-(L1-A)*%
X52540000Y-65000000D03*
%TD*%
D12*
%TO.P,L2,1,K_1*%
%TO.N,GND*%
X60000000Y-50000000D03*
D13*
%TO.P,L2,2,A_2*%
%TO.N,Net-(L2-A)*%
X62540000Y-50000000D03*
%TD*%
D12*
%TO.P,L10,1,K_1*%
%TO.N,GND*%
X132860000Y-30000000D03*
D13*
%TO.P,L10,2,A_2*%
%TO.N,Net-(L10-A)*%
X135400000Y-30000000D03*
%TD*%
D12*
%TO.P,L11,1,K_1*%
%TO.N,GND*%
X140480000Y-30000000D03*
D13*
%TO.P,L11,2,A_2*%
%TO.N,Net-(L11-A)*%
X143020000Y-30000000D03*
%TD*%
D12*
%TO.P,D11,1,K_1*%
%TO.N,/21*%
X140480000Y-35080000D03*
D13*
%TO.P,D11,2,A_2*%
%TO.N,GND*%
X143020000Y-35080000D03*
%TD*%
D12*
%TO.P,L12,1,K_1*%
%TO.N,GND*%
X150480000Y-40000000D03*
D13*
%TO.P,L12,2,A_2*%
%TO.N,Net-(L12-A)*%
X153020000Y-40000000D03*
%TD*%
D12*
%TO.P,L4,1,K_1*%
%TO.N,GND*%
X80000000Y-30000000D03*
D13*
%TO.P,L4,2,A_2*%
%TO.N,Net-(L4-A)*%
X82540000Y-30000000D03*
%TD*%
D12*
%TO.P,D9,1,K_1*%
%TO.N,/23*%
X122860000Y-35080000D03*
D13*
%TO.P,D9,2,A_2*%
%TO.N,GND*%
X125400000Y-35080000D03*
%TD*%
D12*
%TO.P,L14,1,K_1*%
%TO.N,GND*%
X170480000Y-65000000D03*
D13*
%TO.P,L14,2,A_2*%
%TO.N,Net-(L14-A)*%
X173020000Y-65000000D03*
%TD*%
D12*
%TO.P,D12,1,K_1*%
%TO.N,/20*%
X150480000Y-45080000D03*
D13*
%TO.P,D12,2,A_2*%
%TO.N,GND*%
X153020000Y-45080000D03*
%TD*%
D12*
%TO.P,L13,1,K_1*%
%TO.N,GND*%
X160480000Y-50000000D03*
D13*
%TO.P,L13,2,A_2*%
%TO.N,Net-(L13-A)*%
X163020000Y-50000000D03*
%TD*%
D12*
%TO.P,D6,1,K_1*%
%TO.N,/4*%
X97620000Y-35080000D03*
D13*
%TO.P,D6,2,A_2*%
%TO.N,GND*%
X100160000Y-35080000D03*
%TD*%
D12*
%TO.P,L5,1,K_1*%
%TO.N,GND*%
X87620000Y-30000000D03*
D13*
%TO.P,L5,2,A_2*%
%TO.N,Net-(L5-A)*%
X90160000Y-30000000D03*
%TD*%
D12*
%TO.P,L6,1,K_1*%
%TO.N,GND*%
X97620000Y-30000000D03*
D13*
%TO.P,L6,2,A_2*%
%TO.N,Net-(L6-A)*%
X100160000Y-30000000D03*
%TD*%
D12*
%TO.P,D4,1,K_1*%
%TO.N,/6*%
X80000000Y-35080000D03*
D13*
%TO.P,D4,2,A_2*%
%TO.N,GND*%
X82540000Y-35080000D03*
%TD*%
D12*
%TO.P,D1,1,K_1*%
%TO.N,/9*%
X50000000Y-70080000D03*
D13*
%TO.P,D1,2,A_2*%
%TO.N,GND*%
X52540000Y-70080000D03*
%TD*%
D12*
%TO.P,D3,1,K_1*%
%TO.N,/7*%
X70000000Y-45080000D03*
D13*
%TO.P,D3,2,A_2*%
%TO.N,GND*%
X72540000Y-45080000D03*
%TD*%
D12*
%TO.P,D5,1,K_1*%
%TO.N,/5*%
X87620000Y-35080000D03*
D13*
%TO.P,D5,2,A_2*%
%TO.N,GND*%
X90160000Y-35080000D03*
%TD*%
D12*
%TO.P,L3,1,K_1*%
%TO.N,GND*%
X70000000Y-40000000D03*
D13*
%TO.P,L3,2,A_2*%
%TO.N,Net-(L3-A)*%
X72540000Y-40000000D03*
%TD*%
D12*
%TO.P,D7,1,K_1*%
%TO.N,/3*%
X105240000Y-35080000D03*
D13*
%TO.P,D7,2,A_2*%
%TO.N,GND*%
X107780000Y-35080000D03*
%TD*%
D12*
%TO.P,L8,1,K_1*%
%TO.N,GND*%
X115240000Y-30000000D03*
D13*
%TO.P,L8,2,A_2*%
%TO.N,Net-(L8-A)*%
X117780000Y-30000000D03*
%TD*%
D12*
%TO.P,D8,1,K_1*%
%TO.N,/2*%
X115240000Y-35080000D03*
D13*
%TO.P,D8,2,A_2*%
%TO.N,GND*%
X117780000Y-35080000D03*
%TD*%
D12*
%TO.P,L9,1,K_1*%
%TO.N,GND*%
X122860000Y-30000000D03*
D13*
%TO.P,L9,2,A_2*%
%TO.N,Net-(L9-A)*%
X125400000Y-30000000D03*
%TD*%
D12*
%TO.P,D2,1,K_1*%
%TO.N,/8*%
X60000000Y-55080000D03*
D13*
%TO.P,D2,2,A_2*%
%TO.N,GND*%
X62540000Y-55080000D03*
%TD*%
D14*
%TO.N,GND*%
X156140000Y-49820000D03*
X164740000Y-60380000D03*
X67250000Y-50260000D03*
X139910000Y-39470000D03*
X114510000Y-64850000D03*
X105770000Y-40560000D03*
X123110000Y-67550000D03*
X57590000Y-60340000D03*
X93950000Y-29980000D03*
X100130000Y-67440000D03*
X118410000Y-57070000D03*
X117580000Y-40930000D03*
X80680000Y-39570000D03*
X106890000Y-60790000D03*
X123750000Y-26280000D03*
X123800000Y-40460000D03*
X128980000Y-31850000D03*
%TD*%
%TA.AperFunction,Conductor*%
%TO.N,GND*%
G36*
X111530954Y-22366194D02*
G01*
X111558290Y-22368039D01*
X111562377Y-22368383D01*
X146476662Y-25910983D01*
X146476691Y-25910989D01*
X146545875Y-25918007D01*
X146557270Y-25919701D01*
X146557367Y-25919720D01*
X146631235Y-25934235D01*
X146653306Y-25940749D01*
X146717934Y-25966556D01*
X146738416Y-25977033D01*
X146797173Y-26014348D01*
X146815362Y-26028429D01*
X146821844Y-26034487D01*
X146870426Y-26079899D01*
X146878469Y-26088150D01*
X146885622Y-26096205D01*
X146923676Y-26139057D01*
X146923696Y-26139077D01*
X174175944Y-56825829D01*
X174369668Y-57043967D01*
X174409168Y-57088445D01*
X174417154Y-57098430D01*
X174465964Y-57166364D01*
X174478648Y-57188523D01*
X174509901Y-57259137D01*
X174517775Y-57283427D01*
X174535237Y-57365220D01*
X174537259Y-57377846D01*
X175645293Y-67677743D01*
X175645293Y-67677746D01*
X175646516Y-67689117D01*
X175646733Y-67691322D01*
X175648027Y-67705778D01*
X175648343Y-67710190D01*
X175649062Y-67723591D01*
X175649220Y-67728009D01*
X175649480Y-67742497D01*
X175649500Y-67744722D01*
X175649500Y-76065111D01*
X175648499Y-76080837D01*
X175635448Y-76182916D01*
X175627540Y-76213341D01*
X175592200Y-76301471D01*
X175576894Y-76328934D01*
X175520523Y-76405346D01*
X175498802Y-76428075D01*
X175425026Y-76487854D01*
X175398289Y-76504390D01*
X175311849Y-76543695D01*
X175281810Y-76552975D01*
X175188270Y-76569276D01*
X175156863Y-76570703D01*
X175062220Y-76562954D01*
X175031467Y-76556438D01*
X174934316Y-76522520D01*
X174919803Y-76516393D01*
X162974195Y-70552365D01*
X162974193Y-70552364D01*
X162965235Y-70547891D01*
X162929400Y-70530000D01*
X162912432Y-70521528D01*
X162900509Y-70514726D01*
X162825116Y-70465993D01*
X162803878Y-70448655D01*
X162745880Y-70389487D01*
X162728973Y-70367911D01*
X162685394Y-70297445D01*
X162673640Y-70272677D01*
X162646610Y-70194355D01*
X162640586Y-70167610D01*
X162630662Y-70078391D01*
X162629902Y-70064683D01*
X162629902Y-69135131D01*
X169279500Y-69135131D01*
X169279500Y-71024856D01*
X169279502Y-71024882D01*
X169282413Y-71049987D01*
X169282415Y-71049991D01*
X169327793Y-71152764D01*
X169327794Y-71152765D01*
X169407235Y-71232206D01*
X169510009Y-71277585D01*
X169535135Y-71280500D01*
X171424864Y-71280499D01*
X171424879Y-71280497D01*
X171424882Y-71280497D01*
X171449987Y-71277586D01*
X171449988Y-71277585D01*
X171449991Y-71277585D01*
X171552765Y-71232206D01*
X171632206Y-71152765D01*
X171677585Y-71049991D01*
X171680500Y-71024865D01*
X171680499Y-70610805D01*
X171700183Y-70543769D01*
X171752987Y-70498014D01*
X171822146Y-70488070D01*
X171885701Y-70517095D01*
X171914983Y-70554513D01*
X171993661Y-70708925D01*
X171993664Y-70708930D01*
X172071627Y-70816239D01*
X172612931Y-70274936D01*
X172659910Y-70356306D01*
X172743694Y-70440090D01*
X172825062Y-70487068D01*
X172283759Y-71028370D01*
X172283759Y-71028371D01*
X172391066Y-71106333D01*
X172559362Y-71192085D01*
X172738997Y-71250451D01*
X172925553Y-71280000D01*
X173114447Y-71280000D01*
X173301002Y-71250451D01*
X173480637Y-71192085D01*
X173648940Y-71106329D01*
X173756239Y-71028373D01*
X173756240Y-71028371D01*
X173214936Y-70487068D01*
X173296306Y-70440090D01*
X173380090Y-70356306D01*
X173427068Y-70274937D01*
X173968371Y-70816240D01*
X173968373Y-70816239D01*
X174046329Y-70708940D01*
X174132085Y-70540637D01*
X174190451Y-70361002D01*
X174220000Y-70174447D01*
X174220000Y-69985552D01*
X174190451Y-69798997D01*
X174132085Y-69619362D01*
X174046333Y-69451066D01*
X173968371Y-69343759D01*
X173968370Y-69343759D01*
X173427068Y-69885062D01*
X173380090Y-69803694D01*
X173296306Y-69719910D01*
X173214936Y-69672931D01*
X173756239Y-69131627D01*
X173648933Y-69053666D01*
X173480637Y-68967914D01*
X173301002Y-68909548D01*
X173114447Y-68880000D01*
X172925553Y-68880000D01*
X172738997Y-68909548D01*
X172559362Y-68967914D01*
X172391064Y-69053667D01*
X172391062Y-69053668D01*
X172283759Y-69131626D01*
X172283759Y-69131627D01*
X172825063Y-69672931D01*
X172743694Y-69719910D01*
X172659910Y-69803694D01*
X172612931Y-69885063D01*
X172071627Y-69343759D01*
X172071626Y-69343759D01*
X171993668Y-69451062D01*
X171993661Y-69451074D01*
X171914983Y-69605487D01*
X171867009Y-69656283D01*
X171799188Y-69673078D01*
X171733053Y-69650540D01*
X171689602Y-69595825D01*
X171680499Y-69549192D01*
X171680499Y-69135143D01*
X171680499Y-69135136D01*
X171679289Y-69124702D01*
X171677586Y-69110012D01*
X171677585Y-69110010D01*
X171677585Y-69110009D01*
X171632206Y-69007235D01*
X171552765Y-68927794D01*
X171511442Y-68909548D01*
X171449992Y-68882415D01*
X171424865Y-68879500D01*
X169535143Y-68879500D01*
X169535117Y-68879502D01*
X169510012Y-68882413D01*
X169510008Y-68882415D01*
X169407235Y-68927793D01*
X169327794Y-69007234D01*
X169282415Y-69110006D01*
X169282415Y-69110008D01*
X169279500Y-69135131D01*
X162629902Y-69135131D01*
X162629902Y-68069719D01*
X162629955Y-67960617D01*
X162598391Y-67744707D01*
X162535927Y-67535634D01*
X162527550Y-67517630D01*
X162443880Y-67337798D01*
X162438824Y-67330092D01*
X162324179Y-67155352D01*
X162252576Y-67074741D01*
X159573067Y-64055205D01*
X169280000Y-64055205D01*
X169280000Y-64850000D01*
X170054318Y-64850000D01*
X170030000Y-64940756D01*
X170030000Y-65059244D01*
X170054318Y-65150000D01*
X169280001Y-65150000D01*
X169280001Y-65944785D01*
X169280002Y-65944808D01*
X169282908Y-65969869D01*
X169282909Y-65969873D01*
X169328211Y-66072474D01*
X169328214Y-66072479D01*
X169407520Y-66151785D01*
X169407525Y-66151788D01*
X169510123Y-66197089D01*
X169535206Y-66199999D01*
X170329999Y-66199999D01*
X170330000Y-66199998D01*
X170330000Y-65425681D01*
X170420756Y-65450000D01*
X170539244Y-65450000D01*
X170630000Y-65425681D01*
X170630000Y-66199999D01*
X171424786Y-66199999D01*
X171424808Y-66199997D01*
X171449869Y-66197091D01*
X171449873Y-66197090D01*
X171552474Y-66151788D01*
X171552479Y-66151785D01*
X171631785Y-66072479D01*
X171631788Y-66072474D01*
X171677089Y-65969877D01*
X171677089Y-65969875D01*
X171679999Y-65944794D01*
X171679999Y-65530927D01*
X171699683Y-65463888D01*
X171752487Y-65418133D01*
X171821646Y-65408189D01*
X171885202Y-65437214D01*
X171914484Y-65474632D01*
X171993240Y-65629199D01*
X172104310Y-65782073D01*
X172237927Y-65915690D01*
X172390801Y-66026760D01*
X172470347Y-66067290D01*
X172559163Y-66112545D01*
X172559165Y-66112545D01*
X172559168Y-66112547D01*
X172655497Y-66143846D01*
X172738881Y-66170940D01*
X172925514Y-66200500D01*
X172925519Y-66200500D01*
X173114486Y-66200500D01*
X173301118Y-66170940D01*
X173360061Y-66151788D01*
X173480832Y-66112547D01*
X173649199Y-66026760D01*
X173802073Y-65915690D01*
X173935690Y-65782073D01*
X174046760Y-65629199D01*
X174132547Y-65460832D01*
X174190940Y-65281118D01*
X174191702Y-65276306D01*
X174220500Y-65094486D01*
X174220500Y-64905513D01*
X174190940Y-64718881D01*
X174142702Y-64570422D01*
X174132547Y-64539168D01*
X174132545Y-64539165D01*
X174132545Y-64539163D01*
X174046759Y-64370800D01*
X173935690Y-64217927D01*
X173802073Y-64084310D01*
X173649199Y-63973240D01*
X173480836Y-63887454D01*
X173301118Y-63829059D01*
X173114486Y-63799500D01*
X173114481Y-63799500D01*
X172925519Y-63799500D01*
X172925514Y-63799500D01*
X172738881Y-63829059D01*
X172559163Y-63887454D01*
X172390800Y-63973240D01*
X172312499Y-64030130D01*
X172237927Y-64084310D01*
X172237925Y-64084312D01*
X172237924Y-64084312D01*
X172104312Y-64217924D01*
X172104312Y-64217925D01*
X172104310Y-64217927D01*
X172056610Y-64283579D01*
X171993240Y-64370800D01*
X171914484Y-64525368D01*
X171866509Y-64576164D01*
X171798688Y-64592959D01*
X171732553Y-64570422D01*
X171689102Y-64515706D01*
X171679999Y-64469073D01*
X171679999Y-64055214D01*
X171679997Y-64055191D01*
X171677091Y-64030130D01*
X171677090Y-64030126D01*
X171631788Y-63927525D01*
X171631785Y-63927520D01*
X171552479Y-63848214D01*
X171552474Y-63848211D01*
X171449876Y-63802910D01*
X171424794Y-63800000D01*
X170630000Y-63800000D01*
X170630000Y-64574318D01*
X170539244Y-64550000D01*
X170420756Y-64550000D01*
X170330000Y-64574318D01*
X170330000Y-63800000D01*
X169535214Y-63800000D01*
X169535191Y-63800002D01*
X169510130Y-63802908D01*
X169510126Y-63802909D01*
X169407525Y-63848211D01*
X169407520Y-63848214D01*
X169328214Y-63927520D01*
X169328211Y-63927525D01*
X169282910Y-64030122D01*
X169282910Y-64030124D01*
X169280000Y-64055205D01*
X159573067Y-64055205D01*
X151289012Y-54719910D01*
X150839945Y-54213857D01*
X150770084Y-54135131D01*
X159279500Y-54135131D01*
X159279500Y-56024856D01*
X159279502Y-56024882D01*
X159282413Y-56049987D01*
X159282415Y-56049991D01*
X159327793Y-56152764D01*
X159327794Y-56152765D01*
X159407235Y-56232206D01*
X159510009Y-56277585D01*
X159535135Y-56280500D01*
X161424864Y-56280499D01*
X161424879Y-56280497D01*
X161424882Y-56280497D01*
X161449987Y-56277586D01*
X161449988Y-56277585D01*
X161449991Y-56277585D01*
X161552765Y-56232206D01*
X161632206Y-56152765D01*
X161677585Y-56049991D01*
X161680500Y-56024865D01*
X161680499Y-55610805D01*
X161700183Y-55543769D01*
X161752987Y-55498014D01*
X161822146Y-55488070D01*
X161885701Y-55517095D01*
X161914983Y-55554513D01*
X161993661Y-55708925D01*
X161993664Y-55708930D01*
X162071627Y-55816239D01*
X162612931Y-55274936D01*
X162659910Y-55356306D01*
X162743694Y-55440090D01*
X162825062Y-55487068D01*
X162283759Y-56028370D01*
X162283759Y-56028371D01*
X162391066Y-56106333D01*
X162559362Y-56192085D01*
X162738997Y-56250451D01*
X162925553Y-56280000D01*
X163114447Y-56280000D01*
X163301002Y-56250451D01*
X163480637Y-56192085D01*
X163648940Y-56106329D01*
X163756239Y-56028373D01*
X163756240Y-56028371D01*
X163214936Y-55487068D01*
X163296306Y-55440090D01*
X163380090Y-55356306D01*
X163427068Y-55274937D01*
X163968371Y-55816240D01*
X163968373Y-55816239D01*
X164046329Y-55708940D01*
X164132085Y-55540637D01*
X164190451Y-55361002D01*
X164220000Y-55174447D01*
X164220000Y-54985552D01*
X164190451Y-54798997D01*
X164132085Y-54619362D01*
X164046333Y-54451066D01*
X163968371Y-54343759D01*
X163968370Y-54343759D01*
X163427068Y-54885062D01*
X163380090Y-54803694D01*
X163296306Y-54719910D01*
X163214936Y-54672931D01*
X163756239Y-54131627D01*
X163648933Y-54053666D01*
X163480637Y-53967914D01*
X163301002Y-53909548D01*
X163114447Y-53880000D01*
X162925553Y-53880000D01*
X162738997Y-53909548D01*
X162559362Y-53967914D01*
X162391064Y-54053667D01*
X162391062Y-54053668D01*
X162283759Y-54131626D01*
X162283759Y-54131627D01*
X162825063Y-54672931D01*
X162743694Y-54719910D01*
X162659910Y-54803694D01*
X162612931Y-54885063D01*
X162071627Y-54343759D01*
X162071626Y-54343759D01*
X161993668Y-54451062D01*
X161993661Y-54451074D01*
X161914983Y-54605487D01*
X161867009Y-54656283D01*
X161799188Y-54673078D01*
X161733053Y-54650540D01*
X161689602Y-54595825D01*
X161680499Y-54549192D01*
X161680499Y-54135143D01*
X161680499Y-54135136D01*
X161680092Y-54131626D01*
X161677586Y-54110012D01*
X161677585Y-54110010D01*
X161677585Y-54110009D01*
X161632206Y-54007235D01*
X161552765Y-53927794D01*
X161511442Y-53909548D01*
X161449992Y-53882415D01*
X161424865Y-53879500D01*
X159535143Y-53879500D01*
X159535117Y-53879502D01*
X159510012Y-53882413D01*
X159510008Y-53882415D01*
X159407235Y-53927793D01*
X159327794Y-54007234D01*
X159282415Y-54110006D01*
X159282415Y-54110008D01*
X159279500Y-54135131D01*
X150770084Y-54135131D01*
X148162893Y-51197090D01*
X146262204Y-49055205D01*
X159280000Y-49055205D01*
X159280000Y-49850000D01*
X160054318Y-49850000D01*
X160030000Y-49940756D01*
X160030000Y-50059244D01*
X160054318Y-50150000D01*
X159280001Y-50150000D01*
X159280001Y-50944785D01*
X159280002Y-50944808D01*
X159282908Y-50969869D01*
X159282909Y-50969873D01*
X159328211Y-51072474D01*
X159328214Y-51072479D01*
X159407520Y-51151785D01*
X159407525Y-51151788D01*
X159510123Y-51197089D01*
X159535206Y-51199999D01*
X160329999Y-51199999D01*
X160330000Y-51199998D01*
X160330000Y-50425681D01*
X160420756Y-50450000D01*
X160539244Y-50450000D01*
X160630000Y-50425681D01*
X160630000Y-51199999D01*
X161424786Y-51199999D01*
X161424808Y-51199997D01*
X161449869Y-51197091D01*
X161449873Y-51197090D01*
X161552474Y-51151788D01*
X161552479Y-51151785D01*
X161631785Y-51072479D01*
X161631788Y-51072474D01*
X161677089Y-50969877D01*
X161677089Y-50969875D01*
X161679999Y-50944794D01*
X161679999Y-50530927D01*
X161699683Y-50463888D01*
X161752487Y-50418133D01*
X161821646Y-50408189D01*
X161885202Y-50437214D01*
X161914484Y-50474632D01*
X161993240Y-50629199D01*
X162104310Y-50782073D01*
X162237927Y-50915690D01*
X162390801Y-51026760D01*
X162470347Y-51067290D01*
X162559163Y-51112545D01*
X162559165Y-51112545D01*
X162559168Y-51112547D01*
X162655497Y-51143846D01*
X162738881Y-51170940D01*
X162925514Y-51200500D01*
X162925519Y-51200500D01*
X163114486Y-51200500D01*
X163301118Y-51170940D01*
X163360061Y-51151788D01*
X163480832Y-51112547D01*
X163649199Y-51026760D01*
X163802073Y-50915690D01*
X163935690Y-50782073D01*
X164046760Y-50629199D01*
X164132547Y-50460832D01*
X164190940Y-50281118D01*
X164191702Y-50276306D01*
X164220500Y-50094486D01*
X164220500Y-49905513D01*
X164190940Y-49718881D01*
X164142702Y-49570422D01*
X164132547Y-49539168D01*
X164132545Y-49539165D01*
X164132545Y-49539163D01*
X164046759Y-49370800D01*
X163935690Y-49217927D01*
X163802073Y-49084310D01*
X163649199Y-48973240D01*
X163641470Y-48969302D01*
X163480836Y-48887454D01*
X163301118Y-48829059D01*
X163114486Y-48799500D01*
X163114481Y-48799500D01*
X162925519Y-48799500D01*
X162925514Y-48799500D01*
X162738881Y-48829059D01*
X162559163Y-48887454D01*
X162390800Y-48973240D01*
X162312499Y-49030130D01*
X162237927Y-49084310D01*
X162237925Y-49084312D01*
X162237924Y-49084312D01*
X162104312Y-49217924D01*
X162104312Y-49217925D01*
X162104310Y-49217927D01*
X162056610Y-49283579D01*
X161993240Y-49370800D01*
X161914484Y-49525368D01*
X161866509Y-49576164D01*
X161798688Y-49592959D01*
X161732553Y-49570422D01*
X161689102Y-49515706D01*
X161679999Y-49469073D01*
X161679999Y-49055214D01*
X161679997Y-49055191D01*
X161677091Y-49030130D01*
X161677090Y-49030126D01*
X161631788Y-48927525D01*
X161631785Y-48927520D01*
X161552479Y-48848214D01*
X161552474Y-48848211D01*
X161449876Y-48802910D01*
X161424794Y-48800000D01*
X160630000Y-48800000D01*
X160630000Y-49574318D01*
X160539244Y-49550000D01*
X160420756Y-49550000D01*
X160330000Y-49574318D01*
X160330000Y-48800000D01*
X159535214Y-48800000D01*
X159535191Y-48800002D01*
X159510130Y-48802908D01*
X159510126Y-48802909D01*
X159407525Y-48848211D01*
X159407520Y-48848214D01*
X159328214Y-48927520D01*
X159328211Y-48927525D01*
X159282910Y-49030122D01*
X159282910Y-49030124D01*
X159280000Y-49055205D01*
X146262204Y-49055205D01*
X142752648Y-45100289D01*
X142752618Y-45100250D01*
X142746472Y-45093325D01*
X142746472Y-45093324D01*
X142711082Y-45053448D01*
X142659018Y-44994777D01*
X142659016Y-44994776D01*
X142653915Y-44989027D01*
X142653390Y-44988509D01*
X142650763Y-44985552D01*
X142632443Y-44964934D01*
X142632441Y-44964932D01*
X142632439Y-44964930D01*
X142471133Y-44827923D01*
X142471129Y-44827920D01*
X142425334Y-44798997D01*
X142292182Y-44714902D01*
X142099144Y-44628118D01*
X141987550Y-44595825D01*
X141895837Y-44569285D01*
X141895832Y-44569284D01*
X141790159Y-44554299D01*
X141686284Y-44539569D01*
X141686129Y-44539568D01*
X141654757Y-44539548D01*
X141654026Y-44539500D01*
X141646323Y-44539500D01*
X141580460Y-44539500D01*
X141580450Y-44539499D01*
X141514567Y-44539496D01*
X141514565Y-44539496D01*
X141506514Y-44539496D01*
X141506452Y-44539500D01*
X132418697Y-44539500D01*
X132417862Y-44539554D01*
X132383649Y-44539579D01*
X132383648Y-44539579D01*
X132169044Y-44570760D01*
X131961136Y-44632479D01*
X131764273Y-44723447D01*
X131582541Y-44841771D01*
X131419698Y-44985007D01*
X131397492Y-45011061D01*
X131396908Y-45011663D01*
X121588447Y-56537304D01*
X121588444Y-56537308D01*
X121576545Y-56551289D01*
X121576499Y-56551343D01*
X121504110Y-56636298D01*
X121504102Y-56636310D01*
X121386168Y-56825829D01*
X121386168Y-56825830D01*
X121297566Y-57030724D01*
X121265896Y-57149944D01*
X121240253Y-57246474D01*
X121215495Y-57468319D01*
X121215495Y-57468326D01*
X121223831Y-57691397D01*
X121223833Y-57691411D01*
X121265081Y-57910782D01*
X121338335Y-58121644D01*
X121338340Y-58121656D01*
X121390216Y-58220478D01*
X121390254Y-58220551D01*
X121393165Y-58226106D01*
X121393166Y-58226106D01*
X131451818Y-77415943D01*
X131451818Y-77415944D01*
X131480091Y-77469884D01*
X131484362Y-77478896D01*
X131509934Y-77538987D01*
X131516241Y-77557900D01*
X131530655Y-77616449D01*
X131533849Y-77636124D01*
X131539098Y-77701219D01*
X131539499Y-77711186D01*
X131539499Y-77782072D01*
X131539500Y-77782085D01*
X131539500Y-79953040D01*
X131538720Y-79966923D01*
X131528541Y-80057265D01*
X131524561Y-80068637D01*
X131524648Y-80077102D01*
X131522362Y-80084337D01*
X131494649Y-80163535D01*
X131482602Y-80188552D01*
X131437957Y-80259604D01*
X131420644Y-80281313D01*
X131361313Y-80340644D01*
X131339604Y-80357957D01*
X131268552Y-80402602D01*
X131243535Y-80414649D01*
X131164337Y-80442362D01*
X131137265Y-80448541D01*
X131046923Y-80458720D01*
X131033040Y-80459500D01*
X90996960Y-80459500D01*
X90983077Y-80458720D01*
X90892734Y-80448541D01*
X90881361Y-80444561D01*
X90872897Y-80444648D01*
X90865662Y-80442362D01*
X90786464Y-80414649D01*
X90761447Y-80402602D01*
X90690395Y-80357957D01*
X90668686Y-80340644D01*
X90609355Y-80281313D01*
X90592042Y-80259604D01*
X90547397Y-80188552D01*
X90535351Y-80163539D01*
X90507636Y-80084333D01*
X90501458Y-80057268D01*
X90491280Y-79966922D01*
X90490500Y-79953040D01*
X90490500Y-77732312D01*
X90490968Y-77721546D01*
X90492840Y-77700066D01*
X90497095Y-77651248D01*
X90500817Y-77630060D01*
X90517617Y-77567114D01*
X90524953Y-77546880D01*
X90554674Y-77482875D01*
X90559613Y-77473345D01*
X90589774Y-77420873D01*
X90589774Y-77420869D01*
X90643405Y-77327561D01*
X97489500Y-77327561D01*
X97489500Y-77592438D01*
X97507205Y-77726913D01*
X97524072Y-77855026D01*
X97546999Y-77940589D01*
X97592623Y-78110864D01*
X97693978Y-78355555D01*
X97693982Y-78355565D01*
X97826410Y-78584937D01*
X97987646Y-78795064D01*
X97987652Y-78795071D01*
X98174928Y-78982347D01*
X98174935Y-78982353D01*
X98385062Y-79143589D01*
X98614434Y-79276017D01*
X98614435Y-79276017D01*
X98614438Y-79276019D01*
X98777571Y-79343591D01*
X98859135Y-79377376D01*
X98859136Y-79377376D01*
X98859138Y-79377377D01*
X99114974Y-79445928D01*
X99377569Y-79480500D01*
X99377576Y-79480500D01*
X99642424Y-79480500D01*
X99642431Y-79480500D01*
X99905026Y-79445928D01*
X100160862Y-79377377D01*
X100405562Y-79276019D01*
X100634938Y-79143589D01*
X100845066Y-78982352D01*
X101032352Y-78795066D01*
X101193589Y-78584938D01*
X101326019Y-78355562D01*
X101427377Y-78110862D01*
X101495928Y-77855026D01*
X101530500Y-77592431D01*
X101530500Y-77327569D01*
X101530499Y-77327561D01*
X121489500Y-77327561D01*
X121489500Y-77592438D01*
X121507205Y-77726913D01*
X121524072Y-77855026D01*
X121546999Y-77940589D01*
X121592623Y-78110864D01*
X121693978Y-78355555D01*
X121693982Y-78355565D01*
X121826410Y-78584937D01*
X121987646Y-78795064D01*
X121987652Y-78795071D01*
X122174928Y-78982347D01*
X122174935Y-78982353D01*
X122385062Y-79143589D01*
X122614434Y-79276017D01*
X122614435Y-79276017D01*
X122614438Y-79276019D01*
X122777571Y-79343591D01*
X122859135Y-79377376D01*
X122859136Y-79377376D01*
X122859138Y-79377377D01*
X123114974Y-79445928D01*
X123377569Y-79480500D01*
X123377576Y-79480500D01*
X123642424Y-79480500D01*
X123642431Y-79480500D01*
X123905026Y-79445928D01*
X124160862Y-79377377D01*
X124405562Y-79276019D01*
X124634938Y-79143589D01*
X124845066Y-78982352D01*
X125032352Y-78795066D01*
X125193589Y-78584938D01*
X125326019Y-78355562D01*
X125427377Y-78110862D01*
X125495928Y-77855026D01*
X125530500Y-77592431D01*
X125530500Y-77327569D01*
X125495928Y-77064974D01*
X125427377Y-76809138D01*
X125326019Y-76564438D01*
X125325162Y-76562954D01*
X125193589Y-76335062D01*
X125032353Y-76124935D01*
X125032347Y-76124928D01*
X124845071Y-75937652D01*
X124845064Y-75937646D01*
X124634937Y-75776410D01*
X124405565Y-75643982D01*
X124405555Y-75643978D01*
X124160864Y-75542623D01*
X124032944Y-75508347D01*
X123905026Y-75474072D01*
X123846671Y-75466389D01*
X123642438Y-75439500D01*
X123642431Y-75439500D01*
X123377569Y-75439500D01*
X123377561Y-75439500D01*
X123144151Y-75470230D01*
X123114974Y-75474072D01*
X123051015Y-75491209D01*
X122859135Y-75542623D01*
X122614444Y-75643978D01*
X122614434Y-75643982D01*
X122385062Y-75776410D01*
X122174935Y-75937646D01*
X122174928Y-75937652D01*
X121987652Y-76124928D01*
X121987646Y-76124935D01*
X121826410Y-76335062D01*
X121693982Y-76564434D01*
X121693978Y-76564444D01*
X121592623Y-76809135D01*
X121541774Y-76998908D01*
X121524302Y-77064118D01*
X121524072Y-77064975D01*
X121489500Y-77327561D01*
X101530499Y-77327561D01*
X101495928Y-77064974D01*
X101427377Y-76809138D01*
X101326019Y-76564438D01*
X101325162Y-76562954D01*
X101193589Y-76335062D01*
X101032353Y-76124935D01*
X101032347Y-76124928D01*
X100845071Y-75937652D01*
X100845064Y-75937646D01*
X100634937Y-75776410D01*
X100405565Y-75643982D01*
X100405555Y-75643978D01*
X100160864Y-75542623D01*
X100032944Y-75508347D01*
X99905026Y-75474072D01*
X99846671Y-75466389D01*
X99642438Y-75439500D01*
X99642431Y-75439500D01*
X99377569Y-75439500D01*
X99377561Y-75439500D01*
X99144151Y-75470230D01*
X99114974Y-75474072D01*
X99051015Y-75491209D01*
X98859135Y-75542623D01*
X98614444Y-75643978D01*
X98614434Y-75643982D01*
X98385062Y-75776410D01*
X98174935Y-75937646D01*
X98174928Y-75937652D01*
X97987652Y-76124928D01*
X97987646Y-76124935D01*
X97826410Y-76335062D01*
X97693982Y-76564434D01*
X97693978Y-76564444D01*
X97592623Y-76809135D01*
X97541774Y-76998908D01*
X97524302Y-77064118D01*
X97524072Y-77064975D01*
X97489500Y-77327561D01*
X90643405Y-77327561D01*
X94656694Y-70345205D01*
X102600000Y-70345205D01*
X102600000Y-71090000D01*
X103272555Y-71090000D01*
X103250000Y-71174174D01*
X103250000Y-71305826D01*
X103272555Y-71390000D01*
X102600001Y-71390000D01*
X102600001Y-72134785D01*
X102600002Y-72134808D01*
X102602908Y-72159869D01*
X102602909Y-72159873D01*
X102648211Y-72262474D01*
X102648214Y-72262479D01*
X102727520Y-72341785D01*
X102727525Y-72341788D01*
X102830123Y-72387089D01*
X102855206Y-72389999D01*
X103599999Y-72389999D01*
X103600000Y-72389998D01*
X103600000Y-71717445D01*
X103684174Y-71740000D01*
X103815826Y-71740000D01*
X103900000Y-71717445D01*
X103900000Y-72389999D01*
X104644786Y-72389999D01*
X104644808Y-72389997D01*
X104669869Y-72387091D01*
X104669873Y-72387090D01*
X104772474Y-72341788D01*
X104772479Y-72341785D01*
X104851785Y-72262479D01*
X104851788Y-72262474D01*
X104897089Y-72159877D01*
X104897089Y-72159875D01*
X104899999Y-72134794D01*
X104899999Y-71393971D01*
X104919683Y-71326932D01*
X104972487Y-71281177D01*
X105041646Y-71271233D01*
X105105202Y-71300258D01*
X105142976Y-71359036D01*
X105146472Y-71374572D01*
X105167829Y-71509410D01*
X105223787Y-71681636D01*
X105223788Y-71681639D01*
X105306006Y-71842997D01*
X105412441Y-71989494D01*
X105412445Y-71989499D01*
X105540500Y-72117554D01*
X105540505Y-72117558D01*
X105598753Y-72159877D01*
X105687006Y-72223996D01*
X105762523Y-72262474D01*
X105848360Y-72306211D01*
X105848363Y-72306212D01*
X105934476Y-72334191D01*
X106020591Y-72362171D01*
X106103429Y-72375291D01*
X106199449Y-72390500D01*
X106199454Y-72390500D01*
X106380551Y-72390500D01*
X106467259Y-72376765D01*
X106559409Y-72362171D01*
X106731639Y-72306211D01*
X106892994Y-72223996D01*
X107039501Y-72117553D01*
X107167553Y-71989501D01*
X107273996Y-71842994D01*
X107356211Y-71681639D01*
X107412171Y-71509409D01*
X107430455Y-71393971D01*
X107437527Y-71349321D01*
X107467456Y-71286186D01*
X107526768Y-71249255D01*
X107596630Y-71250253D01*
X107654863Y-71288863D01*
X107682473Y-71349321D01*
X107707829Y-71509410D01*
X107763787Y-71681636D01*
X107763788Y-71681639D01*
X107846006Y-71842997D01*
X107952441Y-71989494D01*
X107952445Y-71989499D01*
X108080500Y-72117554D01*
X108080505Y-72117558D01*
X108138753Y-72159877D01*
X108227006Y-72223996D01*
X108302523Y-72262474D01*
X108388360Y-72306211D01*
X108388363Y-72306212D01*
X108474476Y-72334191D01*
X108560591Y-72362171D01*
X108643429Y-72375291D01*
X108739449Y-72390500D01*
X108739454Y-72390500D01*
X108920551Y-72390500D01*
X109007259Y-72376765D01*
X109099409Y-72362171D01*
X109271639Y-72306211D01*
X109432994Y-72223996D01*
X109579501Y-72117553D01*
X109707553Y-71989501D01*
X109813996Y-71842994D01*
X109896211Y-71681639D01*
X109952171Y-71509409D01*
X109970455Y-71393971D01*
X109977527Y-71349321D01*
X110007456Y-71286186D01*
X110066768Y-71249255D01*
X110136630Y-71250253D01*
X110194863Y-71288863D01*
X110222473Y-71349321D01*
X110247829Y-71509410D01*
X110303787Y-71681636D01*
X110303788Y-71681639D01*
X110386006Y-71842997D01*
X110492441Y-71989494D01*
X110492445Y-71989499D01*
X110620500Y-72117554D01*
X110620505Y-72117558D01*
X110678753Y-72159877D01*
X110767006Y-72223996D01*
X110842523Y-72262474D01*
X110928360Y-72306211D01*
X110928363Y-72306212D01*
X111014476Y-72334191D01*
X111100591Y-72362171D01*
X111183429Y-72375291D01*
X111279449Y-72390500D01*
X111279454Y-72390500D01*
X111460551Y-72390500D01*
X111547259Y-72376765D01*
X111639409Y-72362171D01*
X111811639Y-72306211D01*
X111972994Y-72223996D01*
X112119501Y-72117553D01*
X112247553Y-71989501D01*
X112353996Y-71842994D01*
X112436211Y-71681639D01*
X112492171Y-71509409D01*
X112510455Y-71393971D01*
X112517527Y-71349321D01*
X112547456Y-71286186D01*
X112606768Y-71249255D01*
X112676630Y-71250253D01*
X112734863Y-71288863D01*
X112762473Y-71349321D01*
X112787829Y-71509410D01*
X112843787Y-71681636D01*
X112843788Y-71681639D01*
X112926006Y-71842997D01*
X113032441Y-71989494D01*
X113032445Y-71989499D01*
X113160500Y-72117554D01*
X113160505Y-72117558D01*
X113218753Y-72159877D01*
X113307006Y-72223996D01*
X113382523Y-72262474D01*
X113468360Y-72306211D01*
X113468363Y-72306212D01*
X113554476Y-72334191D01*
X113640591Y-72362171D01*
X113723429Y-72375291D01*
X113819449Y-72390500D01*
X113819454Y-72390500D01*
X114000551Y-72390500D01*
X114087259Y-72376765D01*
X114179409Y-72362171D01*
X114351639Y-72306211D01*
X114512994Y-72223996D01*
X114659501Y-72117553D01*
X114787553Y-71989501D01*
X114893996Y-71842994D01*
X114976211Y-71681639D01*
X115032171Y-71509409D01*
X115050455Y-71393971D01*
X115057527Y-71349321D01*
X115087456Y-71286186D01*
X115146768Y-71249255D01*
X115216630Y-71250253D01*
X115274863Y-71288863D01*
X115302473Y-71349321D01*
X115327829Y-71509410D01*
X115383787Y-71681636D01*
X115383788Y-71681639D01*
X115466006Y-71842997D01*
X115572441Y-71989494D01*
X115572445Y-71989499D01*
X115700500Y-72117554D01*
X115700505Y-72117558D01*
X115758753Y-72159877D01*
X115847006Y-72223996D01*
X115922523Y-72262474D01*
X116008360Y-72306211D01*
X116008363Y-72306212D01*
X116094476Y-72334191D01*
X116180591Y-72362171D01*
X116263429Y-72375291D01*
X116359449Y-72390500D01*
X116359454Y-72390500D01*
X116540551Y-72390500D01*
X116627259Y-72376765D01*
X116719409Y-72362171D01*
X116891639Y-72306211D01*
X117052994Y-72223996D01*
X117199501Y-72117553D01*
X117327553Y-71989501D01*
X117433996Y-71842994D01*
X117516211Y-71681639D01*
X117572171Y-71509409D01*
X117590455Y-71393971D01*
X117597527Y-71349321D01*
X117627456Y-71286186D01*
X117686768Y-71249255D01*
X117756630Y-71250253D01*
X117814863Y-71288863D01*
X117842473Y-71349321D01*
X117867829Y-71509410D01*
X117923787Y-71681636D01*
X117923788Y-71681639D01*
X118006006Y-71842997D01*
X118112441Y-71989494D01*
X118112445Y-71989499D01*
X118240500Y-72117554D01*
X118240505Y-72117558D01*
X118298753Y-72159877D01*
X118387006Y-72223996D01*
X118462523Y-72262474D01*
X118548360Y-72306211D01*
X118548363Y-72306212D01*
X118634476Y-72334191D01*
X118720591Y-72362171D01*
X118803429Y-72375291D01*
X118899449Y-72390500D01*
X118899454Y-72390500D01*
X119080551Y-72390500D01*
X119167259Y-72376765D01*
X119259409Y-72362171D01*
X119431639Y-72306211D01*
X119592994Y-72223996D01*
X119739501Y-72117553D01*
X119867553Y-71989501D01*
X119973996Y-71842994D01*
X120056211Y-71681639D01*
X120112171Y-71509409D01*
X120130455Y-71393971D01*
X120140500Y-71330551D01*
X120140500Y-71149448D01*
X120120770Y-71024882D01*
X120112171Y-70970591D01*
X120056211Y-70798361D01*
X120056211Y-70798360D01*
X120010643Y-70708930D01*
X119973996Y-70637006D01*
X119912502Y-70552366D01*
X119867558Y-70490505D01*
X119867554Y-70490500D01*
X119739499Y-70362445D01*
X119739494Y-70362441D01*
X119592997Y-70256006D01*
X119592996Y-70256005D01*
X119592994Y-70256004D01*
X119541300Y-70229664D01*
X119431639Y-70173788D01*
X119431636Y-70173787D01*
X119259410Y-70117829D01*
X119080551Y-70089500D01*
X119080546Y-70089500D01*
X118899454Y-70089500D01*
X118899449Y-70089500D01*
X118720589Y-70117829D01*
X118548363Y-70173787D01*
X118548360Y-70173788D01*
X118387002Y-70256006D01*
X118240505Y-70362441D01*
X118240500Y-70362445D01*
X118112445Y-70490500D01*
X118112441Y-70490505D01*
X118006006Y-70637002D01*
X117923788Y-70798360D01*
X117923787Y-70798363D01*
X117867829Y-70970589D01*
X117842473Y-71130678D01*
X117812544Y-71193813D01*
X117753232Y-71230744D01*
X117683369Y-71229746D01*
X117625137Y-71191136D01*
X117597527Y-71130678D01*
X117580770Y-71024882D01*
X117572171Y-70970591D01*
X117516211Y-70798361D01*
X117516211Y-70798360D01*
X117470643Y-70708930D01*
X117433996Y-70637006D01*
X117372502Y-70552366D01*
X117327558Y-70490505D01*
X117327554Y-70490500D01*
X117199499Y-70362445D01*
X117199494Y-70362441D01*
X117052997Y-70256006D01*
X117052996Y-70256005D01*
X117052994Y-70256004D01*
X117001300Y-70229664D01*
X116891639Y-70173788D01*
X116891636Y-70173787D01*
X116719410Y-70117829D01*
X116540551Y-70089500D01*
X116540546Y-70089500D01*
X116359454Y-70089500D01*
X116359449Y-70089500D01*
X116180589Y-70117829D01*
X116008363Y-70173787D01*
X116008360Y-70173788D01*
X115847002Y-70256006D01*
X115700505Y-70362441D01*
X115700500Y-70362445D01*
X115572445Y-70490500D01*
X115572441Y-70490505D01*
X115466006Y-70637002D01*
X115383788Y-70798360D01*
X115383787Y-70798363D01*
X115327829Y-70970589D01*
X115302473Y-71130678D01*
X115272544Y-71193813D01*
X115213232Y-71230744D01*
X115143369Y-71229746D01*
X115085137Y-71191136D01*
X115057527Y-71130678D01*
X115040770Y-71024882D01*
X115032171Y-70970591D01*
X114976211Y-70798361D01*
X114976211Y-70798360D01*
X114930643Y-70708930D01*
X114893996Y-70637006D01*
X114832502Y-70552366D01*
X114787558Y-70490505D01*
X114787554Y-70490500D01*
X114659499Y-70362445D01*
X114659494Y-70362441D01*
X114512997Y-70256006D01*
X114512996Y-70256005D01*
X114512994Y-70256004D01*
X114461300Y-70229664D01*
X114351639Y-70173788D01*
X114351636Y-70173787D01*
X114179410Y-70117829D01*
X114000551Y-70089500D01*
X114000546Y-70089500D01*
X113819454Y-70089500D01*
X113819449Y-70089500D01*
X113640589Y-70117829D01*
X113468363Y-70173787D01*
X113468360Y-70173788D01*
X113307002Y-70256006D01*
X113160505Y-70362441D01*
X113160500Y-70362445D01*
X113032445Y-70490500D01*
X113032441Y-70490505D01*
X112926006Y-70637002D01*
X112843788Y-70798360D01*
X112843787Y-70798363D01*
X112787829Y-70970589D01*
X112762473Y-71130678D01*
X112732544Y-71193813D01*
X112673232Y-71230744D01*
X112603369Y-71229746D01*
X112545137Y-71191136D01*
X112517527Y-71130678D01*
X112500770Y-71024882D01*
X112492171Y-70970591D01*
X112436211Y-70798361D01*
X112436211Y-70798360D01*
X112390643Y-70708930D01*
X112353996Y-70637006D01*
X112292502Y-70552366D01*
X112247558Y-70490505D01*
X112247554Y-70490500D01*
X112119499Y-70362445D01*
X112119494Y-70362441D01*
X111972997Y-70256006D01*
X111972996Y-70256005D01*
X111972994Y-70256004D01*
X111921300Y-70229664D01*
X111811639Y-70173788D01*
X111811636Y-70173787D01*
X111639410Y-70117829D01*
X111460551Y-70089500D01*
X111460546Y-70089500D01*
X111279454Y-70089500D01*
X111279449Y-70089500D01*
X111100589Y-70117829D01*
X110928363Y-70173787D01*
X110928360Y-70173788D01*
X110767002Y-70256006D01*
X110620505Y-70362441D01*
X110620500Y-70362445D01*
X110492445Y-70490500D01*
X110492441Y-70490505D01*
X110386006Y-70637002D01*
X110303788Y-70798360D01*
X110303787Y-70798363D01*
X110247829Y-70970589D01*
X110222473Y-71130678D01*
X110192544Y-71193813D01*
X110133232Y-71230744D01*
X110063369Y-71229746D01*
X110005137Y-71191136D01*
X109977527Y-71130678D01*
X109960770Y-71024882D01*
X109952171Y-70970591D01*
X109896211Y-70798361D01*
X109896211Y-70798360D01*
X109850643Y-70708930D01*
X109813996Y-70637006D01*
X109752502Y-70552366D01*
X109707558Y-70490505D01*
X109707554Y-70490500D01*
X109579499Y-70362445D01*
X109579494Y-70362441D01*
X109432997Y-70256006D01*
X109432996Y-70256005D01*
X109432994Y-70256004D01*
X109381300Y-70229664D01*
X109271639Y-70173788D01*
X109271636Y-70173787D01*
X109099410Y-70117829D01*
X108920551Y-70089500D01*
X108920546Y-70089500D01*
X108739454Y-70089500D01*
X108739449Y-70089500D01*
X108560589Y-70117829D01*
X108388363Y-70173787D01*
X108388360Y-70173788D01*
X108227002Y-70256006D01*
X108080505Y-70362441D01*
X108080500Y-70362445D01*
X107952445Y-70490500D01*
X107952441Y-70490505D01*
X107846006Y-70637002D01*
X107763788Y-70798360D01*
X107763787Y-70798363D01*
X107707829Y-70970589D01*
X107682473Y-71130678D01*
X107652544Y-71193813D01*
X107593232Y-71230744D01*
X107523369Y-71229746D01*
X107465137Y-71191136D01*
X107437527Y-71130678D01*
X107420770Y-71024882D01*
X107412171Y-70970591D01*
X107356211Y-70798361D01*
X107356211Y-70798360D01*
X107310643Y-70708930D01*
X107273996Y-70637006D01*
X107212502Y-70552366D01*
X107167558Y-70490505D01*
X107167554Y-70490500D01*
X107039499Y-70362445D01*
X107039494Y-70362441D01*
X106892997Y-70256006D01*
X106892996Y-70256005D01*
X106892994Y-70256004D01*
X106841300Y-70229664D01*
X106731639Y-70173788D01*
X106731636Y-70173787D01*
X106559410Y-70117829D01*
X106380551Y-70089500D01*
X106380546Y-70089500D01*
X106199454Y-70089500D01*
X106199449Y-70089500D01*
X106020589Y-70117829D01*
X105848363Y-70173787D01*
X105848360Y-70173788D01*
X105687002Y-70256006D01*
X105540505Y-70362441D01*
X105540500Y-70362445D01*
X105412445Y-70490500D01*
X105412441Y-70490505D01*
X105306006Y-70637002D01*
X105223788Y-70798360D01*
X105223787Y-70798363D01*
X105167829Y-70970589D01*
X105146472Y-71105428D01*
X105116542Y-71168562D01*
X105057231Y-71205493D01*
X104987368Y-71204495D01*
X104929136Y-71165885D01*
X104901022Y-71101921D01*
X104899999Y-71086029D01*
X104899999Y-70345214D01*
X104899997Y-70345191D01*
X104897091Y-70320130D01*
X104897090Y-70320126D01*
X104851788Y-70217525D01*
X104851785Y-70217520D01*
X104772479Y-70138214D01*
X104772474Y-70138211D01*
X104669876Y-70092910D01*
X104644794Y-70090000D01*
X103900000Y-70090000D01*
X103900000Y-70762554D01*
X103815826Y-70740000D01*
X103684174Y-70740000D01*
X103600000Y-70762554D01*
X103600000Y-70090000D01*
X102855214Y-70090000D01*
X102855191Y-70090002D01*
X102830130Y-70092908D01*
X102830126Y-70092909D01*
X102727525Y-70138211D01*
X102727520Y-70138214D01*
X102648214Y-70217520D01*
X102648211Y-70217525D01*
X102602910Y-70320122D01*
X102602910Y-70320124D01*
X102600000Y-70345205D01*
X94656694Y-70345205D01*
X101553026Y-58346903D01*
X101553029Y-58346901D01*
X101585863Y-58289773D01*
X101585868Y-58289776D01*
X101585895Y-58289718D01*
X101638875Y-58197697D01*
X101717750Y-58000387D01*
X101768038Y-57793932D01*
X101788734Y-57582452D01*
X101779427Y-57370164D01*
X101740300Y-57161306D01*
X101672137Y-56960045D01*
X101672135Y-56960042D01*
X101672134Y-56960038D01*
X101576300Y-56770406D01*
X101576295Y-56770396D01*
X101454688Y-56596142D01*
X101382523Y-56518894D01*
X91831193Y-46280000D01*
X90602216Y-44962553D01*
X90602177Y-44962516D01*
X90582451Y-44941372D01*
X90582448Y-44941370D01*
X90582446Y-44941367D01*
X90569523Y-44930842D01*
X90423163Y-44811650D01*
X90247690Y-44704849D01*
X90247689Y-44704848D01*
X90122758Y-44650540D01*
X90059297Y-44622953D01*
X90059293Y-44622952D01*
X90059291Y-44622951D01*
X89861508Y-44567494D01*
X89861505Y-44567493D01*
X89861503Y-44567493D01*
X89657997Y-44539504D01*
X89657995Y-44539503D01*
X89657998Y-44539503D01*
X89627984Y-44539502D01*
X89627942Y-44539500D01*
X89621185Y-44539500D01*
X80395095Y-44539500D01*
X80387504Y-44539500D01*
X80387163Y-44539521D01*
X80350716Y-44539532D01*
X80220263Y-44558811D01*
X80132534Y-44571776D01*
X80132531Y-44571776D01*
X80132523Y-44571778D01*
X79921423Y-44635566D01*
X79921406Y-44635572D01*
X79721884Y-44729546D01*
X79538243Y-44851678D01*
X79538241Y-44851680D01*
X79374435Y-44999342D01*
X79374421Y-44999357D01*
X79351127Y-45027536D01*
X79350902Y-45027776D01*
X79305428Y-45082822D01*
X79305421Y-45082831D01*
X79304170Y-45084345D01*
X79291031Y-45100250D01*
X79264081Y-45132872D01*
X79263948Y-45133031D01*
X61195784Y-67004490D01*
X61195724Y-67004563D01*
X61130061Y-67083923D01*
X61130051Y-67083937D01*
X61021158Y-67260607D01*
X61021153Y-67260616D01*
X60937613Y-67450597D01*
X60937612Y-67450600D01*
X60881018Y-67650280D01*
X60881017Y-67650284D01*
X60881017Y-67650286D01*
X60867893Y-67744722D01*
X60852447Y-67855859D01*
X60852447Y-67855860D01*
X60852527Y-67959632D01*
X60852527Y-69898645D01*
X60852520Y-69898755D01*
X60852526Y-69965547D01*
X60851749Y-69979418D01*
X60841599Y-70069657D01*
X60837632Y-70081008D01*
X60837723Y-70089448D01*
X60835433Y-70096708D01*
X60807785Y-70175817D01*
X60795760Y-70200818D01*
X60751210Y-70271809D01*
X60733927Y-70293511D01*
X60674716Y-70352813D01*
X60653040Y-70370129D01*
X60576202Y-70418513D01*
X60564049Y-70425246D01*
X60504751Y-70453879D01*
X60504647Y-70453937D01*
X48232409Y-76381316D01*
X48232332Y-76381355D01*
X48176669Y-76408239D01*
X48161770Y-76414277D01*
X48062092Y-76447332D01*
X48030582Y-76453407D01*
X47933857Y-76459284D01*
X47901847Y-76457069D01*
X47806861Y-76437932D01*
X47776489Y-76427578D01*
X47689590Y-76384706D01*
X47662893Y-76366906D01*
X47619407Y-76328934D01*
X47589903Y-76303170D01*
X47568671Y-76279121D01*
X47514476Y-76198784D01*
X47500127Y-76170090D01*
X47468362Y-76078540D01*
X47461855Y-76047119D01*
X47461355Y-76040418D01*
X47454040Y-75942384D01*
X47453887Y-75926310D01*
X47457084Y-75868565D01*
X47457083Y-75868563D01*
X47457516Y-75860752D01*
X47457516Y-75860727D01*
X47460144Y-75813254D01*
X47764133Y-70320122D01*
X47829710Y-69135131D01*
X48799500Y-69135131D01*
X48799500Y-71024856D01*
X48799502Y-71024882D01*
X48802413Y-71049987D01*
X48802415Y-71049991D01*
X48847793Y-71152764D01*
X48847794Y-71152765D01*
X48927235Y-71232206D01*
X49030009Y-71277585D01*
X49055135Y-71280500D01*
X50944864Y-71280499D01*
X50944879Y-71280497D01*
X50944882Y-71280497D01*
X50969987Y-71277586D01*
X50969988Y-71277585D01*
X50969991Y-71277585D01*
X51072765Y-71232206D01*
X51152206Y-71152765D01*
X51197585Y-71049991D01*
X51200500Y-71024865D01*
X51200499Y-70610805D01*
X51220183Y-70543769D01*
X51272987Y-70498014D01*
X51342146Y-70488070D01*
X51405701Y-70517095D01*
X51434983Y-70554513D01*
X51513661Y-70708925D01*
X51513664Y-70708930D01*
X51591627Y-70816239D01*
X52132931Y-70274936D01*
X52179910Y-70356306D01*
X52263694Y-70440090D01*
X52345062Y-70487068D01*
X51803759Y-71028370D01*
X51803759Y-71028371D01*
X51911066Y-71106333D01*
X52079362Y-71192085D01*
X52258997Y-71250451D01*
X52445553Y-71280000D01*
X52634447Y-71280000D01*
X52821002Y-71250451D01*
X53000637Y-71192085D01*
X53168940Y-71106329D01*
X53276239Y-71028373D01*
X53276240Y-71028371D01*
X52734936Y-70487068D01*
X52816306Y-70440090D01*
X52900090Y-70356306D01*
X52947068Y-70274936D01*
X53488371Y-70816240D01*
X53488373Y-70816239D01*
X53566329Y-70708940D01*
X53652085Y-70540637D01*
X53710451Y-70361002D01*
X53740000Y-70174447D01*
X53740000Y-69985552D01*
X53710451Y-69798997D01*
X53652085Y-69619362D01*
X53566333Y-69451066D01*
X53488371Y-69343759D01*
X53488370Y-69343759D01*
X52947068Y-69885062D01*
X52900090Y-69803694D01*
X52816306Y-69719910D01*
X52734936Y-69672931D01*
X53276239Y-69131627D01*
X53168933Y-69053666D01*
X53000637Y-68967914D01*
X52821002Y-68909548D01*
X52634447Y-68880000D01*
X52445553Y-68880000D01*
X52258997Y-68909548D01*
X52079362Y-68967914D01*
X51911064Y-69053667D01*
X51911062Y-69053668D01*
X51803759Y-69131626D01*
X51803759Y-69131627D01*
X52345063Y-69672931D01*
X52263694Y-69719910D01*
X52179910Y-69803694D01*
X52132931Y-69885063D01*
X51591627Y-69343759D01*
X51591626Y-69343759D01*
X51513668Y-69451062D01*
X51513661Y-69451074D01*
X51434983Y-69605487D01*
X51387009Y-69656283D01*
X51319188Y-69673078D01*
X51253053Y-69650540D01*
X51209602Y-69595825D01*
X51200499Y-69549192D01*
X51200499Y-69135143D01*
X51200499Y-69135136D01*
X51199289Y-69124702D01*
X51197586Y-69110012D01*
X51197585Y-69110010D01*
X51197585Y-69110009D01*
X51152206Y-69007235D01*
X51072765Y-68927794D01*
X51031442Y-68909548D01*
X50969992Y-68882415D01*
X50944865Y-68879500D01*
X49055143Y-68879500D01*
X49055117Y-68879502D01*
X49030012Y-68882413D01*
X49030008Y-68882415D01*
X48927235Y-68927793D01*
X48847794Y-69007234D01*
X48802415Y-69110006D01*
X48802415Y-69110008D01*
X48799500Y-69135131D01*
X47829710Y-69135131D01*
X47830287Y-69124702D01*
X48053468Y-65091786D01*
X48110832Y-64055205D01*
X48800000Y-64055205D01*
X48800000Y-64850000D01*
X49574318Y-64850000D01*
X49550000Y-64940756D01*
X49550000Y-65059244D01*
X49574318Y-65150000D01*
X48800001Y-65150000D01*
X48800001Y-65944785D01*
X48800002Y-65944808D01*
X48802908Y-65969869D01*
X48802909Y-65969873D01*
X48848211Y-66072474D01*
X48848214Y-66072479D01*
X48927520Y-66151785D01*
X48927525Y-66151788D01*
X49030123Y-66197089D01*
X49055206Y-66199999D01*
X49849999Y-66199999D01*
X49850000Y-66199998D01*
X49850000Y-65425681D01*
X49940756Y-65450000D01*
X50059244Y-65450000D01*
X50150000Y-65425681D01*
X50150000Y-66199999D01*
X50944786Y-66199999D01*
X50944808Y-66199997D01*
X50969869Y-66197091D01*
X50969873Y-66197090D01*
X51072474Y-66151788D01*
X51072479Y-66151785D01*
X51151785Y-66072479D01*
X51151788Y-66072474D01*
X51197089Y-65969877D01*
X51197089Y-65969875D01*
X51199999Y-65944794D01*
X51199999Y-65530927D01*
X51219683Y-65463888D01*
X51272487Y-65418133D01*
X51341646Y-65408189D01*
X51405202Y-65437214D01*
X51434484Y-65474632D01*
X51513240Y-65629199D01*
X51624310Y-65782073D01*
X51757927Y-65915690D01*
X51910801Y-66026760D01*
X51990347Y-66067290D01*
X52079163Y-66112545D01*
X52079165Y-66112545D01*
X52079168Y-66112547D01*
X52175497Y-66143846D01*
X52258881Y-66170940D01*
X52445514Y-66200500D01*
X52445519Y-66200500D01*
X52634486Y-66200500D01*
X52821118Y-66170940D01*
X52880061Y-66151788D01*
X53000832Y-66112547D01*
X53169199Y-66026760D01*
X53322073Y-65915690D01*
X53455690Y-65782073D01*
X53566760Y-65629199D01*
X53652547Y-65460832D01*
X53710940Y-65281118D01*
X53711702Y-65276306D01*
X53740500Y-65094486D01*
X53740500Y-64905513D01*
X53710940Y-64718881D01*
X53662702Y-64570422D01*
X53652547Y-64539168D01*
X53652545Y-64539165D01*
X53652545Y-64539163D01*
X53566759Y-64370800D01*
X53455690Y-64217927D01*
X53322073Y-64084310D01*
X53169199Y-63973240D01*
X53000836Y-63887454D01*
X52821118Y-63829059D01*
X52634486Y-63799500D01*
X52634481Y-63799500D01*
X52445519Y-63799500D01*
X52445514Y-63799500D01*
X52258881Y-63829059D01*
X52079163Y-63887454D01*
X51910800Y-63973240D01*
X51832499Y-64030130D01*
X51757927Y-64084310D01*
X51757925Y-64084312D01*
X51757924Y-64084312D01*
X51624312Y-64217924D01*
X51624312Y-64217925D01*
X51624310Y-64217927D01*
X51576610Y-64283579D01*
X51513240Y-64370800D01*
X51434484Y-64525368D01*
X51386509Y-64576164D01*
X51318688Y-64592959D01*
X51252553Y-64570422D01*
X51209102Y-64515706D01*
X51199999Y-64469073D01*
X51199999Y-64055214D01*
X51199997Y-64055191D01*
X51197091Y-64030130D01*
X51197090Y-64030126D01*
X51151788Y-63927525D01*
X51151785Y-63927520D01*
X51072479Y-63848214D01*
X51072474Y-63848211D01*
X50969876Y-63802910D01*
X50944794Y-63800000D01*
X50150000Y-63800000D01*
X50150000Y-64574318D01*
X50059244Y-64550000D01*
X49940756Y-64550000D01*
X49850000Y-64574318D01*
X49850000Y-63800000D01*
X49055214Y-63800000D01*
X49055191Y-63800002D01*
X49030130Y-63802908D01*
X49030126Y-63802909D01*
X48927525Y-63848211D01*
X48927520Y-63848214D01*
X48848214Y-63927520D01*
X48848211Y-63927525D01*
X48802910Y-64030122D01*
X48802910Y-64030124D01*
X48800000Y-64055205D01*
X48110832Y-64055205D01*
X48480094Y-57382573D01*
X48481629Y-57368821D01*
X48496697Y-57279473D01*
X48504306Y-57252899D01*
X48536150Y-57175574D01*
X48549466Y-57151340D01*
X48601682Y-57077298D01*
X48610265Y-57066466D01*
X51212592Y-54135131D01*
X58799500Y-54135131D01*
X58799500Y-56024856D01*
X58799502Y-56024882D01*
X58802413Y-56049987D01*
X58802415Y-56049991D01*
X58847793Y-56152764D01*
X58847794Y-56152765D01*
X58927235Y-56232206D01*
X59030009Y-56277585D01*
X59055135Y-56280500D01*
X60944864Y-56280499D01*
X60944879Y-56280497D01*
X60944882Y-56280497D01*
X60969987Y-56277586D01*
X60969988Y-56277585D01*
X60969991Y-56277585D01*
X61072765Y-56232206D01*
X61152206Y-56152765D01*
X61197585Y-56049991D01*
X61200500Y-56024865D01*
X61200499Y-55610805D01*
X61220183Y-55543769D01*
X61272987Y-55498014D01*
X61342146Y-55488070D01*
X61405701Y-55517095D01*
X61434983Y-55554513D01*
X61513661Y-55708925D01*
X61513664Y-55708930D01*
X61591627Y-55816239D01*
X62132931Y-55274936D01*
X62179910Y-55356306D01*
X62263694Y-55440090D01*
X62345062Y-55487068D01*
X61803759Y-56028370D01*
X61803759Y-56028371D01*
X61911066Y-56106333D01*
X62079362Y-56192085D01*
X62258997Y-56250451D01*
X62445553Y-56280000D01*
X62634447Y-56280000D01*
X62821002Y-56250451D01*
X63000637Y-56192085D01*
X63168940Y-56106329D01*
X63276239Y-56028373D01*
X63276240Y-56028371D01*
X62734936Y-55487068D01*
X62816306Y-55440090D01*
X62900090Y-55356306D01*
X62947068Y-55274937D01*
X63488371Y-55816240D01*
X63488373Y-55816239D01*
X63566329Y-55708940D01*
X63652085Y-55540637D01*
X63710451Y-55361002D01*
X63740000Y-55174447D01*
X63740000Y-54985552D01*
X63710451Y-54798997D01*
X63652085Y-54619362D01*
X63566333Y-54451066D01*
X63488371Y-54343759D01*
X63488370Y-54343759D01*
X62947068Y-54885062D01*
X62900090Y-54803694D01*
X62816306Y-54719910D01*
X62734936Y-54672931D01*
X63276239Y-54131627D01*
X63168933Y-54053666D01*
X63000637Y-53967914D01*
X62821002Y-53909548D01*
X62634447Y-53880000D01*
X62445553Y-53880000D01*
X62258997Y-53909548D01*
X62079362Y-53967914D01*
X61911064Y-54053667D01*
X61911062Y-54053668D01*
X61803759Y-54131626D01*
X61803759Y-54131627D01*
X62345063Y-54672931D01*
X62263694Y-54719910D01*
X62179910Y-54803694D01*
X62132931Y-54885063D01*
X61591627Y-54343759D01*
X61591626Y-54343759D01*
X61513668Y-54451062D01*
X61513661Y-54451074D01*
X61434983Y-54605487D01*
X61387009Y-54656283D01*
X61319188Y-54673078D01*
X61253053Y-54650540D01*
X61209602Y-54595825D01*
X61200499Y-54549192D01*
X61200499Y-54135143D01*
X61200499Y-54135136D01*
X61200092Y-54131626D01*
X61197586Y-54110012D01*
X61197585Y-54110010D01*
X61197585Y-54110009D01*
X61152206Y-54007235D01*
X61072765Y-53927794D01*
X61031442Y-53909548D01*
X60969992Y-53882415D01*
X60944865Y-53879500D01*
X59055143Y-53879500D01*
X59055117Y-53879502D01*
X59030012Y-53882413D01*
X59030008Y-53882415D01*
X58927235Y-53927793D01*
X58847794Y-54007234D01*
X58802415Y-54110006D01*
X58802415Y-54110008D01*
X58799500Y-54135131D01*
X51212592Y-54135131D01*
X55722355Y-49055205D01*
X58800000Y-49055205D01*
X58800000Y-49850000D01*
X59574318Y-49850000D01*
X59550000Y-49940756D01*
X59550000Y-50059244D01*
X59574318Y-50150000D01*
X58800001Y-50150000D01*
X58800001Y-50944785D01*
X58800002Y-50944808D01*
X58802908Y-50969869D01*
X58802909Y-50969873D01*
X58848211Y-51072474D01*
X58848214Y-51072479D01*
X58927520Y-51151785D01*
X58927525Y-51151788D01*
X59030123Y-51197089D01*
X59055206Y-51199999D01*
X59849999Y-51199999D01*
X59850000Y-51199998D01*
X59850000Y-50425681D01*
X59940756Y-50450000D01*
X60059244Y-50450000D01*
X60150000Y-50425681D01*
X60150000Y-51199999D01*
X60944786Y-51199999D01*
X60944808Y-51199997D01*
X60969869Y-51197091D01*
X60969873Y-51197090D01*
X61072474Y-51151788D01*
X61072479Y-51151785D01*
X61151785Y-51072479D01*
X61151788Y-51072474D01*
X61197089Y-50969877D01*
X61197089Y-50969875D01*
X61199999Y-50944794D01*
X61199999Y-50530927D01*
X61219683Y-50463888D01*
X61272487Y-50418133D01*
X61341646Y-50408189D01*
X61405202Y-50437214D01*
X61434484Y-50474632D01*
X61513240Y-50629199D01*
X61624310Y-50782073D01*
X61757927Y-50915690D01*
X61910801Y-51026760D01*
X61990347Y-51067290D01*
X62079163Y-51112545D01*
X62079165Y-51112545D01*
X62079168Y-51112547D01*
X62175497Y-51143846D01*
X62258881Y-51170940D01*
X62445514Y-51200500D01*
X62445519Y-51200500D01*
X62634486Y-51200500D01*
X62821118Y-51170940D01*
X62880061Y-51151788D01*
X63000832Y-51112547D01*
X63169199Y-51026760D01*
X63322073Y-50915690D01*
X63455690Y-50782073D01*
X63566760Y-50629199D01*
X63652547Y-50460832D01*
X63710940Y-50281118D01*
X63711702Y-50276306D01*
X63740500Y-50094486D01*
X63740500Y-49905513D01*
X63710940Y-49718881D01*
X63662702Y-49570422D01*
X63652547Y-49539168D01*
X63652545Y-49539165D01*
X63652545Y-49539163D01*
X63566759Y-49370800D01*
X63455690Y-49217927D01*
X63322073Y-49084310D01*
X63169199Y-48973240D01*
X63161470Y-48969302D01*
X63000836Y-48887454D01*
X62821118Y-48829059D01*
X62634486Y-48799500D01*
X62634481Y-48799500D01*
X62445519Y-48799500D01*
X62445514Y-48799500D01*
X62258881Y-48829059D01*
X62079163Y-48887454D01*
X61910800Y-48973240D01*
X61832499Y-49030130D01*
X61757927Y-49084310D01*
X61757925Y-49084312D01*
X61757924Y-49084312D01*
X61624312Y-49217924D01*
X61624312Y-49217925D01*
X61624310Y-49217927D01*
X61576610Y-49283579D01*
X61513240Y-49370800D01*
X61434484Y-49525368D01*
X61386509Y-49576164D01*
X61318688Y-49592959D01*
X61252553Y-49570422D01*
X61209102Y-49515706D01*
X61199999Y-49469073D01*
X61199999Y-49055214D01*
X61199997Y-49055191D01*
X61197091Y-49030130D01*
X61197090Y-49030126D01*
X61151788Y-48927525D01*
X61151785Y-48927520D01*
X61072479Y-48848214D01*
X61072474Y-48848211D01*
X60969876Y-48802910D01*
X60944794Y-48800000D01*
X60150000Y-48800000D01*
X60150000Y-49574318D01*
X60059244Y-49550000D01*
X59940756Y-49550000D01*
X59850000Y-49574318D01*
X59850000Y-48800000D01*
X59055214Y-48800000D01*
X59055191Y-48800002D01*
X59030130Y-48802908D01*
X59030126Y-48802909D01*
X58927525Y-48848211D01*
X58927520Y-48848214D01*
X58848214Y-48927520D01*
X58848211Y-48927525D01*
X58802910Y-49030122D01*
X58802910Y-49030124D01*
X58800000Y-49055205D01*
X55722355Y-49055205D01*
X60090208Y-44135131D01*
X68799500Y-44135131D01*
X68799500Y-46024856D01*
X68799502Y-46024882D01*
X68802413Y-46049987D01*
X68802415Y-46049991D01*
X68847793Y-46152764D01*
X68847794Y-46152765D01*
X68927235Y-46232206D01*
X69030009Y-46277585D01*
X69055135Y-46280500D01*
X70944864Y-46280499D01*
X70944879Y-46280497D01*
X70944882Y-46280497D01*
X70969987Y-46277586D01*
X70969988Y-46277585D01*
X70969991Y-46277585D01*
X71072765Y-46232206D01*
X71152206Y-46152765D01*
X71197585Y-46049991D01*
X71200500Y-46024865D01*
X71200499Y-45610805D01*
X71220183Y-45543769D01*
X71272987Y-45498014D01*
X71342146Y-45488070D01*
X71405701Y-45517095D01*
X71434983Y-45554513D01*
X71513661Y-45708925D01*
X71513664Y-45708930D01*
X71591627Y-45816239D01*
X72132931Y-45274936D01*
X72179910Y-45356306D01*
X72263694Y-45440090D01*
X72345062Y-45487068D01*
X71803759Y-46028370D01*
X71803759Y-46028371D01*
X71911066Y-46106333D01*
X72079362Y-46192085D01*
X72258997Y-46250451D01*
X72445553Y-46280000D01*
X72634447Y-46280000D01*
X72821002Y-46250451D01*
X73000637Y-46192085D01*
X73168940Y-46106329D01*
X73276239Y-46028373D01*
X73276240Y-46028371D01*
X72734936Y-45487068D01*
X72816306Y-45440090D01*
X72900090Y-45356306D01*
X72947068Y-45274936D01*
X73488371Y-45816240D01*
X73488373Y-45816239D01*
X73566329Y-45708940D01*
X73652085Y-45540637D01*
X73710451Y-45361002D01*
X73740000Y-45174447D01*
X73740000Y-44985552D01*
X73710451Y-44798997D01*
X73652085Y-44619362D01*
X73566333Y-44451066D01*
X73488371Y-44343759D01*
X73488370Y-44343759D01*
X72947068Y-44885062D01*
X72900090Y-44803694D01*
X72816306Y-44719910D01*
X72734936Y-44672931D01*
X73272735Y-44135131D01*
X149279500Y-44135131D01*
X149279500Y-46024856D01*
X149279502Y-46024882D01*
X149282413Y-46049987D01*
X149282415Y-46049991D01*
X149327793Y-46152764D01*
X149327794Y-46152765D01*
X149407235Y-46232206D01*
X149510009Y-46277585D01*
X149535135Y-46280500D01*
X151424864Y-46280499D01*
X151424879Y-46280497D01*
X151424882Y-46280497D01*
X151449987Y-46277586D01*
X151449988Y-46277585D01*
X151449991Y-46277585D01*
X151552765Y-46232206D01*
X151632206Y-46152765D01*
X151677585Y-46049991D01*
X151680500Y-46024865D01*
X151680499Y-45610805D01*
X151700183Y-45543769D01*
X151752987Y-45498014D01*
X151822146Y-45488070D01*
X151885701Y-45517095D01*
X151914983Y-45554513D01*
X151993661Y-45708925D01*
X151993664Y-45708930D01*
X152071627Y-45816239D01*
X152612931Y-45274936D01*
X152659910Y-45356306D01*
X152743694Y-45440090D01*
X152825062Y-45487068D01*
X152283759Y-46028370D01*
X152283759Y-46028371D01*
X152391066Y-46106333D01*
X152559362Y-46192085D01*
X152738997Y-46250451D01*
X152925553Y-46280000D01*
X153114447Y-46280000D01*
X153301002Y-46250451D01*
X153480637Y-46192085D01*
X153648940Y-46106329D01*
X153756239Y-46028373D01*
X153756240Y-46028371D01*
X153214936Y-45487068D01*
X153296306Y-45440090D01*
X153380090Y-45356306D01*
X153427068Y-45274937D01*
X153968371Y-45816240D01*
X153968373Y-45816239D01*
X154046329Y-45708940D01*
X154132085Y-45540637D01*
X154190451Y-45361002D01*
X154220000Y-45174447D01*
X154220000Y-44985552D01*
X154190451Y-44798997D01*
X154132085Y-44619362D01*
X154046333Y-44451066D01*
X153968371Y-44343759D01*
X153968370Y-44343759D01*
X153427068Y-44885062D01*
X153380090Y-44803694D01*
X153296306Y-44719910D01*
X153214936Y-44672931D01*
X153756239Y-44131627D01*
X153648933Y-44053666D01*
X153480637Y-43967914D01*
X153301002Y-43909548D01*
X153114447Y-43880000D01*
X152925553Y-43880000D01*
X152738997Y-43909548D01*
X152559362Y-43967914D01*
X152391064Y-44053667D01*
X152391062Y-44053668D01*
X152283759Y-44131626D01*
X152283759Y-44131627D01*
X152825063Y-44672931D01*
X152743694Y-44719910D01*
X152659910Y-44803694D01*
X152612931Y-44885063D01*
X152071627Y-44343759D01*
X152071626Y-44343759D01*
X151993668Y-44451062D01*
X151993661Y-44451074D01*
X151914983Y-44605487D01*
X151867009Y-44656283D01*
X151799188Y-44673078D01*
X151733053Y-44650540D01*
X151689602Y-44595825D01*
X151680499Y-44549192D01*
X151680499Y-44135143D01*
X151680499Y-44135136D01*
X151680092Y-44131626D01*
X151677586Y-44110012D01*
X151677585Y-44110010D01*
X151677585Y-44110009D01*
X151632206Y-44007235D01*
X151552765Y-43927794D01*
X151511442Y-43909548D01*
X151449992Y-43882415D01*
X151424865Y-43879500D01*
X149535143Y-43879500D01*
X149535117Y-43879502D01*
X149510012Y-43882413D01*
X149510008Y-43882415D01*
X149407235Y-43927793D01*
X149327794Y-44007234D01*
X149282415Y-44110006D01*
X149282415Y-44110008D01*
X149279500Y-44135131D01*
X73272735Y-44135131D01*
X73276239Y-44131627D01*
X73168933Y-44053666D01*
X73000637Y-43967914D01*
X72821002Y-43909548D01*
X72634447Y-43880000D01*
X72445553Y-43880000D01*
X72258997Y-43909548D01*
X72079362Y-43967914D01*
X71911064Y-44053667D01*
X71911062Y-44053668D01*
X71803759Y-44131626D01*
X71803759Y-44131627D01*
X72345063Y-44672931D01*
X72263694Y-44719910D01*
X72179910Y-44803694D01*
X72132931Y-44885063D01*
X71591627Y-44343759D01*
X71591626Y-44343759D01*
X71513668Y-44451062D01*
X71513661Y-44451074D01*
X71434983Y-44605487D01*
X71387009Y-44656283D01*
X71319188Y-44673078D01*
X71253053Y-44650540D01*
X71209602Y-44595825D01*
X71200499Y-44549192D01*
X71200499Y-44135143D01*
X71200499Y-44135136D01*
X71200092Y-44131626D01*
X71197586Y-44110012D01*
X71197585Y-44110010D01*
X71197585Y-44110009D01*
X71152206Y-44007235D01*
X71072765Y-43927794D01*
X71031442Y-43909548D01*
X70969992Y-43882415D01*
X70944865Y-43879500D01*
X69055143Y-43879500D01*
X69055117Y-43879502D01*
X69030012Y-43882413D01*
X69030008Y-43882415D01*
X68927235Y-43927793D01*
X68847794Y-44007234D01*
X68802415Y-44110006D01*
X68802415Y-44110008D01*
X68799500Y-44135131D01*
X60090208Y-44135131D01*
X64455515Y-39217924D01*
X64599971Y-39055205D01*
X68800000Y-39055205D01*
X68800000Y-39850000D01*
X69574318Y-39850000D01*
X69550000Y-39940756D01*
X69550000Y-40059244D01*
X69574318Y-40150000D01*
X68800001Y-40150000D01*
X68800001Y-40944785D01*
X68800002Y-40944808D01*
X68802908Y-40969869D01*
X68802909Y-40969873D01*
X68848211Y-41072474D01*
X68848214Y-41072479D01*
X68927520Y-41151785D01*
X68927525Y-41151788D01*
X69030123Y-41197089D01*
X69055206Y-41199999D01*
X69849999Y-41199999D01*
X69850000Y-41199998D01*
X69850000Y-40425681D01*
X69940756Y-40450000D01*
X70059244Y-40450000D01*
X70150000Y-40425681D01*
X70150000Y-41199999D01*
X70944786Y-41199999D01*
X70944808Y-41199997D01*
X70969869Y-41197091D01*
X70969873Y-41197090D01*
X71072474Y-41151788D01*
X71072479Y-41151785D01*
X71151785Y-41072479D01*
X71151788Y-41072474D01*
X71197089Y-40969877D01*
X71197089Y-40969875D01*
X71199999Y-40944794D01*
X71199999Y-40530927D01*
X71219683Y-40463888D01*
X71272487Y-40418133D01*
X71341646Y-40408189D01*
X71405202Y-40437214D01*
X71434484Y-40474632D01*
X71513240Y-40629199D01*
X71624310Y-40782073D01*
X71757927Y-40915690D01*
X71910801Y-41026760D01*
X71990347Y-41067290D01*
X72079163Y-41112545D01*
X72079165Y-41112545D01*
X72079168Y-41112547D01*
X72175497Y-41143846D01*
X72258881Y-41170940D01*
X72445514Y-41200500D01*
X72445519Y-41200500D01*
X72634486Y-41200500D01*
X72821118Y-41170940D01*
X72880061Y-41151788D01*
X73000832Y-41112547D01*
X73169199Y-41026760D01*
X73322073Y-40915690D01*
X73455690Y-40782073D01*
X73566760Y-40629199D01*
X73652547Y-40460832D01*
X73710940Y-40281118D01*
X73711702Y-40276306D01*
X73740500Y-40094486D01*
X73740500Y-39905513D01*
X73710940Y-39718881D01*
X73662702Y-39570422D01*
X73652547Y-39539168D01*
X73652545Y-39539165D01*
X73652545Y-39539163D01*
X73566759Y-39370800D01*
X73455690Y-39217927D01*
X73322073Y-39084310D01*
X73282014Y-39055205D01*
X149280000Y-39055205D01*
X149280000Y-39850000D01*
X150054318Y-39850000D01*
X150030000Y-39940756D01*
X150030000Y-40059244D01*
X150054318Y-40150000D01*
X149280001Y-40150000D01*
X149280001Y-40944785D01*
X149280002Y-40944808D01*
X149282908Y-40969869D01*
X149282909Y-40969873D01*
X149328211Y-41072474D01*
X149328214Y-41072479D01*
X149407520Y-41151785D01*
X149407525Y-41151788D01*
X149510123Y-41197089D01*
X149535206Y-41199999D01*
X150329999Y-41199999D01*
X150330000Y-41199998D01*
X150330000Y-40425681D01*
X150420756Y-40450000D01*
X150539244Y-40450000D01*
X150630000Y-40425681D01*
X150630000Y-41199999D01*
X151424786Y-41199999D01*
X151424808Y-41199997D01*
X151449869Y-41197091D01*
X151449873Y-41197090D01*
X151552474Y-41151788D01*
X151552479Y-41151785D01*
X151631785Y-41072479D01*
X151631788Y-41072474D01*
X151677089Y-40969877D01*
X151677089Y-40969875D01*
X151679999Y-40944794D01*
X151679999Y-40530927D01*
X151699683Y-40463888D01*
X151752487Y-40418133D01*
X151821646Y-40408189D01*
X151885202Y-40437214D01*
X151914484Y-40474632D01*
X151993240Y-40629199D01*
X152104310Y-40782073D01*
X152237927Y-40915690D01*
X152390801Y-41026760D01*
X152470347Y-41067290D01*
X152559163Y-41112545D01*
X152559165Y-41112545D01*
X152559168Y-41112547D01*
X152655497Y-41143846D01*
X152738881Y-41170940D01*
X152925514Y-41200500D01*
X152925519Y-41200500D01*
X153114486Y-41200500D01*
X153301118Y-41170940D01*
X153360061Y-41151788D01*
X153480832Y-41112547D01*
X153649199Y-41026760D01*
X153802073Y-40915690D01*
X153935690Y-40782073D01*
X154046760Y-40629199D01*
X154132547Y-40460832D01*
X154190940Y-40281118D01*
X154191702Y-40276306D01*
X154220500Y-40094486D01*
X154220500Y-39905513D01*
X154190940Y-39718881D01*
X154142702Y-39570422D01*
X154132547Y-39539168D01*
X154132545Y-39539165D01*
X154132545Y-39539163D01*
X154046759Y-39370800D01*
X153935690Y-39217927D01*
X153802073Y-39084310D01*
X153649199Y-38973240D01*
X153641470Y-38969302D01*
X153480836Y-38887454D01*
X153301118Y-38829059D01*
X153114486Y-38799500D01*
X153114481Y-38799500D01*
X152925519Y-38799500D01*
X152925514Y-38799500D01*
X152738881Y-38829059D01*
X152559163Y-38887454D01*
X152390800Y-38973240D01*
X152312499Y-39030130D01*
X152237927Y-39084310D01*
X152237925Y-39084312D01*
X152237924Y-39084312D01*
X152104312Y-39217924D01*
X152104312Y-39217925D01*
X152104310Y-39217927D01*
X152056610Y-39283579D01*
X151993240Y-39370800D01*
X151914484Y-39525368D01*
X151866509Y-39576164D01*
X151798688Y-39592959D01*
X151732553Y-39570422D01*
X151689102Y-39515706D01*
X151679999Y-39469073D01*
X151679999Y-39055214D01*
X151679997Y-39055191D01*
X151677091Y-39030130D01*
X151677090Y-39030126D01*
X151631788Y-38927525D01*
X151631785Y-38927520D01*
X151552479Y-38848214D01*
X151552474Y-38848211D01*
X151449876Y-38802910D01*
X151424794Y-38800000D01*
X150630000Y-38800000D01*
X150630000Y-39574318D01*
X150539244Y-39550000D01*
X150420756Y-39550000D01*
X150330000Y-39574318D01*
X150330000Y-38800000D01*
X149535214Y-38800000D01*
X149535191Y-38800002D01*
X149510130Y-38802908D01*
X149510126Y-38802909D01*
X149407525Y-38848211D01*
X149407520Y-38848214D01*
X149328214Y-38927520D01*
X149328211Y-38927525D01*
X149282910Y-39030122D01*
X149282910Y-39030124D01*
X149280000Y-39055205D01*
X73282014Y-39055205D01*
X73169199Y-38973240D01*
X73161470Y-38969302D01*
X73000836Y-38887454D01*
X72821118Y-38829059D01*
X72634486Y-38799500D01*
X72634481Y-38799500D01*
X72445519Y-38799500D01*
X72445514Y-38799500D01*
X72258881Y-38829059D01*
X72079163Y-38887454D01*
X71910800Y-38973240D01*
X71832499Y-39030130D01*
X71757927Y-39084310D01*
X71757925Y-39084312D01*
X71757924Y-39084312D01*
X71624312Y-39217924D01*
X71624312Y-39217925D01*
X71624310Y-39217927D01*
X71576610Y-39283579D01*
X71513240Y-39370800D01*
X71434484Y-39525368D01*
X71386509Y-39576164D01*
X71318688Y-39592959D01*
X71252553Y-39570422D01*
X71209102Y-39515706D01*
X71199999Y-39469073D01*
X71199999Y-39055214D01*
X71199997Y-39055191D01*
X71197091Y-39030130D01*
X71197090Y-39030126D01*
X71151788Y-38927525D01*
X71151785Y-38927520D01*
X71072479Y-38848214D01*
X71072474Y-38848211D01*
X70969876Y-38802910D01*
X70944794Y-38800000D01*
X70150000Y-38800000D01*
X70150000Y-39574318D01*
X70059244Y-39550000D01*
X69940756Y-39550000D01*
X69850000Y-39574318D01*
X69850000Y-38800000D01*
X69055214Y-38800000D01*
X69055191Y-38800002D01*
X69030130Y-38802908D01*
X69030126Y-38802909D01*
X68927525Y-38848211D01*
X68927520Y-38848214D01*
X68848214Y-38927520D01*
X68848211Y-38927525D01*
X68802910Y-39030122D01*
X68802910Y-39030124D01*
X68800000Y-39055205D01*
X64599971Y-39055205D01*
X64676232Y-38969302D01*
X68967823Y-34135131D01*
X78799500Y-34135131D01*
X78799500Y-36024856D01*
X78799502Y-36024882D01*
X78802413Y-36049987D01*
X78802415Y-36049991D01*
X78847793Y-36152764D01*
X78847794Y-36152765D01*
X78927235Y-36232206D01*
X79030009Y-36277585D01*
X79055135Y-36280500D01*
X80944864Y-36280499D01*
X80944879Y-36280497D01*
X80944882Y-36280497D01*
X80969987Y-36277586D01*
X80969988Y-36277585D01*
X80969991Y-36277585D01*
X81072765Y-36232206D01*
X81152206Y-36152765D01*
X81197585Y-36049991D01*
X81200500Y-36024865D01*
X81200499Y-35610805D01*
X81220183Y-35543769D01*
X81272987Y-35498014D01*
X81342146Y-35488070D01*
X81405701Y-35517095D01*
X81434983Y-35554513D01*
X81513661Y-35708925D01*
X81513664Y-35708930D01*
X81591627Y-35816239D01*
X82132931Y-35274936D01*
X82179910Y-35356306D01*
X82263694Y-35440090D01*
X82345062Y-35487068D01*
X81803759Y-36028370D01*
X81803759Y-36028371D01*
X81911066Y-36106333D01*
X82079362Y-36192085D01*
X82258997Y-36250451D01*
X82445553Y-36280000D01*
X82634447Y-36280000D01*
X82821002Y-36250451D01*
X83000637Y-36192085D01*
X83168940Y-36106329D01*
X83276239Y-36028373D01*
X83276240Y-36028371D01*
X82734936Y-35487068D01*
X82816306Y-35440090D01*
X82900090Y-35356306D01*
X82947068Y-35274936D01*
X83488371Y-35816240D01*
X83488373Y-35816239D01*
X83566329Y-35708940D01*
X83652085Y-35540637D01*
X83710451Y-35361002D01*
X83740000Y-35174447D01*
X83740000Y-34985552D01*
X83710451Y-34798997D01*
X83652085Y-34619362D01*
X83566333Y-34451066D01*
X83488371Y-34343759D01*
X83488370Y-34343759D01*
X82947068Y-34885062D01*
X82900090Y-34803694D01*
X82816306Y-34719910D01*
X82734936Y-34672931D01*
X83272735Y-34135131D01*
X86419500Y-34135131D01*
X86419500Y-36024856D01*
X86419502Y-36024882D01*
X86422413Y-36049987D01*
X86422415Y-36049991D01*
X86467793Y-36152764D01*
X86467794Y-36152765D01*
X86547235Y-36232206D01*
X86650009Y-36277585D01*
X86675135Y-36280500D01*
X88564864Y-36280499D01*
X88564879Y-36280497D01*
X88564882Y-36280497D01*
X88589987Y-36277586D01*
X88589988Y-36277585D01*
X88589991Y-36277585D01*
X88692765Y-36232206D01*
X88772206Y-36152765D01*
X88817585Y-36049991D01*
X88820500Y-36024865D01*
X88820499Y-35610805D01*
X88840183Y-35543769D01*
X88892987Y-35498014D01*
X88962146Y-35488070D01*
X89025701Y-35517095D01*
X89054983Y-35554513D01*
X89133661Y-35708925D01*
X89133664Y-35708930D01*
X89211627Y-35816239D01*
X89752931Y-35274936D01*
X89799910Y-35356306D01*
X89883694Y-35440090D01*
X89965062Y-35487068D01*
X89423759Y-36028370D01*
X89423759Y-36028371D01*
X89531066Y-36106333D01*
X89699362Y-36192085D01*
X89878997Y-36250451D01*
X90065553Y-36280000D01*
X90254447Y-36280000D01*
X90441002Y-36250451D01*
X90620637Y-36192085D01*
X90788940Y-36106329D01*
X90896239Y-36028373D01*
X90896240Y-36028371D01*
X90354936Y-35487068D01*
X90436306Y-35440090D01*
X90520090Y-35356306D01*
X90567068Y-35274936D01*
X91108371Y-35816240D01*
X91108373Y-35816239D01*
X91186329Y-35708940D01*
X91272085Y-35540637D01*
X91330451Y-35361002D01*
X91360000Y-35174447D01*
X91360000Y-34985552D01*
X91330451Y-34798997D01*
X91272085Y-34619362D01*
X91186333Y-34451066D01*
X91108371Y-34343759D01*
X91108370Y-34343759D01*
X90567068Y-34885062D01*
X90520090Y-34803694D01*
X90436306Y-34719910D01*
X90354936Y-34672931D01*
X90892735Y-34135131D01*
X96419500Y-34135131D01*
X96419500Y-36024856D01*
X96419502Y-36024882D01*
X96422413Y-36049987D01*
X96422415Y-36049991D01*
X96467793Y-36152764D01*
X96467794Y-36152765D01*
X96547235Y-36232206D01*
X96650009Y-36277585D01*
X96675135Y-36280500D01*
X98564864Y-36280499D01*
X98564879Y-36280497D01*
X98564882Y-36280497D01*
X98589987Y-36277586D01*
X98589988Y-36277585D01*
X98589991Y-36277585D01*
X98692765Y-36232206D01*
X98772206Y-36152765D01*
X98817585Y-36049991D01*
X98820500Y-36024865D01*
X98820499Y-35610805D01*
X98840183Y-35543769D01*
X98892987Y-35498014D01*
X98962146Y-35488070D01*
X99025701Y-35517095D01*
X99054983Y-35554513D01*
X99133661Y-35708925D01*
X99133664Y-35708930D01*
X99211627Y-35816239D01*
X99752931Y-35274936D01*
X99799910Y-35356306D01*
X99883694Y-35440090D01*
X99965062Y-35487068D01*
X99423759Y-36028370D01*
X99423759Y-36028371D01*
X99531066Y-36106333D01*
X99699362Y-36192085D01*
X99878997Y-36250451D01*
X100065553Y-36280000D01*
X100254447Y-36280000D01*
X100441002Y-36250451D01*
X100620637Y-36192085D01*
X100788940Y-36106329D01*
X100896239Y-36028373D01*
X100896240Y-36028371D01*
X100354936Y-35487068D01*
X100436306Y-35440090D01*
X100520090Y-35356306D01*
X100567068Y-35274936D01*
X101108371Y-35816240D01*
X101108373Y-35816239D01*
X101186329Y-35708940D01*
X101272085Y-35540637D01*
X101330451Y-35361002D01*
X101360000Y-35174447D01*
X101360000Y-34985552D01*
X101330451Y-34798997D01*
X101272085Y-34619362D01*
X101186333Y-34451066D01*
X101108371Y-34343759D01*
X101108370Y-34343759D01*
X100567068Y-34885062D01*
X100520090Y-34803694D01*
X100436306Y-34719910D01*
X100354936Y-34672931D01*
X100892735Y-34135131D01*
X104039500Y-34135131D01*
X104039500Y-36024856D01*
X104039502Y-36024882D01*
X104042413Y-36049987D01*
X104042415Y-36049991D01*
X104087793Y-36152764D01*
X104087794Y-36152765D01*
X104167235Y-36232206D01*
X104270009Y-36277585D01*
X104295135Y-36280500D01*
X106184864Y-36280499D01*
X106184879Y-36280497D01*
X106184882Y-36280497D01*
X106209987Y-36277586D01*
X106209988Y-36277585D01*
X106209991Y-36277585D01*
X106312765Y-36232206D01*
X106392206Y-36152765D01*
X106437585Y-36049991D01*
X106440500Y-36024865D01*
X106440499Y-35610805D01*
X106460183Y-35543769D01*
X106512987Y-35498014D01*
X106582146Y-35488070D01*
X106645701Y-35517095D01*
X106674983Y-35554513D01*
X106753661Y-35708925D01*
X106753664Y-35708930D01*
X106831627Y-35816239D01*
X107372931Y-35274936D01*
X107419910Y-35356306D01*
X107503694Y-35440090D01*
X107585062Y-35487068D01*
X107043759Y-36028370D01*
X107043759Y-36028371D01*
X107151066Y-36106333D01*
X107319362Y-36192085D01*
X107498997Y-36250451D01*
X107685553Y-36280000D01*
X107874447Y-36280000D01*
X108061002Y-36250451D01*
X108240637Y-36192085D01*
X108408940Y-36106329D01*
X108516239Y-36028373D01*
X108516240Y-36028371D01*
X107974936Y-35487068D01*
X108056306Y-35440090D01*
X108140090Y-35356306D01*
X108187068Y-35274937D01*
X108728371Y-35816240D01*
X108728373Y-35816239D01*
X108806329Y-35708940D01*
X108892085Y-35540637D01*
X108950451Y-35361002D01*
X108980000Y-35174447D01*
X108980000Y-34985552D01*
X108950451Y-34798997D01*
X108892085Y-34619362D01*
X108806333Y-34451066D01*
X108728371Y-34343759D01*
X108728370Y-34343759D01*
X108187068Y-34885062D01*
X108140090Y-34803694D01*
X108056306Y-34719910D01*
X107974936Y-34672931D01*
X108512735Y-34135131D01*
X114039500Y-34135131D01*
X114039500Y-36024856D01*
X114039502Y-36024882D01*
X114042413Y-36049987D01*
X114042415Y-36049991D01*
X114087793Y-36152764D01*
X114087794Y-36152765D01*
X114167235Y-36232206D01*
X114270009Y-36277585D01*
X114295135Y-36280500D01*
X116184864Y-36280499D01*
X116184879Y-36280497D01*
X116184882Y-36280497D01*
X116209987Y-36277586D01*
X116209988Y-36277585D01*
X116209991Y-36277585D01*
X116312765Y-36232206D01*
X116392206Y-36152765D01*
X116437585Y-36049991D01*
X116440500Y-36024865D01*
X116440499Y-35610805D01*
X116460183Y-35543769D01*
X116512987Y-35498014D01*
X116582146Y-35488070D01*
X116645701Y-35517095D01*
X116674983Y-35554513D01*
X116753661Y-35708925D01*
X116753664Y-35708930D01*
X116831627Y-35816239D01*
X117372931Y-35274936D01*
X117419910Y-35356306D01*
X117503694Y-35440090D01*
X117585062Y-35487068D01*
X117043759Y-36028370D01*
X117043759Y-36028371D01*
X117151066Y-36106333D01*
X117319362Y-36192085D01*
X117498997Y-36250451D01*
X117685553Y-36280000D01*
X117874447Y-36280000D01*
X118061002Y-36250451D01*
X118240637Y-36192085D01*
X118408940Y-36106329D01*
X118516239Y-36028373D01*
X118516240Y-36028371D01*
X117974936Y-35487068D01*
X118056306Y-35440090D01*
X118140090Y-35356306D01*
X118187068Y-35274936D01*
X118728371Y-35816240D01*
X118728373Y-35816239D01*
X118806329Y-35708940D01*
X118892085Y-35540637D01*
X118950451Y-35361002D01*
X118980000Y-35174447D01*
X118980000Y-34985552D01*
X118950451Y-34798997D01*
X118892085Y-34619362D01*
X118806333Y-34451066D01*
X118728371Y-34343759D01*
X118728370Y-34343759D01*
X118187068Y-34885062D01*
X118140090Y-34803694D01*
X118056306Y-34719910D01*
X117974936Y-34672931D01*
X118512735Y-34135131D01*
X121659500Y-34135131D01*
X121659500Y-36024856D01*
X121659502Y-36024882D01*
X121662413Y-36049987D01*
X121662415Y-36049991D01*
X121707793Y-36152764D01*
X121707794Y-36152765D01*
X121787235Y-36232206D01*
X121890009Y-36277585D01*
X121915135Y-36280500D01*
X123804864Y-36280499D01*
X123804879Y-36280497D01*
X123804882Y-36280497D01*
X123829987Y-36277586D01*
X123829988Y-36277585D01*
X123829991Y-36277585D01*
X123932765Y-36232206D01*
X124012206Y-36152765D01*
X124057585Y-36049991D01*
X124060500Y-36024865D01*
X124060499Y-35610805D01*
X124080183Y-35543769D01*
X124132987Y-35498014D01*
X124202146Y-35488070D01*
X124265701Y-35517095D01*
X124294983Y-35554513D01*
X124373661Y-35708925D01*
X124373664Y-35708930D01*
X124451627Y-35816239D01*
X124992931Y-35274936D01*
X125039910Y-35356306D01*
X125123694Y-35440090D01*
X125205062Y-35487068D01*
X124663759Y-36028370D01*
X124663759Y-36028371D01*
X124771066Y-36106333D01*
X124939362Y-36192085D01*
X125118997Y-36250451D01*
X125305553Y-36280000D01*
X125494447Y-36280000D01*
X125681002Y-36250451D01*
X125860637Y-36192085D01*
X126028940Y-36106329D01*
X126136239Y-36028373D01*
X126136240Y-36028371D01*
X125594936Y-35487068D01*
X125676306Y-35440090D01*
X125760090Y-35356306D01*
X125807068Y-35274937D01*
X126348371Y-35816240D01*
X126348373Y-35816239D01*
X126426329Y-35708940D01*
X126512085Y-35540637D01*
X126570451Y-35361002D01*
X126600000Y-35174447D01*
X126600000Y-34985552D01*
X126570451Y-34798997D01*
X126512085Y-34619362D01*
X126426333Y-34451066D01*
X126348371Y-34343759D01*
X126348370Y-34343759D01*
X125807068Y-34885062D01*
X125760090Y-34803694D01*
X125676306Y-34719910D01*
X125594936Y-34672931D01*
X126132735Y-34135131D01*
X131659500Y-34135131D01*
X131659500Y-36024856D01*
X131659502Y-36024882D01*
X131662413Y-36049987D01*
X131662415Y-36049991D01*
X131707793Y-36152764D01*
X131707794Y-36152765D01*
X131787235Y-36232206D01*
X131890009Y-36277585D01*
X131915135Y-36280500D01*
X133804864Y-36280499D01*
X133804879Y-36280497D01*
X133804882Y-36280497D01*
X133829987Y-36277586D01*
X133829988Y-36277585D01*
X133829991Y-36277585D01*
X133932765Y-36232206D01*
X134012206Y-36152765D01*
X134057585Y-36049991D01*
X134060500Y-36024865D01*
X134060499Y-35610805D01*
X134080183Y-35543769D01*
X134132987Y-35498014D01*
X134202146Y-35488070D01*
X134265701Y-35517095D01*
X134294983Y-35554513D01*
X134373661Y-35708925D01*
X134373664Y-35708930D01*
X134451627Y-35816239D01*
X134992931Y-35274936D01*
X135039910Y-35356306D01*
X135123694Y-35440090D01*
X135205062Y-35487068D01*
X134663759Y-36028370D01*
X134663759Y-36028371D01*
X134771066Y-36106333D01*
X134939362Y-36192085D01*
X135118997Y-36250451D01*
X135305553Y-36280000D01*
X135494447Y-36280000D01*
X135681002Y-36250451D01*
X135860637Y-36192085D01*
X136028940Y-36106329D01*
X136136239Y-36028373D01*
X136136240Y-36028371D01*
X135594936Y-35487068D01*
X135676306Y-35440090D01*
X135760090Y-35356306D01*
X135807068Y-35274937D01*
X136348371Y-35816240D01*
X136348373Y-35816239D01*
X136426329Y-35708940D01*
X136512085Y-35540637D01*
X136570451Y-35361002D01*
X136600000Y-35174447D01*
X136600000Y-34985552D01*
X136570451Y-34798997D01*
X136512085Y-34619362D01*
X136426333Y-34451066D01*
X136348371Y-34343759D01*
X136348370Y-34343759D01*
X135807068Y-34885062D01*
X135760090Y-34803694D01*
X135676306Y-34719910D01*
X135594936Y-34672931D01*
X136132735Y-34135131D01*
X139279500Y-34135131D01*
X139279500Y-36024856D01*
X139279502Y-36024882D01*
X139282413Y-36049987D01*
X139282415Y-36049991D01*
X139327793Y-36152764D01*
X139327794Y-36152765D01*
X139407235Y-36232206D01*
X139510009Y-36277585D01*
X139535135Y-36280500D01*
X141424864Y-36280499D01*
X141424879Y-36280497D01*
X141424882Y-36280497D01*
X141449987Y-36277586D01*
X141449988Y-36277585D01*
X141449991Y-36277585D01*
X141552765Y-36232206D01*
X141632206Y-36152765D01*
X141677585Y-36049991D01*
X141680500Y-36024865D01*
X141680499Y-35610805D01*
X141700183Y-35543769D01*
X141752987Y-35498014D01*
X141822146Y-35488070D01*
X141885701Y-35517095D01*
X141914983Y-35554513D01*
X141993661Y-35708925D01*
X141993664Y-35708930D01*
X142071627Y-35816239D01*
X142612931Y-35274936D01*
X142659910Y-35356306D01*
X142743694Y-35440090D01*
X142825062Y-35487068D01*
X142283759Y-36028370D01*
X142283759Y-36028371D01*
X142391066Y-36106333D01*
X142559362Y-36192085D01*
X142738997Y-36250451D01*
X142925553Y-36280000D01*
X143114447Y-36280000D01*
X143301002Y-36250451D01*
X143480637Y-36192085D01*
X143648940Y-36106329D01*
X143756239Y-36028373D01*
X143756240Y-36028371D01*
X143214936Y-35487068D01*
X143296306Y-35440090D01*
X143380090Y-35356306D01*
X143427068Y-35274937D01*
X143968371Y-35816240D01*
X143968373Y-35816239D01*
X144046329Y-35708940D01*
X144132085Y-35540637D01*
X144190451Y-35361002D01*
X144220000Y-35174447D01*
X144220000Y-34985552D01*
X144190451Y-34798997D01*
X144132085Y-34619362D01*
X144046333Y-34451066D01*
X143968371Y-34343759D01*
X143968370Y-34343759D01*
X143427068Y-34885062D01*
X143380090Y-34803694D01*
X143296306Y-34719910D01*
X143214936Y-34672931D01*
X143756239Y-34131627D01*
X143648933Y-34053666D01*
X143480637Y-33967914D01*
X143301002Y-33909548D01*
X143114447Y-33880000D01*
X142925553Y-33880000D01*
X142738997Y-33909548D01*
X142559362Y-33967914D01*
X142391064Y-34053667D01*
X142391062Y-34053668D01*
X142283759Y-34131626D01*
X142283759Y-34131627D01*
X142825063Y-34672931D01*
X142743694Y-34719910D01*
X142659910Y-34803694D01*
X142612931Y-34885063D01*
X142071627Y-34343759D01*
X142071626Y-34343759D01*
X141993668Y-34451062D01*
X141993661Y-34451074D01*
X141914983Y-34605487D01*
X141867009Y-34656283D01*
X141799188Y-34673078D01*
X141733053Y-34650540D01*
X141689602Y-34595825D01*
X141680499Y-34549192D01*
X141680499Y-34135143D01*
X141680499Y-34135136D01*
X141680092Y-34131626D01*
X141677586Y-34110012D01*
X141677585Y-34110010D01*
X141677585Y-34110009D01*
X141632206Y-34007235D01*
X141552765Y-33927794D01*
X141511442Y-33909548D01*
X141449992Y-33882415D01*
X141424865Y-33879500D01*
X139535143Y-33879500D01*
X139535117Y-33879502D01*
X139510012Y-33882413D01*
X139510008Y-33882415D01*
X139407235Y-33927793D01*
X139327794Y-34007234D01*
X139282415Y-34110006D01*
X139282415Y-34110008D01*
X139279500Y-34135131D01*
X136132735Y-34135131D01*
X136136239Y-34131627D01*
X136028933Y-34053666D01*
X135860637Y-33967914D01*
X135681002Y-33909548D01*
X135494447Y-33880000D01*
X135305553Y-33880000D01*
X135118997Y-33909548D01*
X134939362Y-33967914D01*
X134771064Y-34053667D01*
X134771062Y-34053668D01*
X134663759Y-34131626D01*
X134663759Y-34131627D01*
X135205063Y-34672931D01*
X135123694Y-34719910D01*
X135039910Y-34803694D01*
X134992931Y-34885063D01*
X134451627Y-34343759D01*
X134451626Y-34343759D01*
X134373668Y-34451062D01*
X134373661Y-34451074D01*
X134294983Y-34605487D01*
X134247009Y-34656283D01*
X134179188Y-34673078D01*
X134113053Y-34650540D01*
X134069602Y-34595825D01*
X134060499Y-34549192D01*
X134060499Y-34135143D01*
X134060499Y-34135136D01*
X134060092Y-34131626D01*
X134057586Y-34110012D01*
X134057585Y-34110010D01*
X134057585Y-34110009D01*
X134012206Y-34007235D01*
X133932765Y-33927794D01*
X133891442Y-33909548D01*
X133829992Y-33882415D01*
X133804865Y-33879500D01*
X131915143Y-33879500D01*
X131915117Y-33879502D01*
X131890012Y-33882413D01*
X131890008Y-33882415D01*
X131787235Y-33927793D01*
X131707794Y-34007234D01*
X131662415Y-34110006D01*
X131662415Y-34110008D01*
X131659500Y-34135131D01*
X126132735Y-34135131D01*
X126136239Y-34131627D01*
X126028933Y-34053666D01*
X125860637Y-33967914D01*
X125681002Y-33909548D01*
X125494447Y-33880000D01*
X125305553Y-33880000D01*
X125118997Y-33909548D01*
X124939362Y-33967914D01*
X124771064Y-34053667D01*
X124771062Y-34053668D01*
X124663759Y-34131626D01*
X124663759Y-34131627D01*
X125205063Y-34672931D01*
X125123694Y-34719910D01*
X125039910Y-34803694D01*
X124992931Y-34885063D01*
X124451627Y-34343759D01*
X124451626Y-34343759D01*
X124373668Y-34451062D01*
X124373661Y-34451074D01*
X124294983Y-34605487D01*
X124247009Y-34656283D01*
X124179188Y-34673078D01*
X124113053Y-34650540D01*
X124069602Y-34595825D01*
X124060499Y-34549192D01*
X124060499Y-34135143D01*
X124060499Y-34135136D01*
X124060092Y-34131626D01*
X124057586Y-34110012D01*
X124057585Y-34110010D01*
X124057585Y-34110009D01*
X124012206Y-34007235D01*
X123932765Y-33927794D01*
X123891442Y-33909548D01*
X123829992Y-33882415D01*
X123804865Y-33879500D01*
X121915143Y-33879500D01*
X121915117Y-33879502D01*
X121890012Y-33882413D01*
X121890008Y-33882415D01*
X121787235Y-33927793D01*
X121707794Y-34007234D01*
X121662415Y-34110006D01*
X121662415Y-34110008D01*
X121659500Y-34135131D01*
X118512735Y-34135131D01*
X118516239Y-34131627D01*
X118408933Y-34053666D01*
X118240637Y-33967914D01*
X118061002Y-33909548D01*
X117874447Y-33880000D01*
X117685553Y-33880000D01*
X117498997Y-33909548D01*
X117319362Y-33967914D01*
X117151064Y-34053667D01*
X117151062Y-34053668D01*
X117043759Y-34131626D01*
X117043759Y-34131627D01*
X117585063Y-34672931D01*
X117503694Y-34719910D01*
X117419910Y-34803694D01*
X117372931Y-34885063D01*
X116831627Y-34343759D01*
X116831626Y-34343759D01*
X116753668Y-34451062D01*
X116753661Y-34451074D01*
X116674983Y-34605487D01*
X116627009Y-34656283D01*
X116559188Y-34673078D01*
X116493053Y-34650540D01*
X116449602Y-34595825D01*
X116440499Y-34549192D01*
X116440499Y-34135143D01*
X116440499Y-34135136D01*
X116440092Y-34131626D01*
X116437586Y-34110012D01*
X116437585Y-34110010D01*
X116437585Y-34110009D01*
X116392206Y-34007235D01*
X116312765Y-33927794D01*
X116271442Y-33909548D01*
X116209992Y-33882415D01*
X116184865Y-33879500D01*
X114295143Y-33879500D01*
X114295117Y-33879502D01*
X114270012Y-33882413D01*
X114270008Y-33882415D01*
X114167235Y-33927793D01*
X114087794Y-34007234D01*
X114042415Y-34110006D01*
X114042415Y-34110008D01*
X114039500Y-34135131D01*
X108512735Y-34135131D01*
X108516239Y-34131627D01*
X108408933Y-34053666D01*
X108240637Y-33967914D01*
X108061002Y-33909548D01*
X107874447Y-33880000D01*
X107685553Y-33880000D01*
X107498997Y-33909548D01*
X107319362Y-33967914D01*
X107151064Y-34053667D01*
X107151062Y-34053668D01*
X107043759Y-34131626D01*
X107043759Y-34131627D01*
X107585063Y-34672931D01*
X107503694Y-34719910D01*
X107419910Y-34803694D01*
X107372931Y-34885063D01*
X106831627Y-34343759D01*
X106831626Y-34343759D01*
X106753668Y-34451062D01*
X106753661Y-34451074D01*
X106674983Y-34605487D01*
X106627009Y-34656283D01*
X106559188Y-34673078D01*
X106493053Y-34650540D01*
X106449602Y-34595825D01*
X106440499Y-34549192D01*
X106440499Y-34135143D01*
X106440499Y-34135136D01*
X106440092Y-34131626D01*
X106437586Y-34110012D01*
X106437585Y-34110010D01*
X106437585Y-34110009D01*
X106392206Y-34007235D01*
X106312765Y-33927794D01*
X106271442Y-33909548D01*
X106209992Y-33882415D01*
X106184865Y-33879500D01*
X104295143Y-33879500D01*
X104295117Y-33879502D01*
X104270012Y-33882413D01*
X104270008Y-33882415D01*
X104167235Y-33927793D01*
X104087794Y-34007234D01*
X104042415Y-34110006D01*
X104042415Y-34110008D01*
X104039500Y-34135131D01*
X100892735Y-34135131D01*
X100896239Y-34131627D01*
X100788933Y-34053666D01*
X100620637Y-33967914D01*
X100441002Y-33909548D01*
X100254447Y-33880000D01*
X100065553Y-33880000D01*
X99878997Y-33909548D01*
X99699362Y-33967914D01*
X99531064Y-34053667D01*
X99531062Y-34053668D01*
X99423759Y-34131626D01*
X99423759Y-34131627D01*
X99965063Y-34672931D01*
X99883694Y-34719910D01*
X99799910Y-34803694D01*
X99752931Y-34885063D01*
X99211627Y-34343759D01*
X99211626Y-34343759D01*
X99133668Y-34451062D01*
X99133661Y-34451074D01*
X99054983Y-34605487D01*
X99007009Y-34656283D01*
X98939188Y-34673078D01*
X98873053Y-34650540D01*
X98829602Y-34595825D01*
X98820499Y-34549192D01*
X98820499Y-34135143D01*
X98820499Y-34135136D01*
X98820092Y-34131626D01*
X98817586Y-34110012D01*
X98817585Y-34110010D01*
X98817585Y-34110009D01*
X98772206Y-34007235D01*
X98692765Y-33927794D01*
X98651442Y-33909548D01*
X98589992Y-33882415D01*
X98564865Y-33879500D01*
X96675143Y-33879500D01*
X96675117Y-33879502D01*
X96650012Y-33882413D01*
X96650008Y-33882415D01*
X96547235Y-33927793D01*
X96467794Y-34007234D01*
X96422415Y-34110006D01*
X96422415Y-34110008D01*
X96419500Y-34135131D01*
X90892735Y-34135131D01*
X90896239Y-34131627D01*
X90788933Y-34053666D01*
X90620637Y-33967914D01*
X90441002Y-33909548D01*
X90254447Y-33880000D01*
X90065553Y-33880000D01*
X89878997Y-33909548D01*
X89699362Y-33967914D01*
X89531064Y-34053667D01*
X89531062Y-34053668D01*
X89423759Y-34131626D01*
X89423759Y-34131627D01*
X89965063Y-34672931D01*
X89883694Y-34719910D01*
X89799910Y-34803694D01*
X89752931Y-34885063D01*
X89211627Y-34343759D01*
X89211626Y-34343759D01*
X89133668Y-34451062D01*
X89133661Y-34451074D01*
X89054983Y-34605487D01*
X89007009Y-34656283D01*
X88939188Y-34673078D01*
X88873053Y-34650540D01*
X88829602Y-34595825D01*
X88820499Y-34549192D01*
X88820499Y-34135143D01*
X88820499Y-34135136D01*
X88820092Y-34131626D01*
X88817586Y-34110012D01*
X88817585Y-34110010D01*
X88817585Y-34110009D01*
X88772206Y-34007235D01*
X88692765Y-33927794D01*
X88651442Y-33909548D01*
X88589992Y-33882415D01*
X88564865Y-33879500D01*
X86675143Y-33879500D01*
X86675117Y-33879502D01*
X86650012Y-33882413D01*
X86650008Y-33882415D01*
X86547235Y-33927793D01*
X86467794Y-34007234D01*
X86422415Y-34110006D01*
X86422415Y-34110008D01*
X86419500Y-34135131D01*
X83272735Y-34135131D01*
X83276239Y-34131627D01*
X83168933Y-34053666D01*
X83000637Y-33967914D01*
X82821002Y-33909548D01*
X82634447Y-33880000D01*
X82445553Y-33880000D01*
X82258997Y-33909548D01*
X82079362Y-33967914D01*
X81911064Y-34053667D01*
X81911062Y-34053668D01*
X81803759Y-34131626D01*
X81803759Y-34131627D01*
X82345063Y-34672931D01*
X82263694Y-34719910D01*
X82179910Y-34803694D01*
X82132931Y-34885063D01*
X81591627Y-34343759D01*
X81591626Y-34343759D01*
X81513668Y-34451062D01*
X81513661Y-34451074D01*
X81434983Y-34605487D01*
X81387009Y-34656283D01*
X81319188Y-34673078D01*
X81253053Y-34650540D01*
X81209602Y-34595825D01*
X81200499Y-34549192D01*
X81200499Y-34135143D01*
X81200499Y-34135136D01*
X81200092Y-34131626D01*
X81197586Y-34110012D01*
X81197585Y-34110010D01*
X81197585Y-34110009D01*
X81152206Y-34007235D01*
X81072765Y-33927794D01*
X81031442Y-33909548D01*
X80969992Y-33882415D01*
X80944865Y-33879500D01*
X79055143Y-33879500D01*
X79055117Y-33879502D01*
X79030012Y-33882413D01*
X79030008Y-33882415D01*
X78927235Y-33927793D01*
X78847794Y-34007234D01*
X78802415Y-34110006D01*
X78802415Y-34110008D01*
X78799500Y-34135131D01*
X68967823Y-34135131D01*
X69044082Y-34049231D01*
X70321460Y-32610355D01*
X73477585Y-29055205D01*
X78800000Y-29055205D01*
X78800000Y-29850000D01*
X79574318Y-29850000D01*
X79550000Y-29940756D01*
X79550000Y-30059244D01*
X79574318Y-30150000D01*
X78800001Y-30150000D01*
X78800001Y-30944785D01*
X78800002Y-30944808D01*
X78802908Y-30969869D01*
X78802909Y-30969873D01*
X78848211Y-31072474D01*
X78848214Y-31072479D01*
X78927520Y-31151785D01*
X78927525Y-31151788D01*
X79030123Y-31197089D01*
X79055206Y-31199999D01*
X79849999Y-31199999D01*
X79850000Y-31199998D01*
X79850000Y-30425681D01*
X79940756Y-30450000D01*
X80059244Y-30450000D01*
X80150000Y-30425681D01*
X80150000Y-31199999D01*
X80944786Y-31199999D01*
X80944808Y-31199997D01*
X80969869Y-31197091D01*
X80969873Y-31197090D01*
X81072474Y-31151788D01*
X81072479Y-31151785D01*
X81151785Y-31072479D01*
X81151788Y-31072474D01*
X81197089Y-30969877D01*
X81197089Y-30969875D01*
X81199999Y-30944794D01*
X81199999Y-30530927D01*
X81219683Y-30463888D01*
X81272487Y-30418133D01*
X81341646Y-30408189D01*
X81405202Y-30437214D01*
X81434484Y-30474632D01*
X81513240Y-30629199D01*
X81624310Y-30782073D01*
X81757927Y-30915690D01*
X81910801Y-31026760D01*
X81990347Y-31067290D01*
X82079163Y-31112545D01*
X82079165Y-31112545D01*
X82079168Y-31112547D01*
X82175497Y-31143846D01*
X82258881Y-31170940D01*
X82445514Y-31200500D01*
X82445519Y-31200500D01*
X82634486Y-31200500D01*
X82821118Y-31170940D01*
X82880061Y-31151788D01*
X83000832Y-31112547D01*
X83169199Y-31026760D01*
X83322073Y-30915690D01*
X83455690Y-30782073D01*
X83566760Y-30629199D01*
X83652547Y-30460832D01*
X83710940Y-30281118D01*
X83711702Y-30276306D01*
X83740500Y-30094486D01*
X83740500Y-29905513D01*
X83710940Y-29718881D01*
X83662702Y-29570422D01*
X83652547Y-29539168D01*
X83652545Y-29539165D01*
X83652545Y-29539163D01*
X83566759Y-29370800D01*
X83455690Y-29217927D01*
X83322073Y-29084310D01*
X83282014Y-29055205D01*
X86420000Y-29055205D01*
X86420000Y-29850000D01*
X87194318Y-29850000D01*
X87170000Y-29940756D01*
X87170000Y-30059244D01*
X87194318Y-30150000D01*
X86420001Y-30150000D01*
X86420001Y-30944785D01*
X86420002Y-30944808D01*
X86422908Y-30969869D01*
X86422909Y-30969873D01*
X86468211Y-31072474D01*
X86468214Y-31072479D01*
X86547520Y-31151785D01*
X86547525Y-31151788D01*
X86650123Y-31197089D01*
X86675206Y-31199999D01*
X87469999Y-31199999D01*
X87470000Y-31199998D01*
X87470000Y-30425681D01*
X87560756Y-30450000D01*
X87679244Y-30450000D01*
X87770000Y-30425681D01*
X87770000Y-31199999D01*
X88564786Y-31199999D01*
X88564808Y-31199997D01*
X88589869Y-31197091D01*
X88589873Y-31197090D01*
X88692474Y-31151788D01*
X88692479Y-31151785D01*
X88771785Y-31072479D01*
X88771788Y-31072474D01*
X88817089Y-30969877D01*
X88817089Y-30969875D01*
X88819999Y-30944794D01*
X88819999Y-30530927D01*
X88839683Y-30463888D01*
X88892487Y-30418133D01*
X88961646Y-30408189D01*
X89025202Y-30437214D01*
X89054484Y-30474632D01*
X89133240Y-30629199D01*
X89244310Y-30782073D01*
X89377927Y-30915690D01*
X89530801Y-31026760D01*
X89610347Y-31067290D01*
X89699163Y-31112545D01*
X89699165Y-31112545D01*
X89699168Y-31112547D01*
X89795497Y-31143846D01*
X89878881Y-31170940D01*
X90065514Y-31200500D01*
X90065519Y-31200500D01*
X90254486Y-31200500D01*
X90441118Y-31170940D01*
X90500061Y-31151788D01*
X90620832Y-31112547D01*
X90789199Y-31026760D01*
X90942073Y-30915690D01*
X91075690Y-30782073D01*
X91186760Y-30629199D01*
X91272547Y-30460832D01*
X91330940Y-30281118D01*
X91331702Y-30276306D01*
X91360500Y-30094486D01*
X91360500Y-29905513D01*
X91330940Y-29718881D01*
X91282702Y-29570422D01*
X91272547Y-29539168D01*
X91272545Y-29539165D01*
X91272545Y-29539163D01*
X91186759Y-29370800D01*
X91075690Y-29217927D01*
X90942073Y-29084310D01*
X90902014Y-29055205D01*
X96420000Y-29055205D01*
X96420000Y-29850000D01*
X97194318Y-29850000D01*
X97170000Y-29940756D01*
X97170000Y-30059244D01*
X97194318Y-30150000D01*
X96420001Y-30150000D01*
X96420001Y-30944785D01*
X96420002Y-30944808D01*
X96422908Y-30969869D01*
X96422909Y-30969873D01*
X96468211Y-31072474D01*
X96468214Y-31072479D01*
X96547520Y-31151785D01*
X96547525Y-31151788D01*
X96650123Y-31197089D01*
X96675206Y-31199999D01*
X97469999Y-31199999D01*
X97470000Y-31199998D01*
X97470000Y-30425681D01*
X97560756Y-30450000D01*
X97679244Y-30450000D01*
X97770000Y-30425681D01*
X97770000Y-31199999D01*
X98564786Y-31199999D01*
X98564808Y-31199997D01*
X98589869Y-31197091D01*
X98589873Y-31197090D01*
X98692474Y-31151788D01*
X98692479Y-31151785D01*
X98771785Y-31072479D01*
X98771788Y-31072474D01*
X98817089Y-30969877D01*
X98817089Y-30969875D01*
X98819999Y-30944794D01*
X98819999Y-30530927D01*
X98839683Y-30463888D01*
X98892487Y-30418133D01*
X98961646Y-30408189D01*
X99025202Y-30437214D01*
X99054484Y-30474632D01*
X99133240Y-30629199D01*
X99244310Y-30782073D01*
X99377927Y-30915690D01*
X99530801Y-31026760D01*
X99610347Y-31067290D01*
X99699163Y-31112545D01*
X99699165Y-31112545D01*
X99699168Y-31112547D01*
X99795497Y-31143846D01*
X99878881Y-31170940D01*
X100065514Y-31200500D01*
X100065519Y-31200500D01*
X100254486Y-31200500D01*
X100441118Y-31170940D01*
X100500061Y-31151788D01*
X100620832Y-31112547D01*
X100789199Y-31026760D01*
X100942073Y-30915690D01*
X101075690Y-30782073D01*
X101186760Y-30629199D01*
X101272547Y-30460832D01*
X101330940Y-30281118D01*
X101331702Y-30276306D01*
X101360500Y-30094486D01*
X101360500Y-29905513D01*
X101330940Y-29718881D01*
X101282702Y-29570422D01*
X101272547Y-29539168D01*
X101272545Y-29539165D01*
X101272545Y-29539163D01*
X101186759Y-29370800D01*
X101075690Y-29217927D01*
X100942073Y-29084310D01*
X100902014Y-29055205D01*
X104040000Y-29055205D01*
X104040000Y-29850000D01*
X104814318Y-29850000D01*
X104790000Y-29940756D01*
X104790000Y-30059244D01*
X104814318Y-30150000D01*
X104040001Y-30150000D01*
X104040001Y-30944785D01*
X104040002Y-30944808D01*
X104042908Y-30969869D01*
X104042909Y-30969873D01*
X104088211Y-31072474D01*
X104088214Y-31072479D01*
X104167520Y-31151785D01*
X104167525Y-31151788D01*
X104270123Y-31197089D01*
X104295206Y-31199999D01*
X105089999Y-31199999D01*
X105090000Y-31199998D01*
X105090000Y-30425681D01*
X105180756Y-30450000D01*
X105299244Y-30450000D01*
X105390000Y-30425681D01*
X105390000Y-31199999D01*
X106184786Y-31199999D01*
X106184808Y-31199997D01*
X106209869Y-31197091D01*
X106209873Y-31197090D01*
X106312474Y-31151788D01*
X106312479Y-31151785D01*
X106391785Y-31072479D01*
X106391788Y-31072474D01*
X106437089Y-30969877D01*
X106437089Y-30969875D01*
X106439999Y-30944794D01*
X106439999Y-30530927D01*
X106459683Y-30463888D01*
X106512487Y-30418133D01*
X106581646Y-30408189D01*
X106645202Y-30437214D01*
X106674484Y-30474632D01*
X106753240Y-30629199D01*
X106864310Y-30782073D01*
X106997927Y-30915690D01*
X107150801Y-31026760D01*
X107230347Y-31067290D01*
X107319163Y-31112545D01*
X107319165Y-31112545D01*
X107319168Y-31112547D01*
X107415497Y-31143846D01*
X107498881Y-31170940D01*
X107685514Y-31200500D01*
X107685519Y-31200500D01*
X107874486Y-31200500D01*
X108061118Y-31170940D01*
X108120061Y-31151788D01*
X108240832Y-31112547D01*
X108409199Y-31026760D01*
X108562073Y-30915690D01*
X108695690Y-30782073D01*
X108806760Y-30629199D01*
X108892547Y-30460832D01*
X108950940Y-30281118D01*
X108951702Y-30276306D01*
X108980500Y-30094486D01*
X108980500Y-29905513D01*
X108950940Y-29718881D01*
X108902702Y-29570422D01*
X108892547Y-29539168D01*
X108892545Y-29539165D01*
X108892545Y-29539163D01*
X108806759Y-29370800D01*
X108695690Y-29217927D01*
X108562073Y-29084310D01*
X108522014Y-29055205D01*
X114040000Y-29055205D01*
X114040000Y-29850000D01*
X114814318Y-29850000D01*
X114790000Y-29940756D01*
X114790000Y-30059244D01*
X114814318Y-30150000D01*
X114040001Y-30150000D01*
X114040001Y-30944785D01*
X114040002Y-30944808D01*
X114042908Y-30969869D01*
X114042909Y-30969873D01*
X114088211Y-31072474D01*
X114088214Y-31072479D01*
X114167520Y-31151785D01*
X114167525Y-31151788D01*
X114270123Y-31197089D01*
X114295206Y-31199999D01*
X115089999Y-31199999D01*
X115090000Y-31199998D01*
X115090000Y-30425681D01*
X115180756Y-30450000D01*
X115299244Y-30450000D01*
X115390000Y-30425681D01*
X115390000Y-31199999D01*
X116184786Y-31199999D01*
X116184808Y-31199997D01*
X116209869Y-31197091D01*
X116209873Y-31197090D01*
X116312474Y-31151788D01*
X116312479Y-31151785D01*
X116391785Y-31072479D01*
X116391788Y-31072474D01*
X116437089Y-30969877D01*
X116437089Y-30969875D01*
X116439999Y-30944794D01*
X116439999Y-30530927D01*
X116459683Y-30463888D01*
X116512487Y-30418133D01*
X116581646Y-30408189D01*
X116645202Y-30437214D01*
X116674484Y-30474632D01*
X116753240Y-30629199D01*
X116864310Y-30782073D01*
X116997927Y-30915690D01*
X117150801Y-31026760D01*
X117230347Y-31067290D01*
X117319163Y-31112545D01*
X117319165Y-31112545D01*
X117319168Y-31112547D01*
X117415497Y-31143846D01*
X117498881Y-31170940D01*
X117685514Y-31200500D01*
X117685519Y-31200500D01*
X117874486Y-31200500D01*
X118061118Y-31170940D01*
X118120061Y-31151788D01*
X118240832Y-31112547D01*
X118409199Y-31026760D01*
X118562073Y-30915690D01*
X118695690Y-30782073D01*
X118806760Y-30629199D01*
X118892547Y-30460832D01*
X118950940Y-30281118D01*
X118951702Y-30276306D01*
X118980500Y-30094486D01*
X118980500Y-29905513D01*
X118950940Y-29718881D01*
X118902702Y-29570422D01*
X118892547Y-29539168D01*
X118892545Y-29539165D01*
X118892545Y-29539163D01*
X118806759Y-29370800D01*
X118695690Y-29217927D01*
X118562073Y-29084310D01*
X118522014Y-29055205D01*
X121660000Y-29055205D01*
X121660000Y-29850000D01*
X122434318Y-29850000D01*
X122410000Y-29940756D01*
X122410000Y-30059244D01*
X122434318Y-30150000D01*
X121660001Y-30150000D01*
X121660001Y-30944785D01*
X121660002Y-30944808D01*
X121662908Y-30969869D01*
X121662909Y-30969873D01*
X121708211Y-31072474D01*
X121708214Y-31072479D01*
X121787520Y-31151785D01*
X121787525Y-31151788D01*
X121890123Y-31197089D01*
X121915206Y-31199999D01*
X122709999Y-31199999D01*
X122710000Y-31199998D01*
X122710000Y-30425681D01*
X122800756Y-30450000D01*
X122919244Y-30450000D01*
X123010000Y-30425681D01*
X123010000Y-31199999D01*
X123804786Y-31199999D01*
X123804808Y-31199997D01*
X123829869Y-31197091D01*
X123829873Y-31197090D01*
X123932474Y-31151788D01*
X123932479Y-31151785D01*
X124011785Y-31072479D01*
X124011788Y-31072474D01*
X124057089Y-30969877D01*
X124057089Y-30969875D01*
X124059999Y-30944794D01*
X124059999Y-30530927D01*
X124079683Y-30463888D01*
X124132487Y-30418133D01*
X124201646Y-30408189D01*
X124265202Y-30437214D01*
X124294484Y-30474632D01*
X124373240Y-30629199D01*
X124484310Y-30782073D01*
X124617927Y-30915690D01*
X124770801Y-31026760D01*
X124850347Y-31067290D01*
X124939163Y-31112545D01*
X124939165Y-31112545D01*
X124939168Y-31112547D01*
X125035497Y-31143846D01*
X125118881Y-31170940D01*
X125305514Y-31200500D01*
X125305519Y-31200500D01*
X125494486Y-31200500D01*
X125681118Y-31170940D01*
X125740061Y-31151788D01*
X125860832Y-31112547D01*
X126029199Y-31026760D01*
X126182073Y-30915690D01*
X126315690Y-30782073D01*
X126426760Y-30629199D01*
X126512547Y-30460832D01*
X126570940Y-30281118D01*
X126571702Y-30276306D01*
X126600500Y-30094486D01*
X126600500Y-29905513D01*
X126570940Y-29718881D01*
X126522702Y-29570422D01*
X126512547Y-29539168D01*
X126512545Y-29539165D01*
X126512545Y-29539163D01*
X126426759Y-29370800D01*
X126315690Y-29217927D01*
X126182073Y-29084310D01*
X126142014Y-29055205D01*
X131660000Y-29055205D01*
X131660000Y-29850000D01*
X132434318Y-29850000D01*
X132410000Y-29940756D01*
X132410000Y-30059244D01*
X132434318Y-30150000D01*
X131660001Y-30150000D01*
X131660001Y-30944785D01*
X131660002Y-30944808D01*
X131662908Y-30969869D01*
X131662909Y-30969873D01*
X131708211Y-31072474D01*
X131708214Y-31072479D01*
X131787520Y-31151785D01*
X131787525Y-31151788D01*
X131890123Y-31197089D01*
X131915206Y-31199999D01*
X132709999Y-31199999D01*
X132710000Y-31199998D01*
X132710000Y-30425681D01*
X132800756Y-30450000D01*
X132919244Y-30450000D01*
X133010000Y-30425681D01*
X133010000Y-31199999D01*
X133804786Y-31199999D01*
X133804808Y-31199997D01*
X133829869Y-31197091D01*
X133829873Y-31197090D01*
X133932474Y-31151788D01*
X133932479Y-31151785D01*
X134011785Y-31072479D01*
X134011788Y-31072474D01*
X134057089Y-30969877D01*
X134057089Y-30969875D01*
X134059999Y-30944794D01*
X134059999Y-30530927D01*
X134079683Y-30463888D01*
X134132487Y-30418133D01*
X134201646Y-30408189D01*
X134265202Y-30437214D01*
X134294484Y-30474632D01*
X134373240Y-30629199D01*
X134484310Y-30782073D01*
X134617927Y-30915690D01*
X134770801Y-31026760D01*
X134850347Y-31067290D01*
X134939163Y-31112545D01*
X134939165Y-31112545D01*
X134939168Y-31112547D01*
X135035497Y-31143846D01*
X135118881Y-31170940D01*
X135305514Y-31200500D01*
X135305519Y-31200500D01*
X135494486Y-31200500D01*
X135681118Y-31170940D01*
X135740061Y-31151788D01*
X135860832Y-31112547D01*
X136029199Y-31026760D01*
X136182073Y-30915690D01*
X136315690Y-30782073D01*
X136426760Y-30629199D01*
X136512547Y-30460832D01*
X136570940Y-30281118D01*
X136571702Y-30276306D01*
X136600500Y-30094486D01*
X136600500Y-29905513D01*
X136570940Y-29718881D01*
X136522702Y-29570422D01*
X136512547Y-29539168D01*
X136512545Y-29539165D01*
X136512545Y-29539163D01*
X136426759Y-29370800D01*
X136315690Y-29217927D01*
X136182073Y-29084310D01*
X136142014Y-29055205D01*
X139280000Y-29055205D01*
X139280000Y-29850000D01*
X140054318Y-29850000D01*
X140030000Y-29940756D01*
X140030000Y-30059244D01*
X140054318Y-30150000D01*
X139280001Y-30150000D01*
X139280001Y-30944785D01*
X139280002Y-30944808D01*
X139282908Y-30969869D01*
X139282909Y-30969873D01*
X139328211Y-31072474D01*
X139328214Y-31072479D01*
X139407520Y-31151785D01*
X139407525Y-31151788D01*
X139510123Y-31197089D01*
X139535206Y-31199999D01*
X140329999Y-31199999D01*
X140330000Y-31199998D01*
X140330000Y-30425681D01*
X140420756Y-30450000D01*
X140539244Y-30450000D01*
X140630000Y-30425681D01*
X140630000Y-31199999D01*
X141424786Y-31199999D01*
X141424808Y-31199997D01*
X141449869Y-31197091D01*
X141449873Y-31197090D01*
X141552474Y-31151788D01*
X141552479Y-31151785D01*
X141631785Y-31072479D01*
X141631788Y-31072474D01*
X141677089Y-30969877D01*
X141677089Y-30969875D01*
X141679999Y-30944794D01*
X141679999Y-30530927D01*
X141699683Y-30463888D01*
X141752487Y-30418133D01*
X141821646Y-30408189D01*
X141885202Y-30437214D01*
X141914484Y-30474632D01*
X141993240Y-30629199D01*
X142104310Y-30782073D01*
X142237927Y-30915690D01*
X142390801Y-31026760D01*
X142470347Y-31067290D01*
X142559163Y-31112545D01*
X142559165Y-31112545D01*
X142559168Y-31112547D01*
X142655497Y-31143846D01*
X142738881Y-31170940D01*
X142925514Y-31200500D01*
X142925519Y-31200500D01*
X143114486Y-31200500D01*
X143301118Y-31170940D01*
X143360061Y-31151788D01*
X143480832Y-31112547D01*
X143649199Y-31026760D01*
X143802073Y-30915690D01*
X143935690Y-30782073D01*
X144046760Y-30629199D01*
X144132547Y-30460832D01*
X144190940Y-30281118D01*
X144191702Y-30276306D01*
X144220500Y-30094486D01*
X144220500Y-29905513D01*
X144190940Y-29718881D01*
X144142702Y-29570422D01*
X144132547Y-29539168D01*
X144132545Y-29539165D01*
X144132545Y-29539163D01*
X144046759Y-29370800D01*
X143935690Y-29217927D01*
X143802073Y-29084310D01*
X143649199Y-28973240D01*
X143641470Y-28969302D01*
X143480836Y-28887454D01*
X143301118Y-28829059D01*
X143114486Y-28799500D01*
X143114481Y-28799500D01*
X142925519Y-28799500D01*
X142925514Y-28799500D01*
X142738881Y-28829059D01*
X142559163Y-28887454D01*
X142390800Y-28973240D01*
X142312499Y-29030130D01*
X142237927Y-29084310D01*
X142237925Y-29084312D01*
X142237924Y-29084312D01*
X142104312Y-29217924D01*
X142104312Y-29217925D01*
X142104310Y-29217927D01*
X142056610Y-29283579D01*
X141993240Y-29370800D01*
X141914484Y-29525368D01*
X141866509Y-29576164D01*
X141798688Y-29592959D01*
X141732553Y-29570422D01*
X141689102Y-29515706D01*
X141679999Y-29469073D01*
X141679999Y-29055214D01*
X141679997Y-29055191D01*
X141677091Y-29030130D01*
X141677090Y-29030126D01*
X141631788Y-28927525D01*
X141631785Y-28927520D01*
X141552479Y-28848214D01*
X141552474Y-28848211D01*
X141449876Y-28802910D01*
X141424794Y-28800000D01*
X140630000Y-28800000D01*
X140630000Y-29574318D01*
X140539244Y-29550000D01*
X140420756Y-29550000D01*
X140330000Y-29574318D01*
X140330000Y-28800000D01*
X139535214Y-28800000D01*
X139535191Y-28800002D01*
X139510130Y-28802908D01*
X139510126Y-28802909D01*
X139407525Y-28848211D01*
X139407520Y-28848214D01*
X139328214Y-28927520D01*
X139328211Y-28927525D01*
X139282910Y-29030122D01*
X139282910Y-29030124D01*
X139280000Y-29055205D01*
X136142014Y-29055205D01*
X136029199Y-28973240D01*
X136021470Y-28969302D01*
X135860836Y-28887454D01*
X135681118Y-28829059D01*
X135494486Y-28799500D01*
X135494481Y-28799500D01*
X135305519Y-28799500D01*
X135305514Y-28799500D01*
X135118881Y-28829059D01*
X134939163Y-28887454D01*
X134770800Y-28973240D01*
X134692499Y-29030130D01*
X134617927Y-29084310D01*
X134617925Y-29084312D01*
X134617924Y-29084312D01*
X134484312Y-29217924D01*
X134484312Y-29217925D01*
X134484310Y-29217927D01*
X134436610Y-29283579D01*
X134373240Y-29370800D01*
X134294484Y-29525368D01*
X134246509Y-29576164D01*
X134178688Y-29592959D01*
X134112553Y-29570422D01*
X134069102Y-29515706D01*
X134059999Y-29469073D01*
X134059999Y-29055214D01*
X134059997Y-29055191D01*
X134057091Y-29030130D01*
X134057090Y-29030126D01*
X134011788Y-28927525D01*
X134011785Y-28927520D01*
X133932479Y-28848214D01*
X133932474Y-28848211D01*
X133829876Y-28802910D01*
X133804794Y-28800000D01*
X133010000Y-28800000D01*
X133010000Y-29574318D01*
X132919244Y-29550000D01*
X132800756Y-29550000D01*
X132710000Y-29574318D01*
X132710000Y-28800000D01*
X131915214Y-28800000D01*
X131915191Y-28800002D01*
X131890130Y-28802908D01*
X131890126Y-28802909D01*
X131787525Y-28848211D01*
X131787520Y-28848214D01*
X131708214Y-28927520D01*
X131708211Y-28927525D01*
X131662910Y-29030122D01*
X131662910Y-29030124D01*
X131660000Y-29055205D01*
X126142014Y-29055205D01*
X126029199Y-28973240D01*
X126021470Y-28969302D01*
X125860836Y-28887454D01*
X125681118Y-28829059D01*
X125494486Y-28799500D01*
X125494481Y-28799500D01*
X125305519Y-28799500D01*
X125305514Y-28799500D01*
X125118881Y-28829059D01*
X124939163Y-28887454D01*
X124770800Y-28973240D01*
X124692499Y-29030130D01*
X124617927Y-29084310D01*
X124617925Y-29084312D01*
X124617924Y-29084312D01*
X124484312Y-29217924D01*
X124484312Y-29217925D01*
X124484310Y-29217927D01*
X124436610Y-29283579D01*
X124373240Y-29370800D01*
X124294484Y-29525368D01*
X124246509Y-29576164D01*
X124178688Y-29592959D01*
X124112553Y-29570422D01*
X124069102Y-29515706D01*
X124059999Y-29469073D01*
X124059999Y-29055214D01*
X124059997Y-29055191D01*
X124057091Y-29030130D01*
X124057090Y-29030126D01*
X124011788Y-28927525D01*
X124011785Y-28927520D01*
X123932479Y-28848214D01*
X123932474Y-28848211D01*
X123829876Y-28802910D01*
X123804794Y-28800000D01*
X123010000Y-28800000D01*
X123010000Y-29574318D01*
X122919244Y-29550000D01*
X122800756Y-29550000D01*
X122710000Y-29574318D01*
X122710000Y-28800000D01*
X121915214Y-28800000D01*
X121915191Y-28800002D01*
X121890130Y-28802908D01*
X121890126Y-28802909D01*
X121787525Y-28848211D01*
X121787520Y-28848214D01*
X121708214Y-28927520D01*
X121708211Y-28927525D01*
X121662910Y-29030122D01*
X121662910Y-29030124D01*
X121660000Y-29055205D01*
X118522014Y-29055205D01*
X118409199Y-28973240D01*
X118401470Y-28969302D01*
X118240836Y-28887454D01*
X118061118Y-28829059D01*
X117874486Y-28799500D01*
X117874481Y-28799500D01*
X117685519Y-28799500D01*
X117685514Y-28799500D01*
X117498881Y-28829059D01*
X117319163Y-28887454D01*
X117150800Y-28973240D01*
X117072499Y-29030130D01*
X116997927Y-29084310D01*
X116997925Y-29084312D01*
X116997924Y-29084312D01*
X116864312Y-29217924D01*
X116864312Y-29217925D01*
X116864310Y-29217927D01*
X116816610Y-29283579D01*
X116753240Y-29370800D01*
X116674484Y-29525368D01*
X116626509Y-29576164D01*
X116558688Y-29592959D01*
X116492553Y-29570422D01*
X116449102Y-29515706D01*
X116439999Y-29469073D01*
X116439999Y-29055214D01*
X116439997Y-29055191D01*
X116437091Y-29030130D01*
X116437090Y-29030126D01*
X116391788Y-28927525D01*
X116391785Y-28927520D01*
X116312479Y-28848214D01*
X116312474Y-28848211D01*
X116209876Y-28802910D01*
X116184794Y-28800000D01*
X115390000Y-28800000D01*
X115390000Y-29574318D01*
X115299244Y-29550000D01*
X115180756Y-29550000D01*
X115090000Y-29574318D01*
X115090000Y-28800000D01*
X114295214Y-28800000D01*
X114295191Y-28800002D01*
X114270130Y-28802908D01*
X114270126Y-28802909D01*
X114167525Y-28848211D01*
X114167520Y-28848214D01*
X114088214Y-28927520D01*
X114088211Y-28927525D01*
X114042910Y-29030122D01*
X114042910Y-29030124D01*
X114040000Y-29055205D01*
X108522014Y-29055205D01*
X108409199Y-28973240D01*
X108401470Y-28969302D01*
X108240836Y-28887454D01*
X108061118Y-28829059D01*
X107874486Y-28799500D01*
X107874481Y-28799500D01*
X107685519Y-28799500D01*
X107685514Y-28799500D01*
X107498881Y-28829059D01*
X107319163Y-28887454D01*
X107150800Y-28973240D01*
X107072499Y-29030130D01*
X106997927Y-29084310D01*
X106997925Y-29084312D01*
X106997924Y-29084312D01*
X106864312Y-29217924D01*
X106864312Y-29217925D01*
X106864310Y-29217927D01*
X106816610Y-29283579D01*
X106753240Y-29370800D01*
X106674484Y-29525368D01*
X106626509Y-29576164D01*
X106558688Y-29592959D01*
X106492553Y-29570422D01*
X106449102Y-29515706D01*
X106439999Y-29469073D01*
X106439999Y-29055214D01*
X106439997Y-29055191D01*
X106437091Y-29030130D01*
X106437090Y-29030126D01*
X106391788Y-28927525D01*
X106391785Y-28927520D01*
X106312479Y-28848214D01*
X106312474Y-28848211D01*
X106209876Y-28802910D01*
X106184794Y-28800000D01*
X105390000Y-28800000D01*
X105390000Y-29574318D01*
X105299244Y-29550000D01*
X105180756Y-29550000D01*
X105090000Y-29574318D01*
X105090000Y-28800000D01*
X104295214Y-28800000D01*
X104295191Y-28800002D01*
X104270130Y-28802908D01*
X104270126Y-28802909D01*
X104167525Y-28848211D01*
X104167520Y-28848214D01*
X104088214Y-28927520D01*
X104088211Y-28927525D01*
X104042910Y-29030122D01*
X104042910Y-29030124D01*
X104040000Y-29055205D01*
X100902014Y-29055205D01*
X100789199Y-28973240D01*
X100781470Y-28969302D01*
X100620836Y-28887454D01*
X100441118Y-28829059D01*
X100254486Y-28799500D01*
X100254481Y-28799500D01*
X100065519Y-28799500D01*
X100065514Y-28799500D01*
X99878881Y-28829059D01*
X99699163Y-28887454D01*
X99530800Y-28973240D01*
X99452499Y-29030130D01*
X99377927Y-29084310D01*
X99377925Y-29084312D01*
X99377924Y-29084312D01*
X99244312Y-29217924D01*
X99244312Y-29217925D01*
X99244310Y-29217927D01*
X99196610Y-29283579D01*
X99133240Y-29370800D01*
X99054484Y-29525368D01*
X99006509Y-29576164D01*
X98938688Y-29592959D01*
X98872553Y-29570422D01*
X98829102Y-29515706D01*
X98819999Y-29469073D01*
X98819999Y-29055214D01*
X98819997Y-29055191D01*
X98817091Y-29030130D01*
X98817090Y-29030126D01*
X98771788Y-28927525D01*
X98771785Y-28927520D01*
X98692479Y-28848214D01*
X98692474Y-28848211D01*
X98589876Y-28802910D01*
X98564794Y-28800000D01*
X97770000Y-28800000D01*
X97770000Y-29574318D01*
X97679244Y-29550000D01*
X97560756Y-29550000D01*
X97470000Y-29574318D01*
X97470000Y-28800000D01*
X96675214Y-28800000D01*
X96675191Y-28800002D01*
X96650130Y-28802908D01*
X96650126Y-28802909D01*
X96547525Y-28848211D01*
X96547520Y-28848214D01*
X96468214Y-28927520D01*
X96468211Y-28927525D01*
X96422910Y-29030122D01*
X96422910Y-29030124D01*
X96420000Y-29055205D01*
X90902014Y-29055205D01*
X90789199Y-28973240D01*
X90781470Y-28969302D01*
X90620836Y-28887454D01*
X90441118Y-28829059D01*
X90254486Y-28799500D01*
X90254481Y-28799500D01*
X90065519Y-28799500D01*
X90065514Y-28799500D01*
X89878881Y-28829059D01*
X89699163Y-28887454D01*
X89530800Y-28973240D01*
X89452499Y-29030130D01*
X89377927Y-29084310D01*
X89377925Y-29084312D01*
X89377924Y-29084312D01*
X89244312Y-29217924D01*
X89244312Y-29217925D01*
X89244310Y-29217927D01*
X89196610Y-29283579D01*
X89133240Y-29370800D01*
X89054484Y-29525368D01*
X89006509Y-29576164D01*
X88938688Y-29592959D01*
X88872553Y-29570422D01*
X88829102Y-29515706D01*
X88819999Y-29469073D01*
X88819999Y-29055214D01*
X88819997Y-29055191D01*
X88817091Y-29030130D01*
X88817090Y-29030126D01*
X88771788Y-28927525D01*
X88771785Y-28927520D01*
X88692479Y-28848214D01*
X88692474Y-28848211D01*
X88589876Y-28802910D01*
X88564794Y-28800000D01*
X87770000Y-28800000D01*
X87770000Y-29574318D01*
X87679244Y-29550000D01*
X87560756Y-29550000D01*
X87470000Y-29574318D01*
X87470000Y-28800000D01*
X86675214Y-28800000D01*
X86675191Y-28800002D01*
X86650130Y-28802908D01*
X86650126Y-28802909D01*
X86547525Y-28848211D01*
X86547520Y-28848214D01*
X86468214Y-28927520D01*
X86468211Y-28927525D01*
X86422910Y-29030122D01*
X86422910Y-29030124D01*
X86420000Y-29055205D01*
X83282014Y-29055205D01*
X83169199Y-28973240D01*
X83161470Y-28969302D01*
X83000836Y-28887454D01*
X82821118Y-28829059D01*
X82634486Y-28799500D01*
X82634481Y-28799500D01*
X82445519Y-28799500D01*
X82445514Y-28799500D01*
X82258881Y-28829059D01*
X82079163Y-28887454D01*
X81910800Y-28973240D01*
X81832499Y-29030130D01*
X81757927Y-29084310D01*
X81757925Y-29084312D01*
X81757924Y-29084312D01*
X81624312Y-29217924D01*
X81624312Y-29217925D01*
X81624310Y-29217927D01*
X81576610Y-29283579D01*
X81513240Y-29370800D01*
X81434484Y-29525368D01*
X81386509Y-29576164D01*
X81318688Y-29592959D01*
X81252553Y-29570422D01*
X81209102Y-29515706D01*
X81199999Y-29469073D01*
X81199999Y-29055214D01*
X81199997Y-29055191D01*
X81197091Y-29030130D01*
X81197090Y-29030126D01*
X81151788Y-28927525D01*
X81151785Y-28927520D01*
X81072479Y-28848214D01*
X81072474Y-28848211D01*
X80969876Y-28802910D01*
X80944794Y-28800000D01*
X80150000Y-28800000D01*
X80150000Y-29574318D01*
X80059244Y-29550000D01*
X79940756Y-29550000D01*
X79850000Y-29574318D01*
X79850000Y-28800000D01*
X79055214Y-28800000D01*
X79055191Y-28800002D01*
X79030130Y-28802908D01*
X79030126Y-28802909D01*
X78927525Y-28848211D01*
X78927520Y-28848214D01*
X78848214Y-28927520D01*
X78848211Y-28927525D01*
X78802910Y-29030122D01*
X78802910Y-29030124D01*
X78800000Y-29055205D01*
X73477585Y-29055205D01*
X76111524Y-26088261D01*
X76119556Y-26080020D01*
X76174654Y-26028508D01*
X76192843Y-26014425D01*
X76251640Y-25977080D01*
X76272113Y-25966606D01*
X76336793Y-25940776D01*
X76358862Y-25934262D01*
X76432873Y-25919719D01*
X76444267Y-25918025D01*
X82320116Y-25322332D01*
X109409500Y-25322332D01*
X109409500Y-25597667D01*
X109409501Y-25597684D01*
X109445438Y-25870655D01*
X109445439Y-25870660D01*
X109445440Y-25870666D01*
X109463078Y-25936491D01*
X109516704Y-26136630D01*
X109622075Y-26391017D01*
X109622080Y-26391028D01*
X109701809Y-26529121D01*
X109759751Y-26629479D01*
X109759753Y-26629482D01*
X109759754Y-26629483D01*
X109927370Y-26847926D01*
X109927376Y-26847933D01*
X110122066Y-27042623D01*
X110122072Y-27042628D01*
X110340521Y-27210249D01*
X110493778Y-27298732D01*
X110578971Y-27347919D01*
X110578976Y-27347921D01*
X110578979Y-27347923D01*
X110833368Y-27453295D01*
X111099334Y-27524560D01*
X111372326Y-27560500D01*
X111372333Y-27560500D01*
X111647667Y-27560500D01*
X111647674Y-27560500D01*
X111920666Y-27524560D01*
X112186632Y-27453295D01*
X112441021Y-27347923D01*
X112679479Y-27210249D01*
X112897928Y-27042628D01*
X113092628Y-26847928D01*
X113260249Y-26629479D01*
X113397923Y-26391021D01*
X113503295Y-26136632D01*
X113574560Y-25870666D01*
X113610500Y-25597674D01*
X113610500Y-25322326D01*
X113574560Y-25049334D01*
X113503295Y-24783368D01*
X113397923Y-24528979D01*
X113397921Y-24528976D01*
X113397919Y-24528971D01*
X113348732Y-24443778D01*
X113260249Y-24290521D01*
X113092628Y-24072072D01*
X113092623Y-24072066D01*
X112897933Y-23877376D01*
X112897926Y-23877370D01*
X112679483Y-23709754D01*
X112679482Y-23709753D01*
X112679479Y-23709751D01*
X112584407Y-23654861D01*
X112441028Y-23572080D01*
X112441017Y-23572075D01*
X112186630Y-23466704D01*
X112053649Y-23431072D01*
X111920666Y-23395440D01*
X111920660Y-23395439D01*
X111920655Y-23395438D01*
X111647684Y-23359501D01*
X111647679Y-23359500D01*
X111647674Y-23359500D01*
X111372326Y-23359500D01*
X111372320Y-23359500D01*
X111372315Y-23359501D01*
X111099344Y-23395438D01*
X111099337Y-23395439D01*
X111099334Y-23395440D01*
X111043125Y-23410500D01*
X110833369Y-23466704D01*
X110578982Y-23572075D01*
X110578971Y-23572080D01*
X110340516Y-23709754D01*
X110122073Y-23877370D01*
X110122066Y-23877376D01*
X109927376Y-24072066D01*
X109927370Y-24072073D01*
X109759754Y-24290516D01*
X109622080Y-24528971D01*
X109622075Y-24528982D01*
X109516704Y-24783369D01*
X109465715Y-24973666D01*
X109448660Y-25037319D01*
X109445441Y-25049331D01*
X109445438Y-25049344D01*
X109409501Y-25322315D01*
X109409500Y-25322332D01*
X82320116Y-25322332D01*
X111366229Y-22377640D01*
X111366243Y-22377642D01*
X111394021Y-22374823D01*
X111394022Y-22374824D01*
X111399905Y-22374227D01*
X111399916Y-22374229D01*
X111399916Y-22374226D01*
X111399917Y-22374226D01*
X111457563Y-22368381D01*
X111461688Y-22368034D01*
X111488986Y-22366193D01*
X111497320Y-22365913D01*
X111522653Y-22365913D01*
X111530954Y-22366194D01*
G37*
%TD.AperFunction*%
%TD*%
M02*
